<?xml version="1.0" standalone="no"?>
<!DOCTYPE svg PUBLIC "-//W3C//DTD SVG 1.1//EN" "http://www.w3.org/Graphics/SVG/1.1/DTD/svg11.dtd"><svg t="1635692751800"
  class="icon" viewBox="0 0 1024 1024" version="1.1" xmlns="http://www.w3.org/2000/svg" p-id="8619"
  xmlns:xlink="http://www.w3.org/1999/xlink" width="200" height="200">
  <defs>
    <style type="text/css"></style>
  </defs>
  <path d="M816 816m-32 0a32 32 0 1 0 64 0 32 32 0 1 0-64 0Z" p-id="8620"></path>
  <path
    d="M512 968a456 456 0 1 1 395.76-229.36 32 32 0 0 1-55.52-32 392 392 0 1 0-145.44 145.44 32 32 0 0 1 32 55.52A456 456 0 0 1 512 968z"
    p-id="8621"></path>
  <path d="M704 544H320a32 32 0 0 1 0-64h384a32 32 0 0 1 0 64z" p-id="8622"></path>
  <path d="M512 736a32 32 0 0 1-32-32V320a32 32 0 0 1 64 0v384a32 32 0 0 1-32 32z" p-id="8623"></path>
</svg>