<?xml version="1.0" standalone="no"?>
<!DOCTYPE svg PUBLIC "-//W3C//DTD SVG 1.1//EN" "http://www.w3.org/Graphics/SVG/1.1/DTD/svg11.dtd"><svg t="1634982716877"
  class="icon" viewBox="0 0 1024 1024" version="1.1" xmlns="http://www.w3.org/2000/svg" p-id="9795"
  xmlns:xlink="http://www.w3.org/1999/xlink" width="200" height="200">
  <defs>
    <style type="text/css"></style>
  </defs>
  <path
    d="M836.26666667 34.13333333h-93.86666667v119.46666667h110.93333333V51.2c0-9.38666667-7.68-17.06666667-17.06666666-17.06666667zM170.66666667 51.2v921.6c0 9.38666667 7.68 17.06666667 17.06666666 17.06666667h537.6V34.13333333H187.73333333c-9.38666667 0-17.06666667 7.68-17.06666666 17.06666667z m68.26666666 76.8c0-9.38666667 7.68-17.06666667 17.06666667-17.06666667h170.66666667c9.38666667 0 17.06666667 7.68 17.06666666 17.06666667v563.2c0 9.38666667-7.68 17.06666667-17.06666666 17.06666667H256c-9.38666667 0-17.06666667-7.68-17.06666667-17.06666667V128zM819.2 870.4h-76.8v119.46666667h93.86666667c9.38666667 0 17.06666667-7.68 17.06666666-17.06666667v-102.4h-34.13333333zM819.2 375.46666667h-76.8v256h110.93333333V375.46666667h-17.06666666zM819.2 648.53333333h-76.8v204.8h110.93333333V648.53333333h-17.06666666zM819.2 170.66666667h-76.8v187.73333333h110.93333333V170.66666667h-17.06666666z"
    fill="#253f6d" p-id="9796"></path>
  <path
    d="M-524.3333332 256.5h17.7v22.8h6.7v-22.8h17.8v3.9h6.5v-32.9h-24.2v-11.8h-6.7v11.8h-24.2v32.9h6.5v-3.9z m24.4-22.7h17.8v16.4h-17.8v-16.4z m-24.4 0h17.7v16.4H-524.3333332v-16.4zM-525.3333332 366.8h44.1v2.6h6.5v-60.1h-57.2v60.1h6.5v-2.6z m0-51.5h44.1v45.4H-525.3333332v-45.4z"
    fill="#141414" p-id="9797"></path>
  <path
    d="M-487.7333332 347.8c-1.2-2.6-2.5-4.9-4.1-7.1l-5.1 1.6c1.4 2 2.7 4.4 3.9 7.1h-7V340h11.4v-5.7h-11.4v-8.4h13.5V320h-33.7v5.9h13.6v8.4h-11.4v5.7h11.4v9.5h-15.5v5.9h37.5v-5.9h-7l3.9-1.7zM-520.7333332 426.6v-20.7h32.2v21.6c0 12.9 0.8 21.4 2.5 25.6 1.6 4.3 4.2 6.5 7.8 6.5 1.4 0 2.7-0.9 3.8-2.5 1-1.8 2-5.3 2.9-10.5l-5.8-2.8c-0.4 5.4-1 8.1-1.6 8.1-0.8 0-1.5-1.5-2-4.4-0.7-2.9-1-9.6-1-20v-27.9h-45.3v27c-0.2 11.7-2.7 21.5-7.3 29.2l5.5 4.4c5.4-9 8.2-20.3 8.3-33.6z"
    fill="#253f6d" p-id="9798"></path>
  <path
    d="M-85.99999993 411.6l-6.4-1.1c-1.5 5.3-3.4 10.3-5.9 14.9-3.1-4.1-6.4-8.4-10-12.9l-5.3 3.3c4.2 5.5 8 10.7 11.6 15.7-3.9 5.7-8.8 10.8-14.6 15.1l4.4 5.5c5.5-4.1 10.2-9 14.3-14.6 3.1 4.6 5.9 9.1 8.3 13.5l5.8-4c-2.8-4.8-6.2-10-10.1-15.7 3.2-5.8 5.9-12.3 7.9-19.7z"
    fill="#253f6d" p-id="9799"></path>
  <!-- <path
    d="M426.66666667 110.93333333H256c-9.38666667 0-17.06666667 7.68-17.06666667 17.06666667v563.2c0 9.38666667 7.68 17.06666667 17.06666667 17.06666667h170.66666667c9.38666667 0 17.06666667-7.68 17.06666666-17.06666667V128c0-9.38666667-7.68-17.06666667-17.06666666-17.06666667z m-17.06666667 563.2H273.06666667V145.06666667h136.53333333v529.06666666z"
    fill="#253f6d" p-id="9800"></path> -->
  <!-- <path d="M307.2 571.73333333h68.26666667v68.26666667h-68.26666667z" fill="#253f6d" p-id="9801"></path> -->
</svg>