<?xml version="1.0" standalone="no"?><!DOCTYPE svg PUBLIC "-//W3C//DTD SVG 1.1//EN" "http://www.w3.org/Graphics/SVG/1.1/DTD/svg11.dtd"><svg t="1633876451796" class="icon" viewBox="0 0 1024 1024" version="1.1" xmlns="http://www.w3.org/2000/svg" p-id="965" xmlns:xlink="http://www.w3.org/1999/xlink" width="200" height="200"><defs><style type="text/css"></style></defs><path d="M519.68 931.84c0.512-3.584 0.512 0.512 1.024 2.56 0 1.536 0.512-5.632 0.512-3.584 0-4.608 0.512 0.512 0.512 1.024v-4.096c0-0.512 0-3.584 0 0v-4.096-3.072-1.024-2.048-3.584V912.896 915.968c0-3.072 0-3.072-0.512-3.072 0 0.512 0 1.024-0.512-4.096v-1.536 3.072c0 2.048-0.512 0-0.512-0.512 0-1.024-0.512 0.512-0.512 0 0 4.096-0.512 4.096-0.512 3.584 0 1.024-0.512-0.512-0.512 0 0 1.024-0.512-2.56-0.512-1.024 0-3.072-0.512-2.048-1.024-3.584v20.992c0-5.12 0-1.536 0 0v3.584c0 0.512 0-4.096 0.512-0.512V936.96c0 1.024 0 1.536 0.512 0l0.512 2.048v-0.512-4.096c0.512 4.096 0.512 2.048 1.024-2.56zM636.416 920.064v-0.512-1.024 1.536zM452.096 931.84v0zM570.88 922.624v0zM635.392 913.92V915.456c0-4.608 0-4.096-0.512 0.512 0 0.512 0.512 1.024 0.512 3.072 0-0.512 0.512-1.024 0.512-1.024 0-2.56-0.512-5.632-0.512-4.096zM571.392 924.672c0 7.68 0.512 3.072 1.024 1.536-0.512 0.512-1.024-0.512-1.024-1.536zM638.976 926.208v5.12c0-0.512 0.512 1.536 0.512 2.048-0.512 1.024-0.512-8.192-0.512-7.168 0 2.56 0-8.704 0 0zM473.088 918.016c0.512 7.68 1.024 1.536 1.536 2.048 0 2.048 0.512-1.024 0.512-3.584 0 3.584 0-5.12 0.512-1.536v-4.096c0 2.56-0.512 4.096-1.024 0-0.512-3.584-1.024 2.56-1.536-2.56-0.512 10.752-0.512 5.632-1.024 1.536-0.512 1.024-0.512-4.096-1.024-0.512 0 0.512 0-1.024-0.512-2.048V916.992c0-0.512 0 0 0.512 1.024 0-1.024 0.512-1.024 0.512 3.072 0-3.584 0-2.56 0.512-1.536v-3.072c0.512-0.512 0.512 0 1.024 1.536zM475.136 910.848v-1.024 1.024zM568.32 908.8c0-3.072-0.512 1.024-1.024 1.536 0-2.048-0.512-2.56-0.512-2.56s-0.512 1.024-1.024 2.56c-0.512-0.512-1.024-2.048-2.048-1.024v11.264c0.512-2.048 1.536 2.56 2.048 0.512 0.512-6.656 0.512-6.144 1.024-4.096 0-0.512 0.512-1.536 0.512 2.048 0.512-0.512 0.512-3.072 1.024-4.096 0-3.072 0.512-6.144 0.512-0.512 0-5.12 0-8.192-0.512-5.632z" fill="#d81e06" p-id="966"></path><path d="M544.768 58.88c-250.368 0-453.12 202.752-453.12 453.12s202.752 453.12 453.12 453.12 453.12-202.752 453.12-453.12-202.752-453.12-453.12-453.12zM458.752 926.72c0 4.096-0.512-1.536-0.512 6.656-0.512 0.512-0.512 1.536-1.024-0.512-0.512 4.608-1.024 5.12-1.536 3.584-0.512 0-1.024 6.656-1.536 3.072-0.512 0.512-1.024-1.536-1.536-1.536-0.512 0.512-1.536-1.024-2.048-2.048 0-0.512-0.512-0.512-0.512-0.512-0.512 1.536-0.512 1.024-1.024 0.512 0 0.512 0 1.024-0.512 3.072-1.024-0.512-1.536-1.024-2.56-4.608v-0.512 1.536c-0.512 1.536-1.024-0.512-1.536-1.536 0 1.536-0.512 3.072-0.512 4.608-0.512-2.048-1.024-3.584-1.536-3.584 0 1.024 0 1.024 0 0 0 0-0.512 0.512-0.512 1.536-1.024 2.048-1.536 2.56-2.56-0.512V931.84v-4.608 0s0-0.512 0 0c0.512-4.096 3.072-6.144 3.072 0.512 0 0 0 5.12 0.512 6.656v-4.096c0.512 8.192 1.024-1.024 1.536 2.56 0-0.512 0.512 0 0.512 0.512 0.512-3.072 1.024-4.608 1.536 0 0.512-4.608 0.512-0.512 1.024-1.536 0.512 7.168 1.024 7.68 1.536 3.584 0 0 0.512 0 0.512 0.512 0.512-1.024 0.512 0.512 1.024-0.512h0.512c0.512-1.024 1.024-2.048 1.536-1.024 0-2.048 0.512-4.096 0.512-5.12-0.512-1.024-1.024-4.608-1.536-2.56 0-3.584-0.512 0.512-1.024-3.072s-0.512-6.144-1.024 1.536c-0.512 10.752-1.024-1.024-1.024 0-0.512 0-1.024-2.56-1.536-2.048-0.512-2.048-1.024 4.608-1.536 0.512-0.512-3.584-1.024 0-1.536-2.56-0.512 1.024-0.512-1.536-1.024 2.048-0.512-1.536-0.512 1.024-0.512-3.584-1.024 1.024-1.536-1.024-2.048-2.56-0.512 5.632-0.512 5.632-0.512-2.56 0-5.12 0.512-6.656 1.024-4.096 0.512-7.68 0.512-6.144 1.024-4.608 0.512-1.536 1.024 0.512 1.536 1.536 1.024-3.072 2.048 3.072 3.072-1.536 0.512 3.072 1.024-1.536 2.048 1.024 0.512 0 1.536-0.512 2.048-1.536 0 0.512 0.512 0.512 0.512 0.512 1.024 0 2.56-3.072 3.584 0.512 0.512-1.024 1.536-1.024 2.048-1.024 1.024-2.048 1.536-0.512 2.56 3.072v7.168c0 0.512 0 0 0 0 0 2.048-3.072-2.048-3.072 0 0-5.632-0.512 1.536-0.512-2.56-0.512-6.144-0.512-5.12-1.024-2.048-0.512-0.512-0.512 0.512-1.024 1.024s-0.512 0-1.024-3.072c-0.512 5.632-1.024-2.56-1.536-3.072 0 0-0.512 1.024-0.512 2.56-0.512-2.048-1.024-2.048-1.536-1.024-0.512 4.608-1.024 2.048-1.024 2.048-0.512 1.024-1.024 6.656-1.024 6.656v0.512c0-0.512 0 0 0.512-2.56 0.512-4.096 1.024 1.024 1.536 2.048 0-3.072 0-1.024 0.512 1.536 0-3.072 0.512 2.048 1.024-0.512 0.512-6.144 0.512 2.048 1.024 2.048 0 0.512 0.512-2.56 0.512 2.048 0-0.512 0.512-0.512 0.512-2.048 1.024 2.56 1.536 6.144 2.048 6.144 0.512 0 1.024-4.608 1.536-3.072 1.024 8.192 1.536 6.144 1.536 1.536 0.512 0.512 1.024 6.656 1.024 3.072 0.512 7.168 0.512 3.072 1.024 0 0 2.048 0.512-1.024 0.512-1.024v4.608c-1.536-1.536-1.536-5.632-1.536-3.584z m23.552-9.728v5.632c0 1.536 0 2.56-0.512-3.584 0-1.536-0.512 4.096-1.024 2.56-0.512-4.096-0.512-1.024-1.024 0.512-0.512-1.536-1.024 3.072-1.024-1.024-0.512 1.024-1.024 2.56-1.536 2.56 0 4.608 0 1.536-0.512 3.584 0-0.512 0-3.072-0.512-1.024 0 3.072-0.512-1.024-0.512-3.072 0 0-0.512-5.12-0.512-3.072-0.512 3.584-0.512 1.536-1.024 1.024-0.512 4.096-0.512 2.56-1.024 3.584 0 0.512 0 1.536-0.512 1.536s-1.024-0.512-1.024-2.56c0 0.512 0-1.024-0.512-1.536-0.512 3.072-0.512 3.584-1.024 0v-1.536 0.512c0 1.536 0 1.024-0.512 0V934.912c0-2.048 0-2.56 0.512-3.072 0-1.024 0.512 1.536 0.512 0.512 0.512 5.12 0.512 1.536 1.024 3.584v3.072c0 6.656 0 5.12-0.512 4.608-0.512-2.048-0.512-10.24-1.536-0.512-0.512 0.512-1.024 0-2.048-2.56-0.512-1.024-1.536-4.608-2.048-1.536-0.512 5.12-1.536-0.512-2.048-1.024-0.512-3.584-1.024-4.096-1.536-2.048v1.024c0 0.512 0 1.536-0.512 2.048-0.512-1.024-1.024-2.048-1.536 2.048-0.512 1.024-0.512-1.536-0.512-2.048v-3.072c1.024 1.024 1.536 0.512 2.048-1.536V932.352v-2.56-0.512-0.512-0.512-1.024-0.512-0.512-1.536-4.608-2.048-4.608-0.512-2.56c0 3.072 0 6.656-0.512 2.048 0-1.024-0.512-2.048-0.512-1.536-0.512-3.584-1.024-12.288-1.536-2.048v-3.072c0-4.096 1.024-2.56 2.048-0.512 0.512 1.024 1.536 1.024 2.048-1.536 0.512-2.048 1.536 4.608 2.56 2.048 1.024 3.584 1.536-1.024 2.56 0.512 0-1.024 0-0.512 0 0 0.512 0 1.024 1.024 1.536-1.536 1.024-2.048 2.048 2.56 2.048 1.024 0.512 2.56 0.512 4.096 1.024 4.608v-0.512c0-0.512 0-0.512 0 0v-1.024 2.048s0.512-0.512 0.512-1.024c0.512-4.096 0.512 2.56 0.512 1.536 0-7.168 0.512 5.632 0.512-4.608 0.512-1.024 1.024-4.096 1.536-1.024 0.512 2.56 1.024 2.048 1.024 2.56 0.512-1.536 1.024-1.536 1.024-2.56 0 4.096 0.512-4.096 0.512-1.024V910.848c0 1.024 0.512-1.024 0.512 3.072v3.584c3.584-1.536 3.584-1.024 3.584-0.512v-2.048 2.048z m19.456-10.24v2.048c0-0.512 0-1.024-0.512-1.024 0 0 0-0.512 0.512-1.024h-0.512c0 3.584-0.512 4.096-0.512 2.56 0 2.56-0.512 3.584-1.024-1.024v-1.536V932.864c0 1.024 0-1.024 0.512-2.56 0-0.512 0.512-3.072 0.512-0.512 0 1.024 0.512 0.512 0.512-2.56 0 1.024 0.512 3.584 0.512 6.656v2.56c0-2.56 0 0-0.512-1.024-0.512-3.072-1.024 2.56-1.536-1.536 0-0.512 0 0-0.512 0v0.512c0 0.512-0.512 0-0.512-2.048-0.512 5.632-0.512-8.192-1.024 1.536-0.512 1.024-1.536-3.072-2.048 1.536-0.512 10.752-1.536-3.072-2.048 2.56-0.512-1.536-1.536-3.584-2.048-0.512-1.024 0.512-2.048 2.048-2.048-1.536v-3.072c0.512 3.584 1.024 0 1.024 1.024 0.512-1.536 0.512-1.024 1.024-2.048 0.512-2.048 0.512 2.048 0.512-3.072v-0.512-2.048-0.512-0.512-1.536-0.512-1.536-1.024-1.536-1.024-2.56-1.536-2.56-2.048-0.512c0-6.144 0 0.512-0.512-3.072v-0.512 1.536c-0.512 5.632-1.024 0.512-1.536-0.512v-1.536s-0.512 0-0.512 0.512v-2.048-0.512-0.512c0-2.048 0-2.048 0.512 2.56 0.512-0.512 1.024 0 1.536 1.024 0.512-7.168 1.024-4.608 2.048-2.048 0.512 0.512 1.536-1.536 2.048-1.536 0.512-1.536 1.024-4.096 1.024-3.072 0-1.536 0.512 8.704 0.512 1.536 0-1.024 0.512 1.024 0.512 4.096 0.512 0.512 0.512-5.12 1.024-1.536 0 3.584 0.512 3.072 0.512 0 0-2.048 0.512-2.048 0.512 1.024 0-0.512 0.512 2.048 0.512-1.536 0 6.144 0.512-4.096 0.512-1.536 0.512 4.096 0.512 5.12 1.024 5.632v-1.024 1.024z m28.16 18.944c0 2.048 0 1.024 0 0v-1.536-1.024c-0.512 0-0.512-0.512 0 2.56-0.512 1.536-0.512 6.656-0.512 4.608 0 1.024 0-2.048-0.512-1.536v5.632c0 3.584 0 0-0.512 0.512 0-5.632-0.512-1.536-0.512-3.072 0 2.048-0.512 0-0.512 2.048-0.512-3.072-0.512 0-1.024 0-0.512 2.56-0.512 3.072-1.024 4.096-0.512-1.536-0.512-3.072-1.024-2.048-0.512 2.048-0.512-1.024-1.024 0.512-0.512-2.048-0.512-2.56-1.024 0.512 0-0.512-0.512 2.048-0.512 4.608 0 1.536-0.512 1.024-0.512 0.512-0.512 3.584-1.024-5.12-1.024-1.024 0 4.608-0.512 2.56-0.512 0 0 1.536-0.512-5.12-0.512-2.56v0.512c0 0.512 0-0.512 0 0 0 1.536 0-0.512-0.512-1.024V937.472v-0.512V936.448v1.024c0 5.632-0.512 4.608-1.536 2.56l-1.536-1.536c-0.512 1.536-1.024 1.536-1.536-1.024-0.512-2.56-0.512-2.048-1.024-3.072-0.512 1.024-0.512 0.512-1.024 0.512 0 1.536-0.512-1.024-0.512 2.048 0 2.048-0.512 1.024-0.512-1.024 0 1.536-0.512 0-0.512-1.024 0 0-0.512 0-0.512-0.512 0 1.536-0.512 3.584-0.512 2.56v-2.56s0 0.512 0.512 0.512v-1.024c0-1.536 0.512 0 0.512 1.024 0.512 0 0.512-0.512 0.512-1.536V930.816v-1.024-4.096-0.512-0.512-1.536-0.512-0.512-2.048-1.536-1.024-1.024-3.072-0.512-0.512-0.512-0.512-2.56 5.12c0-0.512 0-0.512 0 0 0-0.512 0-4.608-0.512-2.048 0 1.024-0.512 3.072-0.512 1.536v-1.536c0-1.024 0-5.632-0.512-4.608v-0.512-1.536-0.512c0-0.512 0.512 0 1.536-1.024 1.024 1.024 2.048 3.072 3.072 1.024 1.024-1.536 2.56 0 3.072-0.512 0.512-2.56 1.024-1.536 1.024-0.512 0.512 1.024 0.512 4.608 0.512 1.024 1.024 0 1.536 2.048 2.56 0 0 0.512 0 0.512 0.512 1.024s1.024-2.56 1.536 0c0.512-0.512 1.536 1.024 2.048 2.56 0.512 1.536 1.024 1.536 1.536 1.024 0.512-0.512 0.512 0 1.024-0.512 0 0 0-1.024 0.512 2.56 0 7.168 0 4.096 0.512 3.072 0 0 0-4.608 0.512-3.072 0-1.536 0-1.536 0.512 2.048v-1.536 3.072c0.512-3.072 0.512 2.048 0.512 4.096v3.584c-0.512 1.536-0.512 3.584-0.512 3.072z m22.528 8.192c0 5.12-0.512 3.584-0.512 5.632v-1.536c0 2.56-0.512-3.584-1.536 0-0.512 2.048-1.024-1.024-1.536-0.512-0.512-1.024-1.536-2.048-2.048 0.512-0.512-1.024-1.536-0.512-2.048-0.512-1.024 0.512-1.536 1.536-2.56 0.512 0-1.536-0.512-2.048-0.512-2.048s0 0.512 0 0c-0.512 0-1.024 1.536-1.536 0.512-1.024-2.048-1.536 3.584-2.048 1.536-0.512-3.584-1.536-5.632-2.048-2.56-0.512 0.512-1.024 4.096-1.536 3.072v1.024c0 1.536-0.512 1.536-0.512-1.536v-0.512-0.512c0 0.512 0 1.536-0.512 2.048 0 2.048-0.512 2.048-0.512-3.072V935.424v0.512c0-2.56 0.512 0 1.024 1.536v0.512s0.512 0.512 0.512 0V934.4c0-4.608 0 4.096 0.512 1.024v-3.584-4.608 4.096c0 3.072 0 3.072 0 0v-0.512-2.56-1.536-0.512-0.512-0.512-1.024-1.024-0.512-0.512-0.512-0.512-0.512-0.512s0-0.512 0 0v-1.536-0.512-0.512-0.512-3.584-0.512-0.512c0 2.56 0-5.632-0.512-3.072 0 0.512-0.512 3.072-0.512 3.072 0 1.024-0.512 0-1.024-1.536v-1.024-0.512-0.512-0.512-0.512-0.512-1.024-0.512 5.12c0-3.072 0.512-3.072 0.512-4.096 0-0.512 0.512-1.024 0.512-1.536 1.024-2.048 2.048 2.048 3.584 0 0.512 4.608 1.536 10.24 2.56 3.584 0.512 0 1.024 1.536 1.536 0.512v-1.024h0.512c0-0.512 0.512-1.536 0.512-3.072 0.512 0.512 1.024 1.536 1.536 3.072 1.024-1.024 1.536-1.024 2.56 0 0-0.512 0.512-1.536 0.512-2.56 1.536 0.512 2.56-2.56 3.584 0 0.512-3.072 1.024-3.072 1.024-2.048 0 1.024 0.512 1.024 0.512 2.048v7.68c0 3.072-2.56-3.584-2.56 0-0.512-3.072-1.536-2.048-2.048-3.584 0-0.512-0.512-1.024-1.024-1.536-0.512 2.048-1.024 2.048-1.536 1.536 0-0.512-0.512-0.512-0.512-1.024s-1.536 0-2.048 0c0 0.512 0 0.512-0.512 1.024v9.728c0-2.048 0.512 1.024 1.024-2.56 0.512 2.56 1.024 7.68 1.024 2.56 0.512-1.536 1.024-1.024 1.024 2.048 0.512-1.536 0.512 0.512 1.024-3.072 0.512-1.536 1.024-1.536 1.024-3.072 0-1.024 2.56-3.584 2.56 0v11.264c0 1.536-2.56-3.072-2.56 0s0 1.024-0.512-1.024c0-4.096-0.512-6.144-0.512-2.048-0.512-7.68-0.512 3.072-1.024-1.024-0.512 1.024-1.024 5.632-1.024 0 0 1.024-0.512 11.776-1.024 2.56-0.512 2.56-1.024 2.048-1.024-2.56v13.312c0-4.608 0.512-5.632 0.512-1.536 0 5.632 0.512 2.048 1.024 4.096 0.512-0.512 0.512-5.632 1.024-3.072 1.536-6.144 2.56-1.536 3.584-1.536 0.512-1.536 1.024-2.56 1.536-0.512 0.512-1.024 1.024-1.536 1.024-3.584 0-1.024 2.048 3.584 2.56 1.536v-1.536 1.536c-0.512 1.024-0.512 2.048-1.024 2.56z m24.576 3.072v1.024c0-4.096-1.536 0.512-2.56 0-0.512 0-1.536-1.024-2.048 0.512-0.512 4.608-1.024 5.632-1.024-0.512-0.512-0.512-0.512-1.024-1.024-4.096-0.512-6.144-0.512-1.536-1.024 1.536-0.512 5.12-0.512 8.192-1.024 3.072 0 0.512-0.512-1.024-0.512-2.56s-0.512-1.536-0.512-4.608c0-2.048 0-5.12-0.512-4.608-0.512 1.024-0.512-2.56-1.024 0.512 0-3.584-0.512-4.608-0.512-2.048 0 1.024-0.512 0.512-0.512-4.096 0 1.024 0 4.096-0.512-0.512V934.912c0 1.536 0-1.024 0.512-2.048 0 0.512 0.512-3.584 0.512-3.072 0 3.072 0 0.512 0.512 0 0 0 0.512-2.048 0.512 3.584v2.56c0 4.096-0.512 2.56-1.536 0.512-1.024-3.072-2.048-0.512-3.584-0.512-1.024 1.024-2.56 0-3.584-3.072-0.512-0.512-0.512-0.512-1.024-0.512 0 0.512-0.512 1.024-0.512 1.024V932.864c0-0.512 0-1.024 0.512-1.024 0.512-1.536 0.512-3.584 1.024-0.512 0-4.096 0.512-6.656 0.512-7.68V923.136v-1.536-2.56-0.512-4.608-0.512-2.048-2.56-3.584c0-2.048 0 1.536-0.512 0.512 0-0.512-0.512-2.048-0.512-2.56 0 2.56-0.512-1.024-1.024 1.536v-3.072c0 1.536 0.512 1.536 1.024 1.536v-0.512l1.024-1.024c1.024 4.096 2.56-1.024 3.584-0.512 1.536-2.56 2.56-1.024 3.584-1.024 1.024 0.512 1.536 1.024 1.536 1.024 0.512-2.048 1.024-2.048 2.048-1.024 0.512-1.024 1.024 8.192 1.536 1.536 0.512-4.608 1.024-1.536 1.536 1.024 0.512 2.56 1.024 2.56 1.536 0.512 1.024 3.584 1.536 1.024 2.048 3.072 0 1.024 0.512 2.56 0.512 4.096 0 1.024 0.512-5.12 0.512 0v0c0 1.024-0.512 5.12-1.024 4.096-0.512-3.584-1.024 1.536-1.536 2.56 0 2.56-0.512 3.584-0.512 4.096 0 2.56 0.512 3.584 0.512 7.68 0 2.56 0.512 6.656 0.512 0.512v-4.608c0.512 3.584 0.512 5.632 1.024 4.096 0.512-0.512 0.512 6.144 1.024 0 0.512-0.512 0.512-3.584 0.512-1.024 0-2.048 0.512 2.048 0.512 2.56-0.512 6.144-0.512 6.656-0.512 6.656z m47.616 0v1.536c0 1.024 0-1.024-0.512-2.56v-0.512c0-1.024-0.512-1.024-1.024 3.072-0.512 1.024-1.024-1.536-1.536-2.048-0.512 3.072-1.024-1.536-1.536 1.536-0.512-6.656-1.024-2.56-1.536-5.12-0.512 2.56-1.024-3.072-1.536 4.096-0.512 1.024-0.512 1.536-1.024 2.048 0 0.512 0 0.512 0 0 0 0-0.512-0.512-0.512-1.536v-1.536-1.536c0 2.048 0 3.584 0.512 4.096v-1.536s0.512-2.56 0.512-3.584c0-1.024 0-5.12 0.512-5.12V927.744v-0.512-1.024-0.512-0.512-0.512-1.024-0.512-4.608V916.48c0-4.608 0-1.536-0.512 3.072 0 3.584 0 2.56-0.512 3.072 0 4.608-0.512-1.536-0.512-0.512v4.608c0 2.048 0-1.024-0.512-2.56 0-4.096 0 4.096-0.512 2.048v9.728c0 2.56 0 0.512 0 0v1.536c0-3.584-0.512-0.512-1.536-1.536-0.512 2.56-0.512-3.072-1.024-0.512-0.512 3.584-0.512 4.608-0.512 1.536v-3.072c0-3.072 0 4.608-0.512 0.512 0-1.536 0-7.168-0.512-4.608v1.536c0-4.096 0 1.024-0.512-4.608 0-2.56-0.512-2.56-1.024-3.072-0.512 6.656-0.512 5.632-1.024-1.024 0 2.56 0 6.144-0.512-2.56v-2.048 11.264c0 3.584 0 2.56 0.512 3.072v1.024c0-0.512 0.512-0.512 0.512-0.512 0-6.144 0.512-8.192 0.512 0.512v2.56c0-0.512 0-3.072-0.512-3.584v2.56c0 2.048 0-0.512-0.512-2.048-0.512 0.512-1.536 6.656-2.048 3.072-0.512-2.56-1.536 3.584-2.048-1.536 0-1.024 0-1.536-0.512-2.048 0 0.512-0.512 0.512-0.512 1.024V933.376c0-1.536 0.512-2.048 0.512-1.024 0.512-0.512 0.512-0.512 0.512 0 0.512-2.56 0.512-3.584 0.512-3.584v-1.024-0.512-3.072-3.072-5.632-3.072-2.048c0-3.584 0 1.536-0.512 1.536 0 0-0.512-2.56-0.512-4.608-0.512 0.512-0.512 0.512-0.512-1.024v-2.56 2.56c0-1.024 0.512-0.512 0.512 1.024 0.512-1.024 2.048-6.656 3.072-3.584 1.024-2.048 2.048 9.728 2.56 5.632 0.512 1.024 1.024-2.56 1.024-5.632v6.144c0 2.56 0-0.512 0.512-1.024 0-3.072 0.512-1.536 0.512 3.072 0 1.024 0.512 3.584 0.512 3.584 0 4.608 0.512 4.096 0.512 0.512 0 1.536 0.512 6.144 0.512 3.584 0-4.096 0.512 6.656 0.512 1.024 0 6.656 0-2.048 0.512 0 0-7.68 0.512-2.56 0.512-3.072 0 2.048 0 1.536 0.512 4.096 0 0.512 0 0 0.512-1.536v-2.048-4.096s0.512-9.216 0.512-5.632c0 0.512 0 0.512 0.512 1.536v-1.024-3.072-1.024-1.536c0 6.656 0 6.144 0.512 4.096 0 1.536 0.512-1.536 1.024-2.56 0.512-2.56 1.536-1.024 2.56-1.536 1.024-0.512 2.048-2.048 2.56-2.56 0.512 1.024 1.024-3.072 1.024 2.56v2.56c0 1.536-0.512-1.024-0.512-0.512-0.512-3.072-0.512-5.12-0.512 3.584V929.28c0 7.168 0-2.56 0.512 3.072 0-8.192 0.512-2.56 0.512-3.584 0 2.56 0 3.584 0.512 4.608v0.512c0 0.512 0 0.512 0.512-0.512v3.584z m23.04-0.512s0 0.512 0 0v2.048c0 1.024 0 1.024-0.512 3.072-0.512 3.072-0.512-0.512-1.024-4.096-1.024 0.512-2.048-4.096-3.584 0.512-1.536-1.024-2.56 1.536-3.584-1.024-1.024 4.096-1.536 8.704-1.536 1.024v-3.072c0.512-6.144 1.024-6.144 1.536-3.072v-1.024-1.024c0-1.024-0.512-2.56-0.512-1.536 0-2.56-0.512-3.584-0.512-6.144v3.072c0 1.024-1.024-2.048-2.048 4.096-1.024-3.072-2.048 2.048-2.048-4.096v-2.56c0-1.536 0 6.656-0.512 4.608-0.512 3.584-0.512 0-0.512 2.56 0-2.048-0.512-3.072-0.512-0.512v2.048c0 0.512 0 2.56 0.512 3.072v-0.512c0.512-3.072 0.512-1.024 1.024 1.024 0-0.512 0-0.512 0.512-1.024v3.072c0 2.048 0 0-0.512-2.048-0.512 1.536-0.512 1.536-1.024-0.512-0.512 1.024-1.536 3.584-2.048 2.56-0.512 1.536-1.024 3.584-1.024 3.072-0.512 1.536-0.512-1.024-1.024-0.512s-1.024 1.536-1.024-2.56v-2.048-1.024c0.512 3.584 1.024-2.048 1.536-1.024 0 1.024 0.512-6.656 0.512-2.56 0 1.024 0.512-2.048 0.512 0v-4.608-2.56c0-2.048 0.512 6.144 1.024 1.536 0-5.632 0.512-2.56 0.512-3.584 0 1.536 0.512 1.024 0.512-1.024 0 1.024 0.512 0 0.512-3.584 0-2.56 0.512-4.608 0.512-1.536 0.512-6.656 0.512-0.512 1.024-3.584v-2.048c0-0.512-0.512 2.048-0.512-3.072v-3.072c-0.512-1.536-0.512-1.024-0.512 0v-2.048c0-1.024 0-1.536 0.512 1.536 0 0.512 0.512 1.536 0.512 2.56 0.512-6.144 1.536-5.12 2.56-2.048 1.024-3.584 1.536 0 2.56 1.536 0.512 5.12 1.024-5.632 1.024-1.536v1.536c0-2.56 0.512-6.144 0.512 2.56 0.512-6.144 0.512 0 1.024 2.56 0-7.68 0.512-3.072 0.512 2.048s0.512 6.144 0.512 4.096c0 1.024 0.512 4.608 0.512 3.072 0 0 0.512-4.608 0.512 3.584 0-2.56 0.512-5.632 0.512-1.024 0 0.512 0.512 2.56 0.512 4.096 0.512 1.024 0.512-7.168 0.512-0.512v4.608c0-3.584 0.512 0 0.512 4.608 0-2.048 0.512 0.512 0.512-1.536 0 4.096 0.512-6.144 0.512 4.096 0 2.56 0.512-1.024 0.512-3.072v2.56z m23.552-28.672v1.024c-0.512 1.536-1.024-7.68-1.536 0-0.512 1.536-0.512 9.728-0.512 3.072v27.136c0 3.072-1.024 9.728-1.536 2.048-1.024 3.584-1.536 2.048-1.536-2.048 0 0 0 6.144-0.512 2.56-0.512 0-0.512 6.144-1.024-6.144-0.512-5.632-1.024 5.12-2.048-6.656-0.512-7.168-1.536-4.096-2.048-1.024-0.512-11.264-1.536-2.56-2.048-4.608-0.512 7.168-1.024-10.752-2.048-3.072-0.512-5.12-1.024-5.12-1.024-2.048-0.512 3.072-0.512 7.168-0.512-1.536v18.944c0 2.048 0 0.512 0.512-2.048 0-4.608 0.512 5.12 0.512 4.096 0.512-3.072 1.024 0.512 1.536-2.56V937.984c0 7.68-0.512 5.12-1.024 1.024-0.512-3.072-1.536 0-2.56-1.024-0.512-2.56-1.024-2.048-1.536-1.024 0 0.512 0 1.024 0 0v0.512c-0.512 1.024-0.512 1.536-1.024 2.56-0.512 1.536-1.024 0.512-1.024-2.048v-3.072c1.024-8.192 1.536 0.512 2.048-1.024V929.792v-1.536-0.512-2.56-2.048-0.512-7.168-4.608c0-3.072-0.512-2.56-1.024-5.12-0.512 5.12-1.024 11.776-1.024 3.072v-3.072c0-5.632 0.512 2.048 1.024-1.536 0.512-3.072 1.536 1.024 2.048 1.536 0.512 0.512 1.024 6.144 1.536 6.144 0.512-3.584 1.024 0 1.024 2.048 0.512-2.048 0.512-8.192 0.512-8.704 0-7.168 0.512-5.632 0.512-3.584 0.512 2.048 1.024 7.68 2.048 8.192 0.512 8.704 1.536 6.144 2.56 7.168 1.024 3.584 1.536 0.512 2.56 2.048 0.512 3.584 1.536-5.632 2.048 4.608 0.512 3.584 0.512 10.24 0.512 0.512v-1.536-1.024-0.512-3.584-4.608-0.512c0 0.512-0.512 0.512-0.512 0-0.512 2.048-1.024 1.024-1.536-4.096v-3.072c0-3.584 0.512 1.536 1.024 2.56 0 2.56 0.512 3.584 0.512 4.608 0-0.512 0-1.536 0.512-3.072v-3.584 6.656c0.512-1.024 1.024-4.608 1.536-7.168 1.024-8.704 1.536 3.072 2.56-1.536 0.512 2.048 1.024 4.096 1.024 1.536-0.512 1.536-0.512 3.072-0.512 2.56z m123.392-359.936l-7.68 78.336-25.6 80.896-40.96 83.456 26.624-79.36 14.848-74.752 3.584-97.792L634.88 425.472l-42.496-4.096 52.736 43.52 8.192-2.56c6.144 335.872-73.216 389.12-73.216 389.12 66.048-86.016 43.52-359.424 43.52-359.424 14.848-23.552-46.08-59.904-46.08-59.904l1.024 11.264c3.584 0.512 6.656 2.56 8.704 5.632 1.024 1.536 2.048 3.072 2.56 5.632 0.512 7.168 0.512 0 1.024 3.584 0 10.752 0.512 1.024 0.512 3.584 0-5.12 0 1.536 0.512 4.608v13.824c0-12.288-0.512 5.12-0.512 3.072 0 5.12 0-11.264-0.512 3.584 0-7.68-0.512 9.216-0.512 4.096 0 2.048-0.512 8.704-0.512 5.12 0-10.24-0.512-2.048-0.512 0 0 9.216-0.512 3.584-0.512 4.608 0-5.12-0.512-10.24-0.512 2.048 0-5.632-0.512-9.728-0.512 3.072 0-7.168 0-5.12-0.512-1.536 0 3.584 0 9.728-0.512 6.144 0-0.512-0.512 7.168-0.512 4.608v-1.024 8.192c0 5.12 0 10.24-0.512 8.704 0 3.072 0-1.536-0.512-8.192 0-7.168-0.512-7.68-1.024 2.048 0-3.584-0.512 3.072-0.512 1.536 0 3.072-0.512 7.168-0.512 1.024 0-2.048-0.512 1.024-0.512 6.656 0-1.536-0.512-1.536-0.512-3.072-0.512 3.072-0.512-3.072-1.024 2.56V522.24v14.336c-0.512 6.144-0.512 3.072-1.024 2.56 0-5.12-0.512-2.56-0.512-0.512 0 4.608-0.512 7.168-0.512 2.56 0-3.584-0.512-5.12-0.512 0.512 0 8.192-0.512 1.536-0.512 4.096v7.168c0-4.096-0.512 2.048-0.512-1.536 0 3.072-0.512 5.632-0.512 6.656 0 3.584-0.512-5.12-0.512-6.656-0.512 5.12-0.512-6.144-1.024-0.512-0.512 5.12-0.512 6.144-1.024 5.632V563.2c0 1.536-0.512 1.536-0.512 3.584v-2.048 5.632c0-0.512-0.512-3.072-0.512 1.024v-0.512-4.096V573.44c0-5.632-0.512-2.048-0.512-1.536 0 1.536-0.512 3.584-0.512-1.024 0 4.608-0.512 0-0.512 1.024 0-7.168-0.512 13.312-0.512 5.12 0-12.288-0.512 1.024-0.512 0.512 0 6.656-0.512-6.656-0.512 6.144 0 5.632-0.512-10.24-0.512 1.024V583.168c0 7.68-0.512-4.096-0.512 3.584V585.728v10.24c-0.512-11.264-0.512-4.608-1.024-3.584 0-8.192-0.512 2.048-0.512-2.56v-5.12V599.552c0 2.56 0 2.048-0.512 0 0 3.072 0-3.072-0.512-2.56 0 1.536-0.512 2.56-0.512 3.072v-9.216V589.312v5.12c0 12.288-0.512 4.096-0.512 5.632 0 0.512-0.512 0-0.512 2.56 0 3.072 0-9.216-0.512-5.12 0-3.584 0-1.536-0.512 9.216 0-1.024-0.512 2.56-0.512 0 0 11.776 0-5.632-0.512 6.656 0-3.584 0-0.512-0.512-0.512v-5.12 3.584c-0.512-8.704-0.512-0.512-1.024 0-0.512-2.048-1.024 9.216-1.024 3.072V615.936c0 7.68 0 3.584-0.512 4.096-0.512 1.536-0.512 6.656-1.024-2.048-0.512 4.096-1.024 1.536-1.536-0.512-0.512 6.656-1.536 6.144-2.048-2.56-0.512-10.24-1.536-10.24-2.048-6.656-0.512 7.168-1.024 6.656-1.536 5.12-0.512-8.192-1.024-6.656-1.024-3.072-0.512 4.096-0.512 0-0.512 3.584 0 14.848-0.512-11.776-0.512 6.656 0 4.608-0.512-3.072-0.512-6.144 0-1.536-0.512 10.24-0.512 5.632 0 5.632-0.512-2.048-0.512-11.776-0.512 0-1.024 6.144-1.024 3.584-0.512 1.536-1.024 0-1.024-9.216 0-2.048-0.512 22.016-0.512 1.536 0 3.584-0.512 15.872-0.512-8.192-0.512 5.12-0.512 13.312-1.024 1.536 0 0.512-0.512-1.536-0.512 1.024 0-7.168-0.512 3.072-0.512-5.12 0 2.048-0.512 17.408-0.512 3.584 0-7.168-0.512 2.56-0.512-4.608-0.512-17.408-1.024-14.336-1.536-4.608-0.512-12.288-1.024 1.536-1.536-1.536 0 14.848-0.512 11.264-0.512 2.048 0-1.024-0.512-4.608-0.512-2.048 0 22.016-0.512-12.288-0.512 2.048 0 2.56-0.512-18.944-0.512-7.68-0.512-4.608-1.024 26.624-1.024 0 0-0.512-0.512-6.144-0.512 2.048 0 2.048-0.512-13.824-0.512-9.728-0.512-26.112-1.024 7.68-1.024-1.024 0 5.12-0.512-14.336-0.512-6.656 0 13.824-0.512-0.512-0.512-1.024 0-2.56-0.512-4.096-0.512-2.048 0-13.312-0.512 0.512-0.512-4.608 0-1.536-0.512 24.064-0.512 6.144 0 5.632-0.512-0.512-0.512-5.12 0 6.656-0.512 12.288-0.512-5.632 0-19.456-0.512-16.384-0.512 0 0-6.656-0.512 4.608-0.512 2.048 0-13.824-0.512-14.848-0.512-0.512 0 3.072-0.512-7.68-0.512 2.048 0 2.56-0.512 5.12-0.512-6.656 0-2.56-0.512 15.36-0.512-6.656 0-4.608-0.512-9.728-0.512 6.144 0 3.584-0.512 5.632-0.512 1.536 0 18.432-0.512 5.12-0.512-4.608-0.512 17.92-0.512-9.728-1.024-3.072-0.512-2.048-0.512 15.36-1.024 0-0.512-19.456-0.512 0.512-1.024-5.12 0-1.536-0.512-14.848-0.512-9.728 0-20.48-0.512-1.024-0.512 2.56 0 1.536-0.512-8.192-0.512-4.608 0-7.168-0.512-0.512-0.512 4.096 0 15.872 0 0.512-0.512 5.632 0-10.752 0 2.56-0.512-2.56 0 22.528 0 25.6-0.512 0.512 0 7.68 0-28.672-0.512-8.704 0-9.216-0.512-4.608-0.512-5.632 0 30.72-0.512 4.608-0.512 3.584-0.512 6.144-1.024 19.456-1.024-1.024 0 0 0 8.192-0.512 1.536 0-4.096 0 1.536-0.512-2.048 0-2.048-0.512-13.824-0.512-5.632 0-15.872-0.512-2.56-0.512-4.096 0 4.608-0.512 1.536-0.512-2.048-0.512 5.12-1.024-2.048-1.536-5.12 0 2.048 0-1.536-0.512-4.608 0-3.072 0-4.608-0.512-2.048v-4.608-3.072 7.68c0 6.144-0.512 1.024-0.512 0.512V491.52 489.984v-2.048-4.096c0-0.512 0-1.024-0.512 4.608v-8.192 3.072c0-8.704 0 2.048-0.512 0.512v-4.096c0 4.608 0-7.168-0.512-0.512v-6.144-5.632-4.608c0-4.608 0.512-7.168 1.024-4.096 0 3.584 0.512 3.584 0.512-2.048 0 1.024 0.512-1.024 0.512-5.12 0.512 2.56 1.024-10.752 1.536-6.144 0.512 2.048 1.024-2.56 1.536 0 1.024 0.512 2.048 0.512 2.56-3.072 0.512-0.512 1.024-6.144 1.024-0.512v-3.584-2.048-4.608-0.512-3.072s-1.536 0.512-3.584 4.096c-2.048-1.024-5.12 1.024-8.704 10.24-3.584 4.096-7.68 4.608-11.264 13.312-4.096 6.144-7.68 13.824-11.264 13.312-3.584 3.072-6.656 0.512-8.704 10.24-0.512 3.072-0.512 5.632-1.024 7.168 1.024-0.512 2.048 3.072 2.048 3.072-0.512 10.752-0.512 16.896-1.024 29.696 0 26.624-0.512 23.552-0.512 28.16v26.624c0 10.752 0 17.408 0.512 25.088 0-4.096 0.512 15.36 0.512 24.064 0.512 9.216 0.512 18.432 1.024 22.528 0.512 7.168 1.024 14.336 1.536 20.992 9.728 129.024 34.304 178.688 38.912 186.88 0.512 0.512 0.512 1.024 1.024 1.536 0 0-0.512-0.512-1.024-1.536-48.64-77.824-65.024-188.928-69.632-273.92-0.512-5.12-0.512-9.728-0.512-14.848 0 1.024-0.512-8.192-0.512-14.336 0-1.536-0.512-12.288-0.512-13.312v-12.8-11.776V501.76v-9.728-8.704c0.512-16.384 1.024-26.112 1.024-26.112l7.68 3.584 26.624-21.504c4.608-3.584 8.704-7.168 12.8-10.24 4.096-6.144 7.68-4.608 9.728-8.192 2.56-2.048 4.096-3.072 4.096-3.072-43.52-29.696-173.056 120.832-173.056 120.832-20.992 84.48 42.496 246.272 42.496 246.272C298.496 655.36 306.176 507.392 306.176 507.392c12.288 26.112 148.992-104.448 148.992-104.448l41.472-0.512c-27.136-44.544-151.552 19.968-151.552 19.968l-28.672-27.136c8.704-110.592 78.336-225.28 78.336-225.28l-30.72 86.016-10.752 47.616-6.656 55.808-1.024 37.376L400.384 384l63.488-16.896 22.528 10.752 13.824 2.048-2.048-9.216-14.848-16.384-69.632 2.048-15.872 7.168-19.456-17.92 12.8-60.928 20.48-59.392 25.6-55.808-8.192 29.696-14.848 55.808L404.48 330.24l3.584 10.752L486.4 337.92l29.696 29.184v-11.264l12.8-11.264h3.072l-8.192 12.8 0.512 11.776 4.608-0.512 5.12-6.144 10.24 4.096 9.728-4.096 6.656 8.192 4.096-7.68-4.096-8.192-4.096-12.288 12.8 8.704 5.632 12.8 28.672-25.6 80.384 1.024-7.68-70.144-22.528-83.968-3.072-19.968 37.376 89.088 22.528 80.384-2.56 11.776-19.968 16.896-83.456-10.752-14.336 26.624 38.912-12.288 112.64 29.696-9.728-108.032-17.408-63.488-26.624-55.296h4.096l37.376 66.048 30.208 89.088 6.656 50.176 6.656 20.48-31.744 26.112-99.328-35.328-32.256 2.56-20.992 13.824 59.904 3.584 130.56 108.032 14.848-6.656v39.936zM459.264 486.912v0z" fill="#d81e06" p-id="967"></path></svg>