<?xml version="1.0" standalone="no"?><!DOCTYPE svg PUBLIC "-//W3C//DTD SVG 1.1//EN" "http://www.w3.org/Graphics/SVG/1.1/DTD/svg11.dtd"><svg t="1631495568115" class="icon" viewBox="0 0 1024 1024" version="1.1" xmlns="http://www.w3.org/2000/svg" p-id="9667" xmlns:xlink="http://www.w3.org/1999/xlink" width="200" height="200"><defs><style type="text/css"></style></defs><path d="M445.2 808.3c0 25.1-8.8 48.1-23.4 66.2h287.6c148.1 16.5 148.1-41.2 148.1-66.2l-171.5-0.1-240.8 0.1zM168.2 178.1c-36.3 0-65.7 29.4-65.7 65.7H234c-0.1-36.3-29.5-65.7-65.8-65.7z" fill="#FFBD5C" p-id="9668"></path><path d="M766.6 768.3v-190h-40v189.8H405.2v40.1c0 36.3-29.4 65.7-65.7 65.7s-65.7-29.4-65.7-65.7v-58.4h0.2v-506c0-24.9-8.6-47.8-23.1-65.9h258l-0.1 0.1h156.9v0.1c34.4 2.2 61 30.7 61 65.6v5.8h40v-16.7c-5.5-53.2-50.6-94.8-105.2-94.8-1.7 0-3.3 0-5 0.1v-0.1H168.2v0.1c-58.3 0-105.7 47.4-105.7 105.7v40H234v524.5c0 58.3 47.3 105.7 105.6 105.7 1.3 0 2.7 0 4-0.1v0.1h448.3c58.3 0 105.7-47.4 105.7-105.7v-40h-131zM102.4 243.8c0-36.3 29.4-65.7 65.7-65.7s65.7 29.4 65.7 65.7H102.4zM793.7 874l-84.7 0.1H422.2c14.4-18.1 23-40.9 23-65.7v-0.1H686v0.1h171.4c0.1 35.6-28.3 64.6-63.7 65.6z" fill="#4C6070" p-id="9669"></path><path d="M911.7 273.3H527.9c-17.6 0-32 14.4-32 32v213.2c0 17.6 14.4 32 32 32h383.8c17.6 0 32-14.4 32-32V305.3c0-17.6-14.3-32-32-32z m-1.9 148.4h-6.1v88.9H535.9v-88.9h-20V348h20v-34.7h367.8V348h6.1v73.7z" fill="#4C6070" p-id="9670"></path><path d="M535.9 353h367.8v50H535.9zM515.9 348h20v73.6h-20zM903.7 348h6.1v73.6h-6.1z" fill="#4C6070" p-id="9671"></path><path d="M796.8 456.8m-29.6 0a29.6 29.6 0 1 0 59.2 0 29.6 29.6 0 1 0-59.2 0Z" fill="#FFBD5C" p-id="9672"></path><path d="M836.8 456.8m-29.6 0a29.6 29.6 0 1 0 59.2 0 29.6 29.6 0 1 0-59.2 0Z" fill="#FFBD5C" p-id="9673"></path><path d="M465.9 292.8H325.8c-11 0-20-9-20-20s9-20 20-20h140.1c11 0 20 9 20 20s-8.9 20-20 20zM423.9 399.1h-88.1c-11 0-20-9-20-20s9-20 20-20h88.1c11 0 20 9 20 20s-9 20-20 20zM395.9 505.3h-60.1c-11 0-20-9-20-20s9-20 20-20h60.1c11 0 20 9 20 20s-9 20-20 20zM465.9 611.6H335.8c-11 0-20-9-20-20s9-20 20-20h130.1c11 0 20 9 20 20s-8.9 20-20 20zM620.5 717.8H333.8c-11 0-20-9-20-20s9-20 20-20h286.6c11 0 20 9 20 20s-8.9 20-19.9 20z" fill="#4C6070" p-id="9674"></path></svg>