<?xml version="1.0" standalone="no"?>
<!DOCTYPE svg PUBLIC "-//W3C//DTD SVG 1.1//EN" "http://www.w3.org/Graphics/SVG/1.1/DTD/svg11.dtd"><svg t="1635816951663"
  class="icon" viewBox="0 0 1024 1024" version="1.1" xmlns="http://www.w3.org/2000/svg" p-id="5319"
  xmlns:xlink="http://www.w3.org/1999/xlink" width="200" height="200">
  <defs>
    <style type="text/css"></style>
  </defs>
  <path
    d="M64 520a8 8 0 0 1-8-8C56 260.56 260.56 56 512 56a8 8 0 0 1 0 16C269.376 72 72 269.376 72 512a8 8 0 0 1-8 8zM560 72h-16a8 8 0 0 1 0-16h16a8 8 0 0 1 0 16zM512 968a8 8 0 0 1 0-16c242.608 0 440-197.376 440-440a8 8 0 0 1 16 0c0 251.44-204.56 456-456 456zM480 968h-16a8 8 0 0 1 0-16h16a8 8 0 0 1 0 16z"
    fill="#263238" p-id="5320"></path>
  <path d="M512 728c-119.296 0-216-96.704-216-216S392.704 296 512 296 728 392.704 728 512 631.296 728 512 728z"
    fill="#FFD740" p-id="5321"></path>
  <path
    d="M512 736c-123.52 0-224-100.48-224-224s100.48-224 224-224 224 100.48 224 224-100.48 224-224 224z m0-432c-114.688 0-208 93.312-208 208s93.312 208 208 208 208-93.312 208-208-93.312-208-208-208zM848 104h-64a8 8 0 0 1 0-16h64a8 8 0 0 1 0 16z"
    fill="#263238" p-id="5322"></path>
  <path d="M816 136a8 8 0 0 1-8-8V64a8 8 0 0 1 16 0v64a8 8 0 0 1-8 8zM960 208h-64a8 8 0 0 1 0-16h64a8 8 0 0 1 0 16z"
    fill="#263238" p-id="5323"></path>
  <path d="M928 240a8 8 0 0 1-8-8v-64a8 8 0 0 1 16 0v64a8 8 0 0 1-8 8z" fill="#263238" p-id="5324"></path>
  <path
    d="M544 488h-64c-13.232 0-24-10.768-24-24s10.768-24 24-24h104v-48h-48v-32h-48v32H480c-39.696 0-72 32.304-72 72s32.304 72 72 72h64c13.232 0 24 10.768 24 24s-10.768 24-24 24h-112v48h56v32h48v-32h8c39.696 0 72-32.304 72-72s-32.304-72-72-72z"
    fill="#FFFFFF" p-id="5325"></path>
  <path
    d="M536 672h-48a8 8 0 0 1-8-8V640h-48a8 8 0 0 1-8-8v-48a8 8 0 0 1 8-8h112a16.016 16.016 0 0 0 0-32h-64c-44.112 0-80-35.888-80-80s35.888-80 80-80v-24a8 8 0 0 1 8-8h48a8 8 0 0 1 8 8V384h40a8 8 0 0 1 8 8v48a8 8 0 0 1-8 8H480c-8.816 0-16 7.184-16 16s7.184 16 16 16h64c44.112 0 80 35.888 80 80s-35.888 80-80 80v24a8 8 0 0 1-8 8zM496 656h32v-24a8 8 0 0 1 8-8h8c35.296 0 64-28.704 64-64s-28.704-64-64-64h-64c-17.648 0-32-14.352-32-32s14.352-32 32-32h96v-32h-40a8 8 0 0 1-8-8V368h-32v24a8 8 0 0 1-8 8H480c-35.296 0-64 28.704-64 64s28.704 64 64 64h64c17.648 0 32 14.352 32 32s-14.352 32-32 32h-104v32h48a8 8 0 0 1 8 8V656z"
    fill="#263238" p-id="5326"></path>
  <path d="M512 208V128C299.92 128 128 299.92 128 512h80c0-167.888 136.112-304 304-304z" fill="#FF5252" p-id="5327">
  </path>
  <path
    d="M208 520H128a8 8 0 0 1-8-8C120 295.856 295.856 120 512 120a8 8 0 0 1 8 8v80a8 8 0 0 1-8 8c-163.216 0-296 132.784-296 296a8 8 0 0 1-8 8z m-71.92-16h64.016c4.192-165.68 138.208-299.696 303.904-303.904V136.08C303.008 140.304 140.304 303.008 136.08 504z"
    fill="#263238" p-id="5328"></path>
  <path
    d="M896 520h-80a8 8 0 0 1-8-8c0-163.216-132.784-296-296-296a8 8 0 0 1-8-8V128a8 8 0 0 1 8-8c216.16 0 392 175.856 392 392a8 8 0 0 1-8 8z m-72.096-16h64.016C883.696 303.008 720.992 140.304 520 136.08v64.016c165.68 4.208 299.696 138.224 303.904 303.904z"
    fill="#263238" p-id="5329"></path>
  <path d="M512 816v80c212.08 0 384-171.92 384-384h-80c0 167.888-136.112 304-304 304z" fill="#40C4FF" p-id="5330">
  </path>
  <path
    d="M512 904a8 8 0 0 1-8-8v-80a8 8 0 0 1 8-8c163.216 0 296-132.784 296-296a8 8 0 0 1 8-8h80a8 8 0 0 1 8 8c0 216.144-175.84 392-392 392z m8-80.096v64.016c200.992-4.224 363.696-166.928 367.92-367.92h-64.016c-4.208 165.68-138.224 299.696-303.904 303.904z"
    fill="#263238" p-id="5331"></path>
  <path
    d="M512 904C295.856 904 120 728.144 120 512a8 8 0 0 1 8-8h80a8 8 0 0 1 8 8c0 163.216 132.784 296 296 296a8 8 0 0 1 8 8v80a8 8 0 0 1-8 8z m-375.92-384C140.304 720.992 303.008 883.696 504 887.92v-64.016c-165.68-4.208-299.696-138.224-303.904-303.904H136.08z"
    fill="#263238" p-id="5332"></path>
</svg>