<?xml version="1.0" standalone="no"?><!DOCTYPE svg PUBLIC "-//W3C//DTD SVG 1.1//EN" "http://www.w3.org/Graphics/SVG/1.1/DTD/svg11.dtd"><svg t="1629536006277" class="icon" viewBox="0 0 1024 1024" version="1.1" xmlns="http://www.w3.org/2000/svg" p-id="21597" xmlns:xlink="http://www.w3.org/1999/xlink" width="200" height="200"><defs><style type="text/css"></style></defs><path d="M16 400h992v608H16V400z" fill="#F1F3F3" p-id="21598"></path><path d="M16 336h992v64H16v-64z" fill="#CB5757" p-id="21599"></path><path d="M16 112h992v224H16V112z" fill="#F26C6D" p-id="21600"></path><path d="M160 736h64v-64h-64v64z m160 0h64v-64h-64v64z m160 0h64v-64h-64v64z m160 0h64v-64h-64v64z m160 0h64v-64h-64v64zM480 576h64v-64h-64v64z m160 0h64v-64h-64v64z m160-64v64h64v-64zM160 896h64v-64h-64v64z m160 0h64v-64h-64v64z m160 0h64v-64h-64v64z m160 0h64v-64h-64v64z" fill="#A7BCD0" p-id="21601"></path><path d="M272 16a32 32 0 0 0-32 32v128a32 32 0 0 0 32 32 32 32 0 0 0 32-32V48a32 32 0 0 0-32-32z m480 0a32 32 0 0 0-32 32v128a32 32 0 0 0 32 32 32 32 0 0 0 32-32V48a32 32 0 0 0-32-32z m128 0a32 32 0 0 0-32 32v128a32 32 0 0 0 32 32 32 32 0 0 0 32-32V48a32 32 0 0 0-32-32zM144 16a32 32 0 0 0-32 32v128a32 32 0 0 0 32 32 32 32 0 0 0 32-32V48a32 32 0 0 0-32-32z" fill="#CFEDFA" p-id="21602"></path><path d="M496 752h32a32 32 0 0 0 32-32v-32a32 32 0 0 0-32-32h-32a32 32 0 0 0-32 32v32a32 32 0 0 0 32 32z m0-64h32v32h-32v-32zM336 912h32a32 32 0 0 0 32-32v-32a32 32 0 0 0-32-32h-32a32 32 0 0 0-32 32v32a32 32 0 0 0 32 32z m0-64h32v32h-32v-32z m480-256h32a32 32 0 0 0 32-32v-32a32 32 0 0 0-32-32h-32a32 32 0 0 0-32 32v32a32 32 0 0 0 32 32z m0-64h32v32h-32v-32zM496 912h32a32 32 0 0 0 32-32v-32a32 32 0 0 0-32-32h-32a32 32 0 0 0-32 32v32a32 32 0 0 0 32 32z m0-64h32v32h-32v-32z m-160-96h32a32 32 0 0 0 32-32v-32a32 32 0 0 0-32-32h-32a32 32 0 0 0-32 32v32a32 32 0 0 0 32 32z m0-64h32v32h-32v-32zM992 96h-64V48a48 48 0 0 0-48-48 48 48 0 0 0-48 48v48h-32V48a48 48 0 0 0-48-48 48 48 0 0 0-48 48v48H320V48a48 48 0 0 0-48-48 48 48 0 0 0-48 48v48h-32V48a48 48 0 0 0-48-48 48 48 0 0 0-48 48v48H32a32 32 0 0 0-32 32v864a32 32 0 0 0 32 32h960a32 32 0 0 0 32-32V128a32 32 0 0 0-32-32z m-128-48a16 16 0 0 1 16-16 16 16 0 0 1 16 16v128a16 16 0 0 1-16 16 16 16 0 0 1-16-16V48z m-128 0a16 16 0 0 1 16-16 16 16 0 0 1 16 16v128a16 16 0 0 1-16 16 16 16 0 0 1-16-16V48zM256 48a16 16 0 0 1 16-16 16 16 0 0 1 16 16v128a16 16 0 0 1-16 16 16 16 0 0 1-16-16V48zM128 48a16 16 0 0 1 16-16 16 16 0 0 1 16 16v128a16 16 0 0 1-16 16 16 16 0 0 1-16-16V48z m864 944H32V416h960v576z m0-608H32v-32h960v32z m0-128H784a16 16 0 0 0-16 16 16 16 0 0 0 16 16h208v32H32v-32h208a16 16 0 0 0 16-16 16 16 0 0 0-16-16H32V128h64v48a48 48 0 0 0 48 48 48 48 0 0 0 48-48V128h32v48a48 48 0 0 0 48 48 48 48 0 0 0 48-48V128h384v48a48 48 0 0 0 48 48 48 48 0 0 0 48-48V128h32v48a48 48 0 0 0 48 48 48 48 0 0 0 48-48V128h64v128zM176 752h32a32 32 0 0 0 32-32v-32a32 32 0 0 0-32-32h-32a32 32 0 0 0-32 32v32a32 32 0 0 0 32 32z m0-64h32v32h-32v-32z m480 64h32a32 32 0 0 0 32-32v-32a32 32 0 0 0-32-32h-32a32 32 0 0 0-32 32v32a32 32 0 0 0 32 32z m0-64h32v32h-32v-32z m0 224h32a32 32 0 0 0 32-32v-32a32 32 0 0 0-32-32h-32a32 32 0 0 0-32 32v32a32 32 0 0 0 32 32z m0-64h32v32h-32v-32zM496 592h32a32 32 0 0 0 32-32v-32a32 32 0 0 0-32-32h-32a32 32 0 0 0-32 32v32a32 32 0 0 0 32 32z m0-64h32v32h-32v-32z m320 224h32a32 32 0 0 0 32-32v-32a32 32 0 0 0-32-32h-32a32 32 0 0 0-32 32v32a32 32 0 0 0 32 32z m0-64h32v32h-32v-32zM176 912h32a32 32 0 0 0 32-32v-32a32 32 0 0 0-32-32h-32a32 32 0 0 0-32 32v32a32 32 0 0 0 32 32z m0-64h32v32h-32v-32z m480-256h32a32 32 0 0 0 32-32v-32a32 32 0 0 0-32-32h-32a32 32 0 0 0-32 32v32a32 32 0 0 0 32 32z m0-64h32v32h-32v-32z m-32-272H400a16 16 0 0 0-16 16 16 16 0 0 0 16 16h224a16 16 0 0 0 16-16 16 16 0 0 0-16-16z" fill="#2B3139" p-id="21603"></path></svg>