<?xml version="1.0" standalone="no"?><!DOCTYPE svg PUBLIC "-//W3C//DTD SVG 1.1//EN" "http://www.w3.org/Graphics/SVG/1.1/DTD/svg11.dtd"><svg t="1629685251427" class="icon" viewBox="0 0 1024 1024" version="1.1" xmlns="http://www.w3.org/2000/svg" p-id="23738" xmlns:xlink="http://www.w3.org/1999/xlink" width="200" height="200"><defs><style type="text/css"></style></defs><path d="M510.958 0C306.575 0 117.52 122.63 40.877 316.794S5.11 725.561 153.287 873.738s367.89 189.055 556.945 112.411 311.684-270.808 311.684-475.19C1021.916 229.93 791.986 0 510.958 0zM730.67 664.246C746 674.465 751.108 694.903 746 710.232c-5.11 15.329-15.329 30.657-35.767 35.767-15.329 5.11-35.767 0-45.986-10.22L510.958 582.493 357.671 735.78c-10.22 10.219-30.658 15.328-45.987 10.219-15.328-5.11-30.657-15.329-35.767-35.767-5.11-15.329 0-35.767 10.22-45.986l153.287-153.288-153.287-153.287c-20.439-20.439-20.439-51.096 0-71.534s51.095-20.439 71.534 0l153.287 158.397 153.288-153.288c20.438-15.329 51.095-15.329 66.424 5.11 15.329 20.438 15.329 45.986 0 66.424L577.383 516.068 730.67 664.246z" p-id="23739"></path></svg>