<?xml version="1.0" standalone="no"?>
<!DOCTYPE svg PUBLIC "-//W3C//DTD SVG 1.1//EN" "http://www.w3.org/Graphics/SVG/1.1/DTD/svg11.dtd">
<svg t="1636340874090" class="icon overdue-completion-icon" viewBox="0 0 1177 1024" version="1.1"
  xmlns="http://www.w3.org/2000/svg" p-id="2404" xmlns:xlink="http://www.w3.org/1999/xlink" width="229.8828125"
  height="200">
  <defs>
    <style type="text/css"></style>
  </defs>
  <path
    d="M1176.663176 406.278713l-81.896904 35.841096-37.991561 17.920548c-4.659342 2.329671-12.723589 2.867288-6.989014 11.289945-7.347425 12.902795-1.075233 26.343205-2.150466 39.425206v30.644136c0 4.659342 0 7.885041 6.451398 9.318685s11.469151 5.017753 5.017753 13.798822a63.43874 63.43874 0 0 0-5.376164 29.74811 101.967918 101.967918 0 0 0-4.121726 37.63315c1.254438 5.196959-5.734575 9.49789-7.347425 15.232466-3.58411 13.082-8.601863 25.626384-12.006767 38.708384a137.809014 137.809014 0 0 0-4.300932 26.880822 15.949288 15.949288 0 0 1-8.064246 14.515643c-3.942521-2.508877 2.688082-5.017753-1.075233-8.243452a578.116876 578.116876 0 0 1-29.74811 54.836877h1.971261c2.329671-1.97126 3.58411-5.734575 7.705835-4.838548 0 0 1.254438 1.612849 1.254439 2.329671a8.422658 8.422658 0 0 1-6.809809 7.52663c-14.874055 3.225699-17.920548 13.978027-20.429424 26.164a17.920548 17.920548 0 0 1-15.590877 16.66611c-8.781068 1.97126-11.827562 12.723589-17.920548 19.174986s-3.046493 13.978027-13.798822 16.486904a29.568904 29.568904 0 0 0-19.174986 17.920548 9.677096 9.677096 0 0 1-3.763315 5.376165c-17.920548 8.960274-26.164 29.210493-43.546931 39.604411a121.68052 121.68052 0 0 1-39.066795 18.99578 85.481014 85.481014 0 0 0-25.984794 11.827562 583.134629 583.134629 0 0 1-170.782822 62.184301c-6.272192 1.254438-13.440411 1.433644-17.920548 7.885041l-19.891808 2.508877a9.856301 9.856301 0 0 0-10.214712-4.480137c-17.920548 2.688082-35.841096 0-53.761644 3.763315a33.332219 33.332219 0 0 1-15.411671-1.97126 143.364383 143.364383 0 0 0-35.841096-3.763315 62.184301 62.184301 0 0 1-33.511425-6.989014c-4.838548-3.046493-13.619616 0-15.05326-8.064246-7.705836-1.433644-7.885041-1.612849-9.677096-7.705836h-1.612849c-1.792055 12.902795-1.792055 13.082-15.411672 8.960274a109.852959 109.852959 0 0 0-36.737123-7.885041 275.618027 275.618027 0 0 1-55.732904-5.017754 43.18852 43.18852 0 0 1-10.573123-2.508876c-2.150466-1.075233-5.913781-1.612849-4.300932-5.196959s4.659342-1.97126 7.16822-1.254439 7.885041 2.329671 12.006767 3.225699c-3.942521-3.404904-7.885041-6.809808-5.55537-12.365178a2.508877 2.508877 0 0 0-1.075233-2.508877c-11.11074-5.376164-20.250219-14.694849-33.69063-14.515644-5.196959 0-10.393918 0-9.856302-6.989013 0-4.300932-3.58411-4.838548-6.272191-6.451397a661.447424 661.447424 0 0 1-60.213041-43.726137 25.626384 25.626384 0 0 1-11.289946-16.307699c-1.433644-8.243452-5.734575-8.422658-12.544383-4.659342s-17.920548 8.960274-30.644137 14.515643a35.841096 35.841096 0 0 1 22.938301-17.920548c5.734575-2.150466 12.185973-3.58411 2.329672-9.677095-4.838548-3.046493-4.659342-7.168219 1.612849-10.035507l111.465808-50.894356c3.046493-1.433644 6.451397-2.688082 8.243452 1.612849s0 6.092986-3.942521 7.705836a10.035507 10.035507 0 0 1-5.376164 2.329671c-7.168219 0-13.082 0-9.49789 9.49789 0 1.433644-1.254438 2.688082-2.508877 2.150466-12.365178-4.838548-20.60863 5.017753-30.464931 8.243452a184.044027 184.044027 0 0 0-19.174987 8.601863c-2.329671 1.254438-6.809808 1.433644-5.196959 5.734575s4.838548 2.688082 7.885041 1.792055a54.836877 54.836877 0 0 1 6.989014-1.792055c-6.092986 4.300932-9.139479 6.989014-4.300931 10.931535 1.612849 1.433644 1.075233 3.58411 0 5.196958s-4.121726 1.075233-6.092987 0l-4.659342-3.584109a5.734575 5.734575 0 0 0-8.064247 0c-2.867288 3.046493 1.075233 4.300932 2.508877 6.092986a154.654329 154.654329 0 0 0 29.210493 24.730356c8.781068 6.092986 18.995781 11.11074 17.920548 26.522411 7.168219-8.064247 12.185973-6.451397 17.920548-2.508877a498.908054 498.908054 0 0 0 73.653452 37.453946 20.967041 20.967041 0 0 1 13.978027 15.770082 14.874055 14.874055 0 0 0 1.075233 3.763315c1.97126 2.867288 3.763315 8.960274 6.809808 7.705835 6.451397-2.867288 0-6.630603-1.075233-10.035506s-4.121726-5.376164-1.433643-7.885041 5.017753 0 7.347424 1.075232 9.677096 2.150466 11.827562 7.705836 4.838548-1.612849 8.601863 0a571.844684 571.844684 0 0 0 73.653452 15.411671h5.017753c2.329671 0 4.838548 0 5.734576-2.329671a4.300932 4.300932 0 0 0 0-3.58411 4.838548 4.838548 0 0 0-3.225699-1.97126l-17.203726-0.716822c-11.289945-2.150466-22.759096-4.300932-34.049041-6.809808-2.867288 0-8.064247 0-6.809808-5.017753s5.376164-3.942521 9.139479-3.046494a398.194575 398.194575 0 0 0 72.93663 10.931535c17.920548 1.254438 35.841096 1.075233 54.836877 1.433644a24.013534 24.013534 0 0 1 10.752329 1.254438c3.58411 1.433644 8.243452 0 9.49789 3.94252s-6.451397 2.508877-6.989014 6.630603 3.58411 1.433644 5.55537 1.612849a212.716904 212.716904 0 0 0 47.847863-3.584109c1.612849 0 3.404904 0 3.942521-2.329671a3.046493 3.046493 0 0 0-1.075233-2.508877c-1.792055-1.433644-2.688082 0-4.121726 1.075233s-8.422658 5.376164-12.723589 0-5.734575 0-8.422658 0-6.092986-0.896027-6.989013-4.300932 2.688082-4.480137 5.376164-5.376164h5.913781a44.622164 44.622164 0 0 0 29.389698-8.960274 9.677096 9.677096 0 0 1 7.52663-1.433644A83.509753 83.509753 0 0 0 663.060273 950.346548s1.612849 0 1.612849-1.075233c0-14.874055 15.05326-12.902795 23.117507-19.891808-5.017753 0-4.480137-5.376164-7.347424-9.139479a11.469151 11.469151 0 0 1-12.006768 6.272191c-2.329671 0-6.451397 0-6.989013 3.58411s-1.433644 4.121726-4.300932 1.97126-4.480137-3.225699-1.254438-5.913781a104.656 104.656 0 0 1 30.644137-12.723589h1.075233c2.150466 6.989014 7.168219 7.52663 13.978027 7.52663 2.688082 0 0 3.763315-2.867288 4.659343s-4.480137 0-3.404904 3.404904 3.942521 1.433644 5.913781 0a41.396466 41.396466 0 0 1 33.511425-2.867288c8.960274 2.508877 15.05326-5.376164 22.57989-8.064246a235.476 235.476 0 0 0 28.493671-15.949288 53.761644 53.761644 0 0 0-44.442959 8.601863 47.847863 47.847863 0 0 1-31.360958 9.497891c-1.433644-5.017753 7.705836-3.046493 5.734575-8.422658s-5.734575-2.867288-9.318685-3.404904c5.376164-2.508877 7.52663-7.705836 12.006767-9.856301 3.942521 1.433644-2.329671 7.347425 3.58411 6.989013s5.913781 0 5.376164-5.913781 1.792055-7.52663 8.243452-6.092986 8.781068-4.480137 14.157233-3.225698c1.97126 0 5.196959 0 5.913781 2.508876s-3.046493 3.763315-4.659343 3.763315c-4.659342 5.55537-11.289945 0-17.02452 3.225699a8.781068 8.781068 0 0 0 11.827561 3.404904c10.931534-4.838548 22.042274-8.960274 33.153014-13.440411 7.705836-3.225699 13.440411-9.856301 21.683863-12.723589 2.688082-0.896027 4.300932-2.688082 6.989014-0.896027s5.55537 1.254438 7.168219-2.150466 2.329671-4.480137 0-6.272192-5.196959 0-7.885041 0a109.673753 109.673753 0 0 0-20.787836 9.677096 58.600192 58.600192 0 0 1-37.63315 5.913781 20.429425 20.429425 0 0 1 14.336438-7.885041c12.185973 0 14.515644-12.365178 22.759096-17.920548 2.867288-1.792055 4.300932-5.196959 7.52663 0s4.121726 1.612849 6.092986 0a3.404904 3.404904 0 0 0 1.971261-3.942521c-1.075233-2.867288-4.480137 1.612849-5.913781-2.150465a35.841096 35.841096 0 0 0 10.393918-11.827562c3.404904 8.781068 11.648356 12.723589 15.411671 20.071014 0 1.433644 2.508877 2.867288 2.867287 4.659342 1.254438 7.347425 4.480137 6.630603 7.705836 1.433644s13.619616-7.705836 17.920548-16.845315c-8.601863 4.659342-12.723589 0-17.920548-3.58411s-13.619616 3.942521-21.504658-3.584109c12.544384 0 21.146247-7.168219 32.615398-7.52663 7.347425 0 14.336438-4.659342 22.042274 0 1.97126 1.254438 5.913781-3.763315 7.885041-6.630603 8.064247-11.827562 20.967041-20.071014 27.418438-33.332219a28.314466 28.314466 0 0 0 2.150466-9.13948c-7.52663 2.867288-8.781068 12.544384-20.429425 14.515644a153.758301 153.758301 0 0 1 31.540165-32.794603 57.88337 57.88337 0 0 0 19.354191-17.920548c6.451397-9.318685 11.469151-19.533397 17.920548-29.389698a8.243452 8.243452 0 0 0 0-7.347425 6.630603 6.630603 0 0 1 3.046493-8.422657c6.809808-3.225699 8.422658-9.677096 10.931535-15.411672a444.787999 444.787999 0 0 0 34.049041-183.147999 25.984794 25.984794 0 0 0-2.329672-12.185973c-1.254438-1.97126 2.508877-6.809808-3.225698-6.092986s-3.404904 3.58411-2.508877 6.451397-1.792055 5.734575-5.196959 6.451397a8.781068 8.781068 0 0 1-2.867288 0c-5.196959-12.544384-11.11074-1.433644-13.619616 0.896028a129.565561 129.565561 0 0 1-19.533397 14.694849 7.885041 7.885041 0 0 0-3.942521 8.064247A387.621452 387.621452 0 0 1 883.303807 735.299973a413.964657 413.964657 0 0 1-252.679726 177.771835 412.172602 412.172602 0 0 1-187.09052 4.300932 375.256273 375.256273 0 0 1-67.022849-17.920548l-3.58411-1.612849a8.781068 8.781068 0 0 1-5.734575-10.931535c2.150466-5.55537 7.168219-1.254438 10.035507 0a420.953671 420.953671 0 0 0 366.295999-32.794602 394.252054 394.252054 0 0 0 149.636575-160.030493 377.585945 377.585945 0 0 0 41.396466-164.331425c0-4.300932-1.612849-8.960274-5.017753-9.49789s-10.035507 0-7.705836 7.885041c0 1.97126-1.792055 3.225699-3.404904 4.300932-9.318685 6.092986-20.60863 9.677096-29.74811 15.232465-12.902795 7.885041-27.597644 10.573123-40.679643 17.920548-16.845315 9.856301-35.841096 16.128493-53.761644 25.984795-1.792055 1.075233-5.017753 0-7.885041 0-1.075233 4.659342 2.329671 7.885041 3.763315 11.648356 3.046493 8.781068 1.075233 11.469151-8.064247 14.874055s-20.60863 9.139479-31.002548 13.798821l-163.973013 74.54948-2.688082 1.254438c-3.404904 1.254438-7.705836 4.121726-9.677096 0s3.58411-5.196959 6.272192-6.630603q94.620493-43.009315 189.420191-86.377041c2.867288-1.254438 10.393918 0 7.347425-6.989013s-8.064247-3.046493-12.544384 0c-39.962822 17.920548-79.746438 35.841096-119.70926 53.761644s-80.46326 35.841096-120.963698 53.761643c-27.239233 12.006767-53.761644 24.730356-81.180082 37.633151-3.225699 1.612849-8.960274 2.329671-6.272192 7.885041s6.809808 2.329671 10.214712 0l91.574-41.575671c6.451397-2.867288 13.082-5.017753 19.533397-7.705836 3.404904-1.433644 8.422658-4.121726 9.856302 0s-4.659342 1.612849-6.272192 3.58411a116.841972 116.841972 0 0 1-38.349973 19.891808c-22.042274 11.289945-45.338986 20.60863-67.739671 31.360959-4.480137 2.150466-14.694849 2.329671-10.752329 10.393918s10.214712 0 14.515644-1.792055c27.597644-12.006767 55.195288-24.730356 82.613726-37.095534a13.798822 13.798822 0 0 1 9.856301-2.508877A148.919753 148.919753 0 0 1 501.775342 763.256028a48.74389 48.74389 0 0 0 37.274739-6.451397L716.821917 676.699781c9.49789-4.300932 19.174986-7.705836 21.146246-19.174986l29.210493-13.619616a27.060027 27.060027 0 0 0 24.371946-15.053261c1.254438-2.867288 4.300932-6.092986 7.705835-5.196959s6.092986 7.885041 8.064247 12.365179-1.254438 5.913781-4.300932 7.347424l-39.962822 17.920548c-14.336438 6.272192-14.157233 6.272192-13.261205 21.683863s0 26.701616 1.433644 40.142027c0 6.272192-2.508877 8.781068-8.601863 8.960274-15.590877 0-31.181753 1.792055-46.951836 2.150466a13.619616 13.619616 0 0 0-14.515644 10.393918c-4.121726 12.723589-9.139479 25.447178-14.336438 37.991562-1.075233 2.688082-0.896027 8.960274-5.734575 6.809808s-9.49789-5.734575-6.989014-12.185973 5.913781-14.874055 8.781069-22.400685c0-1.792055 2.150466-3.942521 0-5.196959s-3.046493 0-4.480137 0a161.284931 161.284931 0 0 0-35.841096 16.845315c7.52663 3.942521 16.128493 4.300932 19.533397 12.006767 1.254438 2.329671 5.376164 4.300932 3.404904 7.16822s-6.272192 0-9.318685 0c-9.139479-3.046493-17.920548-5.734575-27.239233-9.318685a13.261205 13.261205 0 0 0-16.666109 4.121726c-9.856301 10.752329-20.250219 21.325452-30.285726 32.077781-5.196959 5.55537-9.49789 6.809808-15.770082 1.075232-10.931534-10.214712-22.759096-19.354192-33.69063-29.568904a12.544384 12.544384 0 0 0-16.66611-2.150465c-13.978027 6.630603-28.493671 12.723589-42.471699 19.354191-6.272192 3.046493-9.856301 2.150466-12.365178-4.121726-6.092986-13.978027-14.515644-27.060027-19.354191-41.754876-1.792055-5.55537-4.300932-5.376164-6.989014 0s-5.913781 6.272192-7.705836 5.196959c-9.856301-5.376164-15.770082 2.688082-22.938301 5.555369-10.035507 3.942521-19.533397 8.422658-29.210493 12.723589l-28.13526 12.902795-10.931535 4.838548c-3.046493 1.075233-6.451397 3.58411-8.601863 0s0-6.989014 4.121726-8.601863c7.885041-3.942521 15.949288-8.064247 24.371946-11.289945a291.208904 291.208904 0 0 0 38.708383-15.949288c24.909562-13.798822 51.431973-24.371945 77.058356-35.841096s56.27052-25.088767 84.584986-37.274739c21.504658-9.318685 42.292493-20.429425 63.797151-30.285726 40.321233-17.920548 80.642466-36.916329 120.784493-55.732904 34.407452-16.128493 69.710931-30.106521 104.297589-45.697398s65.768411-29.389699 98.025397-45.518191 60.392246-26.522411 89.60274-40.679644a216.301013 216.301013 0 0 1 19.891808-11.289945 263.252849 263.252849 0 0 0 27.597644-13.619617c16.307699-7.705836 34.407452-10.393918 50.177534-19.174986 7.347425-3.942521 16.128493-3.58411 24.013534-7.705836a116.841972 116.841972 0 0 1 24.371945-14.874054c2.329671 0 0-2.867288 0-4.659343a707.144821 707.144821 0 0 0-34.765863-74.728685c-20.787836-44.442959-42.650904-88.527507-63.79715-132.612054a30.285726 30.285726 0 0 1-4.300932-11.827562c10.752329-2.688082 14.515644 3.942521 17.920548 11.469151q46.593425 96.233342 93.186849 192.287479c2.688082 5.734575 5.913781 11.469151 8.781069 17.02452z m-645.139725 373.643424l6.092987-2.688082 153.220684-69.531726 39.962822-17.920548a6.989014 6.989014 0 0 0 4.480137-9.49789c-2.329671-4.480137-6.092986 0-8.601863 0-15.232466 6.630603-30.106521 13.798822-45.159781 20.60863l-151.42863 68.635699c-2.688082 1.254438-7.705836 1.254438-6.092986 5.91378a6.630603 6.630603 0 0 0 7.52663 4.121726z m449.805753-99.817452a27.418438 27.418438 0 0 0 14.694849-17.920548A445.504821 445.504821 0 0 0 1018.783149 520.253398c0-8.960274 0-17.920548-1.075233-26.701616 0-1.97126 0-4.121726-3.046493-4.480137a4.838548 4.838548 0 0 0-5.196959 3.763315 27.956055 27.956055 0 0 0 0 6.630602 426.329835 426.329835 0 0 1-13.619616 130.282384 412.172602 412.172602 0 0 1-15.232466 50.356739z m-383.32052 77.954384c6.272192 3.942521 10.573123 5.734575 16.128493 3.225698L663.060273 739.242494a17.920548 17.920548 0 0 0 10.573123-15.590877z m-6.989014 4.659342v-1.254438l-43.905342 19.891808c-11.289945 5.376164-11.289945 5.734575-1.792055 13.619617 3.942521 3.225699 7.347425 9.318685 13.619617 2.329671 10.035507-11.827562 20.967041-23.117507 32.436191-34.586658zM680.980821 720.067507v1.433644l39.783616-1.433644c14.694849 0 15.590877-1.254438 15.411672-15.411671 0-6.630603-2.150466-8.781068-8.960274-5.55537-14.874055 7.168219-30.285726 13.978027-46.235014 20.967041z m250.887671 63.797151c-2.867288 8.781068-13.978027 6.809808-17.920548 12.902794a326.333178 326.333178 0 0 1-27.060027 31.898576c-1.792055 1.97126-5.55537 4.659342-2.688083 7.168219s6.630603 0 8.960274-1.612849a304.649315 304.649315 0 0 0 39.604411-50.35674z"
    opacity=".6" p-id="2405"></path>
  <path
    d="M495.323945 0.557508c23.834329 0 47.847863-1.254438 71.682191 0a501.775342 501.775342 0 0 1 248.558 85.481014c5.913781 3.942521 15.770082 5.55537 15.590877 16.128493 0 1.612849 2.867288 5.017753 5.017753 3.94252 8.243452-3.942521 12.365178 2.508877 17.920548 6.092987a405.362794 405.362794 0 0 1 44.263753 39.783616 12.544384 12.544384 0 0 0 16.66611 2.508877c37.27474-17.920548 74.728685-34.765863 111.824219-52.507206 8.422658-4.121726 13.261205-3.404904 16.666109 5.913781s7.885041 17.920548 12.185973 25.984795a6.451397 6.451397 0 0 1-3.763315 10.035507c-4.838548 2.508877-6.272192 0-8.422658-4.121726s-3.763315-15.770082-11.110739-17.920548-12.365178 5.196959-17.920548 8.422657c-101.251096 53.761644-207.519945 95.51652-310.742301 144.439616-27.776849 13.261205-56.449726 24.909562-83.868164 38.887589-57.345753 29.210493-116.125151 55.553699-174.366932 82.972137-53.761644 25.447178-108.956931 50.535945-163.614602 75.803918a90.498767 90.498767 0 0 1-9.856302 3.225699c10.573123-15.05326 28.493671-16.307699 40.321233-26.880822-3.942521-1.433644-6.630603 1.254438-9.677096 2.150465s-5.376164 2.150466-6.809808-1.254438a5.734575 5.734575 0 0 1 0-4.480137 5.196959 5.196959 0 0 1 2.688082-3.404904 82.255315 82.255315 0 0 1 8.781069-4.659342l471.131205-219.526712c17.920548-8.601863 17.920548-7.168219 2.508876-19.354192a407.334054 407.334054 0 0 0-170.245205-78.133589c-3.225699 0-8.601863 0-8.960274-5.376164s2.508877-8.960274 9.677096-7.526631a421.312082 421.312082 0 0 1 149.45737 60.929863 300.527589 300.527589 0 0 1 41.038054 31.002548 9.318685 9.318685 0 0 0 11.648357 1.97126c12.544384-6.092986 25.267973-12.006767 38.170767-17.920547 6.989014-3.225699 6.451397-6.092986 1.254438-10.393918a369.163287 369.163287 0 0 0-50.535945-41.038055l-1.792055-1.075233c-2.508877-2.150466-7.347425-3.942521-4.300931-8.243452s6.092986 0 8.781068 0a185.656876 185.656876 0 0 1 30.823343 23.296712 133.508082 133.508082 0 0 1 31.540164 31.181754 4.121726 4.121726 0 0 0 2.688082 2.150466 3.58411 3.58411 0 0 0 3.225699 0c-4.121726-4.300932 4.300932-7.168219 1.075233-12.006768-4.838548-7.52663-7.885041-16.307699-12.902795-23.655123-3.046493-4.480137-7.885041-7.347425-6.989014-14.157233 0-1.433644-5.017753-1.612849-7.168219 0s-1.612849 4.480137 0 6.451398 6.451397 3.404904 3.404904 6.809808-6.272192 0-8.601863-2.329671A74.370274 74.370274 0 0 1 822.911561 126.001344a99.279835 99.279835 0 0 0-31.898576-21.863069 491.739835 491.739835 0 0 0-244.97389-74.549479A483.854794 483.854794 0 0 0 376.331506 54.319152a26.701616 26.701616 0 0 0-11.289945 6.092986 17.920548 17.920548 0 0 1-15.590877 5.196959c-4.121726 0-6.092986 3.404904-8.064246 6.451397s-1.075233 2.867288 0 3.404905 5.734575-1.254438 8.422657-2.329672a463.962986 463.962986 0 0 1 127.952713-32.973808A480.808301 480.808301 0 0 1 790.116958 113.45696a32.973808 32.973808 0 0 1 3.94252 3.046493v2.329672a17.920548 17.920548 0 0 1-17.920548-3.046494A482.241945 482.241945 0 0 0 627.219177 56.469618a488.514136 488.514136 0 0 0-121.859726-8.960274 467.36789 467.36789 0 0 0-189.778602 51.073561A456.794766 456.794766 0 0 0 185.656876 197.683535a290.492082 290.492082 0 0 0-30.644136 34.407452 620.76778 620.76778 0 0 0-53.761644 92.470028 463.962986 463.962986 0 0 0-38.170767 215.942602c0 7.347425 1.612849 9.856301 8.960274 5.913781 11.648356-5.913781 23.475918-11.11074 35.841095-16.486904 2.150466-1.075233 5.55537-2.150466 5.734576-3.763315 1.612849-10.573123 8.422658-21.146247 5.55537-31.181754a67.022849 67.022849 0 0 1 0-24.730356c5.734575 7.885041 11.827562 15.411671 7.885041 26.164-2.508877 6.989014 1.433644 13.440411 1.97126 20.250219s4.121726 1.254438 6.272192 0c10.214712-4.480137 20.429425-9.49789 30.644137-14.157232 38.529178-17.920548 77.058356-35.841096 115.766739-53.761644 3.404904-1.612849 8.064247-6.630603 11.11074 0s-2.688082 8.601863-7.168219 10.752328l-36.916329 17.920548c0 4.300932 4.121726 0 5.196959 2.688083a17.920548 17.920548 0 0 1-8.960274 7.168219 11.827562 11.827562 0 0 1-3.58411 1.075233c-6.451397-12.902795-13.440411-1.254438-17.920547 0.896027C161.284931 516.490083 99.10063 545.700576 36.916329 574.015042c-7.347425 3.404904-14.336438 7.705836-21.863069 10.573123-2.688082 1.075233-5.913781 3.225699-7.705835 0a5.376164 5.376164 0 0 1 2.150465-7.885041c10.573123-3.763315 7.168219-11.827562 7.526631-19.533397s-6.809808-15.949288 4.480137-20.787836a3.942521 3.942521 0 0 0 0-2.867288c-11.827562-11.648356-5.376164-26.164-5.196959-39.246a167.377918 167.377918 0 0 0-14.515644-58.420986c0-1.612849-3.58411-3.404904 0-4.480137s3.225699-5.376164 3.584109-8.422657c1.075233-7.52663 1.433644-14.874055 12.006767-16.486904 3.942521 0 5.913781-4.659342 0-8.243452C6.451397 391.404658 5.913781 387.641343 12.544384 376.889015a17.920548 17.920548 0 0 0 2.688082-9.497891c0-6.809808 6.092986-10.752329 8.960274-16.307698 0 0 1.792055 0 1.97126-1.433644 0-12.723589 4.659342-17.920548 17.920548-17.920548a14.874055 14.874055 0 0 0 12.902794-13.798822 83.688959 83.688959 0 0 1 6.630603-19.533397A544.24704 544.24704 0 0 1 143.364383 174.386823a414.323068 414.323068 0 0 0 45.338987-57.345753c2.867288-4.659342 9.318685-6.989014 13.978027-10.752329l33.153014-27.060027A20.787836 20.787836 0 0 1 250.887671 74.031755a16.845315 16.845315 0 0 0 15.411671-5.55537 69.35252 69.35252 0 0 1 35.841096-24.551151 361.636657 361.636657 0 0 1 52.328-20.787835c6.809808-1.433644 13.619616-3.046493 20.429425-4.121726 1.433644-0.537616 4.480137-0.537616 5.555369-4.121726z m-430.093151 405.900411a8.422658 8.422658 0 0 0 1.075233-2.688083 473.819287 473.819287 0 0 1 83.330548-176.517397 459.84126 459.84126 0 0 1 88.527507-89.602739c5.734575-4.300932 12.365178-7.705836 13.978027-15.770082 0-2.329671 3.046493-3.404904 5.913781-4.300932a84.405781 84.405781 0 0 0 30.823342-15.949287 23.117507 23.117507 0 0 0-17.920547 2.508876c-8.243452 5.913781-16.486904 12.185973-24.909562 17.920548a379.73641 379.73641 0 0 0-63.259534 52.686411 406.617232 406.617232 0 0 0-60.929863 74.549479 563.422027 563.422027 0 0 0-41.575671 80.821672 213.792137 213.792137 0 0 0-15.590877 76.699945zM48.385479 464.699699a206.623918 206.623918 0 0 0-3.584109 47.668658 220.601945 220.601945 0 0 0 1.792055 37.63315c0 2.329671 0 5.913781 4.300931 5.196959s3.404904-2.867288 3.404904-5.376164a48.74389 48.74389 0 0 0 0-5.017753c-3.225699-25.805589 3.046493-52.686411-6.272192-79.746439z"
    opacity=".6" p-id="2406"></path>
  <path
    d="M141.393123 482.441042a24.371945 24.371945 0 0 1-8.243452-25.626384 421.312082 421.312082 0 0 1 87.631479-201.247753 398.552986 398.552986 0 0 1 223.290027-141.034712 360.382219 360.382219 0 0 1 73.115836-9.677096c4.659342 0 9.49789 0 9.856301 6.451397s-5.376164 6.092986-9.318685 6.272192a381.707671 381.707671 0 0 0-157.163205 40.858849c-6.451397 3.225699-13.798822 2.867288-19.891808 7.16822a465.934246 465.934246 0 0 0-140.855507 141.930739A424.179369 424.179369 0 0 0 143.364383 473.480768a16.307699 16.307699 0 0 1-1.97126 8.960274z"
    opacity=".6" p-id="2407"></path>
  <path
    d="M655.892054 814.867206c8.422658 2.867288 14.694849-2.150466 19.712603-10.035507 2.867288-4.659342 5.196959-3.225699 6.451397 1.075233a10.931534 10.931534 0 0 1 0 1.97126 15.232466 15.232466 0 0 0 14.157233 14.336438c2.150466 0 5.376164 0 5.734575 3.404905s-2.508877 3.404904-4.480137 4.121726a15.949288 15.949288 0 0 0-10.393918 17.920547c0 1.792055 0 4.121726-1.612849 5.017754s-4.300932 0-5.734575-2.150466a16.66611 16.66611 0 0 0-21.325452-3.763315 5.55537 5.55537 0 0 1-5.734576 0c-1.612849-1.433644 0-3.763315 0-5.196959a16.307699 16.307699 0 0 0-2.688082-21.504657c-2.329671-2.508877-2.150466-5.376164 5.913781-5.196959z"
    opacity=".6" p-id="2408"></path>
  <path
    d="M374.181041 233.524631c7.52663-5.017753 14.874055-1.433644 21.683863 5.017754 3.942521 3.58411 5.734575 1.792055 5.91378-2.688083a8.601863 8.601863 0 0 0 0-2.150465A15.411671 15.411671 0 0 1 412.172602 215.604083c1.97126 0 5.196959-1.792055 4.838548-4.480137s-3.225699-2.688082-5.376164-3.046493a16.128493 16.128493 0 0 1-14.69485-15.411671c0-1.792055 0-4.121726-2.688082-4.659343s-3.942521 1.792055-5.017753 3.404905a16.66611 16.66611 0 0 1-19.891808 8.960274 5.376164 5.376164 0 0 0-5.376165 1.075232c-1.254438 1.792055 0 3.763315 1.433644 5.017754a16.486904 16.486904 0 0 1 2.688082 21.504657c-2.508877 5.55537-1.612849 7.705836 6.092987 5.55537z"
    opacity=".6" p-id="2409"></path>
  <path
    d="M586.718739 837.267891c4.838548 1.433644 8.601863-1.254438 11.827562-5.913781s4.838548-3.046493 5.734575 1.254438a10.573123 10.573123 0 0 0 8.960274 9.497891c4.659342 1.075233 5.55537 3.404904 0.896027 5.734575a10.573123 10.573123 0 0 0-6.630602 11.289945c0 4.121726-1.433644 5.913781-5.017754 2.867288a13.619616 13.619616 0 0 0-14.157233-2.688082c-3.763315 1.075233-5.734575 0-3.584109-3.763315a10.214712 10.214712 0 0 0-1.61285-13.261206c-2.867288-2.867288-2.329671-5.196959 3.58411-5.017753z"
    opacity=".6" p-id="2410"></path>
  <path
    d="M327.408411 295.529727a10.393918 10.393918 0 0 1 12.902794 2.688082c3.404904 3.046493 5.55537 1.792055 5.196959-2.508876a11.11074 11.11074 0 0 1 6.451397-11.469151c4.300932-2.150466 4.659342-4.480137 0-5.734576a10.752329 10.752329 0 0 1-9.677096-9.139479c0-3.942521-2.688082-5.55537-5.55537-1.433644a13.978027 13.978027 0 0 1-13.082 5.913781c-3.942521 0-5.55537 1.254438-2.508876 4.480137a10.214712 10.214712 0 0 1 1.612849 13.261205c-1.97126 3.404904-0.179205 5.55537 4.659343 3.942521z"
    opacity=".6" p-id="2411"></path>
  <path
    d="M763.952958 756.087809a3.225699 3.225699 0 0 1-2.150466 3.404904 11.648356 11.648356 0 0 0-7.168219 11.827561c0 4.480137-2.329671 5.376164-5.55537 2.329672a10.931534 10.931534 0 0 0-12.544383-2.329672c-4.300932 1.612849-7.347425 0.896027-4.659343-4.300931a10.573123 10.573123 0 0 0-1.792055-12.902795c-3.046493-3.225699-1.97126-5.734575 2.688082-5.017753a12.365178 12.365178 0 0 0 12.902795-6.092986c1.792055-2.508877 4.121726-3.404904 5.196959 0a12.723589 12.723589 0 0 0 10.573123 10.931534 7.52663 7.52663 0 0 1 2.508877 2.150466z"
    opacity=".6" p-id="2412"></path>
  <path
    d="M501.775342 193.203398a3.404904 3.404904 0 0 0-3.046493-2.867287 11.648356 11.648356 0 0 1-9.856302-9.677096c-0.896027-4.300932-3.404904-4.480137-5.913781-0.896028a10.931534 10.931534 0 0 1-11.648356 5.376165c-4.480137 0-7.347425 0-3.404904 5.376164a10.035507 10.035507 0 0 1 1.433644 12.723589c-2.150466 3.942521 0 6.092986 3.763315 4.300932a12.544384 12.544384 0 0 1 13.978027 2.688082c2.329671 2.150466 4.838548 2.329671 5.017754-1.792055a12.723589 12.723589 0 0 1 7.52663-13.082 6.092986 6.092986 0 0 0 2.150466-2.150466z"
    opacity=".6" p-id="2413"></path>
  <path
    d="M359.665397 888.341452c-2.329671 2.867288-1.792055 7.885041-9.856302 5.376165A403.391534 403.391534 0 0 1 271.675506 860.743808c-2.688082-1.612849-5.017753-3.763315-2.688082-6.272191a9.139479 9.139479 0 0 1 9.13948-1.075233 96.233342 96.233342 0 0 1 12.365178 5.55537 427.763479 427.763479 0 0 0 62.184301 25.984794c2.688082 0 5.734575 0.179205 6.989014 3.404904zM764.848985 608.422494l-32.436191 11.827561c-17.920548 4.838548-34.586657 11.827562-52.148795 17.920548l-27.418438 9.318685c-2.867288 0.896027-5.017753 1.075233-6.809808 0s1.792055-3.58411 3.94252-4.300931l47.668658-17.920548c23.655123-8.422658 47.131041-17.920548 71.682191-25.267973 3.404904-1.254438 8.601863-5.017753 10.931534-1.075233s-4.300932 5.017753-8.064246 6.630603zM648.186218 669.352357c0 2.329671-2.508877 2.867288-4.300931 3.584109L555.536986 710.928028c-2.867288 1.254438-6.272192 3.046493-8.064247 0s1.792055-4.480137 4.300931-5.55537l86.01863-37.095534c4.480137-2.508877 7.347425-2.688082 10.393918 1.075233zM235.296794 874.005014c6.809808 2.867288 14.694849 0 19.174986 9.49789 1.97126 4.838548 7.885041 5.734575 9.856302 9.856302 4.121726 7.168219 10.931534 7.347425 15.949287 11.46915s6.989014 5.376164 10.393918 8.064247 3.046493 3.046493 2.150466 5.196959-3.404904 1.612849-4.838548 0c-7.347425-5.017753-15.05326-8.960274-22.042274-14.69485s-17.024521-14.694849-25.447178-22.042273c-1.97126-1.254438-4.838548-2.688082-5.196959-7.347425zM366.475205 943.53674c0 2.867288-1.97126 2.150466-3.763315 1.612849a258.951917 258.951917 0 0 1-48.74389-20.787835 4.300932 4.300932 0 0 1-2.508877-5.734576c1.075233-2.867288 3.404904-1.433644 5.017753 0a459.84126 459.84126 0 0 0 44.084548 19.712603c2.508877 0.537616 5.55537 1.612849 5.913781 5.196959zM129.923972 872.212959c-4.838548 0-4.659342 4.480137-7.52663 5.55537-12.185973 5.196959-24.909562 9.677096-37.274739 14.515644a3.763315 3.763315 0 0 1-5.376165-2.150466c0-1.792055 0-2.508877 2.329671-3.404904l40.85885-15.949288c2.508877-1.075233 5.196959-1.97126 6.989013 1.433644zM380.632438 773.47074c-33.511425 13.798822-66.664438 28.13526-99.996658 42.292493 31.181753-17.920548 65.947616-30.285726 98.025398-46.951835z"
    opacity=".6" p-id="2414"></path>
  <path
    d="M127.23589 591.93559a337.085506 337.085506 0 0 1 51.252767 16.845315l-8.422657 22.400685a236.192822 236.192822 0 0 0-51.252767-17.920548z m208.953589 134.224904c-11.289945 5.376164-23.834329 10.931534-37.453945 17.920547a171.141233 171.141233 0 0 1-35.841096 12.006768 47.847863 47.847863 0 0 1-28.493671-4.480137 12.544384 12.544384 0 0 0-10.573123-1.433644c-4.121726 1.97126-7.347425 15.05326-9.497891 39.066794l-23.117507-7.705835a97.12937 97.12937 0 0 1 14.157233-45.876603L179.205479 675.982959l-28.852082 13.440411-9.49789-20.250219L189.957808 645.697233l37.453945 80.463261 3.046493 1.075232a68.277288 68.277288 0 0 0 20.429425 6.272192 76.162329 76.162329 0 0 0 30.10652-7.705835l42.650904-19.354192 31.898576-15.232466c10.573123-5.376164 17.920548-9.677096 24.192739-12.723589l4.838548 24.19274z m-45.338986-10.931535l-10.035507 4.659343-12.006767-15.949288 9.318685-3.404904c2.867288-1.254438 3.763315-3.942521 1.97126-7.52663l-4.659342-10.214712-17.920548 8.064246 14.336438 31.002548-17.920548 8.601863-46.593425-99.10063 53.761644-25.088767 38.349973 82.255315a17.920548 17.920548 0 0 1-8.601863 25.805589zM250.887671 675.624548l17.920548-8.064246-4.838548-10.393918-17.920548 8.064247z m-11.827562-25.626383l17.024521-7.885041-5.196959-9.497891-17.024521 7.885041z m-20.60863-44.622164c-5.017753 8.064247-10.214712 15.590877-15.590877 22.938301l-19.533397-12.185973a340.49041 340.49041 0 0 0 42.113288-71.682191l16.307698-7.52663a290.133671 290.133671 0 0 0 79.029617 15.770082l-3.404904 22.938301c-11.289945 0-22.221479-2.329671-32.794603-4.121726l4.838548 10.393918-67.560466 31.540164z m52.328-37.633151a201.247753 201.247753 0 0 1-27.956055-8.064247c-4.300932 9.49789-8.781068 17.920548-13.619616 27.597644z m2.867288 38.529178l17.920548-8.064247 30.823342 66.306028-17.920548 8.064246z m71.682191 81.717698l-19.174986 8.960274-12.723589-16.128493a155.37115 155.37115 0 0 0 17.920548-6.630602 6.272192 6.272192 0 0 0 3.046493-9.318685l-35.841096-77.775178 18.816576-8.781069 38.349972 82.434521a17.920548 17.920548 0 0 1-10.393918 27.239232z m-13.440411-193.183506L353.034794 484.412302l9.856301 21.146247 34.765863-16.128493-9.677096-20.787836 21.146247-9.856301 9.677096 20.787835 10.393918-4.838548 9.49789 20.429425-10.393918 4.838548 38.529178 82.613726 11.469151-5.376165 9.49789 20.429425L386.187808 645.697233 376.331506 625.088603l13.082-6.092986-38.529178-82.43452-10.752328 5.017753-9.13948-21.325452 10.752329-5.017753zM410.918164 609.856138l34.765863-16.128494-6.809808-14.694849-34.765863 16.307699z m-3.58411-98.742219l-34.945068 16.307698 6.989013 14.694849 34.765863-16.307698z m-12.185972 65.051588l34.945068-17.02452-6.809808-14.694849-34.765863 16.128493z m63.617945 37.812357a340.49041 340.49041 0 0 1 32.794602 18.816575 142.28915 142.28915 0 0 0-14.157232-74.728685L430.09315 455.56022l76.52074-35.841096 77.416767 165.944274a20.787836 20.787836 0 0 1-11.648356 31.002548l-22.042274 11.110739-15.949288-17.920547c7.885041-2.867288 15.05326-5.734575 21.504658-8.781069s4.838548-5.913781 2.150465-11.469151l-16.845315-35.841095-33.869835 15.770082a152.324657 152.324657 0 0 1 6.989013 80.821671l-22.042274-6.809808-8.422657 12.902794a296.226657 296.226657 0 0 0-37.095534-24.371945zM412.172602 636.199343h21.504658a190.67463 190.67463 0 0 1-8.064247 51.252767l-23.655123-4.480137a158.776055 158.776055 0 0 0 10.214712-46.77263z m73.653452-119.70926l14.157233 30.464931 32.615397-15.232465-14.157233-30.464932z m23.117507-35.841096l-14.157233-30.285726-33.153014 16.128493 14.157233 30.464932z m217.197041-146.769287l23.834328 50.894356-22.221479 10.393917-14.515644-29.031287-138.525835 64.513972 13.798822 29.389699-22.22148 10.393918-23.655123-50.894356 77.954383-35.841096a153.579096 153.579096 0 0 0-14.515643-12.902795l23.117506-15.949287c5.196959 5.017753 10.752329 10.752329 16.307699 17.920548z m-133.149671 110.748986l120.426082-56.091315 9.677096 21.146246L602.13041 466.491754z m-13.978028 53.761643L763.952958 412.73011l10.035507 21.325452L716.821917 460.398768 736.53452 502.33285c3.046493 6.272192 6.989014 8.243452 12.185972 5.913781l25.984795-12.185973c1.97126 0 2.867288-3.046493 2.508876-6.272192a146.948493 146.948493 0 0 0-9.856301-26.701616l24.013534-3.225699a87.631479 87.631479 0 0 1 10.035507 42.471699 22.221479 22.221479 0 0 1-12.902794 13.261205l-36.916329 17.920548c-15.232466 7.168219-26.701616 1.97126-34.945069-15.232465l-21.504657-46.235014-30.106521 12.365178a90.498767 90.498767 0 0 1 5.734576 58.062575 116.304356 116.304356 0 0 1-37.812356 50.177535l-21.863069-13.978028a105.372822 105.372822 0 0 0 35.841096-42.292493 64.872383 64.872383 0 0 0-3.763315-41.754877L588.331588 520.253398z m311.459123-268.808218a187.269726 187.269726 0 0 1 34.586658 10.573123l-5.017754 14.515644 25.088767-11.827562 9.677096 20.967041-62.005096 28.852082a354.468438 354.468438 0 0 0 34.049041 53.761644c1.97126 2.688082 4.121726 5.017753 6.272192 7.705836a253.396548 253.396548 0 0 0-2.867287-60.750658h24.192739a275.976438 275.976438 0 0 1 0 83.330548 99.10063 99.10063 0 0 0 11.289945 8.243452c10.214712 6.272192 17.920548 8.781068 20.25022 7.347425s0-12.365178-6.809809-33.869836l24.730357 1.433644c8.422658 32.436192 7.705836 51.073562-2.867288 55.91211a46.593425 46.593425 0 0 1-38.170767-5.017754 123.472575 123.472575 0 0 1-14.336439-8.781068 156.804794 156.804794 0 0 1-31.898575 57.345753l-21.325452-12.723589a151.607835 151.607835 0 0 0 32.615397-62.184301c-6.272192-6.092986-12.544384-12.902795-18.99578-20.429425a365.937589 365.937589 0 0 1-39.425206-58.779397l-65.947616 30.464931 13.798822 29.210493L868.967369 341.047919a331.350931 331.350931 0 0 1 27.956054 76.341534 23.834329 23.834329 0 0 1-15.770082 23.834329q-7.885041 3.58411-17.920548 6.989013l-16.128493-16.845315c8.781068-3.404904 15.949288-6.272192 21.863069-8.960274a8.064247 8.064247 0 0 0 3.763315-9.677096 314.864027 314.864027 0 0 0-16.128493-40.858849l-29.927315 13.978028a191.391452 191.391452 0 0 1 17.920548 107.523287l-23.117507-8.960274a161.284931 161.284931 0 0 0-17.920548-89.602739l-32.794603-70.248548 87.093863-40.679644c-5.017753-9.49789-9.856301-19.891808-14.694849-30.285726l22.221479-10.573123c5.017753 10.752329 10.035507 20.787836 15.05326 30.285726l29.74811-13.798822a168.811561 168.811561 0 0 0-28.13526-8.064247z"
    p-id="2415"></path>
</svg>