<?xml version="1.0" standalone="no"?>
<!DOCTYPE svg PUBLIC "-//W3C//DTD SVG 1.1//EN" "http://www.w3.org/Graphics/SVG/1.1/DTD/svg11.dtd"><svg t="1636082364771"
  class="icon" viewBox="0 0 1024 1024" version="1.1" xmlns="http://www.w3.org/2000/svg" p-id="16968"
  xmlns:xlink="http://www.w3.org/1999/xlink" width="200" height="200">
  <defs>
    <style type="text/css"></style>
  </defs>
  <path
    d="M865.7 422.7c2.5 7.7 7.8 11.4 15.9 11.4 12.4-0.1 24.5-8.6 28.9-20.1 5.2-13.4-3.2-26.4-16.7-26.5-22.8-0.1-34.7 15-28.1 35.2zM602.5 829.6c-1.3 1.6-2.6 3.5-4.2 5.5 0.6 0.8 1.3 1.9 1.9 2.9 0.2-0.7 0.5-1.5 0.6-2.2 3.8-1.3 7.4-2.5 11.2-3.8-2.1-6.3-6.2-5-9.5-2.4z m147.6-127c2.2-2.8 2.9-5.5 0.2-7.8-0.6-0.5-4.2 1.5-5.5 3.2-22.9 29.4-50.1 53.9-82 73.1-43.5 26.2-90.8 40.2-141.4 42.5-14.8 0.6-29.8-0.1-44.5-1.5-14.4-1.4-28.6-3.2-42.4-7.6-6.4-2.1-12.8-3.5-19.4-5.5-1.3 5.4 0.8 7.5 5.5 8.9 35.7 10.5 72 15.4 109.1 12.4 90.3-7.7 163.8-46.8 220.4-117.7zM500.5 357.4c-22.8 6.5-45.6 12.7-68.5 19.2 0.4 0.9 0.6 1.9 0.8 2.9 22.8-6.5 45.7-12.7 68.5-19.2-0.3-1-0.7-2-0.8-2.9z m-282.6 93.4c-1.1-4.4-2-8.7-3.1-13.1-3.3 10.1-3.3 10.1 3.1 13.1z m203.5-69.9c-3.4 0.5-6.8 0.4-10 1.2-23.3 6.5-46.6 12.9-70 19.4-1.8 0.6-3.3 1.8-4.9 2.7l1.1 1.8c28-7.9 56.1-15.8 84-23.6 0.1-0.4 0-0.9-0.2-1.5z m-86.8 39.5c50.9-14.2 101.8-28.5 152.6-42.7-0.2-0.7-0.4-1.5-0.5-2.2-6.9 1.5-13.9 2.9-20.7 4.8-44.1 12.2-88.1 24.6-132.2 36.9 0.3 1 0.7 2.1 0.8 3.2zM394 797.7c6 2.7 12.2 4.9 18.4 7.4 0.2-0.4 0.4-0.9 0.5-1.4-1.5-0.7-2.9-1.4-5.2-2.5 2.2-0.7 3.5-1.2 4.9-1.5-4.2-4.6-11.6-6.4-15.4-4.5-0.7-1.4-1.4-2.7-2.1-4.1-0.7 0.5-1.4 0.8-2.1 1.3 0.2 1.8 0.1 4.7 1 5.3z m77.3 63.2c-13.9-2.5-27.2-4.6-40.7-6.9 3 6.5 35 11.9 40.7 6.9z m0 0"
    p-id="16969"></path>
  <path
    d="M556.4 781.7c6.8-0.6 13.4-2.7 18.6-0.8 5.1 1.9 8.5 8 13.3 12.9 0.9-5.3 1.9-9.4 2.5-13.8 0.5-3.5 1.9-5.8 5.5-7.1 4.1-1.5 8.1-3.6 12.7-5.8-2.1-1.3-3.3-2.4-4.6-2.8-9.3-3.2-14.4-9.2-13.4-19.4 0.1-1.5-0.5-3.3-0.7-6.5-2.8 2.8-4.9 4.5-6.6 6.6-4.5 5.5-9.8 7.9-16.8 4.9-2.5-1.1-5.5-1.2-9.2-1.8 2.2 4.7 3.9 8.8 6.1 12.8 1.8 3.3 1.6 5.9-0.5 8.9-2.6 3.5-4.4 7.4-6.9 11.9z m94.5-27.9c1.3-5.3 1.2-10 3.4-12.7 2.4-2.9 6.9-4 12.1-6.7-10.7-2.4-14.5-8.6-14.1-18.9-5.5 9.4-13.3 9.6-22.2 6.8 6.2 8.2 5.4 15.5-1.1 23.4 9.9-4.1 16.6-0.5 21.9 8.1z m-137.6 38.9c1.4-5.3 1.4-9.9 3.5-12.7 2.2-2.8 6.7-3.8 10.9-5.8-3.9-2.4-8.4-3.7-10.4-6.6-2.1-3.2-1.9-7.8-3.2-14-5.3 10.4-12.8 10.7-23.1 6.8 6.2 8.9 7.5 16.4 0.7 24.1 9.9-3.5 16.3 0.2 21.6 8.2z m-293.2-358c5.8-15.1 10.9-30.4 17.7-45.2 6.6-14.5 14.8-28.4 22.2-42.4-1.5-0.5-3.6-0.8-6.6-1.4-3.5 6.7-7.3 13.4-11.3 21.1 0 0-1.1 0.6-1.5 1.3-8 18.9-16 37.8-23.9 56.7-1.8 4.3 0.2 7.6 3.4 9.9zM387.7 843c12.1 8 26.5 9.6 40.5 12.9-0.8-1.8-1.8-3.3-3.2-3.8-12.1-3.8-24.4-7.3-36.4-10.9l-0.9 1.8z m375.7-569.4s0 0.1 0 0 0-0.1-0.1-0.2c-0.1 0.1 0.1 0.1 0.1 0.2z m0 0"
    p-id="16970"></path>
  <path
    d="M134.2 496.6c1.1 2.5 1.6 3.8 2.2 5.1 9.4-2 9.4-2 9.2-11.3 0-2.5 0.2-4.7 0.2-7.2 0.6 0 1.1-0.1 1.6-0.1 0.2 4.8 0.5 9.8 0.8 15.1 1.4-0.2 2.5-0.4 3.3-0.6 20.7-5.9 41.3-11.9 62.1-17.6 20.4-5.6 40.2-12 60.7-17.3 6.7-1.8 13.4-3.9 20.2-5.8 53.9-15.4 107.8-30.6 161.5-45.9 2.5-0.7 5.2-0.7 7.8-1.1-0.9 1.2-1.8 2.5-2.7 3.5-1.2 0.8-2.6 2.5-3.5 2.2-5.4-1.2-9.9 1.2-14.7 2.7-6.9 2.1-14.5 2.8-21.4 5.1-16.6 5.1-33.1 10.5-49.5 16-10.4 3.4-20.6 7.2-30.9 10.7 14-2.6 27.5-6.2 41.2-10.1 20.6-5.8 41.2-12 61.9-17.8 25.4-7.2 50.9-14 76.4-21.1 6-1.6 11.9-3.9 17.8-5.9l-0.2 0.1c16.7-4 33.1-9.3 49.3-14.5-0.1-0.6-0.4-1.3-0.5-2l-16.5 0.9c0-0.1-0.1-0.4-0.1-0.5 52.2-15.4 104.6-30.7 156.8-46.2 0.1 0.4 0.2 0.6 0.2 0.8-3.4 2-6.6 4-10 5.9-20.9 2.9-39.7 13.1-59.8 19.3 44.4-11.2 88.7-22.5 132.6-34.9 44.1-12.5 87.9-25.8 132.1-38.8 1.9 6.2 4 13.1 6 19.9 0.5 0.2 1.2 0.5 1.6 0.7 1.4-1.8 4.1-3.9 3.8-5.3-2.4-9.8-5.3-19.4-8.1-29.5-35.8 10.1-71.1 20.1-105 29.6-9.9-18.1-22.9-31.5-35.3-45.5-6.4 4.4 1.1 8.9-1.5 13.6 4.5 0.5 8.7 0.8 12.2 1.3-2.1 1.8-4.5 3.6-6.8 5.5l1.1 1.4c1.2-0.4 2.4-0.5 4.4-0.9-3.2 8.8 3.9 14 7.1 20.7-1.4 0.6-2.4 0.9-3.4 1.4 6.9 8.7 6.2 11.5-4.5 15.3-2.8 1.1-5.8 1.8-8.6 2.7 0.1-0.6 0.1-1.3 0.2-1.9-2.5-0.5-5.3-1.8-7.5-1.3-9.1 2.2-18 4.8-26.9 7.6-3.4 1.1-5.5 0.5-7.8-2.4-25.4-30.7-55.7-55.5-90.8-74-13.5-7.2-27.8-13.1-42.5-19.9-0.4 2.5-0.4 3.4-0.4 4.4-0.2 1.2-0.5 2.2-0.7 3.4 51.3 19.1 94.6 49.2 130.2 91.9-12.8 3.1-24 6.9-35.5 10.1-25.9 7.1-51.7 14.8-77.4 22.4-6.9 2-14 3.6-20.9 5.4-2.4 0.6-4 0.8-4.7-2.7-2.4-13.2-5.5-26.2-8.4-39.8-14.6 4.1-27.9 7.6-41.1 11.5-3.8 1.2-6.2 0.6-8.7-2.7-6.8-9.2-14.2-18.1-21.3-27.1-4.6-5.9-4.6-5.9-10.7-1.1-9.1 7.1-18.2 14-27.1 21.3-3.1 2.6-5.4 2.6-8.6 0.6-6.6-3.9-13.2-7.6-20-11.2-1.6-0.8-3.5-1.4-5.5-2 0.7 10.1 9.8 11.8 15.5 16.7-7.3 2.7-13.6 5.2-20.2 7.5l0.6 1.9c6.8-1.9 13.6-4.1 20.6-5.5 2.7-0.5 6.4-0.5 8.5 1.1 4.2 2.8 7.1 1.9 10.5-0.9 9.8-7.9 19.6-15.5 30.1-23.8 4.4 5.4 8.2 10.5 12.8 16.2-52.2 14.6-103.5 28.9-155.8 43.5 0.8-7.2 1.5-13.4 2.5-20.4 2.5 0.2 4.4 0.4 6.1 0.5 10.8 1.3 21.5 2.6 32.4 3.8 7.5 0.8 10.4-2.5 8.1-9.5 5.2 1.6 9.2-0.2 12.7-4.4-2 0-3.9 0-6.6 0.1 3.8-6.8 6.8-13.3 10.9-19.3 3.3-4.8 2.7-8.4-1.9-12.1-6.2 11.2-12.5 22-18.5 33.2-2 3.6-4 5.2-8.5 4.5-12.1-1.8-24.2-2.8-36.2-4.5-3.5-0.5-5.3 0.4-5.5 4.2-0.8 9.4-2.4 18.6-3.3 27.9-1.4 14.1-1.4 14.1-15.1 17.8-10.6 2.8-21.2 5.9-32.2 9.1 1.3 4.5 2.5 8.4 3.6 12.8 2.2-1.5 4.9-2.5 5.1-3.8 0.6-4.4 3.9-4.5 6.8-6.1 4.5-2.5 8.4-4 13.6-4 5.4 0 11.1-2.8 16.5-4.2 3.5-0.9 7.2-1.4 7.2-6.5 0-0.9 2.2-2.4 3.7-2.7 14.6-4.2 29.3-8.4 44.1-12.5 25.9-7.3 51.9-14.5 78-21.9-0.6-1.2-1.1-2.1-1.2-2.1-41.4 11.1-82.7 22.1-124 33.3 1.2-4.5-1.4-9.3 5.2-11.1 49.3-13.6 98.7-27.5 148.1-41.4 7.3-2 8.5-1.3 11.8 6.6l-34.1 9.8 0.4 1.8c2.1-0.1 4.2 0.1 6.2-0.5 8.2-2.2 16.5-4.5 24.7-6.9 3.5-1.1 6.8-2.2 9.5 2 0.5 0.8 3.5 0.6 5.1 0.2 11.3-3.1 22.4-6.4 33.5-9.4 1.8-0.5 3.8-0.4 5.6-0.5 0.1 0.6 0.2 1.4 0.2 2-23.1 8.7-47.8 12.5-71 21.1l0.7 2.5c23.5-6.5 47.2-13.2 70.6-19.7 4.5 8.5 4.4 8.8-4.1 11.2l-56.7 15.9c-1.4 0.5-2.8 1.1-4.4 1.6 0.2 0.8 0.5 1.5 0.7 2.5 22.9-5.4 45.3-12.9 68.7-18.6 0.9 3.2 1.8 5.8 2.6 8.9-2.9 0.9-5.3 1.6-7.5 2.4-22.9 6.5-45.8 12.7-68.7 19.2-59.4 16.6-118.8 33.2-178.4 49.9-1.5 0.5-3.5 0.9-4.9 0.5-2.7-0.8-5.4-2.2-9.1-3.9 1.4 6 2.5 10.5 3.5 15.4-38.7 11.2-76.9 22.1-116.2 33.3 0.4-7.1 0.5-12.6 0.7-18.2-0.6-0.1-1.4-0.4-2-0.5-1.9 5.4-4.2 10.7-5.4 16.4-0.7 3.4-2 4.7-5.2 5.5-9.4 2.5-18.7 5.3-28.1 7.9-3.2 0.9-6.5 1.8-10.1 2.8 0.1-3.9 0-6.9 0.5-9.9 2.2-14 4-28 7.1-41.8 11.2-49.7 32.5-94.7 63.5-135 6.4-8.4 13.5-16 20.2-24.1 1.4-1.8 2.1-4.4 3.1-6.5-0.6-0.5-1.3-0.9-1.9-1.4-1.2 1.4-2.2 2.9-3.4 4.4-30.5 33.1-54.2 70.4-70.2 112.5-4.4 11.3-7.5 22.8-11.5 34.2-0.6 1.9-2.7 3.2-4.7 5.4 0.2 2.6 1.3 6.6 0.7 10.5-2.2 15.7-5.4 31.3-7.2 47.1-0.7 6.5-3.4 8.1-9.4 8 1.4-28.7 6.1-56.5 17.4-82.9 0.1 2.9 0.1 5.8 0.2 8.6 2.9-7.3 5.9-14.5 9.2-22.6-2.8 1.6-4.5 2.7-6 3.6-0.4-2.1 0-3.6 0.8-4.7 6.5-8.6 10.8-18.4 13.2-28.8 0.8-3.8 0.6-8.1 2.4-11.4 5.2-9.5 8.9-19.8 15.5-28.6 10.9-14.6 21.5-29.5 32.2-44.5 2.1-2.8 3.5-6.2 5.4-9.3 0.8-1.3 2.4-2.2 3.5-3.3 1.5-1.4 2.7-3.4 4.4-4.7 1.5-1.4 4-1.8 5.5-3.2 13.4-11.5 26-24.4 40.4-34.6 18.6-13.1 38.4-24.5 58.2-35.7 10-5.6 20.4-12.5 33.3-8.9-1.2-1.1-2.2-2-3.8-3.5 9.8-3.4 19.1-6.5 28.2-9.8 9.1-3.4 18.6-4.2 27.9-6.5 9.9-2.6 20.2-3.8 30.4-4.9 10.2-1.2 20.5-1.9 30.8-2.2 10.4-0.4 20.6-0.4 30.9 0.4 10.5 0.6 20.9 1.8 31.3 3.4 10.1 1.5 20.2 3.4 30.4 5.8 10 2.5 19.9 5.3 29.6 8.5 9.8 3.3 19.4 6.9 28.8 10.9 9.5 4 18.6 8.5 29.2 13.3 0.2-5.9 0.4-11.2 0.6-16.4 0.7 0 1.4 0.1 2.2 0.1-0.2 4.4-0.1 8.6-0.6 12.9-0.4 3.5 0.9 5.4 3.9 7.3 16.1 10.5 32.2 21.3 47.9 32.4 7.3 5.3 14 11.5 21.1 17.4 0.1-0.6 0.4-1.1 0.5-1.5 1.5 0.2 3.3 0.1 4.7 0.7 1.8 0.7 3.4 2 5.1 2.9l-0.1 0.1h0.2l2.9 4.5c-0.9 1.4-1.8 2.5-2.6 3.9 2.7 2.7 5.4 5.4 8 7.9 0.7-0.2 1.4-0.4 2.2-0.5 0.6-5.5 1.2-11.1 1.8-17.1-2.6 0.2-4.7 0.5-6.7 0.6-0.4 0-0.6 0.1-0.9 0.1-1.5 0.1-3.1 0.4-4.4 0.5 0 0 0-0.1-0.1-0.1 3.5-2.5 7.2-4.9 11.1-7.5-2.2-1.2-3.9-1.6-4.8-2.7-4.2-4.4-7.8-9.4-12.2-13.4C724.4 198 686.8 175 645 159c-52.9-20.4-107.8-28.8-164.4-24.4l-33.1 2.5c-0.5 0-0.8-0.5-1.5-0.7 1.4-0.5 2.4-0.7 3.6-1.3-8.4-3.5-14.9 0-21.8 2.6-2.6-0.9-7.2-1.4-7.3-0.8-1.3 5.2-6.4 4.8-9.3 7.3-4.6 3.8-7.8 2.4-10.1-1.9-4.1 0.7-8.2 0.6-11.4 2.1-5.5 2.5-10.9 5.5-15.9 9.2-4.5 3.3-7.4 9.1-14.7 6.1-6.8-2.8-12.5 0.7-18.1 4.1-6.5 3.9-13.3 7.4-19.8 11.4-4.2 2.6-8.6 4.9-12.4 8.2-4.2 3.6-7.4 8.6-11.4 12.5-5.1 4.5-10.7 8.2-16 12.5-22.7 18.5-44.7 38-63.2 61-4.5 5.5-8.2 11.4-12.4 17.1-1.6 2.1-3.5 4.1-5.2 6.2l-10.9 15.2 2.2 0.6c-0.2 1.4 0.1 3.1-0.6 4-1.1 1.4-2.9 2.2-4.4 3.5-2.7 2.7-5.1 5.8-7.9 8.4-1.1 0.9-3.3 1.1-4.7 0.8-2.4-0.5-4.5-1.4-6.6-2.4-0.2 0.5-0.5 1.1-0.7 1.5 0.5 1.5 1.1 2.9 1.5 4.4-3.4 0.6-6.5 0.9-9.5 1.5 0.1 0.6 0.1 1.2 0.2 1.8 4.1 0.2 8.1 0.4 12.6 0.6-6.9 4.1-13.1 7.7-20 11.8 0.1 3.9-0.9 8.5-5.8 11.7-1.2 0.8-0.9 5.1-0.1 7.2 0.9 2.2 4.4 3.3 5.2 5.4 0.7 1.9 0.5 5.4-0.8 6.7-1.8 1.8-5.1 2.4-7.3 3.2 0.4 0.1 1.3 0.5 1.2 0.5-2.5 3.1-5.8 5.5-6.6 8.5-1.4 5.3-1.6 10.9-1.5 16.5 0 3.2 1.4 6.5 2.7 9.4 1.3 2.7-1.6 5.9 1.8 8.7 1.2 0.9-1.2 6-1.8 9.2-1.8 9.5-3.6 19.2-5.3 28.7-0.2 1.4 0 3.9 0.8 4.5 3.8 2.6 2.9 5.6 1.9 9.3l-5.1-1.6c-0.2 6.7-0.6 12.8-0.6 18.9 0 4.4-1.3 7.3-6.2 7.8-3.4 0.4-4.8 2.5-3.6 6.3 5.3-0.4 11.5-0.4 13.5-8.7z m0 0"
    p-id="16971"></path>
  <path
    d="M379.3 262.6c-0.8 7.8-1.8 13.6-10.2 14.2 6.4 3.3 10.6 7.1 9.4 14.8 4.8-5.5 10.1-7.4 17.1-4.6-4.6-6.2-4-11.8 0.5-17.6-7.1 2.3-12.1-0.1-16.8-6.8m404.3 39.6c0.9 1.2 2.9 1.4 4.5 2.1 0.5-0.6 0.7-1.2 1.2-1.8-3.8-4.5-7.5-8.9-11.4-13.3-1.5-1.6-3.6-2.8-5.2-4.5-3.2-3.5-6.1-7.3-9.2-10.9-0.4 1.3-0.9 2.9-0.4 3.6 6.7 8.5 13.5 16.7 20.5 24.8m0.5-21.7c0.2-0.2 0.4-0.6 0.5-0.7-1.3-2.5-2-5.5-3.9-7.3-1.6-1.4-2.7-6.9-7.3-2.2 3.6 3.3 7.1 6.7 10.7 10.2m-22.3-9.3c-1.1-1.6-2.2-2.9-3.4-4.2-1.3-1.3-0.1 0-0.1-0.1-0.6-0.5-1.3-1.2-1.8-1.5-0.1-0.1-0.2-0.1-0.4-0.2-0.5-0.4-1.1-0.7-1.5-1.1l-0.7-0.4c-0.5-0.2-0.8-0.5-1.3-0.6-0.4-0.1-0.7-0.2-1.1-0.2-0.4-0.1-0.5-0.2-0.8-0.2-0.6-0.1-1.2 0-1.6 0.1 3.6 5.4 7.9 9.4 14.2 10.7 0-0.1-0.1-0.2-0.2-0.4-0.5-0.6-0.8-1.4-1.3-1.9m-27.4-20.9c3.2 2.6 7.1 4.5 10.6 6.8 0.5-0.8 1.1-1.6 1.6-2.6-3.9-2.1-10.5-3.4-11.3-6.5-2-6.5-7.4-8.4-11.4-11.4-54.2-42.2-115.8-66.7-184.1-72.9-71.3-6.5-138.6 8.1-201.5 42.7-21.9 12-42.5 26.5-61.2 43.2-1.2 1.1-1.4 3.2-2.2 4.7 0.6 0.2 1.2 0.5 1.6 0.7 0.7-0.6 1.4-1.2 2.2-1.6 9.9-7.8 19.4-16.1 29.7-23.4 10.2-7.3 20.9-14 32-20 10.9-6.1 22.4-11.6 34-16.5 11.2-4.5 22.2-9.5 34-12.6 27.8-7.1 55.7-13.8 84.5-13.6 21.4 0.1 43.2 0.1 64.5 3.1 66.6 9.1 125.5 36.6 177 79.9"
    p-id="16972"></path>
  <path
    d="M502.5 208.2c-23.2 0.8-46 3.9-68.4 9.5-9.2 2.4-18.4 5.1-27.3 7.5l-0.1 0.1c2.1 1.5 4.4 2.7 6.7 3.4 0.4 0.1 0.6 0 0.9 0.1 0.9 0.2 1.9 0.4 2.8 0.4 1.3 0 2.6-0.4 4.1-0.7 24.8-8 50.2-12 76.2-13.1 4-0.1 8-0.4 12-0.7-0.3-4.8-2.3-6.6-6.9-6.5z m-60.9 34.3c-3.3-1.5-6.4-3.8-9.1-6.1-1.3-1.1-1.5-3.3-2.5-4.9-0.7 0.6-1.4 1.2-2.1 1.6-0.4 1.4-0.8 2.9-0.8 4.5-0.1 5.1-1.4 9.1-6.5 11.5-2.8 1.4-1.8 6.5 0.6 8.6 1.9 1.9 3.3 4.1 4.2 6.6 0.8 2.6 0.7 5.6 1.3 10.2 6.5-7.2 12.2-12.8 21.4-8.2 0.4 0.2 1.6-0.6 2.2-1.3 0.4-0.5 0-1.8-0.5-2-1.3-0.5-2.6-0.7-2.9-0.8-0.4-2.5-0.6-4-0.8-5.7-0.1-1.1-0.6-2.4-0.2-3.2 1.7-3.8-0.7-9.1-4.3-10.8z m-35.2-16.9l0.2-0.1-0.2-0.1v0.2z m109-10c11.4 0.5 23.1 0.9 35.2 1.4 0.2-1.4 0.4-3.3 0.6-5.8-10.4-0.7-20.4-1.4-30.2-2.5-5.1-0.4-7.6 0.8-5.6 6.9z m-114.1 16.3c0.5 0.2 0.9 0.2 1.5 0.4h0.5c0.2 0 0.5 0 0.7-0.1 0.1 0 0.2-0.1 0.5-0.2 0.2-0.1 0.4-0.2 0.5-0.4 0.1-0.1 0.1-0.2 0.2-0.4s0.4-0.4 0.5-0.5v-0.1c0.6-1.2 0.8-3.1 0.8-5.1-0.6 0.5-1.3 0.9-2 1.2-22.5 8.2-43.9 18.5-63.7 32-5.1 3.4-8.6 9.4-13.9 11.8-7.8 3.5-14 9.3-20.1 14.5-11.9 10.2-22.5 22.1-33.1 33.8-6.5 7.2-11.8 15.3-18.2 23.7 7.5 3.2 10-2 12.6-5.6 2.8-3.9 4.7-8.5 7.2-12.9 0 0 0.8 0.6 1.9 1.3 20.2-24.6 43.7-45.3 70-62.9 6.5-4.4 15.3-5.9 19.3-13.9 0.2-0.4 1.3-0.1 2-0.2 1.3-0.1 2.8 0.4 3.9-0.2 7.8-3.5 15.6-7.1 23.3-10.8 2-1.2 3.5-3.3 5.6-5.4z m84.5 1c1.3 8.5-3.9 11.4-11.8 14.1 8.5 2.4 11.6 6.6 11.4 14.1 4.7-6.2 10.5-6.6 17.3-4.7-5.5-6.1-3.8-11.6 0.2-17.9-7.5 3.7-12-0.2-17.1-5.6z m270.7 461c1.4-2.4 2.8-4.6 4.2-6.9-1.9-1.1-3.5-1.9-5.5-2.9-3.8 4.8-3.8 4.9 1.3 9.8zM96.6 750.2c-2.2-7.5-4.4-14.6-6.8-23.3 0.1 6.1 0.2 10.5 0.4 14.7-0.6-29.5-13.5-56-19.8-84.2-2 0.7-2.9 1.1-6.1 2.2 0.6-6 1.1-10.5 1.5-14.8 0.1-1.2 0.1-2.4-0.2-3.4-3.6-13.1-7.4-26.1-11.4-39.1-0.6-1.5-3.2-3.8-4.5-3.5-2.6 0.6-2.9 2.7-2 5.6 3.5 11.6 6.7 23.4 10.2 35.3 2 6.7 6.6 12.7 4.5 20.7-9.4-28.5-18.6-56.7-27.9-84.7 4.9 63.1 29.3 121.3 47.1 181.2 0.5 1.9 2.1 3.5 3.4 5.6 0.7-5.4-2.6-10.7 2.5-16.1 1.8 4.4 3.1 7.9 4.6 11.8 5.6-2.5 11.2-4.8 16.8-7.3 0.1 0.2 0.2 0.8 0.5 1.5 2.6-0.8 5.2-1.5 7.4-2.4-1.2-1.5-2.2-2.9-3.4-4.4-5.3 1.6-10.8 2.9-16.8 4.6z m66-132.9c0.6-11.8-7.6-20.2-19.4-19.4-4.5 0.4-9.1 1.4-13.4 2.8-15.1 5.3-20.5 25.5-10.4 38 1.8 2.2 4.7 4 7.5 4.8 15.6 4.4 35-10.2 35.7-26.2z m0 0"
    p-id="16973"></path>
  <path
    d="M43 572.3l-0.6 15.3h1.4c2.1-18.4-3.1-35.7-8.9-53.1-2-0.1-4-0.2-6.8-0.4l9.4 33.4c5.1-1.7 5.7 1.1 5.5 4.8zM147.5 739c1.8 0.5 4.1 1.8 5.2 1.2 5.4-3.4 13.9 0.1 17.3-7.6 0.1-0.1 0.6 0 1.1-0.1 2.4 0 2.4 0 3.2-3.8-8.2 2.4-15.6 4.2-23.1 6.6-1.6 0.1-2.4 2.3-3.7 3.7zM78.2 514.6c-0.5-0.6-0.8-1.1-1.4-1.5-3.4 1.1-6.7 2.1-10.8 3.4 1.8 1.8 2.9 3.1 3.5 3.6 3.8-2.3 6.4-4 8.7-5.5zM260 757.8c-0.7 9.3 8 11.1 12.7 16.1-0.2-8.3-8.3-10.6-12.7-16.1zM105 511.1c-0.8-2.1-1.4-3.5-2.2-5.4-7.6 2.2-14.8 4.4-22.5 6.6 1.3 2 2 3.2 2.6 3.9 7.6-1.7 14.7-3.4 22.1-5.1z m190.9 331.1l10.9 3.2c0.2-0.7 0.5-1.4 0.5-2.1-3.6-1.1-7.4-2-11.1-3.1 0 0.7-0.2 1.3-0.3 2z m643.5-523.5c-4.1 2.6-5.9 4.5-4.6 8.8 12.6 43.7 24.9 87.4 37.3 131.2 3.6 12.9 7.4 26 11.1 39.2-2.6 0.8-4.5 1.5-6.5 2.2-2.7 0.8-7.4 1.2-7.9 2.5-1.4 5.3-4.9 4-8.4 4.4-0.7 0.1-1.5 0.8-2.2 1.1-2.7 0.7-5.5 1.6-8.4 2-3.1 0.5-6.5-0.5-9.4 0.5-23.9 6.6-47.6 13.4-71.4 20.2-31.6 9.1-63.3 18-94.9 27.1-10.4 2.9-20.6 6-30.9 8.9-0.1 0.5-0.4 1.1-0.5 1.6 1.6 0.8 3.5 2.7 4.9 2.4 12.2-3.1 24.2-6.5 36.2-9.9 6.5-1.8 12.8-3.5 19.9-5.5-0.1 2.6 0 3.5-0.2 4.6-5.4 35.3-16.7 68.5-33.8 99.8-1.3 2.4-1.6 4.9-2 6.1-4 5.4-7.4 9.6-10.6 14 1.6 2.1 2.9 3.6 4.7 5.9 3.6-5.6 6.9-10.5 9.9-15.6 18.4-31.7 31.2-65.4 37.3-101.7 0.5-2.5-0.7-5.2-1.2-8.2 0.6-0.6 2.5-2.1 4.7-3.9h-4.4c-0.1-0.5-0.1-1.1-0.2-1.5 15.4-4.6 30.8-9.3 47.1-14.2-2.1 33.8-9.6 65.2-20.7 96 1.6-0.2 2.6-0.2 3.5-0.4-0.2 0.2-0.5 0.4-0.6 0.5-0.6 0.5-1.4 0.9-1.9 1.4-0.2 0.1-0.4 0.4-0.5 0.5-0.6 0.6-1.2 1.2-1.5 1.8 0 0 0 0.1-0.1 0.1-3.5 4.9-4.5 11.3-7.9 17.1 0.6-0.2 1.3-0.6 2-1.1 0.2-0.2 0.6-0.5 0.7-0.7 0.4-0.4 0.8-0.7 1.3-1.2s0.7-0.9 1.2-1.4c0.4-0.4 0.6-0.6 0.8-1.1 0.6-0.8 1.1-1.5 1.5-2.5 0.1-0.2 0.2-0.4 0.4-0.5 2.4-4.2 4.2-9.2 4.8-13.2 1.2-2.5 2.7-5.1 3.4-7.8 1.2-4.5 1.4-9.3 2.6-13.8 1.9-6.5 5.4-12.6 6.6-19.2 3.3-17.4 5.6-34.8 8.4-52.4 0.6-3.1 5.4-8.4 6.8-6.9 1.4 1.4 1.8 4.5 1.9 6.8 0.2 4-0.2 8.1-0.4 12.4 2.6-0.4 4.4-0.6 5.9-0.8-1.2 2.2-2.2 4.1-3.5 6.4-0.8-0.4-2-0.6-4.4-1.4 0.2 6.1 0.5 11.3 0.7 17.2 0 0-2.4 0.5-2.6 1.4-1.6 6.5-3.5 13.3 4.4 18.8-2.5 0.6-4.2 0.8-5.6 1.5-1.4 0.7-3.1 1.8-3.5 3.1-4.4 13.2-8.4 26.5-12.6 39.7-1.2 3.4-2.4 6.4 0.8 9.3 0.2 0.2-0.1 0.9-0.2 2-1.3-1.2-2.1-1.9-3.1-2.7-6 12.1-11.9 24.1-17.9 35.9-0.8 1.6-2.8 2.6-4.6 4.4 0.9 4.9-2.9 8.9-5.6 13.4-22.6 38-51.7 70.1-86.5 97.2-4.5 3.5-8.8 4.5-13.9 0.9 5.2-4.5 10.1-8.9 15.2-13.3 7.3-6.4 14.6-12.8 21.8-19.4 1.5-1.5 2.4-3.9 3.4-5.9-0.5-0.4-1.1-0.6-1.5-1.1-2.9 2.1-6.1 4-8.8 6.4-10.4 9.1-20.7 18.2-31.2 27.3-2.9 2.5-3.8 1.2-3.4-2.5 0.1-0.9-2.5-2.9-3.8-2.9-6.7 0-13.5 0.5-20.7 0.9 4.4 2.4 8.4 4.5 12.9 7.1 0.5-0.6 1.5-1.5 2.7-2.7 0.1 0.5 0.2 0.9 0.4 1.5 2 0.4 4.1 0.6 7.1 1.2-1.6 1.6-2.7 3.2-4.2 4.1-7.6 4.8-15.4 9.6-23.3 14.2-1.4 0.8-3.9 0-5.9 0-0.4 0-0.6 0.2-1.2 0.4 0.5 0.9 0.9 2 1.4 2.7-8.6 4.4-16.8 9.3-25.5 12.9-12.6 5.4-25.5 9.9-38.4 14.6-4.1 1.5-7.4-0.2-9.1-4.5-1.5 5.2-1.5 5.3-7.5 1.3-3.4 2.1-6.7 4.1-10.1 6.1-0.4-0.5-0.7-1.2-1.1-1.6 1.2-1.4 2.4-2.7 4.5-5.2-7.9 2.7-15.5-2.6-22.9 5.1 4.1 0.2 6.8 0.4 8.6 0.4 2.4 6.1 8.6 0.6 10.8 4.8-0.5 0.4-0.8 0.7-1.3 0.8-7.6 1.5-15.4 3.4-23.2 4.5-5.8 0.9-11.8 2.1-17.5 1.5-5.9-0.6-11.5-1.9-17.2 1.1-2.2 1.2-4.6 2.5-6.9 2.5-8.6 0-17.3-0.6-25.9-0.9-0.2 0.5-0.6 0.8-0.7 1.4 1.5 0.8 3.1 2.5 4.6 2.5 10.1 0.5 20.2 0.5 30.2 0.8 4.9 0.2 10.2 0.1 14.6 2 5.9 2.5 11.3 0.7 16.9 0.4 1.4-0.1 2.9 0.1 4.5 0.1v1.9c-25.4 1.6-50.9 5.7-76.6 2.4-26.2-3.5-52.1-10.1-76.8-19.8-0.1 2.6-0.2 4.4-0.4 6.9-7.2-2.2-14.5-4.4-21.6-6.4-0.5 6.4-1.1 12-1.5 18.8 2.7 0.9 7.4 2.4 11.9 4.1 2.8 1.2 4.1 0.4 4.9-2.4 0-0.1 0.6 0 1.5 0 0.2 1.5 0.5 2.9 0.6 3.9 2.4-0.1 4.4-0.6 6-0.1 4.5 1.4 8.7 3.2 13.1 4.8l0.7-1.8c-4.6-2.1-9.2-4.2-14.7-6.8 2.4-0.9 4.2-2.6 5.8-2.2 1.8 0.4 3.3 2.2 4.7 3.5 0.2-2.1 0.4-3.5 0.5-5.1 1.4 0.2 2.7 0.4 4.1 0.6 1.5 0.5 3.2 1.2 4.6 1.6 0.4 1.6 0.5 3.4 1.1 6.5 2.2-2.6 3.4-4.2 5.4-6.5-0.1 2.8 0.2 5.5-0.4 5.8-5.4 1.8 1.2 5.5-1.3 7.4 2.1 0.6 4.1 1.5 6.2 2 2.6 0.5 5.4 0.4 7.9 0.7 25.1 3.9 50.1 5.8 75.5 4.5 26.4-1.3 52.2-5.2 78-11.3 27.2-6.5 52.5-18.8 80.4-23.3 8.5-1.4 16.2-7.1 24-11.3 2-1.1 2.8-4.4 4.5-7.2 2.4-0.9 8-1.6 8.5-3.6 1.2-5.2 5.1-6.2 8.4-8.4 5.5-3.8 10.6-8 16.4-11.2 4.7-2.5 8.6-7.9 15.3-5.8 0.1 0 0.4-0.6 0.6-1.2-1.4-0.5-2.6-0.7-4.1-1.2 3.9-3.5 8.2-5.9 11.5-9.9 5.9-7.2 14.5-11.4 20.5-18.7 5.4-6.4 11.6-12.1 16.8-18.6 10-12.6 19.4-25.7 29.3-38.2 4-5.1 5.2-12.5 12.5-14.9 1.1-0.4 1.5-2.8 1.9-4.5 0.6-2.2 0.5-4.8 1.4-6.8 8.1-16.7 17.3-32.9 22.7-50.8 2.4-8 6.4-15.6 7.9-23.8 1.4-8.2 7.5-16 2.7-25.4-8.5 23.7-14.2 48.5-27.1 70.4 2.1-6.6 4.8-13.2 7.2-19.8 0.7-2.2-0.5-5.4 0.7-7.3 2.9-4.7 5.5-9.4 6.9-14.9 2.9-11.3 5.9-22.5 8.5-33.9 0.6-2.7 0.4-5.6 0.5-8.8 0.7-1.8 2.1-4 2.5-6.4 1.5-10.7 2.8-21.5 4.2-32.5 0.5-4.5 1.1-9.1 1.6-14.5l103-29.3c-17.7-60.7-35.1-121.6-52.4-182.5z m0 0"
    p-id="16974"></path>
  <path
    d="M792.7 722.2c12.4-16 22-33.4 30.9-51.4 0.8-1.5 0.7-3.6 1.1-5.4l-2.1-0.4c-0.6 0.6-1.2 1.1-1.4 1.6-13.1 27.2-29.8 52.5-49.8 75.1-3.9 4.5-7.4 9.4-11.8 13.3-5.1 4.4-5.3 4.4-0.4 8.8 1.5-2.4 2.8-4.8 4.7-7.1 3.1-3.5 6.2-6.9 9.5-10.4 0.6-0.6 2.2-0.5 3.1-0.9 1.1-0.6 2.4-1.4 2.8-2.5 0.5-1.2-0.2-3.2 0.5-4.1 4.3-5.7 8.7-11.2 12.9-16.6z m-416.2 61.1c-1.3 6.8-1.1 7.2 7.5 10 0.5-1.3 0.9-2.6 1.9-5.4 1.9 3.2 3.1 5.2 4.5 7.5 0.8-6.8-2.4-9.4-13.9-12.1z m0.7 67.1c-5.3-2.1-10.4-4.6-15.6-6.5-2.7-0.9-5.9-0.9-9.3-1.4 0.1 3.5 0.2 5.3 0.4 7.2-0.4 0.1-0.6 0.2-0.9 0.4-0.5-2.4-0.6-4.7-1.4-6.9-0.9-2.1-2.6-3.9-4-5.8-0.7 4.7-0.4 9.3-0.1 13.8 0.4 7.3 7.4 12.5 13.9 11.3 1.3-4.2 2.5-8 3.6-11.6 0.5 0 1.2-0.1 1.6-0.1 0.6 3.5 1.2 7.2 1.6 10.1 0.7-0.5 2-1.2 4.1-2.5 0-0.2 0.2-1.9 0.7-5.2 0.9 4.5 1.4 7.4 2 10.2 0.4-2 0.6-3.9 1.1-5.8h0.9c0.5 1.6 1.1 3.5 2 6.2-0.1-3.9-0.2-6.6-0.2-9.4 0.6-0.1 1.2-0.4 1.6-0.5 1.4 3.5 2.8 7.1 4.2 10.5 2.9-9.5 2.4-10.6-6.2-14zM403.7 675c2.6 13.4 5.9 26.8 8.9 40.7 15.4-4.4 29.3-8.2 43.2-12.4 3.3-0.9 5.2-0.4 7.3 2.4 7.2 9.5 14.6 18.6 22 28 5.4 6.8 5.4 6.8 12.5 1.3 8.9-7.2 18.1-14.1 26.8-21.4 3.2-2.6 5.5-3.1 9.1-0.8 6.6 4.1 13.5 7.8 20.4 11.4 1.8 0.9 3.8 1.2 5.9 1.8-1.4-10.2-10.1-12.4-16.5-16.8 7.6-2.9 14.6-5.6 21.5-8.5l-0.7-1.8c-7.4 2-14.6 4.4-22 6-2.5 0.5-6 0.5-7.9-0.8-4.7-3.2-8-2.1-12 1.3-9.8 8.2-19.9 15.9-30.4 24.2-4.5-5.6-8.5-10.8-13.2-16.7 53.8-15.3 106.5-30.4 160.4-45.5-0.9 7.6-1.6 14.2-2.5 21.1-2.6-0.2-4.5-0.4-6.4-0.5-11.2-1.3-22.4-2.7-33.4-3.8-2.4-0.2-5.6 0.2-6.9 1.6-1.6 1.9-1.6 5.3-2.4 8-3.8-1.4-11.1 1.2-11.6 5.1 2-0.1 4-0.4 6.6-0.5-3.9 7.2-6.9 14.1-11.3 20.1-3.5 5.1-2.4 8.5 1.9 12.7 5.5-10 10.9-19.8 16.4-29.5 5.8-10.6 5.8-10.4 17.4-8.8 11.9 1.5 23.8 2.8 36.2 4.4 0.5-2.9 1.2-5.3 1.4-7.6 1.1-8.9 2-17.9 3.1-26.8 1.5-14 1.6-13.9 15.1-17.7 10.9-3.1 21.9-6.4 33.2-9.5-1.3-4.6-2.5-8.7-3.5-12.8-0.6-0.2-1.2-0.6-1.8-1.1-3.5 9.2-12.5 11.1-18.2 15.2-2.8-0.4-4.7-1.1-6.4-0.7-6.8 1.8-13.5 3.8-20.4 5.9-1.4 0.6-3.5 2.2-3.5 3.5-0.4 3.6-2.4 4.6-5.3 5.5-26.4 7.4-52.8 14.9-79.2 22.4-15.3 4.4-30.5 8.8-45.5 13.2 0.1 0.6 0.2 1.3 0.4 1.9 1.8-0.1 3.6 0.2 5.3-0.4 28.6-8.1 57.1-16.2 85.8-24.2 12.2-3.5 24.4-6.9 36.6-10.5 1.3 9.5 0.8 10.1-7.2 12.5-8.4 2.4-16.8 4.8-25.3 7.2-41.3 11.8-82.5 23.4-123.7 35.3-8.1 2.4-9.1 1.9-12.7-6.6 11.8-3.4 23.4-6.8 35.2-10.2-0.1-0.6-0.2-1.3-0.5-2-2.4 0.2-4.6 0.1-6.8 0.6-9.1 2.4-18 5.2-27.1 7.4-1.9 0.5-4.9 0.2-5.9-1.1-2.2-2.7-4.2-2.6-6.9-1.6-11.6 3.5-23.4 6.7-35.2 10-1.6 0.5-3.5 0.2-5.3 0.4-0.1-0.6-0.2-1.3-0.5-1.9 1.5-0.7 3.2-1.5 4.8-2 5.2-1.4 10.5-2.6 15.4-4.4 0.6-0.2 0.9-0.5 1.4-0.7 0.1 0 0.1-0.1 0.2-0.1 1.3-0.9 2.4-2.2 3.5-3.3 0.1 0 0.2 0 0.4-0.1 0.1 0 0.1 0 0.2-0.1 1.6 0.2 3.5 0.6 5.2 0.7h0.4c0.6 0 1.3 0 1.8-0.2 12.1-3.2 24.2-6.7 36.2-10.4 1.5-0.5 2.7-1.6 4.1-2.5l-0.7-1.8c-5.1 1.4-10 2.8-15.1 4.4-10.6 3.3-21.3 6.5-31.9 9.6h-0.7l-0.2 0.2c-8.7 2.1-17.4 4.2-26.5 6.4-0.9-3.2-1.6-6-2.6-9.2 16.4-4.6 31.9-9.3 47.4-13.5 15.1-4.1 29.6-9.6 44.8-13.6-2.7-0.8-5.4-1.1-7.9-0.5l-79.1 22.6c-1.9 0.6-3.9 0.8-6.2 1.3-0.9-3.3-1.6-6-2.5-9.1 2.8-0.9 5.2-1.8 7.5-2.4 25.5-7.3 51.2-14.5 76.8-21.8 59.1-16.7 118-33.5 177-50.4 1.8-0.6 5.1-1.4 5.4-0.9 2.1 4.2 6.1 1.2 9.6 4.1-1.4-6.2-2.6-10.8-3.6-15.5 1.4-0.5 2.2-0.7 3.2-1.1 12.1-3.9 24.2-7.6 36.4-11.5-6.1-2.6-12.1-1.5-18.2 0.4-14.6 4.4-29.3 8.1-44.1 11.9-5.1 1.3-5.2 4.1-3.6 8.7 4.9-1.5 9.6-2.7 14.2-4.5 3.5-1.4 5.1-0.6 5.5 4-10.8 2.8-21.8 5.8-32.8 8.5-0.9 0.2-2.2-1.1-4.7-2.2 5.5-2.5 9.6-4.2 13.6-6-1.2-4.2-2.4-5.6-5.1-5.3-0.9 0.1-2 0.5-3.4 1.1-2.8 1.2-5.5 2.5-8.5 3.3-15.1 4.5-30.1 8.7-45.2 13.1 0 0.6 0.1 1.3 0.1 1.9 6.9 0.4 14 0.5 20.4 0.8 7.9-3.8 15.1-8.9 25.6-4.4-15.4 4.5-30.1 8.9-44.8 13.1-19.3 5.4-38.6 10.4-57.9 15.8-15.9 4.5-31.8 9.5-47.5 14.4-6.2 1.9-12.5 4.8-18.6 5.2-10.1 0.5-18.8 4.5-28.1 7.8-9.8 3.5-19.8 6.1-29.6 9.2-1.9-3.8-1.8-5.5 2-6.6 16.1-4.5 32-9.5 48.2-13.8 14.4-3.9 28.7-7.2 43.1-10.8 1.8-0.5 3.3-2.2 4.9-3.4l-0.7-1.4c-3.4 0.4-7.1-0.4-9.9 0.9-5.5 2.4-12.7-0.4-16.9 6.5-1.2 1.8-7.3 2.9-8.2 1.9-3.4-3.8-6.2-1.2-9.1-0.5-28.6 8-57.2 16.2-85.9 24.2-4.6 1.3-8.9 2.4-9.5 8.5 1.2-0.2 2.4-0.4 3.4-0.6 8.2-2.4 16.4-4.7 24.6-7.2 4.9-2.5 6.8-1.2 7.5 2.7z m-126.8 24.7c-12.9 1.4-16.4 3.4-15.5 8.5 4.6-0.1 9.2-0.1 14-0.2 0-0.4-0.5-2-0.2-3.6 0.1-1.7 1-3 1.7-4.7z m92.8 133c0.2 5.4 7.5 9.4 16.4 9.9-4-6.8-11.3-5.7-16.4-9.9zM342 850.5c-2.1-19.1-2.2-19.3-13.6-22.7 1.5 4.1 2.9 7.6 4.5 11.9-2.4 1.5-4.7 2.9-7.2 4.5-1.8-7.3-3.4-14-4.9-20.6-0.2-0.7-0.9-1.5-1.5-2-8.1-5.5-16.1-11.1-24.4-16.5-1.3 2.4-2.4 4.2-3.3 6-1.5-1.1-2.8-1.8-3.8-2.5 0.9-2 1.8-4.1 2.7-6.1-0.4-0.2-0.6-0.4-1.1-0.6-0.6 0.8-1.3 1.5-1.8 2.4-0.9-2.5-1.2-5.5-2.8-7.2-7.9-7.2-16.1-13.9-24.4-20.8-2.5 2.9-4.9 5.8-7.8 9.1 1.6-12-1.5-22-11.5-29.1-0.4-0.2-0.4-0.6-0.6-0.9-1.4-1.6-3.5-5.1-4.5-4.8-4.8 1.5-4-2.5-5.3-4.6-1.5-2.4-2.6-5.1-4.2-7.3-3.7-5.2-7.6-10.2-11.4-15.4 5.6-3.9 9.5-3.4 12.8 2.2 2.1 3.5 5.1 6.6 7.5 9.9 0.5-0.4 1.2-0.6 1.6-0.8 1.1-6.7-7.3-9.5-8.2-15.9 8.6-2.5 17.3-4.9 25.8-7.4 3.4-0.9 5.1-2.5 3.4-6.1-0.6 0-1.2-0.2-1.6 0-16.4 4.6-32.6 9.2-48.9 14-1.5 0.5-2.9 2.9-3.5 4.7-0.6 2.1-0.4 4.5-0.5 6.8h1.1c0.2-2 0.5-4 0.6-6 0.6 0 1.1-0.1 1.5-0.1 0.7 5.5 2 10.9 2.2 16.4 0.4 8 4.6 13.2 10.4 18.5 0.1-0.9 0.2-1.6 0.2-1.8v0.1c2.6 4.1 5.5 8.7 8.5 13.4 0.5-0.2 0.8-0.5 1.3-0.7-0.1-1.8-0.1-3.6-0.2-5.5 0.5 0 1.2-0.1 1.6-0.1 0.6 3.4 1.3 6.7 1.9 10.4 0.8-1.4 1.5-2.5 2.2-3.5 1.4 2.5 1.1 4.7 1.9 6.6 0.8 2 2.5 3.9 4.1 5.3 15.8 13.5 31.4 27.1 47.4 40.2 2.1 1.8 4.2 5.3 7.9 2.2 0.6 0.8 1.2 1.8 1.6 2.5 0.9-1.5 1.9-3.3 3.5-6.4 1.3 3.5 2.6 5.5 2.5 7.5-0.2 4.6 2.4 6.7 5.9 8.7 7.3 4.1 14.2 8.8 21.4 12.8 3.8 2.1 8.1 3.5 12.9 5.5-0.6-3.5-0.8-6-1.3-9.3 0 1.4-0.2 2.2-0.6 3.1z m0 0"
    p-id="16975"></path>
  <path
    d="M506.9 676.7c23.4-6.6 47.1-13.4 71.9-20.5-5.5-2.2-67.8 14.8-72.4 18.6 0.1 0.8 0.3 1.2 0.5 1.9z m79.5-24.8c3.2-0.1 6.4 0.4 9.3-0.5 25.2-6.9 50.1-14.1 75.3-21.3 1.8-0.5 3.3-2 4.8-3.1-0.4-0.6-0.6-1.1-0.8-1.5-29.5 8.4-59.2 16.8-88.7 25.3 0 0.4 0 0.8 0.1 1.1z m-221.2 23.5c-0.5-0.4-1.1-0.7-1.4-1.1-14.9 4.4-29.9 8.5-44.7 12.9-1.9 0.6-3.2 3.1-5.6 5.5 2.7 0.1 4 0.5 4.9 0.1 14.8-4.1 29.5-8.2 44.2-12.7 1.2-0.2 1.8-3 2.6-4.7z m-10.1 102.8c2.8-6.4-2-8.5-6.1-10.6-1.9 6.7-1.3 7.7 6.1 10.6z m324.5-167.8l-159.7 45.5c0.1 0.6 0.2 1.2 0.5 1.8 2.7-0.4 5.5-0.2 8.1-0.8 4.9-1.2 9.9-2.7 14.8-4.1 43.4-12.4 86.8-24.6 130.2-37.1 2.4-0.7 4.5-2.5 6.8-3.6l-0.7-1.7z m43.5-33.3c-0.2 0-0.4 0.1-0.5 0.1 0.1 0 0.2 0.1 0.4 0.1 0-0.1 0-0.1 0.1-0.2 0.1 0 0.1 0 0.2 0.1h0.1c4.2 0 7.8-0.7 10.5-2 0.1 0 0.1-0.1 0.1-0.1 1.3-0.6 2.4-1.4 3.3-2.4 0.8-0.9 1.5-2 1.6-3.1-5.6 1.3-11.5 2.5-17.4 3.8 0.4 1 1.1 2.4 1.6 3.7z m-204.4 54.1c17.3 4.8 31.2-5.8 47.5-10.5-9-1.1-41.1 6.4-47.5 10.5z m-228.8 64.1c-3.3 1.1-6.6 2.1-10.1 3.3l2.2 4.5c9.9-2.7 9.9-2.7 7.9-7.8z m84.6 93.3c0.1-2.8 0.2-6.4-1.4-7.4-4.7-3.4-10.2-5.8-16-8.9-0.1 12.7 10.7 12 17.4 16.3z m-82.6 1.4c1.2-6.5-5.4-7.1-7.6-10.8-3.7 3.4-1.8 6 7.6 10.8z m0.9-67.6c-0.9 4.9 0 9.3 4.5 12.8 12.9 10.4 25.6 20.9 38.6 31.4 1.2 0.9 2.7 1.5 4.5 2.4 0.7-2.7 1.2-4.6 1.4-5.5-16.8-14.1-32.8-27.5-49-41.1z m9.8 71.6c-0.9-0.6-2.1-1.2-3.2-1.6-0.2 2.4 0.1 4.5 1.3 5.4 10.1 7.1 20.4 13.9 30.5 20.7 0.6-0.5 1.1-1.1 1.5-1.5-1.2-1.6-2-3.8-3.5-4.8-8.7-6.2-17.7-12-26.6-18.2z m31.3 21.3c-0.5 5.6 3.8 6 6.9 7.9 0.3-4.6 0.3-4.6-6.9-7.9z m0 0"
    p-id="16976"></path>
  <path
    d="M344 533.3l-23.5 6.2-13.1-49.4 72.8-19.2c-3.4-4.9-7.2-9.6-10.9-13.8l22.4-13.6c5.8 5.9 12.2 13.2 16.8 19.9l68.8-18.2 13.1 49.4-24.9 6.6-7.1-26.7L337 506.6l7 26.7z m148.6 58.8c6.4-1.7 6.5-5.3 2.1-26.1 5.7 2.3 16.7 3.5 23.7 3.3 5 29.6 0.9 39-17.8 43.9l-24.9 6.6c-23.1 6.1-30.6 0.4-36.3-21.1l-10.1-38.3-26.7 7.1c7.5 38.8 3.7 62.6-46.2 86.8-3.4-5.5-12-13.2-17.9-16.8 43.1-19.3 45.5-34.4 39.7-63.6l-49.2 13-5.9-22.3 177.6-46.9 5.9 22.3-53.2 14.1 10.1 38.1c1.7 6.4 3.1 6.9 10.1 5l19-5.1z m-136.9-51.7l-5.8-21.9L453 491.3l5.8 21.9-103.1 27.2zM685.2 442.5c-1.3 28.1-7 54.3-16.2 77.4 9.6 12.8 18.2 19.5 24.5 17.8 4.8-1.3 4.5-11.9-1-37 6.9 4.2 16.6 7.1 23.7 8 6 37.9 0.3 48.8-18.2 53.6-14 3.7-27.5-3.4-40.6-17.4-7.4 13.2-16.2 25.2-26.5 36-5-4.2-16.1-11.7-22.3-15 13.1-12.4 24-27 32.1-43-12.7-20.7-24.5-47.5-35-76.7l-57.8 15.3 5.6 21.3 49.2-13s1.4 6.2 2.2 9c10.5 42 13.9 60.1 10.9 67.1-2.4 6.2-5.9 9-11.6 11.6-5 2.2-13.5 4.4-22.8 6.7-2.2-6.9-7.3-15.4-12.4-20.4 7.3-1.3 14.2-2.9 17.4-3.7 2.8-0.7 4.3-1.6 5.3-4 1.3-3.3-0.5-13.1-6.5-38.4l-25.9 6.8c6.9 29.3 13 69.3 3.1 97.9-5.4-3.5-18.3-9.5-24.4-10.8 8.8-27.9 1.1-63-5.8-88.9l-15.4-58.2 81.3-21.5c-3-9.7-6-19.3-8.6-29.3l24.9-6.6c2.4 10 5.2 19.7 8.2 29.4l30.5-8.1c-9-4-20.6-7.8-30.1-10.6l10.6-17.9c12.4 2.7 29.4 8 38.1 12.7l-6.9 12.7 20.7-5.5 6.2 23.5-61.6 16.3c7.1 19.5 14.8 37.5 22.4 52.5 4.2-15.4 6.9-31.9 7.4-49.3l25.3-0.3z"
    p-id="16977"></path>
</svg>