<?xml version="1.0" standalone="no"?>
<!DOCTYPE svg PUBLIC "-//W3C//DTD SVG 1.1//EN" "http://www.w3.org/Graphics/SVG/1.1/DTD/svg11.dtd"><svg t="1636082419971"
  class="icon" viewBox="0 0 1223 1024" version="1.1" xmlns="http://www.w3.org/2000/svg" p-id="23774"
  xmlns:xlink="http://www.w3.org/1999/xlink" width="238.8671875" height="200">
  <defs>
    <style type="text/css"></style>
  </defs>
  <path
    d="M526.489672 1023.914538c213.365172 4.443766 389.93725-164.921682 394.381016-378.280414a386.414438 386.414438 0 0 0 0-16.100602c-4.443766-213.365172-181.015844-382.72418-394.381016-378.280414-207.105258 4.314961-373.965453 171.181596-378.280414 378.280414-4.443766 213.365172 164.921682 389.93725 378.280414 394.381016z"
    fill="#50837F" p-id="23775"></path>
  <path
    d="M528.189896 1023.998261C311.25683 1023.766412 135.476902 848.018686 135.245053 631.143582v0.006441C135.470462 414.281359 311.25683 238.520752 528.177015 238.288904c216.894424 0.231849 392.642151 176.011777 392.777396 392.854678v-0.00644c-0.225408 216.804261-175.908733 392.532667-392.764515 392.861119z m0-766.50456C321.863906 257.72555 154.649498 424.862675 154.372568 631.143582v-0.00644c0.225408 206.300228 167.465577 373.469554 373.810887 373.656322 206.280908-0.27693 373.418033-167.420496 373.643441-373.649882-0.27693-206.216505-167.388294-373.327869-373.649881-373.649881h0.012881z"
    fill="#50837F" p-id="23776"></path>
  <path
    d="M270.490107 493.013301c0 8.095382 4.411565 15.727068 11.592433 19.855262 11.528031 5.583689 25.458271 0.875873 31.106362-10.516913a22.811332 22.811332 0 0 0-7.934376-29.200051c-11.160937-6.279235-25.361668-2.434411-31.718185 8.591281a22.75981 22.75981 0 0 0-3.046234 11.270421z"
    fill="#FFFFFF" p-id="23777"></path>
  <path
    d="M293.030949 476.577807a16.100602 16.100602 0 0 0 0 32.201203 16.100602 16.100602 0 0 0 0-32.201203zM585.714125 660.556161c-0.032201 8.623482 7.135787 15.636904 16.023319 15.669106 2.840146 0.01288 5.641651-0.708426 8.101822-2.093078 7.812012-4.102433 10.71012-13.576027 6.478882-21.156191s-13.994643-10.394548-21.806654-6.285675l-0.676226 0.373534a15.372854 15.372854 0 0 0-8.121143 13.492304zM437.936363 387.683166c0 7.805572 6.523964 14.136328 14.574265 14.136328s14.580705-6.330757 14.580705-14.142769S460.560929 373.533957 452.510628 373.533957c-8.050301 0-14.574265 6.330757-14.574265 14.142768z"
    fill="#50837F" p-id="23778"></path>
  <path
    d="M447.596724 405.73516a22.540842 22.540842 0 0 1-22.540842-22.540842c0-12.358822 10.18202-22.540842 22.540842-22.540842a22.540842 22.540842 0 0 1 0 45.081684z m0-28.968202a6.42736 6.42736 0 0 0-5.596569 9.686122c1.146363 2.009355 3.284523 3.252322 5.596569 3.252321 3.593654 0 6.511083-2.917429 6.511083-6.511083a6.42736 6.42736 0 0 0-6.511083-6.42736z"
    fill="#50837F" p-id="23779"></path>
  <path
    d="M650.393462 283.370588c118.500428 60.415897 168.727864 201.579532 152.723866 342.169985-34.390885 306.98051-399.340001 340.044706-436.023612 327.879091 191.803247 64.073954 399.501007-38.673645 463.909854-229.485095 57.743198-171.084992-19.063112-358.450913-180.610108-440.563981z"
    fill="#A7C1BF" p-id="23780"></path>
  <path
    d="M450.945649 174.659326c32.355769-7.187309 65.857901-11.23178 100.435553-11.23178 256.289376 0.045082 464.038659 208.438388 464.08374 465.513474v0.109484c0 137.331691-60.583344 267.63064-165.475543 355.887698l12.84184 26.179578c210.376901-172.714373 241.341578-483.797317 69.155304-694.824682C812.80989 170.234881 621.058165 105.104727 437.936363 148.479748l13.009286 26.179578z"
    fill="#50837F" p-id="23781"></path>
  <path
    d="M296.251069 112.704211C296.251069 167.832671 340.946339 212.527941 396.074799 212.527941 451.203259 212.527941 495.898529 167.832671 495.898529 112.704211 495.898529 57.575751 451.203259 12.880481 396.074799 12.880481 340.946339 12.880481 296.251069 57.575751 296.251069 112.704211z"
    fill="#50837F" p-id="23782"></path>
  <path
    d="M396.074799 225.408422c-61.001959-2.40865-108.537375-54.819328-106.180247-117.064254C292.129315 49.480369 338.389564 2.273405 396.074799 0c61.001959 2.40865 108.537375 54.819328 106.180247 117.064254-2.234764 58.863799-48.495012 106.070763-106.180247 108.344168z m0-206.003977c-50.414204-3.052674-93.705501 36.174832-96.693773 87.613034-2.988272 51.438202 35.453525 95.611812 85.867729 98.664486 3.658057 0.218968 7.328994 0.212528 10.99349-0.01288 50.401323-3.142837 88.765837-47.387291 85.687402-98.819053C479.108822 59.739672 442.251324 22.199509 396.074799 19.404445z"
    fill="#50837F" p-id="23783"></path>
  <path
    d="M419.1051 12.880481c29.831195 15.314892 42.499148 51.090429 38.499758 86.775803C448.936294 177.505912 357.02118 185.923307 347.772994 182.812671a92.275768 92.275768 0 0 0 41.99681 10.098297c51.000266 0 92.33373-41.327024 92.33373-92.417453 0-40.818245-26.340584-75.325054-62.998434-87.613034z m684.642661 451.544592c0 28.053688 22.515081 50.794178 50.285399 50.794178 27.776758 0 50.291839-22.74049 50.291839-50.794178s-22.515081-50.794178-50.291839-50.794178c-27.770318 0-50.285399 22.74049-50.285399 50.794178z"
    fill="#FFFFFF" p-id="23784"></path>
  <path
    d="M1163.957571 521.659492c-32.967592-2.080198-57.962166-29.882717-55.836887-62.103241 1.932072-29.322416 25.838245-52.681168 55.836887-54.574599 32.967592 0 59.68815 26.121616 59.68815 58.3357 0 32.220524-26.726999 58.34214-59.68815 58.34214z m0-97.891658c-22.418478 0-40.592837 17.762184-40.592837 39.671882 0 21.845296 18.116397 39.555958 40.470472 39.555958 22.347635 0 40.464032-17.710662 40.464032-39.555958 0.096604-21.819535-17.92963-39.581719-40.257944-39.671882h-0.083723zM0 394.941317c0 20.254557 16.802588 36.67717 37.527282 36.67717s37.527282-16.422614 37.527282-36.67717c0-20.254557-16.802588-36.67717-37.527282-36.677171S0 374.68676 0 394.941317zM910.617825 139.882027c0.045082 20.306079 16.924952 36.728692 37.694728 36.68361 20.769776-0.045082 37.572364-16.538538 37.527282-36.838176-0.045082-20.306079-16.918512-36.728692-37.688288-36.683611-20.776216 0.045082-37.578804 16.538538-37.533722 36.838177z"
    fill="#50837F" p-id="23785"></path>
  <path
    d="M785.709358 689.505043c-16.667343-47.709303-7.966578-82.351357-4.514609-116.323626-89.570867 43.497385-152.124924 175.915173-171.909343 221.434793-7.799131-12.3073-25.207102-50.407763-41.623276-81.681572-13.717713 7.50288-84.644083 52.855055-84.644082 52.855055 42.035451 15.424376 96.056189 65.57453 131.6836 110.083034 36.284316-63.726181 127.903179-179.373582 171.00771-186.367684z"
    fill="#FFFFFF" p-id="23786"></path>
  <path d="M470.137566 437.936363h135.245054v45.081685H470.137566z" fill="#A7C1BF" p-id="23787"></path>
  <path
    d="M437.936363 553.860695h199.64746v25.393869H437.936363V553.860695z m0 67.71913h199.64746v25.477592H437.936363v-25.477592zM619.055251 721.306951l15.591822-25.477592H586.190703L604.377942 721.306951h14.677309z"
    fill="#FFFFFF" p-id="23788"></path>
  <path d="M540.980213 689.105748H437.936363v32.201203h63.513653L540.980213 689.105748z" fill="#FFFFFF" opacity=".5"
    p-id="23789"></path>
  <path
    d="M359.623037 832.143493V475.978865h56.403628V450.816845H334.892513v405.73516h221.737485l-24.150902-24.408512H359.623037z m337.365566 0h-38.126225L639.754184 856.552005H721.306951v-99.050901l-24.318348 28.691272v45.951117z m0-227.314734L721.306951 580.085355V450.816845h-76.587341v25.16202h52.268993v128.849894z"
    fill="#FFFFFF" p-id="23790"></path>
</svg>