<?xml version="1.0" standalone="no"?><!DOCTYPE svg PUBLIC "-//W3C//DTD SVG 1.1//EN" "http://www.w3.org/Graphics/SVG/1.1/DTD/svg11.dtd"><svg t="1627031448537" class="icon" viewBox="0 0 1024 1024" version="1.1" xmlns="http://www.w3.org/2000/svg" p-id="3393" xmlns:xlink="http://www.w3.org/1999/xlink" width="200" height="200"><defs><style type="text/css">@font-face { font-family: feedback-iconfont; src: url("//at.alicdn.com/t/font_1031158_1uhr8ri0pk5.eot?#iefix") format("embedded-opentype"), url("//at.alicdn.com/t/font_1031158_1uhr8ri0pk5.woff2") format("woff2"), url("//at.alicdn.com/t/font_1031158_1uhr8ri0pk5.woff") format("woff"), url("//at.alicdn.com/t/font_1031158_1uhr8ri0pk5.ttf") format("truetype"), url("//at.alicdn.com/t/font_1031158_1uhr8ri0pk5.svg#iconfont") format("svg"); }
</style></defs><path d="M340.48 957.44a168.96 43.52 0 1 0 337.92 0 168.96 43.52 0 1 0-337.92 0Z" fill="#C6C4C4" p-id="3394"></path><path d="M512 100.352c-0.512-3.584-4.608-23.552-4.096-40.96-12.288-5.632-18.432-18.944-16.384-36.352l5.12 0.512c-2.048 18.432 5.632 26.624 11.776 30.208 1.024-8.704 3.072-16.384 7.68-20.48 3.584-3.584 8.704-4.096 14.336-2.048h0.512l0.512 0.512c11.264 11.264 8.192 19.456 6.144 22.016-4.096 6.656-14.848 9.728-24.576 7.168 0 14.336 2.048 30.208 3.584 38.4l-4.608 1.024z m1.536-44.544c8.192 2.56 16.896 0.512 19.968-4.608 2.56-4.096 1.024-9.728-5.12-15.36-3.584-1.024-6.656-0.512-9.216 1.024-3.072 3.072-5.12 10.24-5.632 18.944z" fill="#B47065" p-id="3395"></path><path d="M442.88 596.48s-151.04 271.36 25.6 368.64h35.84s-61.44-65.024-35.84-133.12c0 0 53.76 25.088 107.52 0 0 0 8.704 99.84-46.08 133.12h46.08s165.376-112.64 20.48-368.64h-153.6z" fill="#FEE6E2" p-id="3396"></path><path d="M577.024 967.68h-55.808l7.68-4.608c46.592-28.672 46.08-109.056 45.056-126.976-46.08 19.968-92.16 4.096-103.424-0.512-22.528 65.024 35.84 127.488 36.352 128l4.096 4.096h-42.496l-0.512-0.512c-39.936-22.016-66.56-55.296-78.848-97.792-33.792-117.248 51.712-272.896 52.736-274.432l0.512-1.536H599.04l0.512 1.536c41.472 73.216 82.944 182.272 44.544 282.624-23.04 60.416-64 88.576-65.536 89.6l-1.536 0.512z m-38.912-5.12h36.864c5.12-3.584 41.984-32.256 62.976-87.04 37.888-97.792-2.56-204.288-43.52-276.48H444.416c-8.192 15.36-82.944 159.232-51.2 268.8 11.776 41.472 37.376 73.216 76.288 94.72h29.696c-13.312-15.872-54.784-72.704-32.768-131.584l1.024-2.56 2.56 1.024c0.512 0 53.248 24.064 105.472 0l3.072-1.536 0.512 3.584s2.048 25.6-2.56 54.784c-6.144 34.816-18.944 60.928-38.4 76.288z" fill="#B47065" p-id="3397"></path><path d="M512 79.36c176.64 0 321.536 120.32 320 268.8-3.072 235.52-143.36 268.8-320 268.8S186.368 566.272 192 348.16c4.096-148.48 143.36-268.8 320-268.8z" fill="#FEE6E2" p-id="3398"></path><path d="M512 619.52c-123.904 0-209.408-25.6-261.12-78.848-43.008-44.544-63.488-109.056-61.44-192.512 4.096-152.064 145.92-271.36 322.56-271.36 96.768 0 187.392 35.84 249.344 98.304 48.128 48.64 74.24 110.08 73.216 173.056-1.536 110.08-32.768 183.296-95.744 224.768-62.464 40.96-149.504 46.592-226.816 46.592z m0-537.6c-174.08 0-313.344 116.736-317.44 266.24-2.048 81.92 17.92 145.408 59.904 188.928 51.2 52.224 135.168 77.312 257.536 77.312 194.048 0 314.368-44.544 317.44-266.24 0.512-61.44-24.576-121.856-71.68-169.472-60.928-61.44-150.528-96.768-245.76-96.768z" fill="#B47065" p-id="3399"></path><path d="M709.12 430.08a30.72 17.92 0 1 0 61.44 0 30.72 17.92 0 1 0-61.44 0Z" fill="#FFAEAA" p-id="3400"></path><path d="M268.8 430.08a30.72 17.92 0 1 0 61.44 0 30.72 17.92 0 1 0-61.44 0Z" fill="#FFAEAA" p-id="3401"></path><path d="M717.312 318.464h-85.504l-30.208 288.256s97.28-11.264 138.24-46.08l-22.528-242.176zM327.68 318.464h86.528l18.432 288.256s-97.792-9.728-138.24-46.08L327.68 318.464z" fill="#FFFFFF" p-id="3402"></path><path d="M601.6 313.344h144.384v10.24h-144.384zM298.496 313.344h144.384v10.24H298.496zM645.12 265.728h-48.64v-48.128h10.24v37.888h38.4zM445.952 266.752h-49.152v-10.24h38.912v-38.912h10.24zM569.344 470.528l-39.936-39.424-39.424 39.424-7.68-7.168 47.104-46.592 47.104 46.592z" fill="#B47065" p-id="3403"></path><path d="M619.52 612.864s68.096 138.752-59.392 75.776c-33.792-16.896-63.488-110.592 4.608-100.864 32.768 4.608 66.56 77.824 66.56 77.824l-27.648-50.176c6.656-1.024 7.68-1.024 15.872-2.56z" fill="#FEE6E2" p-id="3404"></path><path d="M612.864 707.584c-13.312 0-31.232-5.632-53.248-16.384-24.576-12.288-44.032-58.368-35.84-84.992 3.072-9.728 12.288-25.088 41.984-20.992 33.28 4.608 67.072 76.288 68.608 79.36l-4.608 2.048c-0.512-0.512-33.792-72.192-64.512-76.8-19.456-2.56-31.744 3.072-36.352 17.408-8.192 26.112 12.8 68.608 33.28 78.848 34.816 16.896 57.344 20.48 68.096 10.24 19.968-19.456-9.728-82.944-9.728-83.968l4.608-2.048c1.536 2.56 31.232 67.584 8.704 89.6-5.632 5.12-12.288 7.68-20.992 7.68z" fill="#B47065" p-id="3405"></path><path d="M419.84 613.888s-66.048 136.704 58.88 73.728c33.28-16.896 61.952-110.592-4.096-100.864-31.744 4.608-65.024 77.824-65.024 77.824l25.6-49.152c-0.512 0-0.512 0-15.36-1.536z" fill="#FEE6E2" p-id="3406"></path><path d="M427.52 706.56c-8.192 0-14.848-2.048-19.968-6.656-22.528-22.016 7.168-87.04 8.192-89.6l4.608 2.048c-0.512 0.512-29.184 64.512-9.216 83.968 10.24 9.728 32.768 6.656 66.048-10.752 19.968-10.24 40.448-53.76 32.768-79.36-4.608-13.824-16.384-19.456-35.328-16.896-30.208 4.608-62.976 75.776-62.976 76.288l-4.608-2.048c1.536-3.072 34.304-74.752 67.072-79.36 28.672-4.096 37.888 11.264 40.96 20.48 8.704 28.16-12.8 74.24-35.328 84.992-21.504 11.264-38.912 16.896-52.224 16.896z" fill="#B47065" p-id="3407"></path></svg>