<?xml version="1.0" standalone="no"?>
<!DOCTYPE svg PUBLIC "-//W3C//DTD SVG 1.1//EN" "http://www.w3.org/Graphics/SVG/1.1/DTD/svg11.dtd"><svg t="1634982944893"
  class="icon" viewBox="0 0 1024 1024" version="1.1" xmlns="http://www.w3.org/2000/svg" p-id="30144"
  xmlns:xlink="http://www.w3.org/1999/xlink" width="200" height="200">
  <defs>
    <style type="text/css"></style>
  </defs>
  <path
    d="M921.54 170.666667H288a53.226667 53.226667 0 0 0-44.373333 23.746666l-192 288a53.18 53.18 0 0 0 0 59.173334l192 288A53.226667 53.226667 0 0 0 288 853.333333h633.54a53.393333 53.393333 0 0 0 53.333333-53.333333V224a53.393333 53.393333 0 0 0-53.333333-53.333333z m-202.453333 432.913333a21.333333 21.333333 0 0 1-30.173334 30.173333L597.333333 542.166667 505.753333 633.753333a21.333333 21.333333 0 0 1-30.173333-30.173333L567.166667 512 475.58 420.42a21.333333 21.333333 0 0 1 30.173333-30.173333L597.333333 481.833333l91.58-91.586666a21.333333 21.333333 0 1 1 30.173334 30.173333L627.5 512z"
    p-id="30145"></path>
</svg>