<?xml version="1.0" standalone="no"?>
<!DOCTYPE svg PUBLIC "-//W3C//DTD SVG 1.1//EN" "http://www.w3.org/Graphics/SVG/1.1/DTD/svg11.dtd"><svg t="1636602730529"
  class="icon" viewBox="0 0 1383 1024" version="1.1" xmlns="http://www.w3.org/2000/svg" p-id="114619"
  xmlns:xlink="http://www.w3.org/1999/xlink" width="270.1171875" height="200">
  <defs>
    <style type="text/css"></style>
  </defs>
  <path
    d="M1159.680194 1023.998293H583.397351a261.688162 261.688162 0 0 1-186.595038-77.425562L26.456676 575.88576a90.225527 90.225527 0 0 1 0-127.658312l370.914525-370.68697a260.265944 260.265944 0 0 1 186.02615-77.368674h576.282843a224.539821 224.539821 0 0 1 224.1416 224.312266v575.201958A224.596709 224.596709 0 0 1 1159.680194 1023.998293zM1056.711592 297.130979a37.489674 37.489674 0 0 0-52.90652 0L842.241076 459.093196l-161.563996-161.962217a37.66034 37.66034 0 0 0-58.026505 47.9572 70.030028 70.030028 0 0 0 5.119986 5.006209l161.563995 162.019105-161.563995 161.677773a37.546562 37.546562 0 1 0 47.786534 57.969617 16.440843 16.440843 0 0 0 5.119985-4.94932l161.563996-161.734662 161.563996 161.734662a37.489674 37.489674 0 0 0 52.90652-5.006208 38.058561 38.058561 0 0 0 0-48.014089L895.147596 511.999716l161.563996-161.734662a37.432785 37.432785 0 0 0 0-53.247852z"
    p-id="114620"></path>
</svg>