<?xml version="1.0" standalone="no"?>
<!DOCTYPE svg PUBLIC "-//W3C//DTD SVG 1.1//EN" "http://www.w3.org/Graphics/SVG/1.1/DTD/svg11.dtd"><svg t="1636602383721"
  class="icon" viewBox="0 0 1024 1024" version="1.1" xmlns="http://www.w3.org/2000/svg" p-id="73512"
  xmlns:xlink="http://www.w3.org/1999/xlink" width="200" height="200">
  <defs>
    <style type="text/css"></style>
  </defs>
  <path
    d="M983.187855 941.600425H41.199811a40.956002 40.956002 0 1 0 0 82.399575h941.988044a40.956002 40.956002 0 1 0 0-82.399575zM1000.252856 231.20882a82.399575 82.399575 0 0 0 0-116.529577L909.564566 23.990953a82.399575 82.399575 0 0 0-116.529577 0l-29.741858 29.741859 207.217867 207.217867zM341.543825 478.407546a36.567859 36.567859 0 0 0-7.801143 11.701715l-116.529577 268.651869a36.567859 36.567859 0 0 0 48.757146 48.757146L536.572406 692.938985a37.543002 37.543002 0 0 0 11.701715-7.801144l356.414731-358.365016-207.217867-206.730296z"
    p-id="73513"></path>
</svg>