<?xml version="1.0" standalone="no"?>
<!DOCTYPE svg PUBLIC "-//W3C//DTD SVG 1.1//EN" "http://www.w3.org/Graphics/SVG/1.1/DTD/svg11.dtd"><svg t="1636082364771"
  class="icon" viewBox="0 0 1024 1024" version="1.1" xmlns="http://www.w3.org/2000/svg" p-id="16968"
  xmlns:xlink="http://www.w3.org/1999/xlink" width="200" height="200">
  <defs>
    <style type="text/css"></style>
  </defs>
  <path
    d="M 865.7 422.7 c 2.5 7.7 7.8 11.4 15.9 11.4 c 12.4 -0.1 24.5 -8.6 28.9 -20.1 c 5.2 -13.4 -3.2 -26.4 -16.7 -26.5 c -22.8 -0.1 -34.7 15 -28.1 35.2 z M 602.5 829.6 c -1.3 1.6 -2.6 3.5 -4.2 5.5 c 0.6 0.8 1.3 1.9 1.9 2.9 c 0.2 -0.7 0.5 -1.5 0.6 -2.2 c 3.8 -1.3 7.4 -2.5 11.2 -3.8 c -2.1 -6.3 -6.2 -5 -9.5 -2.4 z m 147.6 -127 c 2.2 -2.8 2.9 -5.5 0.2 -7.8 c -0.6 -0.5 -4.2 1.5 -5.5 3.2 c -22.9 29.4 -50.1 53.9 -82 73.1 c -43.5 26.2 -90.8 40.2 -141.4 42.5 c -14.8 0.6 -29.8 -0.1 -44.5 -1.5 c -14.4 -1.4 -28.6 -3.2 -42.4 -7.6 c -6.4 -2.1 -12.8 -3.5 -19.4 -5.5 c -1.3 5.4 0.8 7.5 5.5 8.9 c 35.7 10.5 72 15.4 109.1 12.4 c 90.3 -7.7 163.8 -46.8 220.4 -117.7 z M 500.5 357.4 c -22.8 6.5 -45.6 12.7 -68.5 19.2 c 0.4 0.9 0.6 1.9 0.8 2.9 c 22.8 -6.5 45.7 -12.7 68.5 -19.2 c -0.3 -1 -0.7 -2 -0.8 -2.9 z m -282.6 93.4 c -1.1 -4.4 -2 -8.7 -3.1 -13.1 c -3.3 10.1 -3.3 10.1 3.1 13.1 z m 203.5 -69.9 c -3.4 0.5 -6.8 0.4 -10 1.2 c -23.3 6.5 -46.6 12.9 -70 19.4 c -1.8 0.6 -3.3 1.8 -4.9 2.7 l 1.1 1.8 c 28 -7.9 56.1 -15.8 84 -23.6 c 0.1 -0.4 0 -0.9 -0.2 -1.5 z m -86.8 39.5 c 50.9 -14.2 101.8 -28.5 152.6 -42.7 c -0.2 -0.7 -0.4 -1.5 -0.5 -2.2 c -6.9 1.5 -13.9 2.9 -20.7 4.8 c -44.1 12.2 -88.1 24.6 -132.2 36.9 c 0.3 1 0.7 2.1 0.8 3.2 z M 394 797.7 c 6 2.7 12.2 4.9 18.4 7.4 c 0.2 -0.4 0.4 -0.9 0.5 -1.4 c -1.5 -0.7 -2.9 -1.4 -5.2 -2.5 c 2.2 -0.7 3.5 -1.2 4.9 -1.5 c -4.2 -4.6 -11.6 -6.4 -15.4 -4.5 c -0.7 -1.4 -1.4 -2.7 -2.1 -4.1 c -0.7 0.5 -1.4 0.8 -2.1 1.3 c 0.2 1.8 0.1 4.7 1 5.3 z m 77.3 63.2 c -13.9 -2.5 -27.2 -4.6 -40.7 -6.9 c 3 6.5 35 11.9 40.7 6.9 z m 0 0"
    p-id="16969"></path>
  <path
    d="M 556.4 781.7 c 6.8 -0.6 13.4 -2.7 18.6 -0.8 c 5.1 1.9 8.5 8 13.3 12.9 c 0.9 -5.3 1.9 -9.4 2.5 -13.8 c 0.5 -3.5 1.9 -5.8 5.5 -7.1 c 4.1 -1.5 8.1 -3.6 12.7 -5.8 c -2.1 -1.3 -3.3 -2.4 -4.6 -2.8 c -9.3 -3.2 -14.4 -9.2 -13.4 -19.4 c 0.1 -1.5 -0.5 -3.3 -0.7 -6.5 c -2.8 2.8 -4.9 4.5 -6.6 6.6 c -4.5 5.5 -9.8 7.9 -16.8 4.9 c -2.5 -1.1 -5.5 -1.2 -9.2 -1.8 c 2.2 4.7 3.9 8.8 6.1 12.8 c 1.8 3.3 1.6 5.9 -0.5 8.9 c -2.6 3.5 -4.4 7.4 -6.9 11.9 z m 94.5 -27.9 c 1.3 -5.3 1.2 -10 3.4 -12.7 c 2.4 -2.9 6.9 -4 12.1 -6.7 c -10.7 -2.4 -14.5 -8.6 -14.1 -18.9 c -5.5 9.4 -13.3 9.6 -22.2 6.8 c 6.2 8.2 5.4 15.5 -1.1 23.4 c 9.9 -4.1 16.6 -0.5 21.9 8.1 z m -137.6 38.9 c 1.4 -5.3 1.4 -9.9 3.5 -12.7 c 2.2 -2.8 6.7 -3.8 10.9 -5.8 c -3.9 -2.4 -8.4 -3.7 -10.4 -6.6 c -2.1 -3.2 -1.9 -7.8 -3.2 -14 c -5.3 10.4 -12.8 10.7 -23.1 6.8 c 6.2 8.9 7.5 16.4 0.7 24.1 c 9.9 -3.5 16.3 0.2 21.6 8.2 z m -293.2 -358 c 5.8 -15.1 10.9 -30.4 17.7 -45.2 c 6.6 -14.5 14.8 -28.4 22.2 -42.4 c -1.5 -0.5 -3.6 -0.8 -6.6 -1.4 c -3.5 6.7 -7.3 13.4 -11.3 21.1 c 0 0 -1.1 0.6 -1.5 1.3 c -8 18.9 -16 37.8 -23.9 56.7 c -1.8 4.3 0.2 7.6 3.4 9.9 z M 387.7 843 c 12.1 8 26.5 9.6 40.5 12.9 c -0.8 -1.8 -1.8 -3.3 -3.2 -3.8 c -12.1 -3.8 -24.4 -7.3 -36.4 -10.9 l -0.9 1.8 z m 375.7 -569.4 s 0 0.1 0 0 s 0 -0.1 -0.1 -0.2 c -0.1 0.1 0.1 0.1 0.1 0.2 z m 0 0"
    p-id="16970"></path>
  <path
    d="M 134.2 496.6 c 1.1 2.5 1.6 3.8 2.2 5.1 c 9.4 -2 9.4 -2 9.2 -11.3 c 0 -2.5 0.2 -4.7 0.2 -7.2 c 0.6 0 1.1 -0.1 1.6 -0.1 c 0.2 4.8 0.5 9.8 0.8 15.1 c 1.4 -0.2 2.5 -0.4 3.3 -0.6 c 20.7 -5.9 41.3 -11.9 62.1 -17.6 c 20.4 -5.6 40.2 -12 60.7 -17.3 c 6.7 -1.8 13.4 -3.9 20.2 -5.8 c 53.9 -15.4 107.8 -30.6 161.5 -45.9 c 2.5 -0.7 5.2 -0.7 7.8 -1.1 c -0.9 1.2 -1.8 2.5 -2.7 3.5 c -1.2 0.8 -2.6 2.5 -3.5 2.2 c -5.4 -1.2 -9.9 1.2 -14.7 2.7 c -6.9 2.1 -14.5 2.8 -21.4 5.1 c -16.6 5.1 -33.1 10.5 -49.5 16 c -10.4 3.4 -20.6 7.2 -30.9 10.7 c 14 -2.6 27.5 -6.2 41.2 -10.1 c 20.6 -5.8 41.2 -12 61.9 -17.8 c 25.4 -7.2 50.9 -14 76.4 -21.1 c 6 -1.6 11.9 -3.9 17.8 -5.9 l -0.2 0.1 c 16.7 -4 33.1 -9.3 49.3 -14.5 c -0.1 -0.6 -0.4 -1.3 -0.5 -2 l -16.5 0.9 c 0 -0.1 -0.1 -0.4 -0.1 -0.5 c 52.2 -15.4 104.6 -30.7 156.8 -46.2 c 0.1 0.4 0.2 0.6 0.2 0.8 c -3.4 2 -6.6 4 -10 5.9 c -20.9 2.9 -39.7 13.1 -59.8 19.3 c 44.4 -11.2 88.7 -22.5 132.6 -34.9 c 44.1 -12.5 87.9 -25.8 132.1 -38.8 c 1.9 6.2 4 13.1 6 19.9 c 0.5 0.2 1.2 0.5 1.6 0.7 c 1.4 -1.8 4.1 -3.9 3.8 -5.3 c -2.4 -9.8 -5.3 -19.4 -8.1 -29.5 c -35.8 10.1 -71.1 20.1 -105 29.6 c -9.9 -18.1 -22.9 -31.5 -35.3 -45.5 c -6.4 4.4 1.1 8.9 -1.5 13.6 c 4.5 0.5 8.7 0.8 12.2 1.3 c -2.1 1.8 -4.5 3.6 -6.8 5.5 l 1.1 1.4 c 1.2 -0.4 2.4 -0.5 4.4 -0.9 c -3.2 8.8 3.9 14 7.1 20.7 c -1.4 0.6 -2.4 0.9 -3.4 1.4 c 6.9 8.7 6.2 11.5 -4.5 15.3 c -2.8 1.1 -5.8 1.8 -8.6 2.7 c 0.1 -0.6 0.1 -1.3 0.2 -1.9 c -2.5 -0.5 -5.3 -1.8 -7.5 -1.3 c -9.1 2.2 -18 4.8 -26.9 7.6 c -3.4 1.1 -5.5 0.5 -7.8 -2.4 c -25.4 -30.7 -55.7 -55.5 -90.8 -74 c -13.5 -7.2 -27.8 -13.1 -42.5 -19.9 c -0.4 2.5 -0.4 3.4 -0.4 4.4 c -0.2 1.2 -0.5 2.2 -0.7 3.4 c 51.3 19.1 94.6 49.2 130.2 91.9 c -12.8 3.1 -24 6.9 -35.5 10.1 c -25.9 7.1 -51.7 14.8 -77.4 22.4 c -6.9 2 -14 3.6 -20.9 5.4 c -2.4 0.6 -4 0.8 -4.7 -2.7 c -2.4 -13.2 -5.5 -26.2 -8.4 -39.8 c -14.6 4.1 -27.9 7.6 -41.1 11.5 c -3.8 1.2 -6.2 0.6 -8.7 -2.7 c -6.8 -9.2 -14.2 -18.1 -21.3 -27.1 c -4.6 -5.9 -4.6 -5.9 -10.7 -1.1 c -9.1 7.1 -18.2 14 -27.1 21.3 c -3.1 2.6 -5.4 2.6 -8.6 0.6 c -6.6 -3.9 -13.2 -7.6 -20 -11.2 c -1.6 -0.8 -3.5 -1.4 -5.5 -2 c 0.7 10.1 9.8 11.8 15.5 16.7 c -7.3 2.7 -13.6 5.2 -20.2 7.5 l 0.6 1.9 c 6.8 -1.9 13.6 -4.1 20.6 -5.5 c 2.7 -0.5 6.4 -0.5 8.5 1.1 c 4.2 2.8 7.1 1.9 10.5 -0.9 c 9.8 -7.9 19.6 -15.5 30.1 -23.8 c 4.4 5.4 8.2 10.5 12.8 16.2 c -52.2 14.6 -103.5 28.9 -155.8 43.5 c 0.8 -7.2 1.5 -13.4 2.5 -20.4 c 2.5 0.2 4.4 0.4 6.1 0.5 c 10.8 1.3 21.5 2.6 32.4 3.8 c 7.5 0.8 10.4 -2.5 8.1 -9.5 c 5.2 1.6 9.2 -0.2 12.7 -4.4 c -2 0 -3.9 0 -6.6 0.1 c 3.8 -6.8 6.8 -13.3 10.9 -19.3 c 3.3 -4.8 2.7 -8.4 -1.9 -12.1 c -6.2 11.2 -12.5 22 -18.5 33.2 c -2 3.6 -4 5.2 -8.5 4.5 c -12.1 -1.8 -24.2 -2.8 -36.2 -4.5 c -3.5 -0.5 -5.3 0.4 -5.5 4.2 c -0.8 9.4 -2.4 18.6 -3.3 27.9 c -1.4 14.1 -1.4 14.1 -15.1 17.8 c -10.6 2.8 -21.2 5.9 -32.2 9.1 c 1.3 4.5 2.5 8.4 3.6 12.8 c 2.2 -1.5 4.9 -2.5 5.1 -3.8 c 0.6 -4.4 3.9 -4.5 6.8 -6.1 c 4.5 -2.5 8.4 -4 13.6 -4 c 5.4 0 11.1 -2.8 16.5 -4.2 c 3.5 -0.9 7.2 -1.4 7.2 -6.5 c 0 -0.9 2.2 -2.4 3.7 -2.7 c 14.6 -4.2 29.3 -8.4 44.1 -12.5 c 25.9 -7.3 51.9 -14.5 78 -21.9 c -0.6 -1.2 -1.1 -2.1 -1.2 -2.1 c -41.4 11.1 -82.7 22.1 -124 33.3 c 1.2 -4.5 -1.4 -9.3 5.2 -11.1 c 49.3 -13.6 98.7 -27.5 148.1 -41.4 c 7.3 -2 8.5 -1.3 11.8 6.6 l -34.1 9.8 l 0.4 1.8 c 2.1 -0.1 4.2 0.1 6.2 -0.5 c 8.2 -2.2 16.5 -4.5 24.7 -6.9 c 3.5 -1.1 6.8 -2.2 9.5 2 c 0.5 0.8 3.5 0.6 5.1 0.2 c 11.3 -3.1 22.4 -6.4 33.5 -9.4 c 1.8 -0.5 3.8 -0.4 5.6 -0.5 c 0.1 0.6 0.2 1.4 0.2 2 c -23.1 8.7 -47.8 12.5 -71 21.1 l 0.7 2.5 c 23.5 -6.5 47.2 -13.2 70.6 -19.7 c 4.5 8.5 4.4 8.8 -4.1 11.2 l -56.7 15.9 c -1.4 0.5 -2.8 1.1 -4.4 1.6 c 0.2 0.8 0.5 1.5 0.7 2.5 c 22.9 -5.4 45.3 -12.9 68.7 -18.6 c 0.9 3.2 1.8 5.8 2.6 8.9 c -2.9 0.9 -5.3 1.6 -7.5 2.4 c -22.9 6.5 -45.8 12.7 -68.7 19.2 c -59.4 16.6 -118.8 33.2 -178.4 49.9 c -1.5 0.5 -3.5 0.9 -4.9 0.5 c -2.7 -0.8 -5.4 -2.2 -9.1 -3.9 c 1.4 6 2.5 10.5 3.5 15.4 c -38.7 11.2 -76.9 22.1 -116.2 33.3 c 0.4 -7.1 0.5 -12.6 0.7 -18.2 c -0.6 -0.1 -1.4 -0.4 -2 -0.5 c -1.9 5.4 -4.2 10.7 -5.4 16.4 c -0.7 3.4 -2 4.7 -5.2 5.5 c -9.4 2.5 -18.7 5.3 -28.1 7.9 c -3.2 0.9 -6.5 1.8 -10.1 2.8 c 0.1 -3.9 0 -6.9 0.5 -9.9 c 2.2 -14 4 -28 7.1 -41.8 c 11.2 -49.7 32.5 -94.7 63.5 -135 c 6.4 -8.4 13.5 -16 20.2 -24.1 c 1.4 -1.8 2.1 -4.4 3.1 -6.5 c -0.6 -0.5 -1.3 -0.9 -1.9 -1.4 c -1.2 1.4 -2.2 2.9 -3.4 4.4 c -30.5 33.1 -54.2 70.4 -70.2 112.5 c -4.4 11.3 -7.5 22.8 -11.5 34.2 c -0.6 1.9 -2.7 3.2 -4.7 5.4 c 0.2 2.6 1.3 6.6 0.7 10.5 c -2.2 15.7 -5.4 31.3 -7.2 47.1 c -0.7 6.5 -3.4 8.1 -9.4 8 c 1.4 -28.7 6.1 -56.5 17.4 -82.9 c 0.1 2.9 0.1 5.8 0.2 8.6 c 2.9 -7.3 5.9 -14.5 9.2 -22.6 c -2.8 1.6 -4.5 2.7 -6 3.6 c -0.4 -2.1 0 -3.6 0.8 -4.7 c 6.5 -8.6 10.8 -18.4 13.2 -28.8 c 0.8 -3.8 0.6 -8.1 2.4 -11.4 c 5.2 -9.5 8.9 -19.8 15.5 -28.6 c 10.9 -14.6 21.5 -29.5 32.2 -44.5 c 2.1 -2.8 3.5 -6.2 5.4 -9.3 c 0.8 -1.3 2.4 -2.2 3.5 -3.3 c 1.5 -1.4 2.7 -3.4 4.4 -4.7 c 1.5 -1.4 4 -1.8 5.5 -3.2 c 13.4 -11.5 26 -24.4 40.4 -34.6 c 18.6 -13.1 38.4 -24.5 58.2 -35.7 c 10 -5.6 20.4 -12.5 33.3 -8.9 c -1.2 -1.1 -2.2 -2 -3.8 -3.5 c 9.8 -3.4 19.1 -6.5 28.2 -9.8 c 9.1 -3.4 18.6 -4.2 27.9 -6.5 c 9.9 -2.6 20.2 -3.8 30.4 -4.9 c 10.2 -1.2 20.5 -1.9 30.8 -2.2 c 10.4 -0.4 20.6 -0.4 30.9 0.4 c 10.5 0.6 20.9 1.8 31.3 3.4 c 10.1 1.5 20.2 3.4 30.4 5.8 c 10 2.5 19.9 5.3 29.6 8.5 c 9.8 3.3 19.4 6.9 28.8 10.9 c 9.5 4 18.6 8.5 29.2 13.3 c 0.2 -5.9 0.4 -11.2 0.6 -16.4 c 0.7 0 1.4 0.1 2.2 0.1 c -0.2 4.4 -0.1 8.6 -0.6 12.9 c -0.4 3.5 0.9 5.4 3.9 7.3 c 16.1 10.5 32.2 21.3 47.9 32.4 c 7.3 5.3 14 11.5 21.1 17.4 c 0.1 -0.6 0.4 -1.1 0.5 -1.5 c 1.5 0.2 3.3 0.1 4.7 0.7 c 1.8 0.7 3.4 2 5.1 2.9 l -0.1 0.1 h 0.2 l 2.9 4.5 c -0.9 1.4 -1.8 2.5 -2.6 3.9 c 2.7 2.7 5.4 5.4 8 7.9 c 0.7 -0.2 1.4 -0.4 2.2 -0.5 c 0.6 -5.5 1.2 -11.1 1.8 -17.1 c -2.6 0.2 -4.7 0.5 -6.7 0.6 c -0.4 0 -0.6 0.1 -0.9 0.1 c -1.5 0.1 -3.1 0.4 -4.4 0.5 c 0 0 0 -0.1 -0.1 -0.1 c 3.5 -2.5 7.2 -4.9 11.1 -7.5 c -2.2 -1.2 -3.9 -1.6 -4.8 -2.7 c -4.2 -4.4 -7.8 -9.4 -12.2 -13.4 C 724.4 198 686.8 175 645 159 c -52.9 -20.4 -107.8 -28.8 -164.4 -24.4 l -33.1 2.5 c -0.5 0 -0.8 -0.5 -1.5 -0.7 c 1.4 -0.5 2.4 -0.7 3.6 -1.3 c -8.4 -3.5 -14.9 0 -21.8 2.6 c -2.6 -0.9 -7.2 -1.4 -7.3 -0.8 c -1.3 5.2 -6.4 4.8 -9.3 7.3 c -4.6 3.8 -7.8 2.4 -10.1 -1.9 c -4.1 0.7 -8.2 0.6 -11.4 2.1 c -5.5 2.5 -10.9 5.5 -15.9 9.2 c -4.5 3.3 -7.4 9.1 -14.7 6.1 c -6.8 -2.8 -12.5 0.7 -18.1 4.1 c -6.5 3.9 -13.3 7.4 -19.8 11.4 c -4.2 2.6 -8.6 4.9 -12.4 8.2 c -4.2 3.6 -7.4 8.6 -11.4 12.5 c -5.1 4.5 -10.7 8.2 -16 12.5 c -22.7 18.5 -44.7 38 -63.2 61 c -4.5 5.5 -8.2 11.4 -12.4 17.1 c -1.6 2.1 -3.5 4.1 -5.2 6.2 l -10.9 15.2 l 2.2 0.6 c -0.2 1.4 0.1 3.1 -0.6 4 c -1.1 1.4 -2.9 2.2 -4.4 3.5 c -2.7 2.7 -5.1 5.8 -7.9 8.4 c -1.1 0.9 -3.3 1.1 -4.7 0.8 c -2.4 -0.5 -4.5 -1.4 -6.6 -2.4 c -0.2 0.5 -0.5 1.1 -0.7 1.5 c 0.5 1.5 1.1 2.9 1.5 4.4 c -3.4 0.6 -6.5 0.9 -9.5 1.5 c 0.1 0.6 0.1 1.2 0.2 1.8 c 4.1 0.2 8.1 0.4 12.6 0.6 c -6.9 4.1 -13.1 7.7 -20 11.8 c 0.1 3.9 -0.9 8.5 -5.8 11.7 c -1.2 0.8 -0.9 5.1 -0.1 7.2 c 0.9 2.2 4.4 3.3 5.2 5.4 c 0.7 1.9 0.5 5.4 -0.8 6.7 c -1.8 1.8 -5.1 2.4 -7.3 3.2 c 0.4 0.1 1.3 0.5 1.2 0.5 c -2.5 3.1 -5.8 5.5 -6.6 8.5 c -1.4 5.3 -1.6 10.9 -1.5 16.5 c 0 3.2 1.4 6.5 2.7 9.4 c 1.3 2.7 -1.6 5.9 1.8 8.7 c 1.2 0.9 -1.2 6 -1.8 9.2 c -1.8 9.5 -3.6 19.2 -5.3 28.7 c -0.2 1.4 0 3.9 0.8 4.5 c 3.8 2.6 2.9 5.6 1.9 9.3 l -5.1 -1.6 c -0.2 6.7 -0.6 12.8 -0.6 18.9 c 0 4.4 -1.3 7.3 -6.2 7.8 c -3.4 0.4 -4.8 2.5 -3.6 6.3 c 5.3 -0.4 11.5 -0.4 13.5 -8.7 z m 0 0"
    p-id="16971"></path>
  <path
    d="M 379.3 262.6 c -0.8 7.8 -1.8 13.6 -10.2 14.2 c 6.4 3.3 10.6 7.1 9.4 14.8 c 4.8 -5.5 10.1 -7.4 17.1 -4.6 c -4.6 -6.2 -4 -11.8 0.5 -17.6 c -7.1 2.3 -12.1 -0.1 -16.8 -6.8 m 404.3 39.6 c 0.9 1.2 2.9 1.4 4.5 2.1 c 0.5 -0.6 0.7 -1.2 1.2 -1.8 c -3.8 -4.5 -7.5 -8.9 -11.4 -13.3 c -1.5 -1.6 -3.6 -2.8 -5.2 -4.5 c -3.2 -3.5 -6.1 -7.3 -9.2 -10.9 c -0.4 1.3 -0.9 2.9 -0.4 3.6 c 6.7 8.5 13.5 16.7 20.5 24.8 m 0.5 -21.7 c 0.2 -0.2 0.4 -0.6 0.5 -0.7 c -1.3 -2.5 -2 -5.5 -3.9 -7.3 c -1.6 -1.4 -2.7 -6.9 -7.3 -2.2 c 3.6 3.3 7.1 6.7 10.7 10.2 m -22.3 -9.3 c -1.1 -1.6 -2.2 -2.9 -3.4 -4.2 c -1.3 -1.3 -0.1 0 -0.1 -0.1 c -0.6 -0.5 -1.3 -1.2 -1.8 -1.5 c -0.1 -0.1 -0.2 -0.1 -0.4 -0.2 c -0.5 -0.4 -1.1 -0.7 -1.5 -1.1 l -0.7 -0.4 c -0.5 -0.2 -0.8 -0.5 -1.3 -0.6 c -0.4 -0.1 -0.7 -0.2 -1.1 -0.2 c -0.4 -0.1 -0.5 -0.2 -0.8 -0.2 c -0.6 -0.1 -1.2 0 -1.6 0.1 c 3.6 5.4 7.9 9.4 14.2 10.7 c 0 -0.1 -0.1 -0.2 -0.2 -0.4 c -0.5 -0.6 -0.8 -1.4 -1.3 -1.9 m -27.4 -20.9 c 3.2 2.6 7.1 4.5 10.6 6.8 c 0.5 -0.8 1.1 -1.6 1.6 -2.6 c -3.9 -2.1 -10.5 -3.4 -11.3 -6.5 c -2 -6.5 -7.4 -8.4 -11.4 -11.4 c -54.2 -42.2 -115.8 -66.7 -184.1 -72.9 c -71.3 -6.5 -138.6 8.1 -201.5 42.7 c -21.9 12 -42.5 26.5 -61.2 43.2 c -1.2 1.1 -1.4 3.2 -2.2 4.7 c 0.6 0.2 1.2 0.5 1.6 0.7 c 0.7 -0.6 1.4 -1.2 2.2 -1.6 c 9.9 -7.8 19.4 -16.1 29.7 -23.4 c 10.2 -7.3 20.9 -14 32 -20 c 10.9 -6.1 22.4 -11.6 34 -16.5 c 11.2 -4.5 22.2 -9.5 34 -12.6 c 27.8 -7.1 55.7 -13.8 84.5 -13.6 c 21.4 0.1 43.2 0.1 64.5 3.1 c 66.6 9.1 125.5 36.6 177 79.9"
    p-id="16972"></path>
  <path
    d="M 502.5 208.2 c -23.2 0.8 -46 3.9 -68.4 9.5 c -9.2 2.4 -18.4 5.1 -27.3 7.5 l -0.1 0.1 c 2.1 1.5 4.4 2.7 6.7 3.4 c 0.4 0.1 0.6 0 0.9 0.1 c 0.9 0.2 1.9 0.4 2.8 0.4 c 1.3 0 2.6 -0.4 4.1 -0.7 c 24.8 -8 50.2 -12 76.2 -13.1 c 4 -0.1 8 -0.4 12 -0.7 c -0.3 -4.8 -2.3 -6.6 -6.9 -6.5 z m -60.9 34.3 c -3.3 -1.5 -6.4 -3.8 -9.1 -6.1 c -1.3 -1.1 -1.5 -3.3 -2.5 -4.9 c -0.7 0.6 -1.4 1.2 -2.1 1.6 c -0.4 1.4 -0.8 2.9 -0.8 4.5 c -0.1 5.1 -1.4 9.1 -6.5 11.5 c -2.8 1.4 -1.8 6.5 0.6 8.6 c 1.9 1.9 3.3 4.1 4.2 6.6 c 0.8 2.6 0.7 5.6 1.3 10.2 c 6.5 -7.2 12.2 -12.8 21.4 -8.2 c 0.4 0.2 1.6 -0.6 2.2 -1.3 c 0.4 -0.5 0 -1.8 -0.5 -2 c -1.3 -0.5 -2.6 -0.7 -2.9 -0.8 c -0.4 -2.5 -0.6 -4 -0.8 -5.7 c -0.1 -1.1 -0.6 -2.4 -0.2 -3.2 c 1.7 -3.8 -0.7 -9.1 -4.3 -10.8 z m -35.2 -16.9 l 0.2 -0.1 l -0.2 -0.1 v 0.2 z m 109 -10 c 11.4 0.5 23.1 0.9 35.2 1.4 c 0.2 -1.4 0.4 -3.3 0.6 -5.8 c -10.4 -0.7 -20.4 -1.4 -30.2 -2.5 c -5.1 -0.4 -7.6 0.8 -5.6 6.9 z m -114.1 16.3 c 0.5 0.2 0.9 0.2 1.5 0.4 h 0.5 c 0.2 0 0.5 0 0.7 -0.1 c 0.1 0 0.2 -0.1 0.5 -0.2 c 0.2 -0.1 0.4 -0.2 0.5 -0.4 c 0.1 -0.1 0.1 -0.2 0.2 -0.4 s 0.4 -0.4 0.5 -0.5 v -0.1 c 0.6 -1.2 0.8 -3.1 0.8 -5.1 c -0.6 0.5 -1.3 0.9 -2 1.2 c -22.5 8.2 -43.9 18.5 -63.7 32 c -5.1 3.4 -8.6 9.4 -13.9 11.8 c -7.8 3.5 -14 9.3 -20.1 14.5 c -11.9 10.2 -22.5 22.1 -33.1 33.8 c -6.5 7.2 -11.8 15.3 -18.2 23.7 c 7.5 3.2 10 -2 12.6 -5.6 c 2.8 -3.9 4.7 -8.5 7.2 -12.9 c 0 0 0.8 0.6 1.9 1.3 c 20.2 -24.6 43.7 -45.3 70 -62.9 c 6.5 -4.4 15.3 -5.9 19.3 -13.9 c 0.2 -0.4 1.3 -0.1 2 -0.2 c 1.3 -0.1 2.8 0.4 3.9 -0.2 c 7.8 -3.5 15.6 -7.1 23.3 -10.8 c 2 -1.2 3.5 -3.3 5.6 -5.4 z m 84.5 1 c 1.3 8.5 -3.9 11.4 -11.8 14.1 c 8.5 2.4 11.6 6.6 11.4 14.1 c 4.7 -6.2 10.5 -6.6 17.3 -4.7 c -5.5 -6.1 -3.8 -11.6 0.2 -17.9 c -7.5 3.7 -12 -0.2 -17.1 -5.6 z m 270.7 461 c 1.4 -2.4 2.8 -4.6 4.2 -6.9 c -1.9 -1.1 -3.5 -1.9 -5.5 -2.9 c -3.8 4.8 -3.8 4.9 1.3 9.8 z M 96.6 750.2 c -2.2 -7.5 -4.4 -14.6 -6.8 -23.3 c 0.1 6.1 0.2 10.5 0.4 14.7 c -0.6 -29.5 -13.5 -56 -19.8 -84.2 c -2 0.7 -2.9 1.1 -6.1 2.2 c 0.6 -6 1.1 -10.5 1.5 -14.8 c 0.1 -1.2 0.1 -2.4 -0.2 -3.4 c -3.6 -13.1 -7.4 -26.1 -11.4 -39.1 c -0.6 -1.5 -3.2 -3.8 -4.5 -3.5 c -2.6 0.6 -2.9 2.7 -2 5.6 c 3.5 11.6 6.7 23.4 10.2 35.3 c 2 6.7 6.6 12.7 4.5 20.7 c -9.4 -28.5 -18.6 -56.7 -27.9 -84.7 c 4.9 63.1 29.3 121.3 47.1 181.2 c 0.5 1.9 2.1 3.5 3.4 5.6 c 0.7 -5.4 -2.6 -10.7 2.5 -16.1 c 1.8 4.4 3.1 7.9 4.6 11.8 c 5.6 -2.5 11.2 -4.8 16.8 -7.3 c 0.1 0.2 0.2 0.8 0.5 1.5 c 2.6 -0.8 5.2 -1.5 7.4 -2.4 c -1.2 -1.5 -2.2 -2.9 -3.4 -4.4 c -5.3 1.6 -10.8 2.9 -16.8 4.6 z m 66 -132.9 c 0.6 -11.8 -7.6 -20.2 -19.4 -19.4 c -4.5 0.4 -9.1 1.4 -13.4 2.8 c -15.1 5.3 -20.5 25.5 -10.4 38 c 1.8 2.2 4.7 4 7.5 4.8 c 15.6 4.4 35 -10.2 35.7 -26.2 z m 0 0"
    p-id="16973"></path>
  <path
    d="M 43 572.3 l -0.6 15.3 h 1.4 c 2.1 -18.4 -3.1 -35.7 -8.9 -53.1 c -2 -0.1 -4 -0.2 -6.8 -0.4 l 9.4 33.4 c 5.1 -1.7 5.7 1.1 5.5 4.8 z M 147.5 739 c 1.8 0.5 4.1 1.8 5.2 1.2 c 5.4 -3.4 13.9 0.1 17.3 -7.6 c 0.1 -0.1 0.6 0 1.1 -0.1 c 2.4 0 2.4 0 3.2 -3.8 c -8.2 2.4 -15.6 4.2 -23.1 6.6 c -1.6 0.1 -2.4 2.3 -3.7 3.7 z M 78.2 514.6 c -0.5 -0.6 -0.8 -1.1 -1.4 -1.5 c -3.4 1.1 -6.7 2.1 -10.8 3.4 c 1.8 1.8 2.9 3.1 3.5 3.6 c 3.8 -2.3 6.4 -4 8.7 -5.5 z M 260 757.8 c -0.7 9.3 8 11.1 12.7 16.1 c -0.2 -8.3 -8.3 -10.6 -12.7 -16.1 z M 105 511.1 c -0.8 -2.1 -1.4 -3.5 -2.2 -5.4 c -7.6 2.2 -14.8 4.4 -22.5 6.6 c 1.3 2 2 3.2 2.6 3.9 c 7.6 -1.7 14.7 -3.4 22.1 -5.1 z m 190.9 331.1 l 10.9 3.2 c 0.2 -0.7 0.5 -1.4 0.5 -2.1 c -3.6 -1.1 -7.4 -2 -11.1 -3.1 c 0 0.7 -0.2 1.3 -0.3 2 z m 643.5 -523.5 c -4.1 2.6 -5.9 4.5 -4.6 8.8 c 12.6 43.7 24.9 87.4 37.3 131.2 c 3.6 12.9 7.4 26 11.1 39.2 c -2.6 0.8 -4.5 1.5 -6.5 2.2 c -2.7 0.8 -7.4 1.2 -7.9 2.5 c -1.4 5.3 -4.9 4 -8.4 4.4 c -0.7 0.1 -1.5 0.8 -2.2 1.1 c -2.7 0.7 -5.5 1.6 -8.4 2 c -3.1 0.5 -6.5 -0.5 -9.4 0.5 c -23.9 6.6 -47.6 13.4 -71.4 20.2 c -31.6 9.1 -63.3 18 -94.9 27.1 c -10.4 2.9 -20.6 6 -30.9 8.9 c -0.1 0.5 -0.4 1.1 -0.5 1.6 c 1.6 0.8 3.5 2.7 4.9 2.4 c 12.2 -3.1 24.2 -6.5 36.2 -9.9 c 6.5 -1.8 12.8 -3.5 19.9 -5.5 c -0.1 2.6 0 3.5 -0.2 4.6 c -5.4 35.3 -16.7 68.5 -33.8 99.8 c -1.3 2.4 -1.6 4.9 -2 6.1 c -4 5.4 -7.4 9.6 -10.6 14 c 1.6 2.1 2.9 3.6 4.7 5.9 c 3.6 -5.6 6.9 -10.5 9.9 -15.6 c 18.4 -31.7 31.2 -65.4 37.3 -101.7 c 0.5 -2.5 -0.7 -5.2 -1.2 -8.2 c 0.6 -0.6 2.5 -2.1 4.7 -3.9 h -4.4 c -0.1 -0.5 -0.1 -1.1 -0.2 -1.5 c 15.4 -4.6 30.8 -9.3 47.1 -14.2 c -2.1 33.8 -9.6 65.2 -20.7 96 c 1.6 -0.2 2.6 -0.2 3.5 -0.4 c -0.2 0.2 -0.5 0.4 -0.6 0.5 c -0.6 0.5 -1.4 0.9 -1.9 1.4 c -0.2 0.1 -0.4 0.4 -0.5 0.5 c -0.6 0.6 -1.2 1.2 -1.5 1.8 c 0 0 0 0.1 -0.1 0.1 c -3.5 4.9 -4.5 11.3 -7.9 17.1 c 0.6 -0.2 1.3 -0.6 2 -1.1 c 0.2 -0.2 0.6 -0.5 0.7 -0.7 c 0.4 -0.4 0.8 -0.7 1.3 -1.2 s 0.7 -0.9 1.2 -1.4 c 0.4 -0.4 0.6 -0.6 0.8 -1.1 c 0.6 -0.8 1.1 -1.5 1.5 -2.5 c 0.1 -0.2 0.2 -0.4 0.4 -0.5 c 2.4 -4.2 4.2 -9.2 4.8 -13.2 c 1.2 -2.5 2.7 -5.1 3.4 -7.8 c 1.2 -4.5 1.4 -9.3 2.6 -13.8 c 1.9 -6.5 5.4 -12.6 6.6 -19.2 c 3.3 -17.4 5.6 -34.8 8.4 -52.4 c 0.6 -3.1 5.4 -8.4 6.8 -6.9 c 1.4 1.4 1.8 4.5 1.9 6.8 c 0.2 4 -0.2 8.1 -0.4 12.4 c 2.6 -0.4 4.4 -0.6 5.9 -0.8 c -1.2 2.2 -2.2 4.1 -3.5 6.4 c -0.8 -0.4 -2 -0.6 -4.4 -1.4 c 0.2 6.1 0.5 11.3 0.7 17.2 c 0 0 -2.4 0.5 -2.6 1.4 c -1.6 6.5 -3.5 13.3 4.4 18.8 c -2.5 0.6 -4.2 0.8 -5.6 1.5 c -1.4 0.7 -3.1 1.8 -3.5 3.1 c -4.4 13.2 -8.4 26.5 -12.6 39.7 c -1.2 3.4 -2.4 6.4 0.8 9.3 c 0.2 0.2 -0.1 0.9 -0.2 2 c -1.3 -1.2 -2.1 -1.9 -3.1 -2.7 c -6 12.1 -11.9 24.1 -17.9 35.9 c -0.8 1.6 -2.8 2.6 -4.6 4.4 c 0.9 4.9 -2.9 8.9 -5.6 13.4 c -22.6 38 -51.7 70.1 -86.5 97.2 c -4.5 3.5 -8.8 4.5 -13.9 0.9 c 5.2 -4.5 10.1 -8.9 15.2 -13.3 c 7.3 -6.4 14.6 -12.8 21.8 -19.4 c 1.5 -1.5 2.4 -3.9 3.4 -5.9 c -0.5 -0.4 -1.1 -0.6 -1.5 -1.1 c -2.9 2.1 -6.1 4 -8.8 6.4 c -10.4 9.1 -20.7 18.2 -31.2 27.3 c -2.9 2.5 -3.8 1.2 -3.4 -2.5 c 0.1 -0.9 -2.5 -2.9 -3.8 -2.9 c -6.7 0 -13.5 0.5 -20.7 0.9 c 4.4 2.4 8.4 4.5 12.9 7.1 c 0.5 -0.6 1.5 -1.5 2.7 -2.7 c 0.1 0.5 0.2 0.9 0.4 1.5 c 2 0.4 4.1 0.6 7.1 1.2 c -1.6 1.6 -2.7 3.2 -4.2 4.1 c -7.6 4.8 -15.4 9.6 -23.3 14.2 c -1.4 0.8 -3.9 0 -5.9 0 c -0.4 0 -0.6 0.2 -1.2 0.4 c 0.5 0.9 0.9 2 1.4 2.7 c -8.6 4.4 -16.8 9.3 -25.5 12.9 c -12.6 5.4 -25.5 9.9 -38.4 14.6 c -4.1 1.5 -7.4 -0.2 -9.1 -4.5 c -1.5 5.2 -1.5 5.3 -7.5 1.3 c -3.4 2.1 -6.7 4.1 -10.1 6.1 c -0.4 -0.5 -0.7 -1.2 -1.1 -1.6 c 1.2 -1.4 2.4 -2.7 4.5 -5.2 c -7.9 2.7 -15.5 -2.6 -22.9 5.1 c 4.1 0.2 6.8 0.4 8.6 0.4 c 2.4 6.1 8.6 0.6 10.8 4.8 c -0.5 0.4 -0.8 0.7 -1.3 0.8 c -7.6 1.5 -15.4 3.4 -23.2 4.5 c -5.8 0.9 -11.8 2.1 -17.5 1.5 c -5.9 -0.6 -11.5 -1.9 -17.2 1.1 c -2.2 1.2 -4.6 2.5 -6.9 2.5 c -8.6 0 -17.3 -0.6 -25.9 -0.9 c -0.2 0.5 -0.6 0.8 -0.7 1.4 c 1.5 0.8 3.1 2.5 4.6 2.5 c 10.1 0.5 20.2 0.5 30.2 0.8 c 4.9 0.2 10.2 0.1 14.6 2 c 5.9 2.5 11.3 0.7 16.9 0.4 c 1.4 -0.1 2.9 0.1 4.5 0.1 v 1.9 c -25.4 1.6 -50.9 5.7 -76.6 2.4 c -26.2 -3.5 -52.1 -10.1 -76.8 -19.8 c -0.1 2.6 -0.2 4.4 -0.4 6.9 c -7.2 -2.2 -14.5 -4.4 -21.6 -6.4 c -0.5 6.4 -1.1 12 -1.5 18.8 c 2.7 0.9 7.4 2.4 11.9 4.1 c 2.8 1.2 4.1 0.4 4.9 -2.4 c 0 -0.1 0.6 0 1.5 0 c 0.2 1.5 0.5 2.9 0.6 3.9 c 2.4 -0.1 4.4 -0.6 6 -0.1 c 4.5 1.4 8.7 3.2 13.1 4.8 l 0.7 -1.8 c -4.6 -2.1 -9.2 -4.2 -14.7 -6.8 c 2.4 -0.9 4.2 -2.6 5.8 -2.2 c 1.8 0.4 3.3 2.2 4.7 3.5 c 0.2 -2.1 0.4 -3.5 0.5 -5.1 c 1.4 0.2 2.7 0.4 4.1 0.6 c 1.5 0.5 3.2 1.2 4.6 1.6 c 0.4 1.6 0.5 3.4 1.1 6.5 c 2.2 -2.6 3.4 -4.2 5.4 -6.5 c -0.1 2.8 0.2 5.5 -0.4 5.8 c -5.4 1.8 1.2 5.5 -1.3 7.4 c 2.1 0.6 4.1 1.5 6.2 2 c 2.6 0.5 5.4 0.4 7.9 0.7 c 25.1 3.9 50.1 5.8 75.5 4.5 c 26.4 -1.3 52.2 -5.2 78 -11.3 c 27.2 -6.5 52.5 -18.8 80.4 -23.3 c 8.5 -1.4 16.2 -7.1 24 -11.3 c 2 -1.1 2.8 -4.4 4.5 -7.2 c 2.4 -0.9 8 -1.6 8.5 -3.6 c 1.2 -5.2 5.1 -6.2 8.4 -8.4 c 5.5 -3.8 10.6 -8 16.4 -11.2 c 4.7 -2.5 8.6 -7.9 15.3 -5.8 c 0.1 0 0.4 -0.6 0.6 -1.2 c -1.4 -0.5 -2.6 -0.7 -4.1 -1.2 c 3.9 -3.5 8.2 -5.9 11.5 -9.9 c 5.9 -7.2 14.5 -11.4 20.5 -18.7 c 5.4 -6.4 11.6 -12.1 16.8 -18.6 c 10 -12.6 19.4 -25.7 29.3 -38.2 c 4 -5.1 5.2 -12.5 12.5 -14.9 c 1.1 -0.4 1.5 -2.8 1.9 -4.5 c 0.6 -2.2 0.5 -4.8 1.4 -6.8 c 8.1 -16.7 17.3 -32.9 22.7 -50.8 c 2.4 -8 6.4 -15.6 7.9 -23.8 c 1.4 -8.2 7.5 -16 2.7 -25.4 c -8.5 23.7 -14.2 48.5 -27.1 70.4 c 2.1 -6.6 4.8 -13.2 7.2 -19.8 c 0.7 -2.2 -0.5 -5.4 0.7 -7.3 c 2.9 -4.7 5.5 -9.4 6.9 -14.9 c 2.9 -11.3 5.9 -22.5 8.5 -33.9 c 0.6 -2.7 0.4 -5.6 0.5 -8.8 c 0.7 -1.8 2.1 -4 2.5 -6.4 c 1.5 -10.7 2.8 -21.5 4.2 -32.5 c 0.5 -4.5 1.1 -9.1 1.6 -14.5 l 103 -29.3 c -17.7 -60.7 -35.1 -121.6 -52.4 -182.5 z m 0 0"
    p-id="16974"></path>
  <path
    d="M 792.7 722.2 c 12.4 -16 22 -33.4 30.9 -51.4 c 0.8 -1.5 0.7 -3.6 1.1 -5.4 l -2.1 -0.4 c -0.6 0.6 -1.2 1.1 -1.4 1.6 c -13.1 27.2 -29.8 52.5 -49.8 75.1 c -3.9 4.5 -7.4 9.4 -11.8 13.3 c -5.1 4.4 -5.3 4.4 -0.4 8.8 c 1.5 -2.4 2.8 -4.8 4.7 -7.1 c 3.1 -3.5 6.2 -6.9 9.5 -10.4 c 0.6 -0.6 2.2 -0.5 3.1 -0.9 c 1.1 -0.6 2.4 -1.4 2.8 -2.5 c 0.5 -1.2 -0.2 -3.2 0.5 -4.1 c 4.3 -5.7 8.7 -11.2 12.9 -16.6 z m -416.2 61.1 c -1.3 6.8 -1.1 7.2 7.5 10 c 0.5 -1.3 0.9 -2.6 1.9 -5.4 c 1.9 3.2 3.1 5.2 4.5 7.5 c 0.8 -6.8 -2.4 -9.4 -13.9 -12.1 z m 0.7 67.1 c -5.3 -2.1 -10.4 -4.6 -15.6 -6.5 c -2.7 -0.9 -5.9 -0.9 -9.3 -1.4 c 0.1 3.5 0.2 5.3 0.4 7.2 c -0.4 0.1 -0.6 0.2 -0.9 0.4 c -0.5 -2.4 -0.6 -4.7 -1.4 -6.9 c -0.9 -2.1 -2.6 -3.9 -4 -5.8 c -0.7 4.7 -0.4 9.3 -0.1 13.8 c 0.4 7.3 7.4 12.5 13.9 11.3 c 1.3 -4.2 2.5 -8 3.6 -11.6 c 0.5 0 1.2 -0.1 1.6 -0.1 c 0.6 3.5 1.2 7.2 1.6 10.1 c 0.7 -0.5 2 -1.2 4.1 -2.5 c 0 -0.2 0.2 -1.9 0.7 -5.2 c 0.9 4.5 1.4 7.4 2 10.2 c 0.4 -2 0.6 -3.9 1.1 -5.8 h 0.9 c 0.5 1.6 1.1 3.5 2 6.2 c -0.1 -3.9 -0.2 -6.6 -0.2 -9.4 c 0.6 -0.1 1.2 -0.4 1.6 -0.5 c 1.4 3.5 2.8 7.1 4.2 10.5 c 2.9 -9.5 2.4 -10.6 -6.2 -14 z M 403.7 675 c 2.6 13.4 5.9 26.8 8.9 40.7 c 15.4 -4.4 29.3 -8.2 43.2 -12.4 c 3.3 -0.9 5.2 -0.4 7.3 2.4 c 7.2 9.5 14.6 18.6 22 28 c 5.4 6.8 5.4 6.8 12.5 1.3 c 8.9 -7.2 18.1 -14.1 26.8 -21.4 c 3.2 -2.6 5.5 -3.1 9.1 -0.8 c 6.6 4.1 13.5 7.8 20.4 11.4 c 1.8 0.9 3.8 1.2 5.9 1.8 c -1.4 -10.2 -10.1 -12.4 -16.5 -16.8 c 7.6 -2.9 14.6 -5.6 21.5 -8.5 l -0.7 -1.8 c -7.4 2 -14.6 4.4 -22 6 c -2.5 0.5 -6 0.5 -7.9 -0.8 c -4.7 -3.2 -8 -2.1 -12 1.3 c -9.8 8.2 -19.9 15.9 -30.4 24.2 c -4.5 -5.6 -8.5 -10.8 -13.2 -16.7 c 53.8 -15.3 106.5 -30.4 160.4 -45.5 c -0.9 7.6 -1.6 14.2 -2.5 21.1 c -2.6 -0.2 -4.5 -0.4 -6.4 -0.5 c -11.2 -1.3 -22.4 -2.7 -33.4 -3.8 c -2.4 -0.2 -5.6 0.2 -6.9 1.6 c -1.6 1.9 -1.6 5.3 -2.4 8 c -3.8 -1.4 -11.1 1.2 -11.6 5.1 c 2 -0.1 4 -0.4 6.6 -0.5 c -3.9 7.2 -6.9 14.1 -11.3 20.1 c -3.5 5.1 -2.4 8.5 1.9 12.7 c 5.5 -10 10.9 -19.8 16.4 -29.5 c 5.8 -10.6 5.8 -10.4 17.4 -8.8 c 11.9 1.5 23.8 2.8 36.2 4.4 c 0.5 -2.9 1.2 -5.3 1.4 -7.6 c 1.1 -8.9 2 -17.9 3.1 -26.8 c 1.5 -14 1.6 -13.9 15.1 -17.7 c 10.9 -3.1 21.9 -6.4 33.2 -9.5 c -1.3 -4.6 -2.5 -8.7 -3.5 -12.8 c -0.6 -0.2 -1.2 -0.6 -1.8 -1.1 c -3.5 9.2 -12.5 11.1 -18.2 15.2 c -2.8 -0.4 -4.7 -1.1 -6.4 -0.7 c -6.8 1.8 -13.5 3.8 -20.4 5.9 c -1.4 0.6 -3.5 2.2 -3.5 3.5 c -0.4 3.6 -2.4 4.6 -5.3 5.5 c -26.4 7.4 -52.8 14.9 -79.2 22.4 c -15.3 4.4 -30.5 8.8 -45.5 13.2 c 0.1 0.6 0.2 1.3 0.4 1.9 c 1.8 -0.1 3.6 0.2 5.3 -0.4 c 28.6 -8.1 57.1 -16.2 85.8 -24.2 c 12.2 -3.5 24.4 -6.9 36.6 -10.5 c 1.3 9.5 0.8 10.1 -7.2 12.5 c -8.4 2.4 -16.8 4.8 -25.3 7.2 c -41.3 11.8 -82.5 23.4 -123.7 35.3 c -8.1 2.4 -9.1 1.9 -12.7 -6.6 c 11.8 -3.4 23.4 -6.8 35.2 -10.2 c -0.1 -0.6 -0.2 -1.3 -0.5 -2 c -2.4 0.2 -4.6 0.1 -6.8 0.6 c -9.1 2.4 -18 5.2 -27.1 7.4 c -1.9 0.5 -4.9 0.2 -5.9 -1.1 c -2.2 -2.7 -4.2 -2.6 -6.9 -1.6 c -11.6 3.5 -23.4 6.7 -35.2 10 c -1.6 0.5 -3.5 0.2 -5.3 0.4 c -0.1 -0.6 -0.2 -1.3 -0.5 -1.9 c 1.5 -0.7 3.2 -1.5 4.8 -2 c 5.2 -1.4 10.5 -2.6 15.4 -4.4 c 0.6 -0.2 0.9 -0.5 1.4 -0.7 c 0.1 0 0.1 -0.1 0.2 -0.1 c 1.3 -0.9 2.4 -2.2 3.5 -3.3 c 0.1 0 0.2 0 0.4 -0.1 c 0.1 0 0.1 0 0.2 -0.1 c 1.6 0.2 3.5 0.6 5.2 0.7 h 0.4 c 0.6 0 1.3 0 1.8 -0.2 c 12.1 -3.2 24.2 -6.7 36.2 -10.4 c 1.5 -0.5 2.7 -1.6 4.1 -2.5 l -0.7 -1.8 c -5.1 1.4 -10 2.8 -15.1 4.4 c -10.6 3.3 -21.3 6.5 -31.9 9.6 h -0.7 l -0.2 0.2 c -8.7 2.1 -17.4 4.2 -26.5 6.4 c -0.9 -3.2 -1.6 -6 -2.6 -9.2 c 16.4 -4.6 31.9 -9.3 47.4 -13.5 c 15.1 -4.1 29.6 -9.6 44.8 -13.6 c -2.7 -0.8 -5.4 -1.1 -7.9 -0.5 l -79.1 22.6 c -1.9 0.6 -3.9 0.8 -6.2 1.3 c -0.9 -3.3 -1.6 -6 -2.5 -9.1 c 2.8 -0.9 5.2 -1.8 7.5 -2.4 c 25.5 -7.3 51.2 -14.5 76.8 -21.8 c 59.1 -16.7 118 -33.5 177 -50.4 c 1.8 -0.6 5.1 -1.4 5.4 -0.9 c 2.1 4.2 6.1 1.2 9.6 4.1 c -1.4 -6.2 -2.6 -10.8 -3.6 -15.5 c 1.4 -0.5 2.2 -0.7 3.2 -1.1 c 12.1 -3.9 24.2 -7.6 36.4 -11.5 c -6.1 -2.6 -12.1 -1.5 -18.2 0.4 c -14.6 4.4 -29.3 8.1 -44.1 11.9 c -5.1 1.3 -5.2 4.1 -3.6 8.7 c 4.9 -1.5 9.6 -2.7 14.2 -4.5 c 3.5 -1.4 5.1 -0.6 5.5 4 c -10.8 2.8 -21.8 5.8 -32.8 8.5 c -0.9 0.2 -2.2 -1.1 -4.7 -2.2 c 5.5 -2.5 9.6 -4.2 13.6 -6 c -1.2 -4.2 -2.4 -5.6 -5.1 -5.3 c -0.9 0.1 -2 0.5 -3.4 1.1 c -2.8 1.2 -5.5 2.5 -8.5 3.3 c -15.1 4.5 -30.1 8.7 -45.2 13.1 c 0 0.6 0.1 1.3 0.1 1.9 c 6.9 0.4 14 0.5 20.4 0.8 c 7.9 -3.8 15.1 -8.9 25.6 -4.4 c -15.4 4.5 -30.1 8.9 -44.8 13.1 c -19.3 5.4 -38.6 10.4 -57.9 15.8 c -15.9 4.5 -31.8 9.5 -47.5 14.4 c -6.2 1.9 -12.5 4.8 -18.6 5.2 c -10.1 0.5 -18.8 4.5 -28.1 7.8 c -9.8 3.5 -19.8 6.1 -29.6 9.2 c -1.9 -3.8 -1.8 -5.5 2 -6.6 c 16.1 -4.5 32 -9.5 48.2 -13.8 c 14.4 -3.9 28.7 -7.2 43.1 -10.8 c 1.8 -0.5 3.3 -2.2 4.9 -3.4 l -0.7 -1.4 c -3.4 0.4 -7.1 -0.4 -9.9 0.9 c -5.5 2.4 -12.7 -0.4 -16.9 6.5 c -1.2 1.8 -7.3 2.9 -8.2 1.9 c -3.4 -3.8 -6.2 -1.2 -9.1 -0.5 c -28.6 8 -57.2 16.2 -85.9 24.2 c -4.6 1.3 -8.9 2.4 -9.5 8.5 c 1.2 -0.2 2.4 -0.4 3.4 -0.6 c 8.2 -2.4 16.4 -4.7 24.6 -7.2 c 4.9 -2.5 6.8 -1.2 7.5 2.7 z m -126.8 24.7 c -12.9 1.4 -16.4 3.4 -15.5 8.5 c 4.6 -0.1 9.2 -0.1 14 -0.2 c 0 -0.4 -0.5 -2 -0.2 -3.6 c 0.1 -1.7 1 -3 1.7 -4.7 z m 92.8 133 c 0.2 5.4 7.5 9.4 16.4 9.9 c -4 -6.8 -11.3 -5.7 -16.4 -9.9 z M 342 850.5 c -2.1 -19.1 -2.2 -19.3 -13.6 -22.7 c 1.5 4.1 2.9 7.6 4.5 11.9 c -2.4 1.5 -4.7 2.9 -7.2 4.5 c -1.8 -7.3 -3.4 -14 -4.9 -20.6 c -0.2 -0.7 -0.9 -1.5 -1.5 -2 c -8.1 -5.5 -16.1 -11.1 -24.4 -16.5 c -1.3 2.4 -2.4 4.2 -3.3 6 c -1.5 -1.1 -2.8 -1.8 -3.8 -2.5 c 0.9 -2 1.8 -4.1 2.7 -6.1 c -0.4 -0.2 -0.6 -0.4 -1.1 -0.6 c -0.6 0.8 -1.3 1.5 -1.8 2.4 c -0.9 -2.5 -1.2 -5.5 -2.8 -7.2 c -7.9 -7.2 -16.1 -13.9 -24.4 -20.8 c -2.5 2.9 -4.9 5.8 -7.8 9.1 c 1.6 -12 -1.5 -22 -11.5 -29.1 c -0.4 -0.2 -0.4 -0.6 -0.6 -0.9 c -1.4 -1.6 -3.5 -5.1 -4.5 -4.8 c -4.8 1.5 -4 -2.5 -5.3 -4.6 c -1.5 -2.4 -2.6 -5.1 -4.2 -7.3 c -3.7 -5.2 -7.6 -10.2 -11.4 -15.4 c 5.6 -3.9 9.5 -3.4 12.8 2.2 c 2.1 3.5 5.1 6.6 7.5 9.9 c 0.5 -0.4 1.2 -0.6 1.6 -0.8 c 1.1 -6.7 -7.3 -9.5 -8.2 -15.9 c 8.6 -2.5 17.3 -4.9 25.8 -7.4 c 3.4 -0.9 5.1 -2.5 3.4 -6.1 c -0.6 0 -1.2 -0.2 -1.6 0 c -16.4 4.6 -32.6 9.2 -48.9 14 c -1.5 0.5 -2.9 2.9 -3.5 4.7 c -0.6 2.1 -0.4 4.5 -0.5 6.8 h 1.1 c 0.2 -2 0.5 -4 0.6 -6 c 0.6 0 1.1 -0.1 1.5 -0.1 c 0.7 5.5 2 10.9 2.2 16.4 c 0.4 8 4.6 13.2 10.4 18.5 c 0.1 -0.9 0.2 -1.6 0.2 -1.8 v 0.1 c 2.6 4.1 5.5 8.7 8.5 13.4 c 0.5 -0.2 0.8 -0.5 1.3 -0.7 c -0.1 -1.8 -0.1 -3.6 -0.2 -5.5 c 0.5 0 1.2 -0.1 1.6 -0.1 c 0.6 3.4 1.3 6.7 1.9 10.4 c 0.8 -1.4 1.5 -2.5 2.2 -3.5 c 1.4 2.5 1.1 4.7 1.9 6.6 c 0.8 2 2.5 3.9 4.1 5.3 c 15.8 13.5 31.4 27.1 47.4 40.2 c 2.1 1.8 4.2 5.3 7.9 2.2 c 0.6 0.8 1.2 1.8 1.6 2.5 c 0.9 -1.5 1.9 -3.3 3.5 -6.4 c 1.3 3.5 2.6 5.5 2.5 7.5 c -0.2 4.6 2.4 6.7 5.9 8.7 c 7.3 4.1 14.2 8.8 21.4 12.8 c 3.8 2.1 8.1 3.5 12.9 5.5 c -0.6 -3.5 -0.8 -6 -1.3 -9.3 c 0 1.4 -0.2 2.2 -0.6 3.1 z m 0 0"
    p-id="16975"></path>
  <path
    d="M 506.9 676.7 c 23.4 -6.6 47.1 -13.4 71.9 -20.5 c -5.5 -2.2 -67.8 14.8 -72.4 18.6 c 0.1 0.8 0.3 1.2 0.5 1.9 z m 79.5 -24.8 c 3.2 -0.1 6.4 0.4 9.3 -0.5 c 25.2 -6.9 50.1 -14.1 75.3 -21.3 c 1.8 -0.5 3.3 -2 4.8 -3.1 c -0.4 -0.6 -0.6 -1.1 -0.8 -1.5 c -29.5 8.4 -59.2 16.8 -88.7 25.3 c 0 0.4 0 0.8 0.1 1.1 z m -221.2 23.5 c -0.5 -0.4 -1.1 -0.7 -1.4 -1.1 c -14.9 4.4 -29.9 8.5 -44.7 12.9 c -1.9 0.6 -3.2 3.1 -5.6 5.5 c 2.7 0.1 4 0.5 4.9 0.1 c 14.8 -4.1 29.5 -8.2 44.2 -12.7 c 1.2 -0.2 1.8 -3 2.6 -4.7 z m -10.1 102.8 c 2.8 -6.4 -2 -8.5 -6.1 -10.6 c -1.9 6.7 -1.3 7.7 6.1 10.6 z m 324.5 -167.8 l -159.7 45.5 c 0.1 0.6 0.2 1.2 0.5 1.8 c 2.7 -0.4 5.5 -0.2 8.1 -0.8 c 4.9 -1.2 9.9 -2.7 14.8 -4.1 c 43.4 -12.4 86.8 -24.6 130.2 -37.1 c 2.4 -0.7 4.5 -2.5 6.8 -3.6 l -0.7 -1.7 z m 43.5 -33.3 c -0.2 0 -0.4 0.1 -0.5 0.1 c 0.1 0 0.2 0.1 0.4 0.1 c 0 -0.1 0 -0.1 0.1 -0.2 c 0.1 0 0.1 0 0.2 0.1 h 0.1 c 4.2 0 7.8 -0.7 10.5 -2 c 0.1 0 0.1 -0.1 0.1 -0.1 c 1.3 -0.6 2.4 -1.4 3.3 -2.4 c 0.8 -0.9 1.5 -2 1.6 -3.1 c -5.6 1.3 -11.5 2.5 -17.4 3.8 c 0.4 1 1.1 2.4 1.6 3.7 z m -204.4 54.1 c 17.3 4.8 31.2 -5.8 47.5 -10.5 c -9 -1.1 -41.1 6.4 -47.5 10.5 z m -228.8 64.1 c -3.3 1.1 -6.6 2.1 -10.1 3.3 l 2.2 4.5 c 9.9 -2.7 9.9 -2.7 7.9 -7.8 z m 84.6 93.3 c 0.1 -2.8 0.2 -6.4 -1.4 -7.4 c -4.7 -3.4 -10.2 -5.8 -16 -8.9 c -0.1 12.7 10.7 12 17.4 16.3 z m -82.6 1.4 c 1.2 -6.5 -5.4 -7.1 -7.6 -10.8 c -3.7 3.4 -1.8 6 7.6 10.8 z m 0.9 -67.6 c -0.9 4.9 0 9.3 4.5 12.8 c 12.9 10.4 25.6 20.9 38.6 31.4 c 1.2 0.9 2.7 1.5 4.5 2.4 c 0.7 -2.7 1.2 -4.6 1.4 -5.5 c -16.8 -14.1 -32.8 -27.5 -49 -41.1 z m 9.8 71.6 c -0.9 -0.6 -2.1 -1.2 -3.2 -1.6 c -0.2 2.4 0.1 4.5 1.3 5.4 c 10.1 7.1 20.4 13.9 30.5 20.7 c 0.6 -0.5 1.1 -1.1 1.5 -1.5 c -1.2 -1.6 -2 -3.8 -3.5 -4.8 c -8.7 -6.2 -17.7 -12 -26.6 -18.2 z m 31.3 21.3 c -0.5 5.6 3.8 6 6.9 7.9 c 0.3 -4.6 0.3 -4.6 -6.9 -7.9 z m 0 0"
    p-id="16976"></path>
  <text font-weight="bold" font-family="'Cooper Black', 'Arial Black'" transform="matrix(1,-0.3,0.3,1,-125.6,164.8)"
    textLength="580.9" font-size="193.8" x="204.8" y="563.5">
    非理性
  </text>
</svg>