<?xml version="1.0" standalone="no"?><!DOCTYPE svg PUBLIC "-//W3C//DTD SVG 1.1//EN" "http://www.w3.org/Graphics/SVG/1.1/DTD/svg11.dtd"><svg t="1649993308354" class="icon" viewBox="0 0 1024 1024" version="1.1" xmlns="http://www.w3.org/2000/svg" p-id="5171" xmlns:xlink="http://www.w3.org/1999/xlink" width="200" height="200"><defs><style type="text/css">@font-face { font-family: feedback-iconfont; src: url("//at.alicdn.com/t/font_1031158_u69w8yhxdu.woff2?t=1630033759944") format("woff2"), url("//at.alicdn.com/t/font_1031158_u69w8yhxdu.woff?t=1630033759944") format("woff"), url("//at.alicdn.com/t/font_1031158_u69w8yhxdu.ttf?t=1630033759944") format("truetype"); }
</style></defs><path d="M744 421h-9V273.1C735 171.59 652.41 89 550.9 89h-77.8C371.59 89 289 171.59 289 273.1V421h-9a84.25 84.25 0 0 0-84 84v340a84.25 84.25 0 0 0 84 84h464a84.25 84.25 0 0 0 84-84V505a84.25 84.25 0 0 0-84-84zM560 707.78L572 804H452l12-96.22a88 88 0 1 1 95.94 0zM655 421H369V273.1A104.22 104.22 0 0 1 473.1 169h77.8A104.22 104.22 0 0 1 655 273.1z" p-id="5172"></path></svg>