<?xml version="1.0" standalone="no"?><!DOCTYPE svg PUBLIC "-//W3C//DTD SVG 1.1//EN" "http://www.w3.org/Graphics/SVG/1.1/DTD/svg11.dtd"><svg t="1627022273109" class="icon" viewBox="0 0 1173 1024" version="1.1" xmlns="http://www.w3.org/2000/svg" p-id="1377" xmlns:xlink="http://www.w3.org/1999/xlink" width="229.1015625" height="200"><defs><style type="text/css">@font-face { font-family: feedback-iconfont; src: url("//at.alicdn.com/t/font_1031158_1uhr8ri0pk5.eot?#iefix") format("embedded-opentype"), url("//at.alicdn.com/t/font_1031158_1uhr8ri0pk5.woff2") format("woff2"), url("//at.alicdn.com/t/font_1031158_1uhr8ri0pk5.woff") format("woff"), url("//at.alicdn.com/t/font_1031158_1uhr8ri0pk5.ttf") format("truetype"), url("//at.alicdn.com/t/font_1031158_1uhr8ri0pk5.svg#iconfont") format("svg"); }
</style></defs>
<!-- <path d="M1143.092034 1024h-106.052095a18.237678 18.237678 0 0 1 0-36.475355h117.95218a18.237678 18.237678 0 0 1 0 36.475355zM954.468854 1023.726435h-6.519969a18.237678 18.237678 0 0 1 0-36.475355h38.16234a18.237678 18.237678 0 1 1 0 36.475355zM863.873191 1023.726435c-204.672336 0-414.588005-3.100405-617.983703-6.064028l-118.544905-1.732579a18.237678 18.237678 0 1 1 0.501537-36.475355l118.544904 1.732579c214.292711 3.145999 435.743711 6.383187 650.720334 6.018434a18.237678 18.237678 0 0 1 0 36.475355zM79.105926 1015.565074h-0.54713c-15.593214-0.455942-35.289906-0.638319-60.22993-0.455942a18.237678 18.237678 0 0 1 0-36.475355c16.140345 0 40.122891 0 61.506567 0.455942a18.237678 18.237678 0 0 1-0.54713 36.475355z" p-id="1378"></path> -->
<path d="M1008.087626 779.113585A31.277617 31.277617 0 1 1 1039.54762 747.744779a31.277617 31.277617 0 0 1-31.459994 31.368806z m0-57.995815A26.718198 26.718198 0 1 0 1034.988201 747.744779a26.718198 26.718198 0 0 0-26.900575-26.627009z" fill="#FF6903" p-id="1379"></path><path d="M193.091411 151.646289a21.885213 21.885213 0 1 1 21.885213-21.885213 21.885213 21.885213 0 0 1-21.885213 21.885213z m0-39.211007a17.325794 17.325794 0 1 0 17.325794 17.325794 17.325794 17.325794 0 0 0-17.325794-17.325794z" fill="#7AF4EB" p-id="1380"></path><path d="M1007.950844 484.711875l9.34681 18.967185 20.927734 3.054811-15.137272 14.726924 3.556347 20.836547-18.693619-9.848346-18.69362 9.848346 3.556347-20.836547-15.137272-14.726924 20.927735-3.054811 9.34681-18.967185zM63.239147 478.739036l-14.590142-7.705419L34.104457 478.739036l2.781246-16.231533-11.763302-11.580926 16.277127-2.370898 7.249477-14.772519 7.295071 14.772519 16.277127 2.370898-11.763302 11.489737z m-14.590142-12.811969l8.526114 4.559419-1.595797-9.483592 6.839129-6.702346-9.483592-1.41342-4.285854-8.617303-4.24026 8.617303-9.529187 1.41342 6.884724 6.702346-1.595797 9.483592z" fill="#FF6903" p-id="1381"></path><path d="M1064.897992 340.087092h-4.559419v-4.559419a4.559419 4.559419 0 1 0-9.118839 0v4.559419h-4.55942a4.559419 4.559419 0 0 0 0 9.118839h4.55942v4.559419a4.559419 4.559419 0 0 0 9.118839 0v-4.559419h4.559419a4.559419 4.559419 0 0 0 0-9.118839zM104.04595 628.971904l-12.492809 9.073245 4.787391 14.635736h15.410837l4.741796-14.635736-12.447215-9.073245z" fill="#7AF4EB" p-id="1382"></path><path d="M870.210784 29.818603h-17.325794a3.237188 3.237188 0 0 0-1.185449 0 3.009217 3.009217 0 0 0 1.003073-0.683913l12.264838-12.264838a4.012289 4.012289 0 0 0 0-5.790463l-1.869362-1.914956a4.103477 4.103477 0 0 0-5.790463 0l-12.264838 12.264838a3.009217 3.009217 0 0 0-0.683913 1.003072 3.465159 3.465159 0 0 0 0.227971-1.231043V4.103477a4.103477 4.103477 0 0 0-4.103477-4.103477h-2.690058a4.103477 4.103477 0 0 0-4.103477 4.103477v17.325794a3.465159 3.465159 0 0 0 0.273565 1.185449 3.966695 3.966695 0 0 0-0.729507-1.048666l-12.219244-12.219244a4.057883 4.057883 0 0 0-5.836057 0l-1.869362 1.869362a4.103477 4.103477 0 0 0 0 5.790462l12.264838 12.264838a3.009217 3.009217 0 0 0 1.003073 0.683913 3.921101 3.921101 0 0 0-1.231044-0.227971h-17.371388a4.057883 4.057883 0 0 0-4.057883 4.103478V36.475355a4.103477 4.103477 0 0 0 4.057883 4.103478H825.254909a3.465159 3.465159 0 0 0 1.185449-0.273566 5.197738 5.197738 0 0 0-1.048666 0.683913l-12.264839 12.264838a4.149072 4.149072 0 0 0 0 5.836057l1.914957 1.869362a4.103477 4.103477 0 0 0 5.790462 0l12.264838-12.264838a3.009217 3.009217 0 0 0 0.683913-1.003072 4.012289 4.012289 0 0 0-0.273565 1.231043v17.325794a4.103477 4.103477 0 0 0 4.103477 4.103477h2.690058a4.103477 4.103477 0 0 0 4.103477-4.103477v-17.325794a3.419565 3.419565 0 0 0-0.227971-1.185449 3.784318 3.784318 0 0 0 0.683913 1.048666l12.310433 12.310433a4.103477 4.103477 0 0 0 5.790462 0l1.914956-1.914956a4.103477 4.103477 0 0 0 0-5.790463L852.611425 41.034774a3.556347 3.556347 0 0 0-1.003072-0.683912 3.465159 3.465159 0 0 0 1.231043 0.273565h17.325794a4.103477 4.103477 0 0 0 4.103477-4.103478v-2.598869a4.103477 4.103477 0 0 0-4.057883-4.103477zM846.866557 41.034774l-1.914956 1.914957a4.057883 4.057883 0 0 0-0.957478 4.057883 4.012289 4.012289 0 0 0-3.601942-2.234116h-2.690057a4.057883 4.057883 0 0 0-3.556347 2.188522 4.057883 4.057883 0 0 0-0.957478-4.103478l-1.914956-1.823768a4.057883 4.057883 0 0 0-4.057884-0.957478 4.012289 4.012289 0 0 0 2.234116-3.556347v-2.690057a4.012289 4.012289 0 0 0-2.188522-3.556347 4.057883 4.057883 0 0 0 4.103478-1.003073l1.869362-1.869361a4.012289 4.012289 0 0 0 1.003072-4.057884 4.057883 4.057883 0 0 0 3.556347 2.188522h2.690058a4.057883 4.057883 0 0 0 3.556347-2.188522 4.057883 4.057883 0 0 0 1.003072 4.103478l1.869362 1.914956a4.057883 4.057883 0 0 0 4.057883 0.957478 4.057883 4.057883 0 0 0-2.188521 3.601941V36.475355a4.103477 4.103477 0 0 0 2.188521 3.556347 4.057883 4.057883 0 0 0-4.103477 1.003072zM186.34347 751.66588a3.054811 3.054811 0 0 0 3.054811-3.054811v-8.206955a3.054811 3.054811 0 1 0-6.109622 0v8.206955a3.054811 3.054811 0 0 0 3.054811 3.054811zM178.18211 753.216083a3.054811 3.054811 0 0 0 4.559419-4.331449L176.723095 743.18536a3.100405 3.100405 0 0 0-4.331448 0 3.100405 3.100405 0 0 0 0 4.559419z" fill="#EF3FE7" p-id="1383"></path><path d="M180.917761 756.863618a3.054811 3.054811 0 0 0-3.054811-3.054811h-8.206955a3.054811 3.054811 0 0 0 0 6.109622H177.817356a3.054811 3.054811 0 0 0 3.100405-3.054811zM182.376775 760.875907a3.100405 3.100405 0 0 0-4.559419 0l-5.790463 5.790463a3.054811 3.054811 0 0 0 4.55942 4.331448l5.790462-5.790462a3.100405 3.100405 0 0 0 0-4.331449zM186.297876 762.471704a3.054811 3.054811 0 0 0-3.054811 3.054811v8.206955a3.054811 3.054811 0 1 0 6.109622 0v-8.206955a3.054811 3.054811 0 0 0-3.054811-3.054811zM194.459237 760.921501a3.100405 3.100405 0 0 0-4.331449 0 3.009217 3.009217 0 0 0 0 4.285855l5.927246 5.836056a3.054811 3.054811 0 0 0 4.559419-4.559419zM202.985351 754.036778h-8.206955a3.054811 3.054811 0 1 0 0 6.109622h8.206955a3.054811 3.054811 0 0 0 0-6.109622zM190.173383 753.261677a3.100405 3.100405 0 0 0 4.331448 0l5.790463-5.836057a3.009217 3.009217 0 0 0 0-4.285854 3.100405 3.100405 0 0 0-4.55942 0l-5.790462 5.790462a3.100405 3.100405 0 0 0 0.227971 4.331449z" fill="#EF3FE7" p-id="1384"></path><path d="M86.948128 307.760809m-7.842202 0a7.842201 7.842201 0 1 0 15.684403 0 7.842201 7.842201 0 1 0-15.684403 0Z" fill="#EF3FE7" p-id="1385"></path><path d="M365.483058 120.368672m84.349259 0l412.536266 0q84.349259 0 84.349258 84.349258l0 539.516096q0 84.349259-84.349258 84.349259l-412.536266 0q-84.349259 0-84.349259-84.349259l0-539.516096q0-84.349259 84.349259-84.349258Z" fill="#FFE026" p-id="1386"></path><path d="M824.160648 159.853244H392.110067a74.500913 74.500913 0 0 0-67.205842 42.493788 74.136159 74.136159 0 0 1 41.034775-12.447215h432.232958A74.546507 74.546507 0 0 1 872.672871 264.446324v559.1216a74.637695 74.637695 0 0 1-7.295071 31.915935 74.455319 74.455319 0 0 0 33.329355-62.053697V234.399751a74.546507 74.546507 0 0 0-74.546507-74.546507z" fill="#DD8113" p-id="1387"></path><path d="M838.933167 877.870609H406.654615a92.829779 92.829779 0 0 1-92.73859-92.738591V225.964825a92.829779 92.829779 0 0 1 92.73859-92.738591H838.933167a92.829779 92.829779 0 0 1 92.73859 92.738591v393.66027a18.237678 18.237678 0 0 1-36.475355 0V225.964825A56.308829 56.308829 0 0 0 838.933167 169.70159H406.654615a56.308829 56.308829 0 0 0-56.263235 56.263235V785.132018a56.354424 56.354424 0 0 0 56.263235 56.263236H838.933167a56.354424 56.354424 0 0 0 56.263235-56.263236v-32.599848a18.237678 18.237678 0 0 1 36.475355 0v32.599848A92.829779 92.829779 0 0 1 838.933167 877.870609z" p-id="1388"></path><path d="M817.139142 179.960283c0-22.797097-31.551182-41.034774-70.443029-41.034774a118.818469 118.818469 0 0 0-13.678258 0.775101v-1.914956c0-37.113674-51.430251-67.205842-114.897369-67.205842s-114.623803 29.727414-114.623803 67.023465v1.139855c-38.891847 0-70.44303 18.237678-70.44303 41.034774 0 21.52046 28.177212 39.165413 64.151031 41.034775h258.975021v-0.410348c34.423616-2.325304 60.959437-19.559909 60.959437-40.44205z" fill="#F28D09" p-id="1389"></path><path d="M756.179705 237.54575h-258.975021a18.648025 18.648025 0 0 1-3.647535-0.364754c-45.594194-3.237188-78.741173-27.812458-78.741173-59.272452 0-29.68182 30.867269-53.618772 72.95071-58.49735a68.391291 68.391291 0 0 1 12.264838-23.435416 18.237678 18.237678 0 0 1 28.58756 22.797097 27.356516 27.356516 0 0 0-6.656753 16.687475v0.86629a18.237678 18.237678 0 0 1-18.237677 18.739213c-31.4144 0-52.250946 13.678258-52.250946 22.797097 0 8.298143 18.237678 21.338083 46.825237 22.797097a9.437998 9.437998 0 0 1 1.595797 0H752.304199a13.085534 13.085534 0 0 1 2.279709-0.319159c27.356516-2.188521 44.13518-14.635736 44.13518-22.797097 0-9.118839-20.836547-22.797097-52.205352-22.797097a96.522908 96.522908 0 0 0-11.489737 0.683913A18.237678 18.237678 0 0 1 714.91696 136.782582v-0.775102c0-23.435416-39.666949-49.241729-96.614097-49.241729a155.020259 155.020259 0 0 0-61.141814 11.717708 18.237678 18.237678 0 0 1-14.590142-33.420544A191.495614 191.495614 0 0 1 618.348457 50.153613c65.518857 0 118.544904 28.906719 130.581771 68.391291 48.649005 0.775101 86.628968 26.581415 86.628969 59.272452 0 29.773009-30.867269 54.02912-73.953783 58.634133a16.596287 16.596287 0 0 1-5.425709 1.094261z" p-id="1390"></path><path d="M619.989848 128.894786m-14.179794 0a14.179794 14.179794 0 1 0 28.359588 0 14.179794 14.179794 0 1 0-28.359588 0Z" fill="#FFFFFF" p-id="1391"></path><path d="M620.081037 148.500289a18.784808 18.784808 0 1 1 18.784807-18.784807 18.784808 18.784808 0 0 1-18.784807 18.784807z m0-28.405182a9.665969 9.665969 0 1 0 9.665969 9.620375 9.665969 9.665969 0 0 0-9.665969-9.620375z" p-id="1392"></path><path d="M160.582751 303.292578h553.969455v337.579411H160.582751z" fill="#FFFFFF" p-id="1393"></path><path d="M714.552206 661.115811h-36.475355a18.237678 18.237678 0 0 1 0-36.475355h18.237678v-13.678258a18.237678 18.237678 0 0 1 36.475355 0v31.915935a18.237678 18.237678 0 0 1-18.237678 18.237678z m-72.95071 0h-36.475355a18.237678 18.237678 0 0 1 0-36.475355h36.475355a18.237678 18.237678 0 0 1 0 36.475355z m-72.95071 0h-36.475355a18.237678 18.237678 0 0 1 0-36.475355h36.475355a18.237678 18.237678 0 0 1 0 36.475355z m-72.95071 0h-36.475355a18.237678 18.237678 0 0 1 0-36.475355h36.475355a18.237678 18.237678 0 0 1 0 36.475355z m-72.95071 0h-36.475356a18.237678 18.237678 0 0 1 0-36.475355h36.475356a18.237678 18.237678 0 0 1 0 36.475355z m-72.950711 0h-36.475355a18.237678 18.237678 0 0 1 0-36.475355h36.475355a18.237678 18.237678 0 0 1 0 36.475355z m-72.95071 0h-36.475355a18.237678 18.237678 0 0 1 0-36.475355h36.475355a18.237678 18.237678 0 0 1 0 36.475355z m-72.95071 0h-36.475355a18.237678 18.237678 0 0 1-13.267911-30.776081 18.237678 18.237678 0 0 1-11.808896-17.097823v-36.475355a18.237678 18.237678 0 0 1 18.237678-18.237677 18.237678 18.237678 0 0 1-18.237678-18.237678v-36.475355a18.237678 18.237678 0 0 1 18.237678-18.237677 18.237678 18.237678 0 0 1-18.237678-18.237678v-36.475355a18.237678 18.237678 0 0 1 18.237678-18.237678 18.237678 18.237678 0 0 1-18.237678-18.237677v-36.475355a18.237678 18.237678 0 0 1 18.237678-18.237678 18.237678 18.237678 0 0 1-18.237678-18.237677V305.481099a18.237678 18.237678 0 0 1 18.237678-18.237678h20.33501a18.237678 18.237678 0 1 1 0 36.475355h-2.234115a18.237678 18.237678 0 0 1-18.237678 16.140345 18.237678 18.237678 0 0 1 18.237678 18.237678v36.475355a18.237678 18.237678 0 0 1-18.237678 18.237677 18.237678 18.237678 0 0 1 18.237678 18.237678v36.475355a18.237678 18.237678 0 0 1-18.237678 18.237677 18.237678 18.237678 0 0 1 18.237678 18.237678v36.475355a18.237678 18.237678 0 0 1-18.237678 18.237678 18.237678 18.237678 0 0 1 18.237678 18.237677v36.475355a18.237678 18.237678 0 0 1-4.012289 11.398549h29.089095a18.237678 18.237678 0 0 1 0 36.475355z m510.654971-68.756044a18.237678 18.237678 0 0 1-18.237677-18.237678v-36.475355a18.237678 18.237678 0 0 1 36.475355 0v36.475355a18.237678 18.237678 0 0 1-18.237678 18.602431z m0-72.95071a18.237678 18.237678 0 0 1-18.237677-18.237678v-36.475355a18.237678 18.237678 0 0 1 36.475355 0v36.475355a18.237678 18.237678 0 0 1-18.237678 18.602431z m0-72.950711a18.237678 18.237678 0 0 1-18.237677-18.237677V392.110067a18.237678 18.237678 0 0 1 36.475355 0v36.475355a18.237678 18.237678 0 0 1-18.237678 18.237678z m0-72.95071a18.237678 18.237678 0 0 1-18.237677-18.237677v-32.143907a20.152634 20.152634 0 0 1-4.55942 0.592724h-36.475355a18.237678 18.237678 0 0 1 0-36.475355h36.475355a18.237678 18.237678 0 0 1 17.781736 14.270983 17.690547 17.690547 0 0 1 5.197738-0.775101 18.237678 18.237678 0 0 1 18.237678 18.237677v36.475355a18.237678 18.237678 0 0 1-18.420055 18.420055z m-95.747807-50.153613h-36.475355a18.237678 18.237678 0 0 1 0-36.475355h36.475355a18.237678 18.237678 0 0 1 0 36.475355z m-72.95071 0h-36.475355a18.237678 18.237678 0 0 1 0-36.475355h36.475355a18.237678 18.237678 0 0 1 0 36.475355z m-72.95071 0h-36.475355a18.237678 18.237678 0 0 1 0-36.475355h36.475355a18.237678 18.237678 0 0 1 0 36.475355z m-72.95071 0h-36.475356a18.237678 18.237678 0 0 1 0-36.475355h36.475356a18.237678 18.237678 0 0 1 0 36.475355z m-72.950711 0h-36.475355a18.237678 18.237678 0 0 1 0-36.475355h36.475355a18.237678 18.237678 0 0 1 0 36.475355z m-72.95071 0h-36.475355a18.237678 18.237678 0 0 1 0-36.475355h36.475355a18.237678 18.237678 0 1 1 0 36.475355zM494.286656 375.787346H341.226947a9.118839 9.118839 0 0 1 0-18.237678h153.059709a9.118839 9.118839 0 0 1 0 18.237678z" p-id="1394"></path>
<path d="M203.076539 362.929783h-36.475355a9.118839 9.118839 0 1 1 0-18.237677h36.475355a9.118839 9.118839 0 0 1 0 18.237677zM494.286656 445.728839H260.889977a9.118839 9.118839 0 0 1 0-18.237677h233.396679a9.118839 9.118839 0 0 1 0 18.237677zM538.604212 514.66726H260.889977a9.118839 9.118839 0 0 1 0-18.237677h277.714235a9.118839 9.118839 0 0 1 0 18.237677zM602.800837 516.855782h-36.475355a9.118839 9.118839 0 0 1 0-18.237678h36.475355a9.118839 9.118839 0 0 1 0 18.237678z" p-id="1395"></path>
<path d="M743.523427 692.994278m2.052042 1.809119l0.034201 0.030152q2.052043 1.809119 0.242924 3.861161l-2.261399 2.565053q-1.809119 2.052043-3.861162 0.242924l-0.0342-0.030152q-2.052043-1.809119-0.242924-3.861161l2.261399-2.565054q1.809119-2.052043 3.861161-0.242923Z" p-id="1396"></path>
<path d="M743.413331 696.496905l34.560399-14.772518-24.164923-21.338083-10.395476 36.110601z" fill="#44C4F3" p-id="1397"></path>
<path d="M743.413331 701.056325a4.559419 4.559419 0 0 1-4.559419-5.790463l10.44107-36.156195a4.559419 4.559419 0 0 1 3.100405-3.100406 4.559419 4.559419 0 0 1 4.285854 0.957478l24.164923 21.338083a4.559419 4.559419 0 0 1 1.459014 4.149072 4.559419 4.559419 0 0 1-2.690057 3.465158l-34.560399 14.772519a4.149072 4.149072 0 0 1-1.641391 0.364754z m12.766374-32.50866l-5.744868 19.924662 19.103967-8.16136z" p-id="1398"></path>
<path d="M940.219535 449.448146m7.689237 6.790909l8.782816 7.756726q7.689236 6.790909 0.898328 14.480145l-177.37853 200.842855q-6.790909 7.689236-14.480145 0.898327l-8.782817-7.756726q-7.689236-6.790909-0.898328-14.480145l177.378531-200.842855q6.790909-7.689236 14.480145-0.898327Z" fill="#44C4F3" p-id="1399"></path>
<path d="M772.365644 687.332473a14.954896 14.954896 0 0 1-9.802752-3.69313l-8.754085-7.751013a14.863707 14.863707 0 0 1-1.276637-20.927735L930.121555 454.118171a14.726925 14.726925 0 0 1 10.213099-4.969767 14.453359 14.453359 0 0 1 10.714636 3.693129l8.799679 7.751013a14.863707 14.863707 0 0 1 1.276638 20.927735l-177.407009 200.614453a14.772519 14.772519 0 0 1-11.352954 5.197739z m-3.738724-10.532259a5.744868 5.744868 0 0 0 8.024578-0.501536l177.407009-200.842424a5.65368 5.65368 0 0 0-0.501537-8.024579l-8.754085-7.751012a5.562492 5.562492 0 0 0-4.149071-1.41342 5.699274 5.699274 0 0 0-3.921101 1.914956l-177.361414 200.614453a5.699274 5.699274 0 0 0 0.501536 8.070172z" p-id="1400"></path>
</svg>