<?xml version="1.0" standalone="no"?><!DOCTYPE svg PUBLIC "-//W3C//DTD SVG 1.1//EN" "http://www.w3.org/Graphics/SVG/1.1/DTD/svg11.dtd"><svg t="1627026235091" class="icon" viewBox="0 0 1024 1024" version="1.1" xmlns="http://www.w3.org/2000/svg" p-id="5454" xmlns:xlink="http://www.w3.org/1999/xlink" width="200" height="200"><defs><style type="text/css">@font-face { font-family: feedback-iconfont; src: url("//at.alicdn.com/t/font_1031158_1uhr8ri0pk5.eot?#iefix") format("embedded-opentype"), url("//at.alicdn.com/t/font_1031158_1uhr8ri0pk5.woff2") format("woff2"), url("//at.alicdn.com/t/font_1031158_1uhr8ri0pk5.woff") format("woff"), url("//at.alicdn.com/t/font_1031158_1uhr8ri0pk5.ttf") format("truetype"), url("//at.alicdn.com/t/font_1031158_1uhr8ri0pk5.svg#iconfont") format("svg"); }
</style></defs>
<!-- <path d="M512 512m-512 0a512 512 0 1 0 1024 0 512 512 0 1 0-1024 0Z" fill="#E07F28" p-id="5455"></path>
<path d="M0 483.328a512 483.328 0 1 0 1024 0 512 483.328 0 1 0-1024 0Z" fill="#F4C43D" p-id="5456"></path> -->
<path d="M254.976 795.136l-12.288 24.576c-0.512 0-0.512-0.512-1.024-1.024L174.08 215.552V215.04l12.288-22.528c0.512-0.512 1.024-0.512 1.024 0.512L255.488 793.6c0 1.024-0.512 1.024-0.512 1.536z" fill="#A53737" p-id="5457"></path><path d="M242.688 821.76c-1.536 0-3.072-1.536-3.072-3.072L171.52 216.064c0-1.024 0-1.536 0.512-2.048l12.288-22.528c0.512-1.024 2.048-2.048 3.072-1.536 1.536 0.512 2.56 1.536 2.56 3.072L258.048 793.6c0 1.024 0 2.048-0.512 2.56l-0.512 0.512-12.288 25.088h-2.048zM176.64 215.552l67.072 595.968 9.216-18.432-66.56-594.432-9.728 16.896z" fill="#222222" p-id="5458"></path><path d="M239.616 812.032l12.288-16.384c0-0.512 0.512-0.512 1.024-1.024l410.624-46.08h0.512l-9.216 15.872c0.512 0.512 0.512 1.024-0.512 1.024L240.64 812.544c-0.512 0-1.024 0-1.024-0.512z" fill="#A53737" p-id="5459"></path><path d="M240.128 815.104c-1.536 0-3.072-1.024-3.584-3.072v-1.024l12.288-16.384 1.024-1.024c0.512-0.512 1.536-1.024 2.56-1.536l410.624-46.08c0.512 0 1.536 0 2.048 0.512l2.56 1.024-10.24 16.896v1.024c-0.512 1.536-1.536 2.56-3.072 2.56l-414.208 47.104c0.512 0 0.512 0 0 0z m13.312-17.408l-9.216 12.288 407.552-45.568 7.168-11.776-405.504 45.056z m-0.512 0z m410.624-46.08z" fill="#222222" p-id="5460"></path><path d="M187.4944 190.6688l407.53152-45.81376 67.9424 604.42624-407.5264 45.80864z" fill="#DB4944" p-id="5461"></path><path d="M253.952 797.184v-2.048L185.344 188.928l411.136-46.08 68.096 608.256-410.624 46.08zM189.44 192.512l67.584 600.576L660.48 747.52 593.408 146.944 189.44 192.512z" p-id="5462"></path><path d="M550.99904 149.62176l5.08416-0.57344 67.4304 599.84384-5.08928 0.57344z" fill="#F7D2A1" p-id="5463"></path><path d="M558.45888 192.7936l41.216-4.61312 0.57344 5.08928-41.216 4.61312zM570.70592 279.17312l38.67136-4.33152 0.56832 5.08928-38.67136 4.33152zM577.87904 366.37696l41.216-4.61312 0.5632 5.08416-41.21088 4.61824zM590.1824 453.26336l38.66624-4.33152 0.57344 5.08928-38.67136 4.33152zM599.92064 558.848l41.216-4.61824 0.56832 5.08928-41.216 4.61312zM611.71712 645.7856l38.67136-4.3264 0.5632 5.08928-38.66624 4.3264z" fill="#F7D2A1" p-id="5464"></path><path d="M219.2384 223.9232l160.26624-18.01216 51.98336 462.47424-160.26112 18.01728z" fill="#F7E1C6" p-id="5465"></path><path d="M278.528 664.064l-47.616-423.936 140.288-15.872 47.616 423.936-140.288 15.872z m-38.912-417.28l46.08 409.088 124.928-13.824-46.08-409.088-124.928 13.824z" fill="#5F2A26" p-id="5466"></path><path d="M298.496 317.44c-0.512 0.512-2.048 0.512-3.584 1.024-1.536 0-2.56 0.512-3.584 0.512-1.024 0-2.048 0.512-2.56 0.512-1.024 0-1.536 0.512-2.56 0.512s-1.536 0.512-2.56 0.512c-2.048 0.512-3.072 0.512-3.584 0-0.512-0.512-0.512-1.024 0-1.536 0.512-0.512 1.024-1.536 2.048-1.536 0.512-0.512 2.048-0.512 3.072-0.512h4.096c0.512 0 1.536 0 2.048-0.512 1.024 0 2.048-0.512 3.072-0.512 2.048-0.512 3.072-0.512 4.096-0.512 0.512 0 1.024 0.512 1.536 1.024-0.512 0-1.024 0.512-1.536 1.024z m-2.048-12.288c-0.512 0.512-1.536 0.512-2.56 0.512-2.048 0-4.096 0.512-5.632 0.512-1.536 0-3.072 0.512-4.608 1.024-1.536 0.512-2.048 0.512-2.56 0-0.512-0.512-0.512-1.024 0-1.536l1.536-1.536c0.512-0.512 1.536-0.512 2.56-0.512h3.584c1.536 0 3.072-0.512 5.12-1.024 1.536-0.512 2.56-0.512 3.072-0.512 0.512 0 1.024 0.512 1.024 1.024-1.024 1.024-1.024 1.536-1.536 2.048z m13.824 22.528h-2.048c-0.512 0.512-0.512 1.024-0.512 2.048V337.408c-0.512 3.072-1.536 5.632-3.072 7.168-1.536 2.048-3.584 3.072-6.144 4.608-1.024 0.512-2.048 0.512-3.584 1.024-1.536 0.512-3.072 0.512-4.608 1.024-1.024 0-1.536 0.512-1.536 1.024v1.536c0 0.512 0.512 1.024 1.024 1.024h3.072c1.536 0 2.56-0.512 4.096-1.024l4.608-1.536c1.536-0.512 3.072-1.536 4.096-2.56 1.024-1.024 2.56-2.048 3.072-3.072 1.024-1.024 1.536-2.56 2.048-4.608 0.512-2.048 1.024-3.584 1.024-5.12v-3.072c0-1.024 0.512-2.048 0.512-3.072 0.512-1.536 0-2.56-2.048-3.072z m15.872-6.656c-1.024-0.512-3.072-0.512-5.632-0.512-0.512 0-1.536 0-3.072 0.512-1.536 0-3.584 0.512-5.632 0.512-2.048 0.512-3.584 0.512-5.632 0.512-1.536 0-2.56 0.512-3.072 0.512-2.048 0.512-4.096 0.512-6.656 0.512h-2.56c-0.512 0-1.024 0.512-1.024 1.024-0.512 0.512-0.512 1.024-0.512 2.048s0 2.048 0.512 3.072c0 1.024 0.512 2.56 0.512 4.608 0.512 2.048 0.512 4.608 1.024 7.168 0 1.024 0.512 2.048 1.024 2.56 0.512 0.512 1.024 1.024 1.536 1.024 0.512 0 0.512-0.512 1.024-1.024s0.512-1.536 0.512-2.56V337.92c0-1.024 0-2.56-0.512-3.584 0-1.024 0-2.048-0.512-3.072v-2.048c0-0.512 0-1.536 0.512-2.048 0.512-0.512 1.024-1.024 2.048-1.536 1.024-0.512 2.048-0.512 3.584-1.024 1.536-0.512 3.072-0.512 4.608-0.512 1.536 0 3.584-0.512 5.12-0.512 2.048 0 3.584-0.512 5.12-0.512 1.536 0 3.072 0 3.584 0.512 0.512 0.512 1.024 1.024 1.536 2.048 0.512 1.024 0.512 2.56 1.024 4.608s0.512 4.096 1.024 7.168c0 1.536 0.512 3.072 1.024 3.584 0.512 0.512 1.024 0.512 1.536 0.512 0.512 0 1.024-0.512 1.024-1.536s0.512-2.048 0-3.584c0-1.536-0.512-3.072-0.512-4.096 0-1.024-0.512-2.048-0.512-3.072v-2.56-2.56c-0.512-1.536-1.024-2.56-2.048-3.072z m5.12-22.016h-2.048c-1.024 0-2.048 0-3.584 0.512-0.512 0-1.024 0-2.048 0.512-1.024 0-2.048 0-3.584 0.512-1.536 0-2.56 0.512-4.096 0.512h-4.096v-0.512-0.512c0-1.024-0.512-1.536-2.048-2.048-1.024-0.512-1.536 0-2.048 0-0.512 0.512-0.512 1.024-0.512 2.56 0 1.024-0.512 2.56-1.536 4.096-1.024 1.536-2.048 3.072-3.584 4.608l-1.024 1.024v0.512c0 0.512 0.512 0.512 0.512 0.512s0.512 0 1.024-0.512c1.024-0.512 2.048-1.024 3.072-2.048 1.024-1.024 2.56-2.048 3.584-3.072l0.512-0.512c1.024 0 1.536-0.512 2.56-0.512s1.536-0.512 2.56-0.512c0.512 0 1.536 0 2.56-0.512s2.048-0.512 3.584-0.512c1.024 0 2.048 0 3.584-0.512h4.096s0.512 0.512 0 1.024c0 0.512-0.512 0.512-0.512 1.024l-1.024 1.024c-0.512 0.512-1.024 1.024-1.536 1.024-0.512 0.512-1.024 1.024-1.536 1.024l-1.024 1.024v1.024h1.024c0.512 0 1.024-0.512 2.56-1.024 2.56-1.536 4.096-2.56 5.12-3.072s2.048-2.048 2.56-3.072c-0.512-1.536-1.024-2.56-3.072-3.584z m12.8 17.408c-0.512 0-1.024-0.512-2.56-0.512-0.512 0-2.048 0-4.096-0.512s-4.096-1.024-6.656-1.536c-2.56-0.512-4.608-1.536-7.168-2.048-2.56-0.512-4.608-1.536-6.656-2.048l0.512-0.512 0.512-0.512c0.512-0.512 0.512-1.024 0.512-2.048 0-0.512-0.512-1.024-1.024-1.024h-1.536c-0.512 0.512-1.024 1.024-1.024 1.536-2.048 5.12-5.12 8.704-10.752 10.24-1.024-0.512-2.048 0-2.048 0.512-0.512 0.512-0.512 1.024 0 1.536 1.024 1.536 2.56 1.536 4.096 1.024 3.584-1.024 5.632-2.56 7.168-5.12 0.512-0.512 1.024-1.024 1.024-1.536 0.512-0.512 0.512-1.024 1.024-1.536 1.024 0.512 2.56 0.512 3.584 1.024 1.024 0.512 2.56 0.512 3.584 1.024 1.024 0.512 2.56 1.024 4.096 1.536 1.536 0.512 3.072 1.536 4.608 2.048 1.024 0.512 2.56 1.024 3.072 1.536 1.024 0.512 1.536 0.512 2.048 1.024 0.512 0 1.024 0.512 1.536 0.512h1.024c0.512 0 1.536 0 2.048-0.512l3.072-3.072c0.512-0.512 0.512-1.024 0-1.024z m-8.192 30.72c0-0.512-1.024-0.512-2.56-1.024s-3.584-0.512-5.12-1.536-4.096-1.536-6.656-2.56c-1.536-0.512-2.56-0.512-2.56 0v1.024c0 0.512 0.512 0.512 0.512 1.024l1.024 1.024c0.512 0.512 1.536 1.024 2.048 1.536 1.024 0.512 2.048 1.024 3.072 2.048 1.024 0.512 2.048 1.536 3.072 2.048 1.024 0.512 2.048 1.024 2.56 0.512 1.024 0 2.048-0.512 3.072-1.536 1.536-1.536 2.048-2.048 1.536-2.56zM303.104 404.992c0.512 0 0.512 0.512 1.024 0.512 0 0.512 0.512 0.512 0.512 1.024s0 0.512-0.512 0.512c0 0-0.512 0.512-1.024 0h-4.608c-2.048 0-4.096 0-6.144 0.512h-2.56c-0.512 0-0.512-0.512-1.024-1.536 0-1.024 0-2.048 1.024-2.56 1.024-0.512 2.56-1.024 4.096-0.512 1.536 0 3.072 0.512 4.608 1.024 1.024 0 3.072 0.512 4.608 1.024z m1.536-15.36c0.512 0.512 1.024 1.024 0.512 1.536-0.512 0.512-1.024 0.512-2.048 0-1.536-0.512-3.584-0.512-5.632-1.024-2.048-0.512-3.584-1.024-5.12-1.536-1.024-0.512-1.536-1.024-2.048-2.048 0-1.024 0.512-1.536 1.536-2.048 1.024-0.512 2.048-0.512 3.072-0.512s1.536 0.512 2.56 1.024c1.536 1.024 2.56 1.536 4.096 2.56 1.024 0.512 2.048 1.024 3.072 2.048z m3.072 29.184c-1.024 1.024-2.048 2.56-3.072 3.584-1.024 1.024-2.048 2.56-3.072 3.584l-3.072 3.072c-1.024 1.024-1.536 1.536-2.56 2.048-1.536 1.024-2.56 1.536-3.584 1.536-0.512 0-1.024-1.024-1.024-2.56 0-1.024 0-2.048 0.512-3.072 0.512-1.024 1.536-2.048 3.072-3.072 1.536-1.024 3.072-2.048 4.096-3.072 1.024-0.512 2.048-1.536 3.072-2.048s1.536-1.024 2.048-1.536c0.512-0.512 1.024-1.024 1.536-1.024 0.512-0.512 1.024-0.512 1.536-0.512h1.024s0.512 0.512 0 1.024c0.512 0.512 0 1.024-0.512 2.048z m40.96-24.576c0.512 0.512 1.024 1.024 1.024 1.536 0 0.512 0 1.024-0.512 2.048-0.512 0.512-1.024 1.024-2.048 1.536-1.024 0.512-2.56 0.512-4.096 1.024-1.536 0-3.584 0.512-5.632 0.512-2.56 0.512-4.608 0.512-7.168 1.024s-5.12 0.512-7.168 1.024c-2.56 0.512-4.608 0.512-6.144 1.024-2.048 0.512-3.584 0.512-4.608 0-1.024-0.512-1.024-1.536-1.024-2.56 0-0.512 0-1.024 0.512-1.536 0-0.512 0.512-1.024 0.512-2.048 0.512-0.512 0.512-1.536 1.024-2.048 0.512-0.512 1.024-1.536 1.024-2.048 2.048-3.072 4.096-5.12 5.632-7.168 1.536-2.048 2.56-3.584 3.072-4.608l1.536-3.072c0-0.512 0.512-1.536 0.512-1.536 0-1.024 0.512-2.048 1.024-2.048s1.536 0 2.56 1.024c1.536 1.024 2.048 2.048 2.048 3.072 0 0.512-0.512 1.536-1.536 2.56l-1.536 1.536c-0.512 0.512-1.536 1.536-2.048 2.56-1.024 1.024-2.048 2.56-3.072 4.096-1.024 1.536-2.56 3.584-4.096 5.632-1.024 1.024-1.024 2.048-1.024 2.56 0.512 0.512 1.536 1.024 3.072 0.512 2.048-0.512 4.608-0.512 8.192-1.024 3.584-0.512 7.68-1.024 12.8-1.536 1.536 0 2.048-0.512 2.048-1.024s0-1.024-0.512-1.536c-1.024-1.024-2.048-2.048-3.072-2.56-0.512-0.512-1.536-1.024-2.56-1.536-1.024-0.512-2.048-1.536-2.56-2.048-0.512-0.512-0.512-1.536 0-2.048 0.512-0.512 1.024-0.512 2.048-0.512 1.536 0.512 3.072 1.024 5.12 2.56 1.024 2.048 3.072 4.096 6.656 6.656z m0 17.408v10.24c0 1.536-0.512 2.56-1.536 3.584-1.024 1.024-2.56 1.536-4.096 1.536-3.584 0.512-6.656 0.512-9.216 1.024-2.56 0-4.096 0.512-5.632 0.512-1.536 0-2.56 0.512-3.584 0.512-1.024 0-1.536 0.512-2.56 1.024-2.048 1.024-3.584 1.024-4.608 0.512-1.024-0.512-1.536-1.536-1.536-3.584 0-1.536-0.512-3.072-0.512-4.608 0-1.024-0.512-2.56-0.512-3.072 0-1.024 0-1.536-0.512-2.56V414.72v-4.096c0.512-1.024 1.536-1.536 2.56-1.536h3.072c1.024 0 2.048 0 3.072-0.512 1.024 0 2.048-0.512 3.584-0.512 1.536 0 3.072-0.512 5.12-0.512 1.536 0 3.584-0.512 5.12-0.512 1.536 0 3.072 0 4.608-0.512 2.048 0 4.096 0 4.608 0.512 2.048 2.048 2.56 3.072 2.56 4.608z m-4.608 3.072v-1.536c0-0.512 0-1.024-0.512-1.024 0 0-0.512-0.512-1.024-0.512H337.92c-1.024 0-2.048 0-3.072 0.512-1.536 0-3.072 0.512-4.608 0.512-2.048 0.512-4.096 0.512-7.168 1.024-1.024 0-2.048 0.512-2.56 1.024-0.512 0.512-1.024 1.536-1.024 2.56v3.072c0 1.024 0 2.048 0.512 3.584 0 1.024 0.512 1.536 1.024 2.048 0.512 0.512 1.024 0.512 2.56 0.512 2.56 0 4.608 0 6.144-0.512 1.536 0 3.072-0.512 4.608-0.512 1.536 0 2.56-0.512 3.584-0.512 1.024 0 2.048-0.512 3.072-0.512 1.024-0.512 1.536-0.512 2.56-1.024 0.512-0.512 1.024-0.512 1.536-1.024 0.512-0.512 0.512-0.512 0.512-1.024v-1.024-2.56c-1.024-1.024-1.024-2.048-1.536-3.072zM365.056 506.368c-1.024 1.024-2.048 1.536-3.072 2.048l-3.072 1.536c-1.024 0.512-2.56 0.512-3.584 0.512-1.024 0-2.56-0.512-4.608-1.024-1.024 0-2.048-0.512-3.072-0.512-1.024-0.512-2.56-0.512-4.096-1.024-1.536 0-2.56-0.512-4.096-0.512-1.536 0-2.56-0.512-3.584-0.512-1.536 0-3.072-0.512-5.12-0.512s-3.584-0.512-5.632-0.512h-6.144c-2.048 0-4.096 0-5.632 0.512-1.536 0-2.56 0.512-3.584 0.512-1.024 0-2.048 0.512-2.56 0.512-1.024 0.512-1.536 0.512-2.56 1.024s-1.536 1.024-2.56 1.536c-1.024 0.512-1.536 0.512-2.048 0.512-0.512 0-1.024-0.512-1.024-1.536 0-1.024 0.512-2.048 2.048-3.072 1.024-0.512 2.048-1.024 3.072-2.048 1.024-0.512 1.536-1.536 2.56-2.56 1.024-1.536 2.048-2.56 2.048-3.584 0.512-1.024 0.512-2.048 0.512-2.56 0-0.512-0.512-1.024-1.536-1.024h-2.56c-1.536 0.512-2.56 0.512-3.584 0.512-0.512 0-1.024-0.512-1.024-1.024s0-0.512 0.512-1.536c0.512-0.512 1.024-1.536 2.048-2.56 0.512-1.024 1.536-2.048 2.048-3.072 1.024-1.024 1.536-2.048 2.56-3.072 0.512-0.512 0.512-1.024 0-1.536 0-0.512-1.024-0.512-2.56-0.512H302.08c-1.024 0-2.048 0.512-2.56 0.512-1.024 0.512-2.048 0.512-2.56 0-0.512-0.512-0.512-1.024-0.512-1.536 0.512-1.024 1.024-1.536 2.048-2.048 1.024-0.512 2.048-0.512 4.096-0.512 1.024 0 2.048 0.512 3.072 0.512h3.072c1.024 0 2.048 0 3.072 0.512 0.512 0.512 1.024 1.024 1.024 1.536 0 0.512 0 1.024-0.512 2.048-0.512 0.512-1.536 1.536-2.56 3.072-1.024 1.024-2.048 2.048-2.56 3.072-0.512 0.512-1.024 1.536-1.024 1.536v1.024h1.024c2.048 0 3.584 0.512 4.096 1.024 1.024 1.024 1.024 1.536 1.536 2.56 0 1.024 0 2.048-0.512 3.072s-1.536 2.56-2.56 4.608c-0.512 0.512-0.512 1.024-0.512 1.024h22.016c2.56 0 4.608 0 6.144 0.512 3.584 0 6.656 0.512 9.216 0.512s4.096 0.512 5.12 0.512h5.12c2.048 0 4.608 0 7.168-0.512 1.536 0 2.048 0 2.048 0.512 1.024 0 0.512 0.512-1.024 1.536z m-54.784-36.864c0.512 0.512 1.024 1.024 0.512 1.024 0 0.512-0.512 0.512-1.536 0.512-2.56-0.512-4.608-1.024-6.144-1.024-2.048-0.512-3.584-0.512-4.608-1.024-1.024-0.512-1.536-0.512-2.048-1.024-0.512-0.512 0-1.024 0.512-1.536 1.024-1.024 2.048-1.536 3.072-1.536 1.024 0 2.048 0 3.072 0.512 1.536 1.024 2.56 1.536 3.584 2.048s2.56 1.536 3.584 2.048z m34.816-10.752c1.024 1.024 2.048 2.048 1.536 3.072 0 1.024-1.536 2.048-3.584 3.584-0.512 0.512-1.024 0.512-1.536 1.024-0.512 0.512-1.536 0.512-2.048 1.024-0.512 0.512-1.536 0.512-2.048 1.024-0.512 0.512-1.024 0.512-2.048 1.024l0.512 0.512 0.512 0.512 7.168-1.024h4.096c1.024 0 2.048 0 3.072 0.512 1.024 0.512 1.536 1.024 2.048 1.536 0.512 0.512 0.512 1.536 0 2.048-0.512 0.512-0.512 2.048-0.512 4.096s0.512 3.584 0.512 5.632c0.512 2.048 0.512 3.584 1.024 5.12 0 1.536 0.512 2.56 0.512 3.584v2.56c0 1.024 0 2.048-0.512 3.072 0 1.024-0.512 2.048-1.024 2.56-0.512 0.512-0.512 0.512-1.024 0.512s-0.512-0.512-1.024-1.024-0.512-1.536-0.512-2.56c0-0.512 0-1.536-0.512-3.072 0-1.536-0.512-2.56-0.512-4.608-2.56 0.512-4.608 0.512-6.656 0.512-1.536 0-3.072 0.512-4.096 0.512 0 1.024 0 2.048 0.512 3.072 0 1.024 0 2.048 0.512 2.56v3.584c0 1.024-0.512 2.048-0.512 2.56 0 0.512-0.512 1.024-1.024 1.024s-1.024 0-1.536-1.024c0-0.512-0.512-0.512-0.512-1.024s-0.512-1.024-0.512-2.048-0.512-2.048-0.512-3.072c0-1.536 0-3.072-0.512-5.12-1.024 0-1.536 0.512-2.048 0.512-0.512 0-1.024 0.512-2.048 0.512-1.536 0.512-3.072 1.024-4.096 1.024-1.024 0.512-2.56 0.512-4.096 1.024v-0.512 2.56c0 1.024 0 1.536-0.512 2.56-0.512 1.536-1.024 3.072-1.536 3.584-1.024 1.024-1.536 1.024-2.048 0-0.512-0.512-1.024-1.536-1.536-2.048-0.512-1.024 0-2.048 0.512-3.072 0.512-1.024 1.024-2.56 1.024-4.096 0-1.536 0.512-3.072 0.512-4.608 0-1.536 0-3.072-0.512-5.12 0-1.536-0.512-3.072-1.024-4.096-0.512-1.536-0.512-2.56-0.512-3.072 0-0.512 0-1.536 0.512-2.048 0.512-1.024 0.512-1.536 1.024-1.536s1.024-0.512 1.536 0h3.072c1.024 0 2.56-0.512 4.608-0.512 1.024 0 2.048-0.512 2.56-0.512 1.024 0 2.048-0.512 3.072-0.512-0.512-0.512-1.536-0.512-2.048-1.024-1.024-0.512-2.048-0.512-3.072-1.024-1.024-0.512-1.536-0.512-1.536-1.024-0.512-0.512 0-1.024 0.512-1.536 0.512-0.512 1.536-1.024 2.56-1.024s1.536 0 2.56 1.024c0.512 0.512 0.512 1.024 1.024 1.024l1.024 1.024c1.024-0.512 2.048-1.024 3.072-2.048 1.024-0.512 1.536-1.024 2.048-1.536 1.024-1.024 1.536-2.048 1.536-2.56 0-0.512-1.024-1.024-2.048-1.024-3.072 0.512-6.144 1.024-8.704 1.536-2.56 0.512-4.608 1.536-6.656 2.56-1.536 0.512-2.56 1.024-3.584 1.024-0.512 0-1.024 0-1.536-0.512-0.512-0.512-1.024-1.024-0.512-1.536s0.512-1.536 1.024-2.048c0.512-0.512 1.024-1.024 2.048-1.536 1.024-0.512 1.536-0.512 2.56-0.512h3.072c1.024 0 2.048 0 3.584-0.512 1.024 0 2.56-0.512 3.584-0.512 1.024 0 2.048-0.512 3.072-0.512 2.048-0.512 4.096-0.512 5.632-0.512 0.512-1.024 2.048-0.512 3.072 0.512z m-19.968 20.48h2.56c1.024 0 3.072-0.512 5.12-0.512 0-1.024-0.512-2.048-0.512-3.072 0-1.024-0.512-2.048-0.512-2.56-1.024 0-2.56 0.512-3.584 1.024-1.024 0.512-2.56 0.512-3.584 1.024-1.024 0.512-2.048 0.512-2.56 1.024-0.512 0-1.024 0.512-1.024 1.024s-0.512 1.024-0.512 1.536v3.584c0.512-0.512 1.024-1.024 1.536-1.024 0.512-0.512 0.512-0.512 1.024-0.512h1.024c0.512-1.536 1.024-1.536 1.024-1.536z m1.536 3.584c-1.024 0-1.536 0.512-2.048 0.512h-2.56c-0.512 0-0.512 0-1.024-0.512 0.512 3.584 0.512 6.144 0.512 7.68 1.536-1.024 2.56-1.536 3.072-2.048 1.024-0.512 1.536-0.512 2.56-0.512h2.048c1.024 0 2.56 0 4.096-0.512v-3.072c0-1.024 0-2.048-0.512-3.072-1.536 0-3.072 0.512-4.096 0.512 0 0.512-1.024 0.512-2.048 1.024zM343.04 471.04c-1.024 0-2.56 0.512-3.584 0.512-1.024 0-2.048 0-3.072 0.512 0 1.024 0 2.048 0.512 3.072 0 1.024 0 2.048 0.512 3.072 3.072-0.512 5.632-0.512 7.168-1.024 1.536-0.512 3.072-0.512 4.096-0.512 0-2.048-0.512-3.584-1.024-4.096s-2.56-1.536-4.608-1.536z m-5.632 9.728c0 1.024 0 2.048 0.512 3.072 0 1.024 0 2.048 0.512 3.072 2.048-0.512 3.584-0.512 4.608-0.512 1.024 0 2.048-0.512 3.072-0.512 1.024 0 1.536 0 2.048-0.512h1.024c0-1.024 0-2.048-0.512-3.072v-2.56l-11.264 1.024zM371.712 569.344c-1.024 1.024-2.048 2.048-4.096 2.56-2.048 0.512-4.096 0-6.144-1.536-2.56-2.048-5.12-3.584-7.168-4.608-2.048-1.024-4.096-2.048-5.632-2.56-4.608-1.536-8.704-2.56-11.264-2.56-1.536 2.048-3.584 3.584-5.632 5.12-2.048 1.536-4.608 3.072-7.168 4.608-2.56 1.536-5.12 2.56-7.68 4.096-2.56 1.024-5.12 2.048-7.68 2.56-1.024 0.512-1.536 0-2.56 0-0.512-0.512-1.024-1.024-1.024-1.536 0-1.024 0-1.536 0.512-2.048 0.512-0.512 1.536-1.024 3.584-1.024 4.096-1.024 7.68-2.048 11.264-3.584 3.584-1.536 6.656-3.584 10.24-6.144 0.512-0.512 1.536-1.024 2.048-2.048 0.512-1.024 1.024-1.536 1.536-2.048l1.024-2.048c0.512-0.512 0.512-0.512 1.024-0.512s1.024 0.512 1.536 1.024c0.512 0.512 0.512 1.024 0.512 1.536 1.536 0.512 4.096 1.024 7.168 1.536 3.072 1.024 6.656 2.048 11.264 3.584 1.024 0.512 2.048 0.512 3.584 1.024 1.536 0.512 2.56 1.024 4.096 1.024 1.024 0.512 2.56 0.512 3.584 1.024 1.024 0.512 2.048 0.512 2.56 0.512 1.024 0 1.024 0.512 1.536 0.512s-0.512 1.024-1.024 1.536z m-55.808-23.04c0 0.512 0 1.024 0.512 2.048 0 1.024 0 2.048 0.512 3.072 0 1.024 0 2.56 0.512 3.584v3.584c0 1.536-0.512 2.56-1.024 2.56s-1.024 0-1.024-0.512c-0.512-0.512-0.512-1.536-1.024-3.072-0.512-2.56-0.512-5.12-1.024-6.656 0-1.536-0.512-3.072-0.512-4.096v-2.56c0-0.512 0.512-0.512 1.024-1.024 0.512 0 1.024 0 1.536 0.512 0 1.024 0.512 2.048 0.512 2.56z m9.728 25.6c0.512-0.512 1.024-1.024 2.048-1.024s2.56-0.512 4.096-0.512c2.048 0 4.096 0 6.656-0.512s5.632-1.024 9.728-1.536h2.56c0.512 0 1.024 0.512 1.024 1.024s0 1.024-0.512 1.536c-0.512 0-1.536 0.512-2.56 0.512-1.536 0-3.072 0.512-4.096 0.512s-2.048 0-3.072 0.512v2.56c0 1.024 0 2.048 0.512 3.072 2.048 0 3.584-0.512 5.632-0.512 2.048 0 3.584-0.512 5.12-0.512 1.536 0 3.072-0.512 4.096-0.512h2.048c0.512 0 1.024 0.512 1.536 1.024 0 0.512 0 1.024-0.512 2.048 0 0-0.512 0-0.512 0.512H342.528l0.512 8.704c3.584-0.512 7.168-0.512 10.752-1.024 3.584-0.512 7.168-0.512 10.752-0.512 1.024 0 1.536 0.512 1.536 1.024s-0.512 1.024-1.024 2.048c-1.024 1.024-1.536 1.536-2.56 1.536h-3.072c-1.024-0.512-2.56-0.512-4.096-0.512h-9.216c-1.536 0-3.072 0-4.608 0.512-2.048 0-4.608 0.512-6.656 1.024s-4.096 1.024-5.632 1.024c-1.536 0.512-3.584 1.024-4.608 1.536-1.536 0.512-2.56 1.024-3.072 1.536-0.512 0.512-1.536 0.512-2.048 0.512-0.512 0-1.024 0-1.536-0.512-0.512-0.512-0.512-0.512-0.512-1.024s0.512-1.024 1.024-1.536c1.024-1.024 2.048-1.536 2.56-1.536 0.512 0 1.536-0.512 2.048-0.512h1.536c0.512 0 1.024 0 1.536-0.512 1.024 0 1.536-0.512 2.56-0.512s2.048-0.512 3.072-0.512c-0.512 0-0.512-0.512-1.024-0.512s-1.536-0.512-2.56-1.024-1.536-1.024-2.048-1.536c0-0.512 0-1.024 1.024-2.048 0.512-0.512 1.536-0.512 2.048-0.512 0.512 0 1.024 0.512 2.048 1.536 0.512 1.024 1.024 1.536 1.536 2.048 0 0.512 0.512 1.024 0 1.536 1.024 0 2.048 0 3.072-0.512 1.024 0 2.048-0.512 3.584-0.512 0-1.024 0-2.048-0.512-3.584 0-1.536-0.512-3.072-0.512-4.608-3.584 0.512-7.168 1.024-9.728 1.536-3.072 0.512-5.12 1.024-7.168 2.048-2.56 0.512-3.072 0-2.048-1.536 0.512-0.512 0.512-1.024 1.024-1.536 0.512-0.512 1.536-1.024 3.072-1.024h2.048c0.512 0 1.536 0 2.048-0.512 1.024 0 1.536 0 2.048-0.512 0.512 0 1.536 0 2.048-0.512 0.512 0 1.536-0.512 3.072-0.512s2.56-0.512 3.584-0.512c0-1.024 0-2.048-0.512-3.072 0-1.024-0.512-2.048-0.512-2.56-1.024 0-1.536 0.512-2.56 0.512-0.512 0-1.536 0-2.048 0.512-1.024 0-1.536 0.512-2.56 0.512h-3.584c-1.024 0-1.536-0.512-2.048-0.512 0-0.512 0-1.024 1.024-1.536z m2.048-28.672c0 2.56 0.512 5.12 0.512 7.68s0.512 5.12 0.512 7.68v2.56c0 0.512-0.512 0.512-1.024 0.512-1.024 0-1.536 0-1.536-1.024-0.512-0.512-0.512-1.536-0.512-3.584 0-1.024 0-2.048-0.512-3.072s-0.512-2.56-0.512-4.096c0-1.536-0.512-2.56-0.512-4.096 0-1.024-0.512-2.048-0.512-2.56v-3.072c0-0.512 0.512-1.024 1.536-1.024 1.024 0 1.536 0 2.048 0.512 0 1.024 0 2.048 0.512 3.584z m35.84 1.536c-0.512 1.024-1.024 1.024-2.048 1.536-1.024 0-2.048 0-4.608-0.512-0.512 0-1.536 0-2.56-0.512h-3.584c-1.536 0-2.56 0-4.096 0.512-1.536 0-2.56 0.512-3.584 0.512-1.024 2.56-2.048 4.096-3.584 5.632-1.536 1.024-2.56 2.048-3.584 2.56-1.024 0.512-2.048 1.024-3.072 1.024-1.024 0-1.536-0.512-2.048-1.536v-2.048c0.512-0.512 1.024-1.024 2.56-1.536l3.072-1.536 2.56-2.56 1.536-3.072c0.512-1.024 0.512-2.048 0.512-3.072 0-1.536 0.512-2.048 1.024-2.048s1.024 0.512 1.536 1.024c0.512 1.024 0.512 2.56-0.512 4.608 2.56-0.512 5.12-1.024 8.192-1.024 2.56 0 5.632-0.512 8.704-0.512 1.536 0 2.56 0.512 2.56 1.024 1.536 0.512 1.536 1.024 1.024 1.536z m-8.704 11.776c0.512 1.024 0.512 1.536 0 2.048-0.512 0.512-1.024 0.512-1.536-0.512l-3.072-3.072c-1.024-1.024-2.048-2.048-3.072-3.584-0.512-0.512-0.512-1.024-0.512-1.536 0-0.512 0.512-1.024 1.024-1.536 1.024-0.512 1.536-0.512 2.048-0.512 0.512 0 1.536 0.512 2.048 2.048 0 0.512 0.512 1.024 1.024 2.048 0.512 0.512 0.512 1.536 1.024 2.048 0.512 0.512 0.512 1.536 0.512 2.048 0.512 0 0.512 0.512 0.512 0.512z m-0.512 25.6c0.512 0.512 1.024 1.024 1.024 1.536 0 0.512-0.512 1.024-1.024 1.536-1.024 0.512-1.536 1.024-2.56 1.536-1.024 0.512-1.536 1.024-2.048 1.024-0.512 0.512-1.024 0.512-1.024 0-0.512 0 0-0.512 0-1.024 0.512-1.024 1.024-1.536 1.536-2.56 0.512-1.024 1.024-1.536 1.536-2.048 0.512-0.512 1.024-0.512 1.024-0.512 0.512-0.512 1.024 0 1.536 0.512z" p-id="5467"></path><path d="M345.088 766.464l-18.432 20.48c-0.512 0-0.512-0.512-0.512-1.024l96.768-599.04s0-0.512 0.512-0.512l17.92-18.432c0.512-0.512 1.024 0 1.024 1.024L345.6 765.952c0 0.512 0 1.024-0.512 0.512z" fill="#A53737" p-id="5468"></path><path d="M327.68 790.016h-1.536c-1.024 0-2.048-1.024-2.56-1.536-0.512-0.512-0.512-1.536-0.512-2.048L419.84 187.392c0-0.512 0.512-1.536 1.024-2.048l17.92-18.432c1.024-1.024 2.56-1.024 3.584-0.512 1.536 0.512 2.048 2.048 1.536 3.584L348.16 766.464c0 1.024-0.512 2.048-1.536 2.56l-0.512 0.512-18.432 20.48zM425.472 187.904L329.728 779.776l13.824-15.36L438.784 174.08l-13.312 13.824z" fill="#222222" p-id="5469"></path><path d="M325.632 779.264l15.872-12.288c0-0.512 0.512-0.512 1.024-0.512l408.064 65.536s0.512 0 0.512 0.512l-13.312 12.8c0.512 0.512 0 1.024-1.024 1.024l-410.624-66.048c0-0.512-0.512-0.512-0.512-1.024z" fill="#A53737" p-id="5470"></path><path d="M737.28 848.896h-0.512l-410.624-66.048c-1.024 0-2.048-0.512-2.56-1.536l-0.512-1.024v-2.56l16.384-12.8c0.512-1.024 2.048-1.536 3.584-1.536l408.064 65.536c0.512 0 1.536 0.512 2.048 1.024l2.048 2.048-14.336 13.824c0 0.512 0 0.512-0.512 1.024-0.512 1.536-1.536 2.048-3.072 2.048zM331.264 778.24l404.992 65.536 9.728-9.216L343.04 769.024l-11.776 9.216z" fill="#222222" p-id="5471"></path><path d="M442.71616 166.33344l404.85888 65.29024-96.83456 600.46848-404.85888-65.29024z" fill="#DB4944" p-id="5472"></path><path d="M752.128 834.048L343.552 768l97.28-604.16 408.576 66.56-97.28 603.648z m-404.48-68.608l400.896 64.512L844.8 233.472 443.904 168.96 347.648 765.44z" p-id="5473"></path><path d="M707.65568 820.34688l96.768-595.86048 5.05344 0.8192-96.768 595.8656z" fill="#F7D2A1" p-id="5474"></path><path d="M798.74048 273.50528l0.8192-5.05856 40.93952 6.6048-0.8192 5.05344zM786.88768 360.2432l0.8192-5.05344 38.41024 6.1952-0.8192 5.05344zM770.6368 446.0544l0.8192-5.05856 40.9344 6.6048-0.81408 5.05344zM797.696 539.136l-38.4-6.144 0.512-5.12 38.912 6.144zM780.8 643.584l-40.96-6.656 1.024-5.12 40.96 6.656zM766.976 730.112l-38.912-6.144 1.024-5.12 38.4 6.144z" fill="#F7D2A1" p-id="5475"></path><path d="M464.04096 207.22688l159.21664 25.67168-74.09152 459.45344-159.21664-25.6768z" fill="#F7E1C6" p-id="5476"></path><path d="M542.72 669.696l-139.264-22.528L471.04 225.792l139.264 22.528-67.584 421.376z m-130.56-29.184l124.416 19.968 65.536-406.016-124.416-19.968-65.536 406.016z" fill="#5F2A26" p-id="5477"></path><path d="M521.216 324.608c-1.536 0.512-2.56 0.512-3.584 1.024-1.024 0.512-2.048 0.512-3.584 1.024-0.512 4.608-1.024 8.192-1.536 10.752-0.512 2.56-1.536 5.12-2.56 7.168-1.024 1.536-1.536 3.072-2.56 4.096-1.024 1.024-2.56 1.536-4.096 2.048-1.024 0.512-2.048 0.512-2.56 0.512h-3.072c-1.024 0-2.048 0-2.56-0.512-1.024 0-1.536-0.512-2.048-1.024-0.512-0.512-1.024-1.024-1.024-1.536 0-0.512 0.512-1.024 2.048-0.512 2.56 0.512 5.12 0.512 7.68-0.512 2.048-0.512 4.096-2.048 5.12-4.608 1.024-2.048 2.048-4.096 2.56-6.144 0.512-2.048 1.024-5.12 1.536-8.192-4.096 1.024-7.168 2.048-9.728 2.56-2.048 0.512-3.584 1.024-4.096 1.024-1.024 0.512-2.048 0.512-2.56 0s-0.512-1.536 0.512-3.072c1.024-2.048 2.048-3.072 3.584-3.072h5.12c1.024 0 2.048 0 3.584-0.512 1.536 0 3.072-0.512 4.608-0.512v-4.096c0-1.024-0.512-2.048-1.024-3.072-0.512-1.024-1.024-1.536-1.536-2.048-0.512-0.512-1.536-1.024-2.56-1.536-0.512-0.512-1.024-0.512-1.024-1.024v-1.024c0-0.512 0.512-0.512 0.512-0.512 0.512 0 0.512-0.512 1.024 0 1.536 0 2.56 0 3.072 0.512 0.512 0.512 1.536 1.024 2.048 2.048 0 0.512 0.512 0.512 0.512 1.024s0.512 0.512 0.512 1.024c1.024-1.024 2.048-1.536 3.072-2.56 1.024-0.512 1.536-1.536 2.048-2.048 1.024-1.024 1.536-2.56 1.536-3.584 0-1.024-0.512-1.536-1.024-2.048-0.512-0.512-1.024-0.512-1.536-1.024-0.512 0-1.024-0.512-1.536-0.512-0.512 0-1.024-0.512-2.048-0.512h-2.56c-1.536 0-3.072 0-4.096 0.512s-2.048 1.024-3.072 2.048c-0.512 0.512-1.024 1.024-1.536 1.024h-1.536c-0.512 0-0.512-0.512-1.024-1.024v-1.536c0.512-2.048 1.536-3.072 3.072-3.584 2.048-0.512 4.096-1.024 6.144-1.024 2.048 0 4.096 0 5.632 0.512 1.536 0.512 3.584 1.024 4.608 2.048 1.536 1.024 2.048 2.048 2.56 3.072 1.024 1.536 1.024 3.072 1.024 4.096s-1.024 2.048-2.048 3.072c-1.024 1.024-2.56 1.536-3.584 2.048-1.024 0.512-2.56 1.536-4.608 2.048 1.024 2.048 1.536 4.096 1.024 6.656 1.024 0 1.536-0.512 2.56-0.512s2.048-0.512 3.072-0.512h2.048c0.512 0 1.024 0.512 1.024 0.512 0 0.512 0 0.512-0.512 1.024s0 0.512-1.024 0.512z m10.24-1.024c-1.536 6.656-4.608 11.776-8.192 16.384-0.512 0.512-1.024 1.024-2.048 1.536-0.512 0.512-1.536 0.512-2.048 0.512h-2.048c-0.512 0-1.024-0.512-1.536-0.512-0.512-0.512-1.024-1.024-0.512-2.048 0.512-0.512 1.024-1.536 2.56-2.56 2.048-1.536 4.096-3.584 6.144-6.144 2.048-2.56 3.584-5.632 5.632-9.216 0-0.512 0.512-1.024 1.024-1.024h1.024s0.512 0.512 0.512 1.024c-0.512 0.512-0.512 1.024-0.512 2.048z m12.288-12.8c0 1.024-0.512 2.048-1.024 4.096s-1.024 4.608-1.024 7.168c-0.512 2.56-1.024 5.12-1.536 8.192-0.512 3.072-1.024 5.632-1.536 8.192-0.512 2.56-1.024 4.608-1.024 6.656-0.512 2.048-0.512 3.072-1.024 4.096-0.512 3.072-1.536 4.608-3.072 5.632-1.024 1.024-3.072 1.024-5.12 0.512s-4.096-1.024-5.12-1.536c-1.536-0.512-2.56-1.536-4.096-2.56-1.024-1.024-1.024-1.536-0.512-2.048 0.512-0.512 1.024-0.512 2.56 0 2.048 0.512 4.096 1.024 5.12 1.536s2.56 0.512 3.072 0c1.024 0 1.536-0.512 1.536-1.536 0.512-0.512 0.512-1.536 1.024-3.072 0-1.024 0.512-2.56 1.024-4.096 0.512-2.048 1.024-4.096 1.024-6.656l1.536-7.68c0.512-2.56 1.024-5.632 1.536-8.192 0.512-2.56 0.512-5.12 1.024-7.168 0.512-2.048 0.512-3.584 0.512-4.608 0-2.048 0.512-3.072 1.024-3.584s1.024-1.024 2.048-0.512c1.024 0 1.536 1.024 2.048 2.048 0.512 1.024 0.512 2.56 0 5.12z m12.8 34.304c-1.024 1.024-2.56 1.536-3.584 1.024s-2.048-1.024-2.56-2.56c-0.512-1.024-1.024-2.56-1.536-4.096l-1.536-4.608c-0.512-1.536-1.024-3.072-1.024-5.12-0.512-1.536-0.512-3.072-0.512-4.608 0-1.024 0-2.048 0.512-2.048s1.024 0.512 1.536 1.536c1.536 4.096 3.072 7.68 4.608 10.752 1.536 2.56 3.584 4.608 5.12 5.632 0.512 0.512 1.024 1.024 1.024 2.048-0.512 0.512-1.024 1.536-2.048 2.048zM503.808 391.68c1.024-0.512 2.048-0.512 3.072 0 1.024 0 2.048 0.512 2.56 1.536 1.024 1.024 2.56 2.048 3.072 2.56l2.048 2.048 3.072-1.536c1.024-0.512 1.536-1.024 2.048-1.024s1.024-0.512 1.024-1.024 0.512-0.512 0.512-0.512c0.512-1.536 0.512-2.56 0.512-3.584 0-1.024-1.024-1.536-3.072-2.048-2.048-0.512-3.584-1.024-4.608-1.536-1.536-0.512-2.56-0.512-4.096-0.512-1.024 0-2.56 0-3.584 0.512-1.024 0.512-2.56 1.024-4.096 1.536-1.536 0.512-2.56 1.024-3.584 1.024-1.024 0-1.536-0.512-2.048-1.024-0.512-0.512-0.512-1.024 0-2.048 0.512-0.512 0.512-1.024 1.536-1.536 1.536-1.024 3.072-1.536 4.608-2.048 1.536-0.512 3.072-0.512 4.608 0 4.608 0.512 8.192 1.536 11.264 2.048 3.072 1.024 5.12 2.048 7.168 3.072s2.56 2.56 2.56 3.584c0 1.024-1.024 2.56-3.072 3.584-1.536 1.024-3.072 1.536-4.096 2.048l-4.608 1.536c0.512 1.024 1.024 2.048 1.024 3.072v5.12c4.608 1.024 8.704 1.536 12.8 3.072 4.096 1.024 8.704 2.56 13.824 4.096 1.536 0.512 2.048 1.024 2.048 1.536s-1.024 1.536-2.56 2.048c-1.536 1.024-3.072 1.024-4.608 1.024-1.536-0.512-3.072-1.024-5.12-2.56-2.56-1.536-5.12-3.072-8.192-4.096-3.072-1.024-5.632-1.536-8.704-2.048 0 2.56-0.512 4.608-1.024 6.144-0.512 2.048-0.512 3.584-1.024 5.12-0.512 1.536-1.024 2.56-1.536 4.096l-1.536 3.072c-0.512 1.024-1.536 2.048-2.56 3.072-1.024 1.024-2.048 1.536-3.584 2.048s-2.56 0.512-4.096 0.512c-1.536 0-3.072 0-4.608-0.512-1.536-0.512-3.072-1.024-3.584-1.536-1.024-0.512-1.536-1.536-2.56-2.56-0.512-1.024-1.024-1.536-0.512-2.048 0.512-0.512 1.024 0 2.56 0.512 2.56 1.024 5.12 1.536 7.68 1.536s4.096-0.512 5.632-1.536c1.024-0.512 1.536-1.536 2.048-2.048 0.512-0.512 1.024-1.536 1.536-2.56 0.512-1.024 1.024-2.048 1.024-3.072 0.512-1.024 0.512-2.56 1.024-4.096 0-1.024 0.512-2.048 0.512-3.072 0-1.024 0.512-2.048 0.512-3.072-2.56-0.512-4.608-0.512-7.168-0.512-2.56 0-5.12-0.512-7.68-0.512h-7.168c-2.048 0-4.096 0.512-6.144 0.512-2.56 0.512-4.096 0.512-5.12-0.512-0.512-1.024-0.512-1.536 0.512-3.072l1.536-1.536c0.512-0.512 1.024-0.512 1.024-1.024h2.56c1.536 0.512 3.584 0.512 5.12 0.512 1.536 0 3.072 0.512 4.096 0.512 3.072 0 6.144 0.512 9.216 0.512 3.072 0.512 5.632 0.512 8.704 1.024v-3.584c0-1.024 0-1.536-0.512-2.048-0.512-0.512-1.024-1.536-1.024-2.048l-1.536-1.536c-0.512-0.512-1.536-1.024-2.56-1.536-1.024-0.512-2.56-1.024-4.096-2.048-1.024-0.512-1.536-1.024-1.536-1.536 1.024 1.536 1.536 1.024 2.56 0.512zM495.104 470.016c-1.536 0-2.048 0.512-2.56 1.024-0.512 0.512-0.512 1.536-0.512 3.072v2.048c4.608 0.512 8.192 0.512 11.264 1.024 3.072 0.512 5.632 0.512 7.68 1.024 2.048 0.512 4.096 0.512 5.632 1.024 1.536 0.512 3.072 0.512 4.608 1.024 1.536 0.512 2.048 1.024 2.048 1.024 0 0.512-0.512 1.024-1.024 2.048l-1.024 1.024c-0.512 0-0.512 0.512-1.024 0.512h-1.024c-0.512 0-1.024-0.512-2.048-0.512-0.512 0-1.024-0.512-1.536-0.512-0.512 0-1.024-0.512-1.536-0.512-0.512 2.048-1.024 3.584-1.536 5.632-0.512 2.048-0.512 4.096-1.024 6.144l6.144 1.536c2.048 0.512 3.584 1.024 5.12 1.536l4.608 1.536c1.024 0.512 2.048 0.512 3.072 1.024 0.512 0.512 1.536 0.512 1.536 0.512 0.512 0 1.024 0.512 1.536 0.512 1.024 0.512 1.536 0.512 1.536 1.024s-1.024 1.536-3.072 2.56c-1.024 1.024-2.56 1.024-3.584 1.024s-2.56-1.024-4.608-2.56c-1.024-1.024-2.56-1.536-4.096-2.56-1.536-1.024-3.584-1.536-5.632-2.56-2.048-0.512-4.096-1.536-6.656-2.048l-7.68-1.536c-2.56-0.512-5.12-0.512-7.68-1.024h-7.68c-2.56 0-5.12 0-7.68 0.512s-4.608 0.512-6.656 1.024c-2.56 0.512-4.096 0.512-4.608 0-0.512-0.512-1.024-1.536-0.512-3.072s0.512-2.56 1.536-2.56c0.512-0.512 1.536-0.512 2.56 0 0.512 0 1.536 0 2.56 0.512h3.072c2.56 0 4.608 0 6.656 0.512 2.048 0 3.584 0 5.632 0.512 0.512-4.096 1.024-7.68 1.536-10.752s0-5.12-0.512-7.168c0-2.048 0-3.072 0.512-4.096 0.512-0.512 1.536-1.024 3.584-1.536 4.096-0.512 7.168-1.536 9.728-2.56s4.096-2.048 4.608-3.072c1.024-1.536 1.536-2.048 2.56-2.048 0.512 0 1.024 1.024 2.048 2.56 0.512 1.536 0.512 3.072 0.512 3.584-0.512 0.512-1.536 1.024-3.072 1.536-1.024 0-2.048 0.512-2.56 0.512-1.024 0-1.536 0.512-2.56 0.512s-1.536 0.512-2.56 0.512c-3.584 0.512-4.608 0.512-5.632 0.512z m-4.096 31.232c0 0.512 0 0.512-0.512 1.536-0.512 0.512-1.024 1.024-1.536 2.048-0.512 0.512-1.536 1.024-2.048 1.536-1.024 0.512-2.048 1.536-3.072 2.048-1.024 0.512-2.048 1.536-3.584 2.048-1.024 0.512-2.56 1.024-3.584 1.536-1.024 0.512-2.048 0.512-3.072 0.512-1.024 0-1.536-0.512-2.048-1.536-0.512-1.024-0.512-2.048 0-2.56 0-0.512 0.512-1.024 1.536-1.024 1.024 0 2.56-0.512 3.584-0.512 1.536-0.512 2.56-0.512 4.096-1.024 1.536-0.512 2.56-1.024 4.096-1.536 1.536-0.512 2.56-1.536 3.584-2.048 1.024-1.024 2.048-1.024 2.56-1.024-0.512-1.024 0-1.024 0 0z m17.92-19.968c-1.536-0.512-3.072-0.512-4.096-1.024-1.536-0.512-2.56-0.512-4.096-0.512h-9.728c0 1.536-0.512 3.584-0.512 5.632-0.512 2.048-0.512 4.096-1.024 6.144 1.536 0 3.072 0.512 4.608 0.512s2.56 0.512 4.096 0.512c1.024 0 2.56 0.512 4.096 0.512 1.536 0 2.56 0.512 4.096 1.024 0-1.024 0.512-2.048 0.512-2.56 0-1.024 0.512-1.536 0.512-2.56s0.512-2.048 0.512-3.072c0.512-2.048 1.024-3.072 1.024-4.608z m9.728 33.28c1.024 1.024 1.536 2.048 1.536 2.56 0 0.512-1.024 1.024-2.56 1.536-1.536 0.512-2.56 0.512-3.584 0-0.512-0.512-1.536-1.024-2.048-2.048-1.024-2.048-2.048-3.584-3.072-4.608-0.512-1.024-1.536-2.048-2.048-3.072-0.512-1.024-1.024-1.536-1.536-2.048-0.512-0.512-0.512-1.024-1.024-1.024-1.024-1.024-1.024-1.536-1.024-2.048 0-0.512 0.512-1.024 1.024-1.024s1.024 0 1.536 0.512c0.512 0.512 1.024 1.024 2.048 1.536l4.096 4.096c1.536 1.024 3.584 3.072 6.656 5.632zM470.016 581.632c-1.536 1.024-3.584 2.048-5.632 3.072-2.048 1.024-4.608 2.048-7.68 3.072-1.024 0.512-2.048 0.512-3.072 0.512-0.512 0-1.536-0.512-1.536-0.512-0.512-0.512-0.512-1.024-0.512-1.024 0-0.512 0-1.024 0.512-1.536 1.024-1.024 1.536-2.048 2.048-2.048 0.512-0.512 1.536-0.512 2.56-0.512 2.048-0.512 4.096-0.512 6.144-1.024 2.048-0.512 4.096-1.024 5.12-1.024 1.536-0.512 2.048-0.512 2.56 0 1.024-0.512 0.512 0.512-0.512 1.024z m-3.584-18.944c1.024 0.512 1.536 1.024 1.536 1.536-0.512 0.512-1.024 1.024-2.56 0.512s-3.072-0.512-4.096-1.024c-1.024 0-2.048-0.512-2.56-0.512h-2.56c-1.536 0-2.56 0-3.072-1.024-0.512-0.512 0-1.536 1.536-2.56 1.024-1.024 2.048-1.536 3.072-1.536 1.024 0 2.048 0 2.56 0.512 1.536 1.024 3.072 2.048 4.096 2.56 0.512 1.024 1.536 1.536 2.048 1.536z m7.168-13.312c1.024 1.536 1.024 2.048 1.024 2.56-0.512 0.512-1.024 0.512-2.048-0.512-1.536-1.024-3.584-2.048-5.12-3.072-1.536-1.024-2.56-1.536-3.584-1.536-1.536-0.512-2.56-1.024-2.56-1.536 0-1.024 0.512-1.536 1.536-2.56 1.024-1.024 2.048-1.536 3.072-1.024 1.024 0 1.536 0.512 2.048 1.024 1.024 1.024 2.048 2.048 3.072 3.584s2.048 2.048 2.56 3.072z m44.544 28.672c-1.024 0.512-2.048 1.024-3.072 1.024-1.024 0-2.56-0.512-4.096-1.536-2.56-1.536-5.632-2.56-8.704-3.584-3.072-1.024-6.144-1.536-9.216-1.536-5.12-0.512-9.728-0.512-13.312-0.512-3.584 0-6.656 0-9.216 0.512h-3.072c-0.512 0-1.024-0.512-1.024-1.024s0-1.024 0.512-1.536l1.536-1.536c1.536-1.024 3.072-1.536 3.584-1.536h2.048c0.512 0 1.536 0.512 2.048 0.512 0.512 0 1.536 0.512 3.072 0.512 1.024 0 2.56 0.512 4.608 0.512s4.096 0.512 7.168 0.512c0.512-2.56 1.024-4.608 1.024-6.656 0.512-2.048 0.512-3.584 1.024-4.608-2.56-0.512-4.608-0.512-6.656-0.512h-5.632c-2.56 0-4.096 0-4.608-0.512-0.512-0.512 0-1.536 1.024-2.048 2.56-1.536 5.12-2.048 6.656-1.536 0.512 0.512 2.048 0.512 3.584 1.024 1.536 0.512 3.584 0.512 6.144 0.512 0-1.024 0.512-2.048 0.512-2.56 0-0.512 0-1.536 0.512-2.048v-1.536c0-0.512 0-1.024 0.512-1.536 0-1.536 0.512-2.56 0.512-3.072 0-1.024 0.512-1.536 1.024-1.536 0.512-0.512 0.512-0.512 1.024-0.512s1.024 0 1.024 0.512c1.024 0.512 1.536 1.536 1.536 2.56s0 2.56-0.512 4.608c0 0.512-0.512 1.536-0.512 2.56s-0.512 2.56-1.024 3.584c1.536 0 2.56 0 4.096 0.512 1.536 0 2.56 0.512 3.584 0.512 1.024 0 2.048 0.512 3.072 0.512 1.024 0 1.536 0.512 2.048 0.512 1.024 0.512 1.024 1.024 1.024 1.536 0 0.512 0 1.024-0.512 1.024-0.512 0.512-1.024 0.512-2.048 0.512s-2.048 0-4.096-0.512c-1.536-0.512-2.56-0.512-4.096-0.512-1.536 0-2.56-0.512-4.096-0.512-0.512 1.536-1.024 3.584-1.024 5.632-0.512 2.048-1.024 3.584-1.024 5.632 2.048 0 5.12 0.512 8.704 1.536 3.584 0.512 8.192 1.536 13.824 3.072 2.048 0.512 3.072 1.024 3.072 1.536 0-0.512-0.512 0.512-2.56 1.536z m-12.288 13.312c0.512 2.048 0.512 3.072-0.512 4.096-1.024 1.024-2.048 1.024-4.096 0.512-3.584-1.024-7.168-1.536-10.752-2.048-3.072-0.512-5.632-0.512-7.68-0.512-1.536 0-3.072 0-4.096-0.512-1.536-0.512-2.56-1.024-3.072-1.536-2.56-2.56-1.536-5.12 3.072-7.68 2.56-1.536 4.608-2.56 6.144-4.096 1.536-1.024 2.56-2.56 3.584-3.584 0.512-1.024 1.024-1.536 1.536-1.536 0.512-0.512 1.024 0 1.536 0.512 0.512 1.024 0.512 1.536 0.512 2.56s-1.024 2.048-2.048 2.56c-1.536 1.024-3.072 2.048-4.096 3.072-1.024 1.024-2.048 1.536-3.072 2.048-1.536 1.024-2.048 2.048-2.048 2.56 0 0.512 1.024 1.024 2.56 1.024 2.048 0.512 3.584 1.024 5.632 1.024 1.536 0.512 4.096 0.512 6.656 1.024 2.048 0 3.584 0 4.096-0.512 0.512-0.512 0.512-1.024 0.512-2.56 0-1.024-0.512-1.536-1.024-2.56s-1.536-1.536-2.56-2.56c-0.512-0.512-1.024-1.536-1.024-2.048 0-1.024 0-1.536 0.512-2.048 1.536-1.024 2.56 0 4.096 2.048 1.024 1.536 1.536 2.56 2.048 3.584 0.512 1.024 1.024 1.536 1.536 2.56 0.512 0.512 0.512 1.536 1.024 2.048 0.512 1.536 1.024 2.048 1.024 2.56z" p-id="5478"></path></svg>