<?xml version="1.0" standalone="no"?>
<!DOCTYPE svg PUBLIC "-//W3C//DTD SVG 1.1//EN" "http://www.w3.org/Graphics/SVG/1.1/DTD/svg11.dtd"><svg t="1627026235091"
  class="icon" viewBox="0 0 1024 1024" version="1.1" xmlns="http://www.w3.org/2000/svg" p-id="5454"
  xmlns:xlink="http://www.w3.org/1999/xlink" width="200" height="200">
  <defs>
    <style type="text/css">
      @font-face {
        font-family: feedback-iconfont;
        src: url("//at.alicdn.com/t/font_1031158_1uhr8ri0pk5.eot?#iefix") format("embedded-opentype"), url("//at.alicdn.com/t/font_1031158_1uhr8ri0pk5.woff2") format("woff2"), url("//at.alicdn.com/t/font_1031158_1uhr8ri0pk5.woff") format("woff"), url("//at.alicdn.com/t/font_1031158_1uhr8ri0pk5.ttf") format("truetype"), url("//at.alicdn.com/t/font_1031158_1uhr8ri0pk5.svg#iconfont") format("svg");
      }
    </style>
  </defs>
  <!-- <path d="M512 512m-512 0a512 512 0 1 0 1024 0 512 512 0 1 0-1024 0Z" fill="#E07F28" p-id="5455"></path>
<path d="M0 483.328a512 483.328 0 1 0 1024 0 512 483.328 0 1 0-1024 0Z" fill="#F4C43D" p-id="5456"></path> -->
  <path
    d="M 255 795.1 l -12.3 24.6 c -0.5 0 -0.5 -0.5 -1 -1 L 174.1 215.6 V 215 l 12.3 -22.5 c 0.5 -0.5 1 -0.5 1 0.5 L 255.5 793.6 c 0 1 -0.5 1 -0.5 1.5 z"
    fill="#a53737" p-id="5457"></path>
  <path
    d="M 242.7 821.8 c -1.5 0 -3.1 -1.5 -3.1 -3.1 L 171.5 216.1 c 0 -1 0 -1.5 0.5 -2 l 12.3 -22.5 c 0.5 -1 2 -2 3.1 -1.5 c 1.5 0.5 2.6 1.5 2.6 3.1 L 258 793.6 c 0 1 0 2 -0.5 2.6 l -0.5 0.5 l -12.3 25.1 h -2 z M 176.6 215.6 l 67.1 596 l 9.2 -18.4 l -66.6 -594.4 l -9.7 16.9 z"
    fill="#222222" p-id="5458"></path>
  <path
    d="M 239.6 812 l 12.3 -16.4 c 0 -0.5 0.5 -0.5 1 -1 l 410.6 -46.1 h 0.5 l -9.2 15.9 c 0.5 0.5 0.5 1 -0.5 1 L 240.6 812.5 c -0.5 0 -1 0 -1 -0.5 z"
    fill="#a53737" p-id="5459"></path>
  <path
    d="M 240.1 815.1 c -1.5 0 -3.1 -1 -3.6 -3.1 v -1 l 12.3 -16.4 l 1 -1 c 0.5 -0.5 1.5 -1 2.6 -1.5 l 410.6 -46.1 c 0.5 0 1.5 0 2 0.5 l 2.6 1 l -10.2 16.9 v 1 c -0.5 1.5 -1.5 2.6 -3.1 2.6 l -414.2 47.1 c 0.5 0 0.5 0 0 0 z m 13.3 -17.4 l -9.2 12.3 l 407.6 -45.6 l 7.2 -11.8 l -405.5 45.1 z m -0.5 0 z m 410.6 -46.1 z"
    fill="#222222" p-id="5460"></path>
  <path d="M 187.5 190.7 l 407.5 -45.8 l 67.9 604.4 l -407.5 45.8 z" fill="#db4944" p-id="5461"></path>
  <path
    d="M 254 797.2 v -2 L 185.3 188.9 l 411.1 -46.1 l 68.1 608.3 l -410.6 46.1 z M 189.4 192.5 l 67.6 600.6 L 660.5 747.5 L 593.4 146.9 L 189.4 192.5 z"
    p-id="5462"></path>
  <path d="M 551 149.6 l 5.1 -0.6 l 67.4 599.8 l -5.1 0.6 z" fill="#f7d2a1" p-id="5463"></path>
  <path
    d="M 558.5 192.8 l 41.2 -4.6 l 0.6 5.1 l -41.2 4.6 z M 570.7 279.2 l 38.7 -4.3 l 0.6 5.1 l -38.7 4.3 z M 577.9 366.4 l 41.2 -4.6 l 0.6 5.1 l -41.2 4.6 z M 590.2 453.3 l 38.7 -4.3 l 0.6 5.1 l -38.7 4.3 z M 599.9 558.8 l 41.2 -4.6 l 0.6 5.1 l -41.2 4.6 z M 611.7 645.8 l 38.7 -4.3 l 0.6 5.1 l -38.7 4.3 z"
    fill="#f7d2a1" p-id="5464"></path>
  <path d="M 219.2 223.9 l 160.3 -18 l 52 462.5 l -160.3 18 z" fill="#f7e1c6" p-id="5465"></path>
  <path
    d="M 278.5 664.1 l -47.6 -423.9 l 140.3 -15.9 l 47.6 423.9 l -140.3 15.9 z m -38.9 -417.3 l 46.1 409.1 l 124.9 -13.8 l -46.1 -409.1 l -124.9 13.8 z"
    fill="#5f2a26" p-id="5466"></path>
  <path
    d="M 298.5 317.4 c -0.5 0.5 -2 0.5 -3.6 1 c -1.5 0 -2.6 0.5 -3.6 0.5 c -1 0 -2 0.5 -2.6 0.5 c -1 0 -1.5 0.5 -2.6 0.5 s -1.5 0.5 -2.6 0.5 c -2 0.5 -3.1 0.5 -3.6 0 c -0.5 -0.5 -0.5 -1 0 -1.5 c 0.5 -0.5 1 -1.5 2 -1.5 c 0.5 -0.5 2 -0.5 3.1 -0.5 h 4.1 c 0.5 0 1.5 0 2 -0.5 c 1 0 2 -0.5 3.1 -0.5 c 2 -0.5 3.1 -0.5 4.1 -0.5 c 0.5 0 1 0.5 1.5 1 c -0.5 0 -1 0.5 -1.5 1 z m -2 -12.3 c -0.5 0.5 -1.5 0.5 -2.6 0.5 c -2 0 -4.1 0.5 -5.6 0.5 c -1.5 0 -3.1 0.5 -4.6 1 c -1.5 0.5 -2 0.5 -2.6 0 c -0.5 -0.5 -0.5 -1 0 -1.5 l 1.5 -1.5 c 0.5 -0.5 1.5 -0.5 2.6 -0.5 h 3.6 c 1.5 0 3.1 -0.5 5.1 -1 c 1.5 -0.5 2.6 -0.5 3.1 -0.5 c 0.5 0 1 0.5 1 1 c -1 1 -1 1.5 -1.5 2 z m 13.8 22.5 h -2 c -0.5 0.5 -0.5 1 -0.5 2 V 337.4 c -0.5 3.1 -1.5 5.6 -3.1 7.2 c -1.5 2 -3.6 3.1 -6.1 4.6 c -1 0.5 -2 0.5 -3.6 1 c -1.5 0.5 -3.1 0.5 -4.6 1 c -1 0 -1.5 0.5 -1.5 1 v 1.5 c 0 0.5 0.5 1 1 1 h 3.1 c 1.5 0 2.6 -0.5 4.1 -1 l 4.6 -1.5 c 1.5 -0.5 3.1 -1.5 4.1 -2.6 c 1 -1 2.6 -2 3.1 -3.1 c 1 -1 1.5 -2.6 2 -4.6 c 0.5 -2 1 -3.6 1 -5.1 v -3.1 c 0 -1 0.5 -2 0.5 -3.1 c 0.5 -1.5 0 -2.6 -2 -3.1 z m 15.9 -6.7 c -1 -0.5 -3.1 -0.5 -5.6 -0.5 c -0.5 0 -1.5 0 -3.1 0.5 c -1.5 0 -3.6 0.5 -5.6 0.5 c -2 0.5 -3.6 0.5 -5.6 0.5 c -1.5 0 -2.6 0.5 -3.1 0.5 c -2 0.5 -4.1 0.5 -6.7 0.5 h -2.6 c -0.5 0 -1 0.5 -1 1 c -0.5 0.5 -0.5 1 -0.5 2 s 0 2 0.5 3.1 c 0 1 0.5 2.6 0.5 4.6 c 0.5 2 0.5 4.6 1 7.2 c 0 1 0.5 2 1 2.6 c 0.5 0.5 1 1 1.5 1 c 0.5 0 0.5 -0.5 1 -1 s 0.5 -1.5 0.5 -2.6 V 337.9 c 0 -1 0 -2.6 -0.5 -3.6 c 0 -1 0 -2 -0.5 -3.1 v -2 c 0 -0.5 0 -1.5 0.5 -2 c 0.5 -0.5 1 -1 2 -1.5 c 1 -0.5 2 -0.5 3.6 -1 c 1.5 -0.5 3.1 -0.5 4.6 -0.5 c 1.5 0 3.6 -0.5 5.1 -0.5 c 2 0 3.6 -0.5 5.1 -0.5 c 1.5 0 3.1 0 3.6 0.5 c 0.5 0.5 1 1 1.5 2 c 0.5 1 0.5 2.6 1 4.6 s 0.5 4.1 1 7.2 c 0 1.5 0.5 3.1 1 3.6 c 0.5 0.5 1 0.5 1.5 0.5 c 0.5 0 1 -0.5 1 -1.5 s 0.5 -2 0 -3.6 c 0 -1.5 -0.5 -3.1 -0.5 -4.1 c 0 -1 -0.5 -2 -0.5 -3.1 v -2.6 v -2.6 c -0.5 -1.5 -1 -2.6 -2 -3.1 z m 5.1 -22 h -2 c -1 0 -2 0 -3.6 0.5 c -0.5 0 -1 0 -2 0.5 c -1 0 -2 0 -3.6 0.5 c -1.5 0 -2.6 0.5 -4.1 0.5 h -4.1 v -0.5 v -0.5 c 0 -1 -0.5 -1.5 -2 -2 c -1 -0.5 -1.5 0 -2 0 c -0.5 0.5 -0.5 1 -0.5 2.6 c 0 1 -0.5 2.6 -1.5 4.1 c -1 1.5 -2 3.1 -3.6 4.6 l -1 1 v 0.5 c 0 0.5 0.5 0.5 0.5 0.5 s 0.5 0 1 -0.5 c 1 -0.5 2 -1 3.1 -2 c 1 -1 2.6 -2 3.6 -3.1 l 0.5 -0.5 c 1 0 1.5 -0.5 2.6 -0.5 s 1.5 -0.5 2.6 -0.5 c 0.5 0 1.5 0 2.6 -0.5 s 2 -0.5 3.6 -0.5 c 1 0 2 0 3.6 -0.5 h 4.1 s 0.5 0.5 0 1 c 0 0.5 -0.5 0.5 -0.5 1 l -1 1 c -0.5 0.5 -1 1 -1.5 1 c -0.5 0.5 -1 1 -1.5 1 l -1 1 v 1 h 1 c 0.5 0 1 -0.5 2.6 -1 c 2.6 -1.5 4.1 -2.6 5.1 -3.1 s 2 -2 2.6 -3.1 c -0.5 -1.5 -1 -2.6 -3.1 -3.6 z m 12.8 17.4 c -0.5 0 -1 -0.5 -2.6 -0.5 c -0.5 0 -2 0 -4.1 -0.5 s -4.1 -1 -6.7 -1.5 c -2.6 -0.5 -4.6 -1.5 -7.2 -2 c -2.6 -0.5 -4.6 -1.5 -6.7 -2 l 0.5 -0.5 l 0.5 -0.5 c 0.5 -0.5 0.5 -1 0.5 -2 c 0 -0.5 -0.5 -1 -1 -1 h -1.5 c -0.5 0.5 -1 1 -1 1.5 c -2 5.1 -5.1 8.7 -10.8 10.2 c -1 -0.5 -2 0 -2 0.5 c -0.5 0.5 -0.5 1 0 1.5 c 1 1.5 2.6 1.5 4.1 1 c 3.6 -1 5.6 -2.6 7.2 -5.1 c 0.5 -0.5 1 -1 1 -1.5 c 0.5 -0.5 0.5 -1 1 -1.5 c 1 0.5 2.6 0.5 3.6 1 c 1 0.5 2.6 0.5 3.6 1 c 1 0.5 2.6 1 4.1 1.5 c 1.5 0.5 3.1 1.5 4.6 2 c 1 0.5 2.6 1 3.1 1.5 c 1 0.5 1.5 0.5 2 1 c 0.5 0 1 0.5 1.5 0.5 h 1 c 0.5 0 1.5 0 2 -0.5 l 3.1 -3.1 c 0.5 -0.5 0.5 -1 0 -1 z m -8.2 30.7 c 0 -0.5 -1 -0.5 -2.6 -1 s -3.6 -0.5 -5.1 -1.5 s -4.1 -1.5 -6.7 -2.6 c -1.5 -0.5 -2.6 -0.5 -2.6 0 v 1 c 0 0.5 0.5 0.5 0.5 1 l 1 1 c 0.5 0.5 1.5 1 2 1.5 c 1 0.5 2 1 3.1 2 c 1 0.5 2 1.5 3.1 2 c 1 0.5 2 1 2.6 0.5 c 1 0 2 -0.5 3.1 -1.5 c 1.5 -1.5 2 -2 1.5 -2.6 z M 303.1 405 c 0.5 0 0.5 0.5 1 0.5 c 0 0.5 0.5 0.5 0.5 1 s 0 0.5 -0.5 0.5 c 0 0 -0.5 0.5 -1 0 h -4.6 c -2 0 -4.1 0 -6.1 0.5 h -2.6 c -0.5 0 -0.5 -0.5 -1 -1.5 c 0 -1 0 -2 1 -2.6 c 1 -0.5 2.6 -1 4.1 -0.5 c 1.5 0 3.1 0.5 4.6 1 c 1 0 3.1 0.5 4.6 1 z m 1.5 -15.4 c 0.5 0.5 1 1 0.5 1.5 c -0.5 0.5 -1 0.5 -2 0 c -1.5 -0.5 -3.6 -0.5 -5.6 -1 c -2 -0.5 -3.6 -1 -5.1 -1.5 c -1 -0.5 -1.5 -1 -2 -2 c 0 -1 0.5 -1.5 1.5 -2 c 1 -0.5 2 -0.5 3.1 -0.5 s 1.5 0.5 2.6 1 c 1.5 1 2.6 1.5 4.1 2.6 c 1 0.5 2 1 3.1 2 z m 3.1 29.2 c -1 1 -2 2.6 -3.1 3.6 c -1 1 -2 2.6 -3.1 3.6 l -3.1 3.1 c -1 1 -1.5 1.5 -2.6 2 c -1.5 1 -2.6 1.5 -3.6 1.5 c -0.5 0 -1 -1 -1 -2.6 c 0 -1 0 -2 0.5 -3.1 c 0.5 -1 1.5 -2 3.1 -3.1 c 1.5 -1 3.1 -2 4.1 -3.1 c 1 -0.5 2 -1.5 3.1 -2 s 1.5 -1 2 -1.5 c 0.5 -0.5 1 -1 1.5 -1 c 0.5 -0.5 1 -0.5 1.5 -0.5 h 1 s 0.5 0.5 0 1 c 0.5 0.5 0 1 -0.5 2 z m 41 -24.6 c 0.5 0.5 1 1 1 1.5 c 0 0.5 0 1 -0.5 2 c -0.5 0.5 -1 1 -2 1.5 c -1 0.5 -2.6 0.5 -4.1 1 c -1.5 0 -3.6 0.5 -5.6 0.5 c -2.6 0.5 -4.6 0.5 -7.2 1 s -5.1 0.5 -7.2 1 c -2.6 0.5 -4.6 0.5 -6.1 1 c -2 0.5 -3.6 0.5 -4.6 0 c -1 -0.5 -1 -1.5 -1 -2.6 c 0 -0.5 0 -1 0.5 -1.5 c 0 -0.5 0.5 -1 0.5 -2 c 0.5 -0.5 0.5 -1.5 1 -2 c 0.5 -0.5 1 -1.5 1 -2 c 2 -3.1 4.1 -5.1 5.6 -7.2 c 1.5 -2 2.6 -3.6 3.1 -4.6 l 1.5 -3.1 c 0 -0.5 0.5 -1.5 0.5 -1.5 c 0 -1 0.5 -2 1 -2 s 1.5 0 2.6 1 c 1.5 1 2 2 2 3.1 c 0 0.5 -0.5 1.5 -1.5 2.6 l -1.5 1.5 c -0.5 0.5 -1.5 1.5 -2 2.6 c -1 1 -2 2.6 -3.1 4.1 c -1 1.5 -2.6 3.6 -4.1 5.6 c -1 1 -1 2 -1 2.6 c 0.5 0.5 1.5 1 3.1 0.5 c 2 -0.5 4.6 -0.5 8.2 -1 c 3.6 -0.5 7.7 -1 12.8 -1.5 c 1.5 0 2 -0.5 2 -1 s 0 -1 -0.5 -1.5 c -1 -1 -2 -2 -3.1 -2.6 c -0.5 -0.5 -1.5 -1 -2.6 -1.5 c -1 -0.5 -2 -1.5 -2.6 -2 c -0.5 -0.5 -0.5 -1.5 0 -2 c 0.5 -0.5 1 -0.5 2 -0.5 c 1.5 0.5 3.1 1 5.1 2.6 c 1 2 3.1 4.1 6.7 6.7 z m 0 17.4 v 10.2 c 0 1.5 -0.5 2.6 -1.5 3.6 c -1 1 -2.6 1.5 -4.1 1.5 c -3.6 0.5 -6.7 0.5 -9.2 1 c -2.6 0 -4.1 0.5 -5.6 0.5 c -1.5 0 -2.6 0.5 -3.6 0.5 c -1 0 -1.5 0.5 -2.6 1 c -2 1 -3.6 1 -4.6 0.5 c -1 -0.5 -1.5 -1.5 -1.5 -3.6 c 0 -1.5 -0.5 -3.1 -0.5 -4.6 c 0 -1 -0.5 -2.6 -0.5 -3.1 c 0 -1 0 -1.5 -0.5 -2.6 V 414.7 v -4.1 c 0.5 -1 1.5 -1.5 2.6 -1.5 h 3.1 c 1 0 2 0 3.1 -0.5 c 1 0 2 -0.5 3.6 -0.5 c 1.5 0 3.1 -0.5 5.1 -0.5 c 1.5 0 3.6 -0.5 5.1 -0.5 c 1.5 0 3.1 0 4.6 -0.5 c 2 0 4.1 0 4.6 0.5 c 2 2 2.6 3.1 2.6 4.6 z m -4.6 3.1 v -1.5 c 0 -0.5 0 -1 -0.5 -1 c 0 0 -0.5 -0.5 -1 -0.5 H 337.9 c -1 0 -2 0 -3.1 0.5 c -1.5 0 -3.1 0.5 -4.6 0.5 c -2 0.5 -4.1 0.5 -7.2 1 c -1 0 -2 0.5 -2.6 1 c -0.5 0.5 -1 1.5 -1 2.6 v 3.1 c 0 1 0 2 0.5 3.6 c 0 1 0.5 1.5 1 2 c 0.5 0.5 1 0.5 2.6 0.5 c 2.6 0 4.6 0 6.1 -0.5 c 1.5 0 3.1 -0.5 4.6 -0.5 c 1.5 0 2.6 -0.5 3.6 -0.5 c 1 0 2 -0.5 3.1 -0.5 c 1 -0.5 1.5 -0.5 2.6 -1 c 0.5 -0.5 1 -0.5 1.5 -1 c 0.5 -0.5 0.5 -0.5 0.5 -1 v -1 v -2.6 c -1 -1 -1 -2 -1.5 -3.1 z M 365.1 506.4 c -1 1 -2 1.5 -3.1 2 l -3.1 1.5 c -1 0.5 -2.6 0.5 -3.6 0.5 c -1 0 -2.6 -0.5 -4.6 -1 c -1 0 -2 -0.5 -3.1 -0.5 c -1 -0.5 -2.6 -0.5 -4.1 -1 c -1.5 0 -2.6 -0.5 -4.1 -0.5 c -1.5 0 -2.6 -0.5 -3.6 -0.5 c -1.5 0 -3.1 -0.5 -5.1 -0.5 s -3.6 -0.5 -5.6 -0.5 h -6.1 c -2 0 -4.1 0 -5.6 0.5 c -1.5 0 -2.6 0.5 -3.6 0.5 c -1 0 -2 0.5 -2.6 0.5 c -1 0.5 -1.5 0.5 -2.6 1 s -1.5 1 -2.6 1.5 c -1 0.5 -1.5 0.5 -2 0.5 c -0.5 0 -1 -0.5 -1 -1.5 c 0 -1 0.5 -2 2 -3.1 c 1 -0.5 2 -1 3.1 -2 c 1 -0.5 1.5 -1.5 2.6 -2.6 c 1 -1.5 2 -2.6 2 -3.6 c 0.5 -1 0.5 -2 0.5 -2.6 c 0 -0.5 -0.5 -1 -1.5 -1 h -2.6 c -1.5 0.5 -2.6 0.5 -3.6 0.5 c -0.5 0 -1 -0.5 -1 -1 s 0 -0.5 0.5 -1.5 c 0.5 -0.5 1 -1.5 2 -2.6 c 0.5 -1 1.5 -2 2 -3.1 c 1 -1 1.5 -2 2.6 -3.1 c 0.5 -0.5 0.5 -1 0 -1.5 c 0 -0.5 -1 -0.5 -2.6 -0.5 H 302.1 c -1 0 -2 0.5 -2.6 0.5 c -1 0.5 -2 0.5 -2.6 0 c -0.5 -0.5 -0.5 -1 -0.5 -1.5 c 0.5 -1 1 -1.5 2 -2 c 1 -0.5 2 -0.5 4.1 -0.5 c 1 0 2 0.5 3.1 0.5 h 3.1 c 1 0 2 0 3.1 0.5 c 0.5 0.5 1 1 1 1.5 c 0 0.5 0 1 -0.5 2 c -0.5 0.5 -1.5 1.5 -2.6 3.1 c -1 1 -2 2 -2.6 3.1 c -0.5 0.5 -1 1.5 -1 1.5 v 1 h 1 c 2 0 3.6 0.5 4.1 1 c 1 1 1 1.5 1.5 2.6 c 0 1 0 2 -0.5 3.1 s -1.5 2.6 -2.6 4.6 c -0.5 0.5 -0.5 1 -0.5 1 h 22 c 2.6 0 4.6 0 6.1 0.5 c 3.6 0 6.7 0.5 9.2 0.5 s 4.1 0.5 5.1 0.5 h 5.1 c 2 0 4.6 0 7.2 -0.5 c 1.5 0 2 0 2 0.5 c 1 0 0.5 0.5 -1 1.5 z m -54.8 -36.9 c 0.5 0.5 1 1 0.5 1 c 0 0.5 -0.5 0.5 -1.5 0.5 c -2.6 -0.5 -4.6 -1 -6.1 -1 c -2 -0.5 -3.6 -0.5 -4.6 -1 c -1 -0.5 -1.5 -0.5 -2 -1 c -0.5 -0.5 0 -1 0.5 -1.5 c 1 -1 2 -1.5 3.1 -1.5 c 1 0 2 0 3.1 0.5 c 1.5 1 2.6 1.5 3.6 2 s 2.6 1.5 3.6 2 z m 34.8 -10.8 c 1 1 2 2 1.5 3.1 c 0 1 -1.5 2 -3.6 3.6 c -0.5 0.5 -1 0.5 -1.5 1 c -0.5 0.5 -1.5 0.5 -2 1 c -0.5 0.5 -1.5 0.5 -2 1 c -0.5 0.5 -1 0.5 -2 1 l 0.5 0.5 l 0.5 0.5 l 7.2 -1 h 4.1 c 1 0 2 0 3.1 0.5 c 1 0.5 1.5 1 2 1.5 c 0.5 0.5 0.5 1.5 0 2 c -0.5 0.5 -0.5 2 -0.5 4.1 s 0.5 3.6 0.5 5.6 c 0.5 2 0.5 3.6 1 5.1 c 0 1.5 0.5 2.6 0.5 3.6 v 2.6 c 0 1 0 2 -0.5 3.1 c 0 1 -0.5 2 -1 2.6 c -0.5 0.5 -0.5 0.5 -1 0.5 s -0.5 -0.5 -1 -1 s -0.5 -1.5 -0.5 -2.6 c 0 -0.5 0 -1.5 -0.5 -3.1 c 0 -1.5 -0.5 -2.6 -0.5 -4.6 c -2.6 0.5 -4.6 0.5 -6.7 0.5 c -1.5 0 -3.1 0.5 -4.1 0.5 c 0 1 0 2 0.5 3.1 c 0 1 0 2 0.5 2.6 v 3.6 c 0 1 -0.5 2 -0.5 2.6 c 0 0.5 -0.5 1 -1 1 s -1 0 -1.5 -1 c 0 -0.5 -0.5 -0.5 -0.5 -1 s -0.5 -1 -0.5 -2 s -0.5 -2 -0.5 -3.1 c 0 -1.5 0 -3.1 -0.5 -5.1 c -1 0 -1.5 0.5 -2 0.5 c -0.5 0 -1 0.5 -2 0.5 c -1.5 0.5 -3.1 1 -4.1 1 c -1 0.5 -2.6 0.5 -4.1 1 v -0.5 v 2.6 c 0 1 0 1.5 -0.5 2.6 c -0.5 1.5 -1 3.1 -1.5 3.6 c -1 1 -1.5 1 -2 0 c -0.5 -0.5 -1 -1.5 -1.5 -2 c -0.5 -1 0 -2 0.5 -3.1 c 0.5 -1 1 -2.6 1 -4.1 c 0 -1.5 0.5 -3.1 0.5 -4.6 c 0 -1.5 0 -3.1 -0.5 -5.1 c 0 -1.5 -0.5 -3.1 -1 -4.1 c -0.5 -1.5 -0.5 -2.6 -0.5 -3.1 c 0 -0.5 0 -1.5 0.5 -2 c 0.5 -1 0.5 -1.5 1 -1.5 s 1 -0.5 1.5 0 h 3.1 c 1 0 2.6 -0.5 4.6 -0.5 c 1 0 2 -0.5 2.6 -0.5 c 1 0 2 -0.5 3.1 -0.5 c -0.5 -0.5 -1.5 -0.5 -2 -1 c -1 -0.5 -2 -0.5 -3.1 -1 c -1 -0.5 -1.5 -0.5 -1.5 -1 c -0.5 -0.5 0 -1 0.5 -1.5 c 0.5 -0.5 1.5 -1 2.6 -1 s 1.5 0 2.6 1 c 0.5 0.5 0.5 1 1 1 l 1 1 c 1 -0.5 2 -1 3.1 -2 c 1 -0.5 1.5 -1 2 -1.5 c 1 -1 1.5 -2 1.5 -2.6 c 0 -0.5 -1 -1 -2 -1 c -3.1 0.5 -6.1 1 -8.7 1.5 c -2.6 0.5 -4.6 1.5 -6.7 2.6 c -1.5 0.5 -2.6 1 -3.6 1 c -0.5 0 -1 0 -1.5 -0.5 c -0.5 -0.5 -1 -1 -0.5 -1.5 s 0.5 -1.5 1 -2 c 0.5 -0.5 1 -1 2 -1.5 c 1 -0.5 1.5 -0.5 2.6 -0.5 h 3.1 c 1 0 2 0 3.6 -0.5 c 1 0 2.6 -0.5 3.6 -0.5 c 1 0 2 -0.5 3.1 -0.5 c 2 -0.5 4.1 -0.5 5.6 -0.5 c 0.5 -1 2 -0.5 3.1 0.5 z m -20 20.5 h 2.6 c 1 0 3.1 -0.5 5.1 -0.5 c 0 -1 -0.5 -2 -0.5 -3.1 c 0 -1 -0.5 -2 -0.5 -2.6 c -1 0 -2.6 0.5 -3.6 1 c -1 0.5 -2.6 0.5 -3.6 1 c -1 0.5 -2 0.5 -2.6 1 c -0.5 0 -1 0.5 -1 1 s -0.5 1 -0.5 1.5 v 3.6 c 0.5 -0.5 1 -1 1.5 -1 c 0.5 -0.5 0.5 -0.5 1 -0.5 h 1 c 0.5 -1.5 1 -1.5 1 -1.5 z m 1.5 3.6 c -1 0 -1.5 0.5 -2 0.5 h -2.6 c -0.5 0 -0.5 0 -1 -0.5 c 0.5 3.6 0.5 6.1 0.5 7.7 c 1.5 -1 2.6 -1.5 3.1 -2 c 1 -0.5 1.5 -0.5 2.6 -0.5 h 2 c 1 0 2.6 0 4.1 -0.5 v -3.1 c 0 -1 0 -2 -0.5 -3.1 c -1.5 0 -3.1 0.5 -4.1 0.5 c 0 0.5 -1 0.5 -2 1 z M 343 471 c -1 0 -2.6 0.5 -3.6 0.5 c -1 0 -2 0 -3.1 0.5 c 0 1 0 2 0.5 3.1 c 0 1 0 2 0.5 3.1 c 3.1 -0.5 5.6 -0.5 7.2 -1 c 1.5 -0.5 3.1 -0.5 4.1 -0.5 c 0 -2 -0.5 -3.6 -1 -4.1 s -2.6 -1.5 -4.6 -1.5 z m -5.6 9.7 c 0 1 0 2 0.5 3.1 c 0 1 0 2 0.5 3.1 c 2 -0.5 3.6 -0.5 4.6 -0.5 c 1 0 2 -0.5 3.1 -0.5 c 1 0 1.5 0 2 -0.5 h 1 c 0 -1 0 -2 -0.5 -3.1 v -2.6 l -11.3 1 z M 371.7 569.3 c -1 1 -2 2 -4.1 2.6 c -2 0.5 -4.1 0 -6.1 -1.5 c -2.6 -2 -5.1 -3.6 -7.2 -4.6 c -2 -1 -4.1 -2 -5.6 -2.6 c -4.6 -1.5 -8.7 -2.6 -11.3 -2.6 c -1.5 2 -3.6 3.6 -5.6 5.1 c -2 1.5 -4.6 3.1 -7.2 4.6 c -2.6 1.5 -5.1 2.6 -7.7 4.1 c -2.6 1 -5.1 2 -7.7 2.6 c -1 0.5 -1.5 0 -2.6 0 c -0.5 -0.5 -1 -1 -1 -1.5 c 0 -1 0 -1.5 0.5 -2 c 0.5 -0.5 1.5 -1 3.6 -1 c 4.1 -1 7.7 -2 11.3 -3.6 c 3.6 -1.5 6.7 -3.6 10.2 -6.1 c 0.5 -0.5 1.5 -1 2 -2 c 0.5 -1 1 -1.5 1.5 -2 l 1 -2 c 0.5 -0.5 0.5 -0.5 1 -0.5 s 1 0.5 1.5 1 c 0.5 0.5 0.5 1 0.5 1.5 c 1.5 0.5 4.1 1 7.2 1.5 c 3.1 1 6.7 2 11.3 3.6 c 1 0.5 2 0.5 3.6 1 c 1.5 0.5 2.6 1 4.1 1 c 1 0.5 2.6 0.5 3.6 1 c 1 0.5 2 0.5 2.6 0.5 c 1 0 1 0.5 1.5 0.5 s -0.5 1 -1 1.5 z m -55.8 -23 c 0 0.5 0 1 0.5 2 c 0 1 0 2 0.5 3.1 c 0 1 0 2.6 0.5 3.6 v 3.6 c 0 1.5 -0.5 2.6 -1 2.6 s -1 0 -1 -0.5 c -0.5 -0.5 -0.5 -1.5 -1 -3.1 c -0.5 -2.6 -0.5 -5.1 -1 -6.7 c 0 -1.5 -0.5 -3.1 -0.5 -4.1 v -2.6 c 0 -0.5 0.5 -0.5 1 -1 c 0.5 0 1 0 1.5 0.5 c 0 1 0.5 2 0.5 2.6 z m 9.7 25.6 c 0.5 -0.5 1 -1 2 -1 s 2.6 -0.5 4.1 -0.5 c 2 0 4.1 0 6.7 -0.5 s 5.6 -1 9.7 -1.5 h 2.6 c 0.5 0 1 0.5 1 1 s 0 1 -0.5 1.5 c -0.5 0 -1.5 0.5 -2.6 0.5 c -1.5 0 -3.1 0.5 -4.1 0.5 s -2 0 -3.1 0.5 v 2.6 c 0 1 0 2 0.5 3.1 c 2 0 3.6 -0.5 5.6 -0.5 c 2 0 3.6 -0.5 5.1 -0.5 c 1.5 0 3.1 -0.5 4.1 -0.5 h 2 c 0.5 0 1 0.5 1.5 1 c 0 0.5 0 1 -0.5 2 c 0 0 -0.5 0 -0.5 0.5 H 342.5 l 0.5 8.7 c 3.6 -0.5 7.2 -0.5 10.8 -1 c 3.6 -0.5 7.2 -0.5 10.8 -0.5 c 1 0 1.5 0.5 1.5 1 s -0.5 1 -1 2 c -1 1 -1.5 1.5 -2.6 1.5 h -3.1 c -1 -0.5 -2.6 -0.5 -4.1 -0.5 h -9.2 c -1.5 0 -3.1 0 -4.6 0.5 c -2 0 -4.6 0.5 -6.7 1 s -4.1 1 -5.6 1 c -1.5 0.5 -3.6 1 -4.6 1.5 c -1.5 0.5 -2.6 1 -3.1 1.5 c -0.5 0.5 -1.5 0.5 -2 0.5 c -0.5 0 -1 0 -1.5 -0.5 c -0.5 -0.5 -0.5 -0.5 -0.5 -1 s 0.5 -1 1 -1.5 c 1 -1 2 -1.5 2.6 -1.5 c 0.5 0 1.5 -0.5 2 -0.5 h 1.5 c 0.5 0 1 0 1.5 -0.5 c 1 0 1.5 -0.5 2.6 -0.5 s 2 -0.5 3.1 -0.5 c -0.5 0 -0.5 -0.5 -1 -0.5 s -1.5 -0.5 -2.6 -1 s -1.5 -1 -2 -1.5 c 0 -0.5 0 -1 1 -2 c 0.5 -0.5 1.5 -0.5 2 -0.5 c 0.5 0 1 0.5 2 1.5 c 0.5 1 1 1.5 1.5 2 c 0 0.5 0.5 1 0 1.5 c 1 0 2 0 3.1 -0.5 c 1 0 2 -0.5 3.6 -0.5 c 0 -1 0 -2 -0.5 -3.6 c 0 -1.5 -0.5 -3.1 -0.5 -4.6 c -3.6 0.5 -7.2 1 -9.7 1.5 c -3.1 0.5 -5.1 1 -7.2 2 c -2.6 0.5 -3.1 0 -2 -1.5 c 0.5 -0.5 0.5 -1 1 -1.5 c 0.5 -0.5 1.5 -1 3.1 -1 h 2 c 0.5 0 1.5 0 2 -0.5 c 1 0 1.5 0 2 -0.5 c 0.5 0 1.5 0 2 -0.5 c 0.5 0 1.5 -0.5 3.1 -0.5 s 2.6 -0.5 3.6 -0.5 c 0 -1 0 -2 -0.5 -3.1 c 0 -1 -0.5 -2 -0.5 -2.6 c -1 0 -1.5 0.5 -2.6 0.5 c -0.5 0 -1.5 0 -2 0.5 c -1 0 -1.5 0.5 -2.6 0.5 h -3.6 c -1 0 -1.5 -0.5 -2 -0.5 c 0 -0.5 0 -1 1 -1.5 z m 2 -28.7 c 0 2.6 0.5 5.1 0.5 7.7 s 0.5 5.1 0.5 7.7 v 2.6 c 0 0.5 -0.5 0.5 -1 0.5 c -1 0 -1.5 0 -1.5 -1 c -0.5 -0.5 -0.5 -1.5 -0.5 -3.6 c 0 -1 0 -2 -0.5 -3.1 s -0.5 -2.6 -0.5 -4.1 c 0 -1.5 -0.5 -2.6 -0.5 -4.1 c 0 -1 -0.5 -2 -0.5 -2.6 v -3.1 c 0 -0.5 0.5 -1 1.5 -1 c 1 0 1.5 0 2 0.5 c 0 1 0 2 0.5 3.6 z m 35.8 1.5 c -0.5 1 -1 1 -2 1.5 c -1 0 -2 0 -4.6 -0.5 c -0.5 0 -1.5 0 -2.6 -0.5 h -3.6 c -1.5 0 -2.6 0 -4.1 0.5 c -1.5 0 -2.6 0.5 -3.6 0.5 c -1 2.6 -2 4.1 -3.6 5.6 c -1.5 1 -2.6 2 -3.6 2.6 c -1 0.5 -2 1 -3.1 1 c -1 0 -1.5 -0.5 -2 -1.5 v -2 c 0.5 -0.5 1 -1 2.6 -1.5 l 3.1 -1.5 l 2.6 -2.6 l 1.5 -3.1 c 0.5 -1 0.5 -2 0.5 -3.1 c 0 -1.5 0.5 -2 1 -2 s 1 0.5 1.5 1 c 0.5 1 0.5 2.6 -0.5 4.6 c 2.6 -0.5 5.1 -1 8.2 -1 c 2.6 0 5.6 -0.5 8.7 -0.5 c 1.5 0 2.6 0.5 2.6 1 c 1.5 0.5 1.5 1 1 1.5 z m -8.7 11.8 c 0.5 1 0.5 1.5 0 2 c -0.5 0.5 -1 0.5 -1.5 -0.5 l -3.1 -3.1 c -1 -1 -2 -2 -3.1 -3.6 c -0.5 -0.5 -0.5 -1 -0.5 -1.5 c 0 -0.5 0.5 -1 1 -1.5 c 1 -0.5 1.5 -0.5 2 -0.5 c 0.5 0 1.5 0.5 2 2 c 0 0.5 0.5 1 1 2 c 0.5 0.5 0.5 1.5 1 2 c 0.5 0.5 0.5 1.5 0.5 2 c 0.5 0 0.5 0.5 0.5 0.5 z m -0.5 25.6 c 0.5 0.5 1 1 1 1.5 c 0 0.5 -0.5 1 -1 1.5 c -1 0.5 -1.5 1 -2.6 1.5 c -1 0.5 -1.5 1 -2 1 c -0.5 0.5 -1 0.5 -1 0 c -0.5 0 0 -0.5 0 -1 c 0.5 -1 1 -1.5 1.5 -2.6 c 0.5 -1 1 -1.5 1.5 -2 c 0.5 -0.5 1 -0.5 1 -0.5 c 0.5 -0.5 1 0 1.5 0.5 z"
    p-id="5467"></path>
  <path
    d="M 345.1 766.5 l -18.4 20.5 c -0.5 0 -0.5 -0.5 -0.5 -1 l 96.8 -599 s 0 -0.5 0.5 -0.5 l 17.9 -18.4 c 0.5 -0.5 1 0 1 1 L 345.6 766 c 0 0.5 0 1 -0.5 0.5 z"
    fill="#a53737" p-id="5468"></path>
  <path
    d="M 327.7 790 h -1.5 c -1 0 -2 -1 -2.6 -1.5 c -0.5 -0.5 -0.5 -1.5 -0.5 -2 L 419.8 187.4 c 0 -0.5 0.5 -1.5 1 -2 l 17.9 -18.4 c 1 -1 2.6 -1 3.6 -0.5 c 1.5 0.5 2 2 1.5 3.6 L 348.2 766.5 c 0 1 -0.5 2 -1.5 2.6 l -0.5 0.5 l -18.4 20.5 z M 425.5 187.9 L 329.7 779.8 l 13.8 -15.4 L 438.8 174.1 l -13.3 13.8 z"
    fill="#222222" p-id="5469"></path>
  <path
    d="M 325.6 779.3 l 15.9 -12.3 c 0 -0.5 0.5 -0.5 1 -0.5 l 408.1 65.5 s 0.5 0 0.5 0.5 l -13.3 12.8 c 0.5 0.5 0 1 -1 1 l -410.6 -66 c 0 -0.5 -0.5 -0.5 -0.5 -1 z"
    fill="#a53737" p-id="5470"></path>
  <path
    d="M 737.3 848.9 h -0.5 l -410.6 -66 c -1 0 -2 -0.5 -2.6 -1.5 l -0.5 -1 v -2.6 l 16.4 -12.8 c 0.5 -1 2 -1.5 3.6 -1.5 l 408.1 65.5 c 0.5 0 1.5 0.5 2 1 l 2 2 l -14.3 13.8 c 0 0.5 0 0.5 -0.5 1 c -0.5 1.5 -1.5 2 -3.1 2 z M 331.3 778.2 l 405 65.5 l 9.7 -9.2 L 343 769 l -11.8 9.2 z"
    fill="#222222" p-id="5471"></path>
  <path d="M 442.7 166.3 l 404.9 65.3 l -96.8 600.5 l -404.9 -65.3 z" fill="#db4944" p-id="5472"></path>
  <path
    d="M 752.1 834 L 343.6 768 l 97.3 -604.2 l 408.6 66.6 l -97.3 603.6 z m -404.5 -68.6 l 400.9 64.5 L 844.8 233.5 L 443.9 169 L 347.6 765.4 z"
    p-id="5473"></path>
  <path d="M 707.7 820.3 l 96.8 -595.9 l 5.1 0.8 l -96.8 595.9 z" fill="#f7d2a1" p-id="5474"></path>
  <path
    d="M 798.7 273.5 l 0.8 -5.1 l 40.9 6.6 l -0.8 5.1 z M 786.9 360.2 l 0.8 -5.1 l 38.4 6.2 l -0.8 5.1 z M 770.6 446.1 l 0.8 -5.1 l 40.9 6.6 l -0.8 5.1 z M 797.7 539.1 l -38.4 -6.1 l 0.5 -5.1 l 38.9 6.1 z M 780.8 643.6 l -41 -6.7 l 1 -5.1 l 41 6.7 z M 767 730.1 l -38.9 -6.1 l 1 -5.1 l 38.4 6.1 z"
    fill="#f7d2a1" p-id="5475"></path>
  <path d="M 464 207.2 l 159.2 25.7 l -74.1 459.5 l -159.2 -25.7 z" fill="#f7e1c6" p-id="5476"></path>
  <path
    d="M 542.7 669.7 l -139.3 -22.5 L 471 225.8 l 139.3 22.5 l -67.6 421.4 z m -130.6 -29.2 l 124.4 20 l 65.5 -406 l -124.4 -20 l -65.5 406 z"
    fill="#5f2a26" p-id="5477"></path>
  <path
    d="M 521.2 324.6 c -1.5 0.5 -2.6 0.5 -3.6 1 c -1 0.5 -2 0.5 -3.6 1 c -0.5 4.6 -1 8.2 -1.5 10.8 c -0.5 2.6 -1.5 5.1 -2.6 7.2 c -1 1.5 -1.5 3.1 -2.6 4.1 c -1 1 -2.6 1.5 -4.1 2 c -1 0.5 -2 0.5 -2.6 0.5 h -3.1 c -1 0 -2 0 -2.6 -0.5 c -1 0 -1.5 -0.5 -2 -1 c -0.5 -0.5 -1 -1 -1 -1.5 c 0 -0.5 0.5 -1 2 -0.5 c 2.6 0.5 5.1 0.5 7.7 -0.5 c 2 -0.5 4.1 -2 5.1 -4.6 c 1 -2 2 -4.1 2.6 -6.1 c 0.5 -2 1 -5.1 1.5 -8.2 c -4.1 1 -7.2 2 -9.7 2.6 c -2 0.5 -3.6 1 -4.1 1 c -1 0.5 -2 0.5 -2.6 0 s -0.5 -1.5 0.5 -3.1 c 1 -2 2 -3.1 3.6 -3.1 h 5.1 c 1 0 2 0 3.6 -0.5 c 1.5 0 3.1 -0.5 4.6 -0.5 v -4.1 c 0 -1 -0.5 -2 -1 -3.1 c -0.5 -1 -1 -1.5 -1.5 -2 c -0.5 -0.5 -1.5 -1 -2.6 -1.5 c -0.5 -0.5 -1 -0.5 -1 -1 v -1 c 0 -0.5 0.5 -0.5 0.5 -0.5 c 0.5 0 0.5 -0.5 1 0 c 1.5 0 2.6 0 3.1 0.5 c 0.5 0.5 1.5 1 2 2 c 0 0.5 0.5 0.5 0.5 1 s 0.5 0.5 0.5 1 c 1 -1 2 -1.5 3.1 -2.6 c 1 -0.5 1.5 -1.5 2 -2 c 1 -1 1.5 -2.6 1.5 -3.6 c 0 -1 -0.5 -1.5 -1 -2 c -0.5 -0.5 -1 -0.5 -1.5 -1 c -0.5 0 -1 -0.5 -1.5 -0.5 c -0.5 0 -1 -0.5 -2 -0.5 h -2.6 c -1.5 0 -3.1 0 -4.1 0.5 s -2 1 -3.1 2 c -0.5 0.5 -1 1 -1.5 1 h -1.5 c -0.5 0 -0.5 -0.5 -1 -1 v -1.5 c 0.5 -2 1.5 -3.1 3.1 -3.6 c 2 -0.5 4.1 -1 6.1 -1 c 2 0 4.1 0 5.6 0.5 c 1.5 0.5 3.6 1 4.6 2 c 1.5 1 2 2 2.6 3.1 c 1 1.5 1 3.1 1 4.1 s -1 2 -2 3.1 c -1 1 -2.6 1.5 -3.6 2 c -1 0.5 -2.6 1.5 -4.6 2 c 1 2 1.5 4.1 1 6.7 c 1 0 1.5 -0.5 2.6 -0.5 s 2 -0.5 3.1 -0.5 h 2 c 0.5 0 1 0.5 1 0.5 c 0 0.5 0 0.5 -0.5 1 s 0 0.5 -1 0.5 z m 10.2 -1 c -1.5 6.7 -4.6 11.8 -8.2 16.4 c -0.5 0.5 -1 1 -2 1.5 c -0.5 0.5 -1.5 0.5 -2 0.5 h -2 c -0.5 0 -1 -0.5 -1.5 -0.5 c -0.5 -0.5 -1 -1 -0.5 -2 c 0.5 -0.5 1 -1.5 2.6 -2.6 c 2 -1.5 4.1 -3.6 6.1 -6.1 c 2 -2.6 3.6 -5.6 5.6 -9.2 c 0 -0.5 0.5 -1 1 -1 h 1 s 0.5 0.5 0.5 1 c -0.5 0.5 -0.5 1 -0.5 2 z m 12.3 -12.8 c 0 1 -0.5 2 -1 4.1 s -1 4.6 -1 7.2 c -0.5 2.6 -1 5.1 -1.5 8.2 c -0.5 3.1 -1 5.6 -1.5 8.2 c -0.5 2.6 -1 4.6 -1 6.7 c -0.5 2 -0.5 3.1 -1 4.1 c -0.5 3.1 -1.5 4.6 -3.1 5.6 c -1 1 -3.1 1 -5.1 0.5 s -4.1 -1 -5.1 -1.5 c -1.5 -0.5 -2.6 -1.5 -4.1 -2.6 c -1 -1 -1 -1.5 -0.5 -2 c 0.5 -0.5 1 -0.5 2.6 0 c 2 0.5 4.1 1 5.1 1.5 s 2.6 0.5 3.1 0 c 1 0 1.5 -0.5 1.5 -1.5 c 0.5 -0.5 0.5 -1.5 1 -3.1 c 0 -1 0.5 -2.6 1 -4.1 c 0.5 -2 1 -4.1 1 -6.7 l 1.5 -7.7 c 0.5 -2.6 1 -5.6 1.5 -8.2 c 0.5 -2.6 0.5 -5.1 1 -7.2 c 0.5 -2 0.5 -3.6 0.5 -4.6 c 0 -2 0.5 -3.1 1 -3.6 s 1 -1 2 -0.5 c 1 0 1.5 1 2 2 c 0.5 1 0.5 2.6 0 5.1 z m 12.8 34.3 c -1 1 -2.6 1.5 -3.6 1 s -2 -1 -2.6 -2.6 c -0.5 -1 -1 -2.6 -1.5 -4.1 l -1.5 -4.6 c -0.5 -1.5 -1 -3.1 -1 -5.1 c -0.5 -1.5 -0.5 -3.1 -0.5 -4.6 c 0 -1 0 -2 0.5 -2 s 1 0.5 1.5 1.5 c 1.5 4.1 3.1 7.7 4.6 10.8 c 1.5 2.6 3.6 4.6 5.1 5.6 c 0.5 0.5 1 1 1 2 c -0.5 0.5 -1 1.5 -2 2 z M 503.8 391.7 c 1 -0.5 2 -0.5 3.1 0 c 1 0 2 0.5 2.6 1.5 c 1 1 2.6 2 3.1 2.6 l 2 2 l 3.1 -1.5 c 1 -0.5 1.5 -1 2 -1 s 1 -0.5 1 -1 s 0.5 -0.5 0.5 -0.5 c 0.5 -1.5 0.5 -2.6 0.5 -3.6 c 0 -1 -1 -1.5 -3.1 -2 c -2 -0.5 -3.6 -1 -4.6 -1.5 c -1.5 -0.5 -2.6 -0.5 -4.1 -0.5 c -1 0 -2.6 0 -3.6 0.5 c -1 0.5 -2.6 1 -4.1 1.5 c -1.5 0.5 -2.6 1 -3.6 1 c -1 0 -1.5 -0.5 -2 -1 c -0.5 -0.5 -0.5 -1 0 -2 c 0.5 -0.5 0.5 -1 1.5 -1.5 c 1.5 -1 3.1 -1.5 4.6 -2 c 1.5 -0.5 3.1 -0.5 4.6 0 c 4.6 0.5 8.2 1.5 11.3 2 c 3.1 1 5.1 2 7.2 3.1 s 2.6 2.6 2.6 3.6 c 0 1 -1 2.6 -3.1 3.6 c -1.5 1 -3.1 1.5 -4.1 2 l -4.6 1.5 c 0.5 1 1 2 1 3.1 v 5.1 c 4.6 1 8.7 1.5 12.8 3.1 c 4.1 1 8.7 2.6 13.8 4.1 c 1.5 0.5 2 1 2 1.5 s -1 1.5 -2.6 2 c -1.5 1 -3.1 1 -4.6 1 c -1.5 -0.5 -3.1 -1 -5.1 -2.6 c -2.6 -1.5 -5.1 -3.1 -8.2 -4.1 c -3.1 -1 -5.6 -1.5 -8.7 -2 c 0 2.6 -0.5 4.6 -1 6.1 c -0.5 2 -0.5 3.6 -1 5.1 c -0.5 1.5 -1 2.6 -1.5 4.1 l -1.5 3.1 c -0.5 1 -1.5 2 -2.6 3.1 c -1 1 -2 1.5 -3.6 2 s -2.6 0.5 -4.1 0.5 c -1.5 0 -3.1 0 -4.6 -0.5 c -1.5 -0.5 -3.1 -1 -3.6 -1.5 c -1 -0.5 -1.5 -1.5 -2.6 -2.6 c -0.5 -1 -1 -1.5 -0.5 -2 c 0.5 -0.5 1 0 2.6 0.5 c 2.6 1 5.1 1.5 7.7 1.5 s 4.1 -0.5 5.6 -1.5 c 1 -0.5 1.5 -1.5 2 -2 c 0.5 -0.5 1 -1.5 1.5 -2.6 c 0.5 -1 1 -2 1 -3.1 c 0.5 -1 0.5 -2.6 1 -4.1 c 0 -1 0.5 -2 0.5 -3.1 c 0 -1 0.5 -2 0.5 -3.1 c -2.6 -0.5 -4.6 -0.5 -7.2 -0.5 c -2.6 0 -5.1 -0.5 -7.7 -0.5 h -7.2 c -2 0 -4.1 0.5 -6.1 0.5 c -2.6 0.5 -4.1 0.5 -5.1 -0.5 c -0.5 -1 -0.5 -1.5 0.5 -3.1 l 1.5 -1.5 c 0.5 -0.5 1 -0.5 1 -1 h 2.6 c 1.5 0.5 3.6 0.5 5.1 0.5 c 1.5 0 3.1 0.5 4.1 0.5 c 3.1 0 6.1 0.5 9.2 0.5 c 3.1 0.5 5.6 0.5 8.7 1 v -3.6 c 0 -1 0 -1.5 -0.5 -2 c -0.5 -0.5 -1 -1.5 -1 -2 l -1.5 -1.5 c -0.5 -0.5 -1.5 -1 -2.6 -1.5 c -1 -0.5 -2.6 -1 -4.1 -2 c -1 -0.5 -1.5 -1 -1.5 -1.5 c 1 1.5 1.5 1 2.6 0.5 z M 495.1 470 c -1.5 0 -2 0.5 -2.6 1 c -0.5 0.5 -0.5 1.5 -0.5 3.1 v 2 c 4.6 0.5 8.2 0.5 11.3 1 c 3.1 0.5 5.6 0.5 7.7 1 c 2 0.5 4.1 0.5 5.6 1 c 1.5 0.5 3.1 0.5 4.6 1 c 1.5 0.5 2 1 2 1 c 0 0.5 -0.5 1 -1 2 l -1 1 c -0.5 0 -0.5 0.5 -1 0.5 h -1 c -0.5 0 -1 -0.5 -2 -0.5 c -0.5 0 -1 -0.5 -1.5 -0.5 c -0.5 0 -1 -0.5 -1.5 -0.5 c -0.5 2 -1 3.6 -1.5 5.6 c -0.5 2 -0.5 4.1 -1 6.1 l 6.1 1.5 c 2 0.5 3.6 1 5.1 1.5 l 4.6 1.5 c 1 0.5 2 0.5 3.1 1 c 0.5 0.5 1.5 0.5 1.5 0.5 c 0.5 0 1 0.5 1.5 0.5 c 1 0.5 1.5 0.5 1.5 1 s -1 1.5 -3.1 2.6 c -1 1 -2.6 1 -3.6 1 s -2.6 -1 -4.6 -2.6 c -1 -1 -2.6 -1.5 -4.1 -2.6 c -1.5 -1 -3.6 -1.5 -5.6 -2.6 c -2 -0.5 -4.1 -1.5 -6.7 -2 l -7.7 -1.5 c -2.6 -0.5 -5.1 -0.5 -7.7 -1 h -7.7 c -2.6 0 -5.1 0 -7.7 0.5 s -4.6 0.5 -6.7 1 c -2.6 0.5 -4.1 0.5 -4.6 0 c -0.5 -0.5 -1 -1.5 -0.5 -3.1 s 0.5 -2.6 1.5 -2.6 c 0.5 -0.5 1.5 -0.5 2.6 0 c 0.5 0 1.5 0 2.6 0.5 h 3.1 c 2.6 0 4.6 0 6.7 0.5 c 2 0 3.6 0 5.6 0.5 c 0.5 -4.1 1 -7.7 1.5 -10.8 s 0 -5.1 -0.5 -7.2 c 0 -2 0 -3.1 0.5 -4.1 c 0.5 -0.5 1.5 -1 3.6 -1.5 c 4.1 -0.5 7.2 -1.5 9.7 -2.6 s 4.1 -2 4.6 -3.1 c 1 -1.5 1.5 -2 2.6 -2 c 0.5 0 1 1 2 2.6 c 0.5 1.5 0.5 3.1 0.5 3.6 c -0.5 0.5 -1.5 1 -3.1 1.5 c -1 0 -2 0.5 -2.6 0.5 c -1 0 -1.5 0.5 -2.6 0.5 s -1.5 0.5 -2.6 0.5 c -3.6 0.5 -4.6 0.5 -5.6 0.5 z m -4.1 31.2 c 0 0.5 0 0.5 -0.5 1.5 c -0.5 0.5 -1 1 -1.5 2 c -0.5 0.5 -1.5 1 -2 1.5 c -1 0.5 -2 1.5 -3.1 2 c -1 0.5 -2 1.5 -3.6 2 c -1 0.5 -2.6 1 -3.6 1.5 c -1 0.5 -2 0.5 -3.1 0.5 c -1 0 -1.5 -0.5 -2 -1.5 c -0.5 -1 -0.5 -2 0 -2.6 c 0 -0.5 0.5 -1 1.5 -1 c 1 0 2.6 -0.5 3.6 -0.5 c 1.5 -0.5 2.6 -0.5 4.1 -1 c 1.5 -0.5 2.6 -1 4.1 -1.5 c 1.5 -0.5 2.6 -1.5 3.6 -2 c 1 -1 2 -1 2.6 -1 c -0.5 -1 0 -1 0 0 z m 17.9 -20 c -1.5 -0.5 -3.1 -0.5 -4.1 -1 c -1.5 -0.5 -2.6 -0.5 -4.1 -0.5 h -9.7 c 0 1.5 -0.5 3.6 -0.5 5.6 c -0.5 2 -0.5 4.1 -1 6.1 c 1.5 0 3.1 0.5 4.6 0.5 s 2.6 0.5 4.1 0.5 c 1 0 2.6 0.5 4.1 0.5 c 1.5 0 2.6 0.5 4.1 1 c 0 -1 0.5 -2 0.5 -2.6 c 0 -1 0.5 -1.5 0.5 -2.6 s 0.5 -2 0.5 -3.1 c 0.5 -2 1 -3.1 1 -4.6 z m 9.7 33.3 c 1 1 1.5 2 1.5 2.6 c 0 0.5 -1 1 -2.6 1.5 c -1.5 0.5 -2.6 0.5 -3.6 0 c -0.5 -0.5 -1.5 -1 -2 -2 c -1 -2 -2 -3.6 -3.1 -4.6 c -0.5 -1 -1.5 -2 -2 -3.1 c -0.5 -1 -1 -1.5 -1.5 -2 c -0.5 -0.5 -0.5 -1 -1 -1 c -1 -1 -1 -1.5 -1 -2 c 0 -0.5 0.5 -1 1 -1 s 1 0 1.5 0.5 c 0.5 0.5 1 1 2 1.5 l 4.1 4.1 c 1.5 1 3.6 3.1 6.7 5.6 z M 470 581.6 c -1.5 1 -3.6 2 -5.6 3.1 c -2 1 -4.6 2 -7.7 3.1 c -1 0.5 -2 0.5 -3.1 0.5 c -0.5 0 -1.5 -0.5 -1.5 -0.5 c -0.5 -0.5 -0.5 -1 -0.5 -1 c 0 -0.5 0 -1 0.5 -1.5 c 1 -1 1.5 -2 2 -2 c 0.5 -0.5 1.5 -0.5 2.6 -0.5 c 2 -0.5 4.1 -0.5 6.1 -1 c 2 -0.5 4.1 -1 5.1 -1 c 1.5 -0.5 2 -0.5 2.6 0 c 1 -0.5 0.5 0.5 -0.5 1 z m -3.6 -18.9 c 1 0.5 1.5 1 1.5 1.5 c -0.5 0.5 -1 1 -2.6 0.5 s -3.1 -0.5 -4.1 -1 c -1 0 -2 -0.5 -2.6 -0.5 h -2.6 c -1.5 0 -2.6 0 -3.1 -1 c -0.5 -0.5 0 -1.5 1.5 -2.6 c 1 -1 2 -1.5 3.1 -1.5 c 1 0 2 0 2.6 0.5 c 1.5 1 3.1 2 4.1 2.6 c 0.5 1 1.5 1.5 2 1.5 z m 7.2 -13.3 c 1 1.5 1 2 1 2.6 c -0.5 0.5 -1 0.5 -2 -0.5 c -1.5 -1 -3.6 -2 -5.1 -3.1 c -1.5 -1 -2.6 -1.5 -3.6 -1.5 c -1.5 -0.5 -2.6 -1 -2.6 -1.5 c 0 -1 0.5 -1.5 1.5 -2.6 c 1 -1 2 -1.5 3.1 -1 c 1 0 1.5 0.5 2 1 c 1 1 2 2 3.1 3.6 s 2 2 2.6 3.1 z m 44.5 28.7 c -1 0.5 -2 1 -3.1 1 c -1 0 -2.6 -0.5 -4.1 -1.5 c -2.6 -1.5 -5.6 -2.6 -8.7 -3.6 c -3.1 -1 -6.1 -1.5 -9.2 -1.5 c -5.1 -0.5 -9.7 -0.5 -13.3 -0.5 c -3.6 0 -6.7 0 -9.2 0.5 h -3.1 c -0.5 0 -1 -0.5 -1 -1 s 0 -1 0.5 -1.5 l 1.5 -1.5 c 1.5 -1 3.1 -1.5 3.6 -1.5 h 2 c 0.5 0 1.5 0.5 2 0.5 c 0.5 0 1.5 0.5 3.1 0.5 c 1 0 2.6 0.5 4.6 0.5 s 4.1 0.5 7.2 0.5 c 0.5 -2.6 1 -4.6 1 -6.7 c 0.5 -2 0.5 -3.6 1 -4.6 c -2.6 -0.5 -4.6 -0.5 -6.7 -0.5 h -5.6 c -2.6 0 -4.1 0 -4.6 -0.5 c -0.5 -0.5 0 -1.5 1 -2 c 2.6 -1.5 5.1 -2 6.7 -1.5 c 0.5 0.5 2 0.5 3.6 1 c 1.5 0.5 3.6 0.5 6.1 0.5 c 0 -1 0.5 -2 0.5 -2.6 c 0 -0.5 0 -1.5 0.5 -2 v -1.5 c 0 -0.5 0 -1 0.5 -1.5 c 0 -1.5 0.5 -2.6 0.5 -3.1 c 0 -1 0.5 -1.5 1 -1.5 c 0.5 -0.5 0.5 -0.5 1 -0.5 s 1 0 1 0.5 c 1 0.5 1.5 1.5 1.5 2.6 s 0 2.6 -0.5 4.6 c 0 0.5 -0.5 1.5 -0.5 2.6 s -0.5 2.6 -1 3.6 c 1.5 0 2.6 0 4.1 0.5 c 1.5 0 2.6 0.5 3.6 0.5 c 1 0 2 0.5 3.1 0.5 c 1 0 1.5 0.5 2 0.5 c 1 0.5 1 1 1 1.5 c 0 0.5 0 1 -0.5 1 c -0.5 0.5 -1 0.5 -2 0.5 s -2 0 -4.1 -0.5 c -1.5 -0.5 -2.6 -0.5 -4.1 -0.5 c -1.5 0 -2.6 -0.5 -4.1 -0.5 c -0.5 1.5 -1 3.6 -1 5.6 c -0.5 2 -1 3.6 -1 5.6 c 2 0 5.1 0.5 8.7 1.5 c 3.6 0.5 8.2 1.5 13.8 3.1 c 2 0.5 3.1 1 3.1 1.5 c 0 -0.5 -0.5 0.5 -2.6 1.5 z m -12.3 13.3 c 0.5 2 0.5 3.1 -0.5 4.1 c -1 1 -2 1 -4.1 0.5 c -3.6 -1 -7.2 -1.5 -10.8 -2 c -3.1 -0.5 -5.6 -0.5 -7.7 -0.5 c -1.5 0 -3.1 0 -4.1 -0.5 c -1.5 -0.5 -2.6 -1 -3.1 -1.5 c -2.6 -2.6 -1.5 -5.1 3.1 -7.7 c 2.6 -1.5 4.6 -2.6 6.1 -4.1 c 1.5 -1 2.6 -2.6 3.6 -3.6 c 0.5 -1 1 -1.5 1.5 -1.5 c 0.5 -0.5 1 0 1.5 0.5 c 0.5 1 0.5 1.5 0.5 2.6 s -1 2 -2 2.6 c -1.5 1 -3.1 2 -4.1 3.1 c -1 1 -2 1.5 -3.1 2 c -1.5 1 -2 2 -2 2.6 c 0 0.5 1 1 2.6 1 c 2 0.5 3.6 1 5.6 1 c 1.5 0.5 4.1 0.5 6.7 1 c 2 0 3.6 0 4.1 -0.5 c 0.5 -0.5 0.5 -1 0.5 -2.6 c 0 -1 -0.5 -1.5 -1 -2.6 s -1.5 -1.5 -2.6 -2.6 c -0.5 -0.5 -1 -1.5 -1 -2 c 0 -1 0 -1.5 0.5 -2 c 1.5 -1 2.6 0 4.1 2 c 1 1.5 1.5 2.6 2 3.6 c 0.5 1 1 1.5 1.5 2.6 c 0.5 0.5 0.5 1.5 1 2 c 0.5 1.5 1 2 1 2.6 z"
    p-id="5478"></path>
</svg>