<?xml version="1.0" standalone="no"?>
<!DOCTYPE svg PUBLIC "-//W3C//DTD SVG 1.1//EN" "http://www.w3.org/Graphics/SVG/1.1/DTD/svg11.dtd"><svg t="1636082454758"
  class="icon" viewBox="0 0 1024 1024" version="1.1" xmlns="http://www.w3.org/2000/svg" p-id="25359"
  xmlns:xlink="http://www.w3.org/1999/xlink" width="200" height="200">
  <defs>
    <style type="text/css"></style>
  </defs>
  <path
    d="M804.6 412.8c2.1 6.3 6.4 9.5 13.1 9.5 10.1-0.1 20.2-7.1 23.9-16.6 4.2-11-2.6-21.8-13.8-21.9-18.8-0.2-28.6 12.2-23.2 29zM587.6 748.3c-1 1.4-2.2 2.9-3.5 4.6 0.4 0.7 1 1.6 1.6 2.4 0.2-0.6 0.3-1.2 0.5-1.8 3.1-1 6.1-2.1 9.2-3.1-1.7-5.4-5.1-4.3-7.8-2.1zM709.3 643.5c1.8-2.3 2.4-4.6 0.2-6.4-0.5-0.4-3.5 1.3-4.5 2.6-18.9 24.2-41.4 44.4-67.7 60.2-35.9 21.6-74.9 33.2-116.6 35.1-12.2 0.5-24.5-0.1-36.7-1.3-11.8-1.2-23.6-2.6-35-6.3-5.2-1.7-10.6-2.9-16-4.5-1 4.4 0.7 6.2 4.6 7.4 29.4 8.6 59.3 12.7 90 10.1 74.5-6.1 135-38.4 181.7-96.9zM503.4 358.9c-18.8 5.3-37.7 10.5-56.5 15.8 0.3 0.8 0.4 1.6 0.7 2.4 18.8-5.3 37.7-10.5 56.5-15.8-0.2-0.8-0.5-1.6-0.7-2.4zM270.4 435.9c-0.9-3.6-1.6-7.2-2.5-10.8-2.7 8.3-2.7 8.3 2.5 10.8zM438.3 378.3c-2.8 0.3-5.6 0.3-8.2 1-19.3 5.3-38.4 10.7-57.7 16.1-1.5 0.4-2.7 1.5-4.1 2.3l0.9 1.5 69.3-19.5c-0.1-0.5-0.1-0.9-0.2-1.4zM366.7 410.8c42-11.7 83.9-23.5 125.9-35.2-0.2-0.6-0.3-1.2-0.4-1.8-5.7 1.3-11.5 2.4-17.1 4-36.4 10.1-72.7 20.3-109.1 30.4 0.3 0.8 0.5 1.7 0.7 2.6zM415.6 722c4.9 2.3 10.1 4.1 15.1 6.1 0.2-0.3 0.3-0.8 0.4-1.1-1.2-0.6-2.4-1.1-4.3-2 1.8-0.6 2.9-1 4.1-1.3-3.5-3.8-9.6-5.2-12.7-3.6-0.6-1.1-1.1-2.3-1.7-3.4-0.6 0.3-1.1 0.7-1.7 1 0.2 1.4 0 3.8 0.8 4.3zM479.4 774.1c-11.5-2-22.4-3.8-33.6-5.7 2.4 5.4 28.8 9.9 33.6 5.7z"
    p-id="25360"></path>
  <path
    d="M549.6 708.8c5.6-0.4 11.1-2.3 15.4-0.7 4.2 1.6 7 6.6 10.9 10.7 0.8-4.3 1.6-7.8 2.1-11.4 0.3-3 1.6-4.8 4.5-5.8 3.4-1.2 6.7-3.1 10.5-4.8-1.7-1-2.7-1.9-3.8-2.3-7.6-2.6-11.8-7.5-11.1-16 0.1-1.3-0.3-2.7-0.6-5.4-2.3 2.3-4.1 3.7-5.5 5.5-3.7 4.6-8.1 6.5-13.9 4.1-2.1-0.9-4.5-1-7.5-1.5 1.8 3.9 3.2 7.3 5 10.6 1.5 2.7 1.4 4.9-0.3 7.4-2.2 2.6-3.7 5.9-5.7 9.6zM627.5 685.8c1-4.3 1-8.2 2.8-10.5 1.9-2.4 5.7-3.3 10-5.6-8.8-1.9-12-7.1-11.6-15.6-4.6 7.8-10.9 8-18.3 5.6 5.1 6.8 4.4 12.9-0.9 19.3 8.1-3.3 13.6-0.3 18 6.8zM514 717.9c1.1-4.3 1.1-8.2 3-10.5 1.8-2.3 5.6-3.1 9-4.8-3.2-1.9-6.9-3-8.5-5.5-1.7-2.6-1.6-6.4-2.6-11.5-4.4 8.5-10.6 8.8-19 5.6 5.1 7.4 6.2 13.4 0.6 19.9 7.8-2.9 13.2 0.2 17.5 6.8zM272.2 422.7c4.8-12.4 9-25.1 14.6-37.2 5.5-12 12.2-23.4 18.3-35-1.3-0.3-3-0.7-5.5-1.2-3 5.6-6 11.1-9.3 17.3 0 0-0.9 0.4-1.2 1-6.6 15.6-13.2 31.1-19.7 46.8-1.4 3.6 0.2 6.3 2.8 8.3zM410.4 759.4c10 6.6 21.9 8 33.4 10.7-0.7-1.5-1.5-2.8-2.6-3.1-10-3.1-20-6-30-9-0.3 0.4-0.5 0.8-0.8 1.4zM720.2 289.8s0.1 0.1 0 0c0.1 0.1 0.1 0 0 0 0-0.1 0-0.1-0.1-0.2l0.1 0.2z"
    p-id="25361"></path>
  <path
    d="M201.4 473.7c0.9 2.1 1.4 3.1 1.8 4.2 7.7-1.6 7.7-1.6 7.5-9.3 0-2 0.2-3.9 0.2-5.9 0.4 0 0.9-0.1 1.4-0.1 0.2 4 0.4 8.1 0.7 12.4 1.2-0.2 2-0.3 2.7-0.4 17.1-4.9 34.1-9.8 51.3-14.6 16.7-4.7 33.2-9.9 50.1-14.2 5.6-1.5 11.1-3.2 16.7-4.8 44.4-12.7 88.8-25.2 133.3-37.8 2.1-0.6 4.3-0.6 6.4-0.9-0.8 1-1.5 2-2.3 2.9-1 0.7-2.1 2-3 1.8-4.4-1-8.2 1-12.1 2.3-5.7 1.7-11.9 2.3-17.6 4.2-13.7 4.2-27.2 8.7-40.9 13.2-8.5 2.9-17 5.9-25.5 8.8 11.5-2.2 22.7-5.1 33.9-8.3 17-4.8 34-9.9 51-14.7 21-5.9 42-11.5 63-17.4 4.9-1.4 9.8-3.2 14.7-4.9l-0.2 0.1c13.8-3.3 27.2-7.6 40.7-12-0.1-0.5-0.3-1-0.3-1.6-4.5 0.3-9.1 0.5-13.6 0.8 0-0.1-0.1-0.3-0.1-0.3 43.1-12.7 86.2-25.3 129.4-38.1 0.1 0.3 0.2 0.5 0.2 0.7-2.8 1.6-5.5 3.3-8.2 4.9-17.3 2.4-32.7 10.8-49.3 15.9 36.6-9.2 73.1-18.6 109.4-28.8 36.4-10.2 72.5-21.3 109-32 1.6 5.1 3.3 10.8 4.9 16.4 0.4 0.2 1 0.3 1.4 0.6 1.1-1.5 3.4-3.2 3.1-4.3-1.9-8.1-4.3-16.1-6.8-24.4-29.5 8.3-58.6 16.6-86.5 24.5-8.2-14.9-18.9-26-29.1-37.6-5.2 3.6 0.9 7.4-1.3 11.3 3.7 0.3 7.2 0.7 10.1 1-1.7 1.5-3.7 3-5.6 4.6l0.9 1.2c1-0.3 1.9-0.4 3.6-0.8-2.6 7.3 3.2 11.5 5.8 17.1-1.1 0.4-1.9 0.8-2.8 1.1 5.7 7.2 5.1 9.5-3.7 12.6-2.3 0.9-4.8 1.5-7.1 2.3 0.1-0.5 0.1-1 0.2-1.6-2.1-0.3-4.3-1.5-6.2-1-7.5 1.8-14.8 4-22.2 6.3-2.8 0.9-4.5 0.4-6.4-1.9-20.9-25.3-45.9-45.8-75-61.1-11.2-5.9-22.9-10.8-35.1-16.4-0.3 2.1-0.3 2.9-0.3 3.6-0.2 0.9-0.3 1.7-0.6 2.8 42.3 15.7 78 40.5 107.4 75.8-10.6 2.5-19.8 5.7-29.3 8.3-21.3 5.8-42.6 12.2-63.9 18.4-5.7 1.6-11.5 3-17.3 4.5-1.9 0.5-3.3 0.7-3.9-2.3-2-10.8-4.5-21.6-6.9-32.8-12.1 3.4-23 6.3-33.8 9.5-3.1 1-5.1 0.5-7.2-2.3-5.6-7.5-11.7-14.9-17.5-22.3-3.8-4.9-3.8-4.9-8.8-0.9-7.5 5.8-15 11.5-22.3 17.5-2.5 2.1-4.4 2.1-7.1 0.5-5.4-3.2-10.9-6.2-16.5-9.2-1.4-0.7-3-1.1-4.5-1.6 0.6 8.3 8.1 9.7 12.8 13.8-6 2.3-11.3 4.2-16.7 6.2 0.2 0.5 0.3 1 0.5 1.6 5.6-1.6 11.3-3.4 17-4.6 2.3-0.4 5.2-0.3 7 0.9 3.5 2.3 5.8 1.6 8.7-0.8 8.1-6.5 16.2-12.8 24.8-19.6 3.6 4.4 6.8 8.6 10.6 13.4C483 342.2 440.7 354 397.6 366c0.7-5.9 1.3-11.1 2-16.7 2 0.2 3.6 0.3 5 0.4 8.9 1 17.8 2.2 26.7 3.1 6.2 0.7 8.5-2.1 6.7-7.9 4.3 1.4 7.5-0.2 10.5-3.6-1.6 0-3.2 0-5.5 0.1 3.1-5.6 5.6-11 9-15.9 2.7-4 2.3-6.9-1.6-10-5.1 9.2-10.3 18.1-15.3 27.3-1.6 3-3.3 4.3-6.9 3.6-10-1.5-20-2.3-29.9-3.6-2.9-0.3-4.3 0.3-4.6 3.5-0.7 7.7-1.9 15.4-2.7 23-1.1 11.6-1.1 11.6-12.4 14.7-8.8 2.3-17.4 4.9-26.5 7.5 1 3.7 2 6.9 3 10.6 1.8-1.3 4.1-2.1 4.2-3.1 0.5-3.6 3.2-3.7 5.6-5 3.6-2 6.9-3.3 11.3-3.3 4.5 0 9.1-2.3 13.6-3.5 3-0.8 5.9-1.1 5.9-5.4 0-0.8 1.8-1.9 3-2.3 12.1-3.5 24.2-6.9 36.3-10.2 21.3-6 42.8-12 64.4-18-0.5-1-0.9-1.7-1-1.7-33.8 9-67.7 18.1-102.3 27.5 1-3.7-1.1-7.6 4.2-9.1 40.7-11.3 81.4-22.7 122.2-34.2 6.1-1.6 7-1 9.7 5.5-9.4 2.7-18.7 5.4-28.1 8.1l0.3 1.5c1.7-0.1 3.5 0.1 5.1-0.3 6.8-1.8 13.6-3.7 20.4-5.7 2.9-0.9 5.6-1.8 7.8 1.6 0.4 0.7 2.9 0.5 4.2 0.2 9.3-2.5 18.5-5.2 27.7-7.7 1.5-0.4 3.1-0.3 4.7-0.3 0.1 0.5 0.2 1.1 0.2 1.6-19 7.2-39.4 10.3-58.5 17.4 0.2 0.7 0.4 1.4 0.6 2 19.4-5.4 38.9-10.8 58.2-16.2 3.7 6.9 3.6 7.3-3.4 9.2-15.6 4.3-31.1 8.7-46.8 13.1-1.2 0.3-2.3 0.9-3.6 1.4 0.2 0.7 0.3 1.3 0.6 2 18.9-4.4 37.4-10.7 56.7-15.4 0.8 2.6 1.5 4.8 2.2 7.4-2.4 0.8-4.3 1.4-6.2 1.9-18.9 5.3-37.7 10.5-56.7 15.8-49 13.7-98 27.4-147.1 41.1-1.3 0.3-2.9 0.8-4.1 0.4-2.3-0.7-4.4-1.8-7.5-3.2 1.1 4.9 2 8.7 2.9 12.7-31.9 9.2-63.5 18.2-95.9 27.5 0.3-5.8 0.4-10.4 0.6-15-0.5-0.1-1.1-0.3-1.6-0.3-1.6 4.5-3.5 8.8-4.4 13.5-0.6 2.8-1.6 3.9-4.3 4.6-7.7 2-15.4 4.3-23.2 6.5-2.6 0.8-5.3 1.5-8.3 2.3 0.1-3.2 0-5.7 0.3-8.2 1.8-11.5 3.3-23.1 5.8-34.4 9.2-40.9 26.8-78.1 52.4-111.3 5.3-6.9 11.2-13.2 16.7-19.9 1.2-1.5 1.7-3.6 2.5-5.3-0.5-0.3-1-0.8-1.6-1.1-1 1.2-1.8 2.4-2.9 3.6-25.2 27.2-44.7 58-58 92.7-3.6 9.3-6.2 18.8-9.5 28.2-0.5 1.6-2.3 2.6-3.9 4.4 0.2 2.2 1 5.5 0.6 8.6-1.8 12.9-4.4 25.8-5.9 38.8-0.6 5.3-2.8 6.7-7.8 6.6 1.2-23.7 5-46.6 14.4-68.4 0.1 2.4 0.1 4.8 0.2 7.1 2.4-6 4.9-11.9 7.5-18.7-2.3 1.4-3.6 2.3-4.9 3-0.3-1.7 0-3 0.7-3.9 5.4-7.1 8.9-15.1 10.8-23.8 0.7-3.1 0.5-6.7 1.9-9.4 4.2-7.9 7.4-16.3 12.8-23.6 9-12.1 17.8-24.4 26.5-36.7 1.7-2.3 2.9-5.1 4.4-7.6 0.7-1 1.9-1.8 2.9-2.7 1.3-1.1 2.3-2.8 3.6-3.9 1.3-1.1 3.3-1.5 4.6-2.6 11.1-9.5 21.4-20.1 33.3-28.5 15.4-10.8 31.7-20.2 48.1-29.4 8.2-4.7 16.7-10.3 27.5-7.4-1-0.9-1.8-1.6-3.1-2.9 8.1-2.8 15.7-5.3 23.3-8.1 7.5-2.8 15.4-3.5 23-5.4 8.2-2.1 16.7-3.1 25.1-4.1 8.4-1 16.9-1.6 25.4-1.8 8.5-0.3 17-0.3 25.5 0.3 8.6 0.5 17.3 1.5 25.8 2.8 8.4 1.2 16.8 2.9 25 4.8 8.2 2 16.4 4.3 24.5 6.9 8.1 2.7 16 5.7 23.8 9 7.8 3.3 15.4 7 24 10.9 0.2-4.9 0.3-9.2 0.5-13.4 0.6 0 1.2 0.1 1.8 0.1-0.2 3.6-0.1 7.1-0.4 10.7-0.3 2.9 0.8 4.4 3.2 6 13.3 8.7 26.6 17.5 39.5 26.7 6.1 4.3 11.5 9.5 17.3 14.4 0.1-0.4 0.3-0.9 0.3-1.3 1.3 0.2 2.7 0.1 3.9 0.6 1.5 0.6 2.8 1.6 4.2 2.4l-0.1 0.1h0.2c0.8 1.2 1.6 2.5 2.4 3.7-0.8 1.1-1.5 2.1-2.2 3.2 2.3 2.3 4.4 4.4 6.6 6.5 0.6-0.2 1.2-0.3 1.8-0.4 0.4-4.5 1-9.1 1.5-14.1-2.2 0.2-3.9 0.4-5.6 0.5-0.3 0-0.5 0.1-0.8 0.1-1.3 0.1-2.5 0.3-3.6 0.3 0 0 0-0.1-0.1-0.1 3-2 5.9-4.1 9.1-6.2-1.8-1-3.2-1.4-4-2.3-3.5-3.6-6.4-7.7-10.1-11-27.8-24.3-58.8-43.2-93.3-56.4-43.6-16.7-88.8-23.8-135.5-20-9 0.7-18.1 1.4-27.2 2.1-0.3 0-0.7-0.3-1.3-0.6 1.1-0.3 1.9-0.6 3-1-6.9-3-12.3 0-18 2.2-2.2-0.8-5.9-1.1-6-0.7-1 4.3-5.2 4-7.6 6-3.8 3.1-6.4 1.9-8.3-1.6-3.4 0.6-6.8 0.5-9.5 1.7-4.6 2.1-9 4.6-13.1 7.5-3.7 2.7-6.2 7.5-12.1 5-5.6-2.3-10.2 0.6-14.9 3.4-5.4 3.2-10.9 6.2-16.3 9.4-3.5 2.1-7.1 4.1-10.1 6.8-3.5 3-6.1 7.1-9.5 10.2-4.2 3.7-8.8 6.8-13.2 10.2-18.7 15.3-36.9 31.3-52.1 50.2-3.6 4.5-6.8 9.4-10.1 14.1-1.4 1.7-2.9 3.4-4.2 5.1-3 4.2-6 8.3-9 12.5 0.6 0.2 1.2 0.3 1.8 0.5-0.2 1.1 0.1 2.5-0.5 3.3-0.9 1.2-2.4 1.8-3.6 2.9-2.3 2.3-4.2 4.8-6.5 6.9-0.9 0.8-2.7 0.9-3.9 0.7-1.9-0.3-3.6-1.2-5.5-1.9-0.2 0.4-0.4 0.9-0.6 1.3 0.4 1.2 0.9 2.4 1.3 3.6-2.9 0.4-5.4 0.8-7.9 1.2 0.1 0.5 0.1 1 0.2 1.5 3.4 0.2 6.7 0.3 10.4 0.4-5.7 3.4-10.8 6.3-16.5 9.7 0.1 3.2-0.8 6.9-4.8 9.6-1 0.7-0.8 4.2-0.1 5.9 0.8 1.8 3.6 2.7 4.2 4.5 0.6 1.6 0.3 4.4-0.7 5.6-1.5 1.5-4.2 1.9-6 2.6 0.3 0.1 1 0.4 1 0.4-2 2.5-4.8 4.5-5.5 7-1.1 4.3-1.4 9-1.3 13.5 0 2.6 1.1 5.4 2.3 7.8 1 2.3-1.4 4.9 1.5 7.2 1 0.8-1 4.9-1.5 7.5-1.5 7.9-3 15.8-4.3 23.7-0.2 1.2 0 3.2 0.7 3.7 3.1 2.2 2.4 4.7 1.6 7.6-1.3-0.4-2.3-0.8-4.2-1.4-0.2 5.6-0.5 10.6-0.5 15.6 0 3.6-1 6-5.1 6.4-2.9 0.3-4 2.1-3 5.2 4.6-0.2 9.7-0.1 11.3-7z"
    p-id="25362"></path>
  <path
    d="M403.5 280.7c-0.7 6.4-1.5 11.3-8.4 11.7 5.2 2.7 8.8 5.8 7.8 12.2 4-4.6 8.3-6.1 14.1-3.8-3.7-5.1-3.3-9.7 0.4-14.6-5.9 2.1-10 0-13.9-5.5zM736.9 313.4c0.8 1 2.4 1.1 3.7 1.7 0.3-0.5 0.6-1 1-1.5-3.1-3.6-6.2-7.4-9.5-10.9-1.3-1.4-3-2.3-4.3-3.7-2.6-2.9-5-6-7.5-9-0.3 1-0.8 2.4-0.3 3 5.5 6.8 11.2 13.7 16.9 20.4zM720.1 289.7zM737.3 295.5c0.2-0.2 0.3-0.4 0.4-0.6-1-2-1.6-4.6-3.2-6-1.4-1.1-2.3-5.7-6-1.8 3 2.7 5.9 5.5 8.8 8.4zM719 287.8c-0.9-1.3-1.8-2.4-2.9-3.5 0 0-0.1 0-0.1-0.1-0.5-0.4-1-1-1.5-1.3-0.1-0.1-0.2-0.1-0.3-0.2-0.4-0.3-0.9-0.6-1.3-0.9-0.2-0.1-0.3-0.2-0.6-0.3-0.3-0.2-0.7-0.3-1-0.5-0.3-0.1-0.6-0.2-0.9-0.2-0.3-0.1-0.4-0.2-0.7-0.2-0.5-0.1-1 0-1.4 0.1 3 4.4 6.5 7.7 11.7 8.8 0-0.1-0.1-0.2-0.2-0.3-0.2-0.4-0.4-0.9-0.8-1.4zM720.3 289.9zM696.4 270.6c2.6 2.2 5.8 3.7 8.7 5.6 0.4-0.7 0.9-1.4 1.4-2.1-3.2-1.7-8.6-2.8-9.3-5.3-1.6-5.3-6.1-6.9-9.5-9.5-44.8-34.9-95.5-55-151.8-60.1-58.8-5.3-114.3 6.7-166.2 35.2-18.1 10-35 21.9-50.4 35.6-1 0.9-1.2 2.6-1.8 3.9 0.4 0.2 1 0.3 1.4 0.6 0.6-0.4 1.2-1 1.8-1.4 8.2-6.4 16-13.3 24.5-19.3s17.3-11.5 26.4-16.5c9-5 18.4-9.6 28-13.5 9.2-3.7 18.3-7.9 28-10.4 22.9-6 45.9-11.5 69.7-11.5 17.7 0.1 35.6 0.1 53.2 2.5 54.9 7.8 103.4 30.5 145.9 66.2z"
    p-id="25363"></path>
  <path
    d="M505.1 235.9c-19.1 0.7-37.9 3.2-56.4 7.9-7.5 1.9-15.1 4.2-22.6 6.2l-0.1 0.1c1.8 1.3 3.5 2.3 5.5 2.8 0.3 0.1 0.5 0 0.8 0.1 0.8 0.2 1.6 0.3 2.3 0.3 1 0 2.2-0.3 3.4-0.6 20.5-6.6 41.5-9.9 62.9-10.8 3.3-0.1 6.6-0.3 9.9-0.6-0.3-4-1.9-5.5-5.7-5.4zM454.8 264.1c-2.7-1.3-5.2-3.1-7.5-5-1-0.9-1.3-2.7-2-4.1-0.6 0.4-1.1 1-1.7 1.4-0.3 1.2-0.7 2.4-0.7 3.6-0.1 4.2-1.1 7.5-5.4 9.5-2.3 1.1-1.5 5.4 0.4 7.1 1.6 1.5 2.8 3.5 3.5 5.5 0.7 2.2 0.6 4.7 1 8.4 5.4-5.9 10.1-10.6 17.6-6.8 0.3 0.2 1.4-0.5 1.8-1 0.3-0.3 0-1.5-0.3-1.6-1-0.4-2.2-0.6-2.4-0.7-0.3-2-0.5-3.3-0.7-4.7-0.1-0.9-0.4-1.9-0.2-2.6 1.6-3.2-0.3-7.6-3.4-9z"
    p-id="25364"></path>
  <path
    d="M425.9 250.2c0.1 0 0.1-0.1 0.2-0.1-0.1 0-0.1-0.1-0.1-0.1-0.1 0.1-0.1 0.1-0.1 0.2zM515.8 242c9.4 0.3 19 0.8 29 1.1 0.2-1.2 0.3-2.7 0.5-4.8-8.5-0.6-16.7-1.1-25-2-4.1-0.3-6.2 0.6-4.5 5.7zM421.7 255.4c0.4 0.2 0.9 0.3 1.2 0.3h0.3c0.2 0 0.4 0 0.6-0.1 0.1 0 0.2-0.1 0.3-0.2 0.2-0.1 0.3-0.2 0.4-0.3 0.1-0.1 0.1-0.2 0.2-0.3 0.1-0.2 0.3-0.3 0.3-0.4v-0.1c0.5-1 0.7-2.6 0.7-4.1-0.5 0.4-1 0.8-1.6 1-18.6 6.8-36.2 15.3-52.5 26.4-4.2 2.8-7.1 7.7-11.4 9.7-6.4 2.9-11.5 7.6-16.6 12-9.8 8.4-18.6 18.2-27.2 27.8-5.3 5.9-9.7 12.6-15 19.5 6.2 2.6 8.2-1.6 10.4-4.7 2.3-3.2 3.9-7 5.9-10.7 0 0 0.7 0.5 1.6 1 16.7-20.3 36-37.4 57.8-51.9 5.4-3.6 12.6-4.9 15.9-11.4 0.2-0.3 1-0.1 1.6-0.2 1-0.1 2.3 0.3 3.2-0.2 6.4-2.9 12.9-5.8 19.2-8.9 1.7-0.7 2.9-2.5 4.7-4.2zM491.4 256.3c1 6.9-3.2 9.4-9.7 11.6 7 1.9 9.6 5.5 9.4 11.6 3.9-5.1 8.6-5.5 14.2-3.9-4.5-5-3.1-9.6 0.2-14.7-6.2 3-10-0.2-14.1-4.6zM714.6 636.4c1.2-1.9 2.3-3.8 3.5-5.7-1.6-0.9-3-1.6-4.5-2.4-3.3 4-3.3 4.1 1 8.1zM170.4 682.8c-1.8-6.2-3.6-12.1-5.6-19.3 0.1 5 0.2 8.6 0.3 12.1-0.4-24.4-11.2-46.2-16.3-69.5-1.6 0.6-2.4 0.9-5 1.8 0.5-4.9 0.9-8.6 1.2-12.2 0.1-1 0.1-1.9-0.2-2.8-3-10.8-6.1-21.5-9.4-32.2-0.4-1.3-2.6-3.1-3.6-2.9-2.2 0.4-2.4 2.3-1.6 4.7 2.9 9.6 5.6 19.3 8.4 29.1 1.6 5.6 5.5 10.5 3.6 17.1-7.7-23.5-15.4-46.7-23-69.9 4.1 52 24.1 100 38.8 149.4 0.4 1.6 1.7 2.9 2.9 4.7 0.6-4.5-2.2-8.8 2-13.3 1.5 3.6 2.5 6.5 3.8 9.7 4.7-2 9.2-4 13.9-6 0.1 0.2 0.2 0.7 0.3 1.3 2.2-0.7 4.2-1.3 6.1-1.9-1-1.3-1.8-2.4-2.8-3.6-4.4 1.2-8.9 2.4-13.8 3.7zM224.8 573.2c0.4-9.7-6.3-16.7-16-16-3.7 0.3-7.5 1.1-11 2.3-12.4 4.3-16.9 21.1-8.5 31.3 1.5 1.8 3.9 3.3 6.2 4 12.7 3.6 28.7-8.3 29.3-21.6z"
    p-id="25365"></path>
  <path
    d="M126.2 536.1c-0.2 4.2-0.3 8.3-0.5 12.6h1.2c1.7-15.2-2.5-29.4-7.4-43.7-1.6-0.1-3.3-0.2-5.6-0.3l7.8 27.6c4.1-1.5 4.6 0.7 4.5 3.8zM212.4 673.6c1.5 0.3 3.4 1.5 4.2 1 4.5-2.8 11.5 0.1 14.2-6.3 0.1-0.1 0.5 0 0.9-0.1 1.9 0 1.9 0 2.6-3.1-6.8 1.9-12.9 3.5-19 5.5-1.2 0.1-1.9 1.8-2.9 3zM155.3 488.5c-0.3-0.4-0.7-0.9-1.1-1.3-2.8 0.9-5.6 1.7-8.9 2.8 1.5 1.5 2.4 2.5 2.9 3 3-1.9 5.1-3.2 7.1-4.5zM305.2 689.1c-0.6 7.6 6.6 9.1 10.5 13.3-0.3-6.9-7-8.8-10.5-13.3zM177.3 485.6c-0.7-1.7-1.1-2.9-1.8-4.5-6.3 1.8-12.2 3.6-18.6 5.5 1 1.6 1.6 2.6 2.1 3.2 6.3-1.4 12.2-2.8 18.3-4.2zM334.8 758.7c3 0.9 6 1.7 9 2.6 0.2-0.6 0.3-1.1 0.4-1.7-3-0.9-6.1-1.6-9.1-2.5-0.1 0.5-0.2 1-0.3 1.6zM865.4 327c-3.4 2.2-4.9 3.7-3.8 7.3 10.4 36 20.6 72.1 30.8 108.2 3 10.7 6.1 21.4 9.1 32.3-2.1 0.7-3.7 1.3-5.3 1.8-2.3 0.7-6.2 1-6.5 2.1-1.1 4.3-4.1 3.3-6.9 3.6-0.6 0.1-1.2 0.7-1.8 0.9-2.3 0.6-4.6 1.4-6.9 1.6-2.5 0.3-5.3-0.3-7.7 0.3-19.7 5.5-39.3 11.1-58.9 16.7-26.1 7.5-52.2 14.8-78.3 22.3-8.5 2.4-17 4.9-25.5 7.4-0.1 0.4-0.3 0.9-0.3 1.4 1.4 0.7 3 2.3 4.1 2 10.1-2.5 20-5.4 29.9-8.2 5.3-1.5 10.6-3 16.4-4.6-0.1 2.2 0 3-0.2 3.7-4.4 29.1-13.8 56.5-27.9 82.3-1 1.9-1.4 4.1-1.6 5-3.3 4.4-6.1 8-8.7 11.5 1.4 1.7 2.4 3 3.9 4.9 3-4.7 5.7-8.7 8.2-12.9 15.2-26.1 25.7-54 30.7-83.8 0.3-2-0.6-4.2-1-6.8 0.5-0.4 2.1-1.7 3.9-3.2h-4c-0.1-0.4-0.1-0.9-0.2-1.3 12.7-3.8 25.4-7.6 38.9-11.7-1.7 27.8-8 53.7-17.1 79.2 1.4-0.2 2.2-0.2 2.9-0.3-0.2 0.2-0.3 0.3-0.5 0.4-0.5 0.3-1.1 0.8-1.6 1.2-0.2 0.1-0.3 0.3-0.3 0.4-0.4 0.5-1 1-1.3 1.5 0 0 0 0.1-0.1 0.1-2.9 4.1-3.7 9.3-6.5 14.1 0.5-0.2 1-0.4 1.6-0.9l0.6-0.6c0.3-0.3 0.7-0.6 1-1 0.3-0.3 0.6-0.8 1-1.2 0.3-0.3 0.4-0.5 0.7-0.9 0.4-0.6 0.9-1.3 1.2-2 0.1-0.2 0.2-0.3 0.3-0.4 1.9-3.5 3.5-7.5 4-10.8 1-2.1 2.3-4.2 2.9-6.3 1-3.7 1.1-7.7 2.2-11.4 1.6-5.4 4.4-10.4 5.5-15.8 2.7-14.3 4.7-28.7 6.9-43.1 0.4-2.5 4.4-6.8 5.6-5.7 1.2 1.1 1.5 3.6 1.6 5.6 0.2 3.3-0.2 6.7-0.3 10.1 2.2-0.3 3.6-0.4 4.9-0.7-1 1.8-1.8 3.4-2.9 5.2-0.7-0.3-1.6-0.5-3.6-1.2 0.2 5 0.4 9.4 0.6 14.1 0 0-2 0.4-2.2 1.2-1.4 5.4-2.9 10.9 3.6 15.5-2.1 0.5-3.5 0.7-4.7 1.3-1.1 0.6-2.5 1.5-2.9 2.5-3.6 10.8-6.9 21.9-10.4 32.7-1 2.9-1.9 5.3 0.7 7.7 0.2 0.2-0.1 0.8-0.2 1.6-1-1-1.7-1.6-2.5-2.3-4.9 10-9.8 19.9-14.7 29.6-0.7 1.4-2.3 2.2-3.8 3.6 0.8 4.1-2.4 7.4-4.7 11.1-18.6 31.3-42.6 57.9-71.3 80.2-3.7 2.9-7.3 3.7-11.5 0.8 4.3-3.7 8.3-7.4 12.5-11 6-5.3 12.1-10.6 18-16 1.3-1.2 1.9-3.2 2.8-4.9-0.4-0.3-0.9-0.5-1.3-0.9-2.4 1.7-5 3.3-7.3 5.3-8.6 7.5-17.1 15.1-25.7 22.5-2.4 2.1-3.1 1-2.9-2 0.1-0.8-2-2.4-3.1-2.4-5.6 0-11.2 0.4-17.1 0.8 3.6 1.9 6.9 3.7 10.7 5.8l2.3-2.3 0.3 1.2c1.6 0.3 3.4 0.5 5.8 1-1.4 1.4-2.3 2.6-3.5 3.4-6.3 4-12.8 8-19.3 11.7-1.2 0.7-3.2 0-4.9 0-0.3 0-0.5 0.2-1 0.3 0.4 0.8 0.8 1.6 1.1 2.3-7 3.6-13.9 7.6-21.1 10.7-10.4 4.4-21.1 8.2-31.7 12.1-3.4 1.2-6.2-0.2-7.5-3.7-1.2 4.2-1.3 4.4-6.2 1-2.8 1.7-5.6 3.4-8.3 5-0.3-0.4-0.6-1-0.9-1.4 1-1.1 1.9-2.3 3.6-4.2-6.5 2.3-12.8-2.1-18.9 4.2 3.4 0.2 5.6 0.3 7.1 0.3 1.9 5 7.1 0.5 8.9 4-0.3 0.3-0.7 0.6-1 0.7-6.3 1.3-12.7 2.8-19.1 3.7-4.8 0.8-9.7 1.7-14.5 1.3-4.9-0.5-9.5-1.6-14.1 0.9-1.8 1-3.8 2-5.7 2-7.1 0-14.2-0.4-21.3-0.8-0.2 0.3-0.4 0.7-0.6 1.1 1.3 0.7 2.5 2 3.8 2 8.3 0.3 16.7 0.3 24.9 0.7 4.1 0.2 8.4 0.1 12.1 1.6 4.9 2.1 9.4 0.6 14 0.3 1.2-0.1 2.4 0.1 3.7 0.1v1.6c-21 1.4-42 4.7-63.2 1.9-21.5-2.9-42.5-8.2-63.3-16.3-0.1 2.2-0.2 3.6-0.3 5.7-6.2-1.9-12.1-3.6-17.9-5.3-0.4 5.2-0.9 9.9-1.3 15.5 2.3 0.8 6.2 1.9 9.8 3.4 2.3 1 3.4 0.3 4.1-1.9 0-0.1 0.5 0 1.2 0 0.2 1.2 0.4 2.4 0.5 3.2 1.9-0.1 3.6-0.5 4.9-0.1 3.6 1.1 7.2 2.6 10.8 4l0.6-1.5c-3.8-1.7-7.5-3.5-12.1-5.6 1.9-0.8 3.5-2.1 4.8-1.8 1.5 0.3 2.7 1.8 3.9 2.9 0.2-1.7 0.3-3 0.3-4.2 1.1 0.2 2.3 0.3 3.4 0.5 1.3 0.3 2.6 1 3.8 1.4 0.3 1.4 0.4 2.8 0.9 5.3 1.8-2.2 2.9-3.5 4.5-5.4-0.1 2.3 0.2 4.6-0.3 4.8-4.4 1.5 1 4.5-1 6.2 1.7 0.5 3.4 1.3 5.1 1.6 2.2 0.3 4.4 0.3 6.5 0.6 20.6 3.2 41.4 4.8 62.3 3.7 21.8-1 43.1-4.3 64.3-9.3 22.4-5.4 43.3-15.5 66.3-19.2 6.9-1.1 13.4-5.8 19.8-9.3 1.6-0.9 2.3-3.6 3.7-5.9 1.9-0.8 6.6-1.4 6.9-3 1-4.3 4.2-5.1 6.9-6.9 4.5-3.1 8.8-6.6 13.5-9.2 3.9-2.1 7.1-6.5 12.6-4.8 0.1 0 0.3-0.5 0.5-1-1.1-0.3-2.2-0.6-3.4-1 3.2-2.9 6.8-4.9 9.5-8.2 4.9-5.9 12-9.5 16.9-15.5 4.4-5.3 9.6-10 13.9-15.4 8.2-10.4 16-21.2 24.2-31.6 3.3-4.2 4.2-10.3 10.3-12.3 0.9-0.3 1.2-2.3 1.6-3.6 0.5-1.8 0.4-4 1.2-5.6 6.7-13.8 14.2-27.2 18.7-41.9 2-6.6 5.3-12.9 6.5-19.6 1.2-6.8 6.2-13.2 2.3-20.9-7 19.5-11.7 40-22.3 58 1.7-5.5 4-10.8 5.9-16.3 0.6-1.8-0.3-4.4 0.6-6 2.4-3.9 4.6-7.8 5.7-12.3 2.4-9.3 4.9-18.6 7-27.9 0.5-2.3 0.3-4.7 0.3-7.3 0.6-1.5 1.7-3.3 2.1-5.2 1.3-8.8 2.3-17.8 3.5-26.7 0.4-3.7 0.9-7.5 1.4-12 27.7-7.9 56-16 84.9-24.2-14.4-50.1-28.7-100-43-150.4z"
    p-id="25366"></path>
  <path
    d="M744.4 659.7c10.2-13.2 18.1-27.6 25.5-42.4 0.7-1.3 0.6-3 0.9-4.5-0.6-0.1-1.1-0.2-1.7-0.3-0.4 0.4-1 0.9-1.2 1.4-10.8 22.6-24.6 43.2-41 61.9-3.2 3.6-6.1 7.7-9.7 10.9-4.2 3.6-4.4 3.6-0.3 7.3 1.3-1.9 2.3-4 3.9-5.8 2.5-2.9 5.2-5.8 7.9-8.5 0.5-0.5 1.8-0.3 2.5-0.8 0.9-0.5 1.9-1.2 2.3-2.1 0.4-1-0.2-2.6 0.3-3.4 3.5-4.7 7.2-9.2 10.6-13.7zM401.2 710.2c-1 5.6-0.9 5.9 6.2 8.2 0.3-1 0.8-2.1 1.6-4.4 1.6 2.6 2.5 4.3 3.7 6.2 0.6-5.7-2-7.9-11.5-10zM401.8 765.4c-4.3-1.7-8.5-3.8-12.9-5.4-2.3-0.8-4.9-0.8-7.6-1.1 0.1 2.9 0.2 4.4 0.3 5.9-0.3 0.1-0.5 0.2-0.8 0.3-0.3-1.9-0.4-3.9-1.2-5.7-0.8-1.7-2.2-3.2-3.3-4.8-0.6 3.9-0.3 7.6-0.1 11.4 0.3 6 6.1 10.3 11.5 9.3 1-3.5 2.1-6.6 3-9.6 0.4 0 1-0.1 1.4-0.1 0.5 2.9 1 5.9 1.4 8.3 0.6-0.3 1.6-1 3.4-2 0-0.2 0.2-1.6 0.6-4.3 0.8 3.7 1.2 6.1 1.6 8.4 0.3-1.6 0.5-3.2 0.9-4.8h0.8c0.4 1.4 0.9 2.9 1.6 5.1-0.1-3.2-0.2-5.5-0.2-7.8 0.4-0.1 1-0.3 1.4-0.3 1.1 3 2.3 5.8 3.5 8.7 2.2-7.7 1.8-8.7-5.3-11.5zM423.6 620.8c2.2 11.1 4.9 22.1 7.4 33.6 12.7-3.6 24.1-6.8 35.6-10.1 2.7-0.8 4.3-0.3 6 2 5.9 7.8 12.1 15.4 18.1 23.1 4.4 5.6 4.5 5.6 10.2 1 7.4-5.9 14.9-11.6 22.1-17.7 2.6-2.2 4.5-2.5 7.5-0.7 5.5 3.4 11.2 6.4 16.8 9.5 1.5 0.8 3.1 1 4.9 1.5-1.1-8.4-8.3-10.1-13.6-13.9 6.3-2.4 12.1-4.7 17.8-6.9-0.2-0.5-0.3-1-0.6-1.5-6.1 1.6-12.1 3.6-18.1 4.9-2.1 0.4-4.9 0.4-6.5-0.7-3.9-2.6-6.6-1.7-9.9 1-8.1 6.8-16.4 13.1-25 20-3.6-4.7-7-8.9-10.8-13.8 44.3-12.6 87.8-25 132.2-37.6-0.8 6.3-1.4 11.7-2.1 17.3-2.1-0.2-3.6-0.3-5.2-0.4-9.2-1-18.4-2.3-27.6-3.1-1.9-0.2-4.7 0.2-5.7 1.4-1.4 1.6-1.4 4.3-1.9 6.6-3.1-1.2-9.1 1-9.6 4.2 1.6-0.1 3.3-0.3 5.5-0.4-3.2 5.9-5.7 11.6-9.3 16.6-2.9 4.2-1.9 7 1.6 10.5 4.5-8.2 9-16.3 13.4-24.4 4.8-8.7 4.8-8.6 14.4-7.3 9.8 1.3 19.6 2.3 29.9 3.6 0.4-2.4 1-4.3 1.1-6.3 0.9-7.4 1.6-14.8 2.5-22.1 1.3-11.5 1.4-11.4 12.4-14.6 9-2.5 18-5.2 27.4-7.9-1-3.8-2-7.2-2.9-10.6-0.5-0.3-1-0.5-1.5-0.9-3 7.5-10.2 9.1-15 12.5-2.3-0.3-3.9-0.9-5.2-0.5-5.6 1.5-11.2 3-16.8 4.9-1.2 0.4-2.9 1.8-3 2.9-0.3 3-2 3.8-4.4 4.5-21.8 6.1-43.6 12.3-65.3 18.5-12.6 3.6-25.1 7.3-37.6 10.8 0.1 0.5 0.2 1 0.3 1.6 1.5-0.1 3 0.2 4.4-0.3 23.6-6.7 47.1-13.4 70.7-20 10.1-2.9 20.1-5.7 30.2-8.6 1 7.9 0.7 8.3-5.9 10.2-6.9 2-13.9 4-20.8 5.9-34 9.7-68 19.3-102 29.1-6.7 1.9-7.5 1.6-10.5-5.5 9.7-2.8 19.3-5.6 29-8.4-0.1-0.5-0.2-1-0.3-1.6-1.9 0.2-3.8 0.1-5.6 0.5-7.5 2-14.8 4.2-22.3 6.2-1.6 0.3-4.1 0.2-4.9-0.9-1.8-2.3-3.5-2.1-5.7-1.4-9.6 2.9-19.3 5.6-29.1 8.2-1.4 0.3-2.9 0.2-4.3 0.3-0.1-0.5-0.2-1-0.3-1.6 1.3-0.6 2.6-1.3 4-1.6 4.2-1.2 8.6-2.2 12.7-3.6 0.4-0.2 0.8-0.3 1.1-0.6 0.1 0 0.1-0.1 0.2-0.1 1-0.8 1.9-1.8 2.9-2.7 0.1 0 0.2 0 0.3-0.1 0.1 0 0.1 0 0.2-0.1 1.4 0.2 2.9 0.5 4.3 0.6h0.3c0.5 0 1 0 1.5-0.2 10-2.6 20-5.6 29.9-8.5 1.2-0.3 2.3-1.4 3.4-2.1l-0.6-1.5c-4.2 1.2-8.2 2.3-12.4 3.6-8.8 2.7-17.5 5.4-26.3 8h-0.3l-0.2 0.2c-7.2 1.7-14.3 3.5-21.9 5.3-0.8-2.6-1.4-4.9-2.2-7.5 13.4-3.8 26.3-7.6 39.1-11.2 12.4-3.4 24.5-8 37-11.3-2.3-0.7-4.5-0.9-6.5-0.3-21.8 6.2-43.5 12.4-65.2 18.6-1.6 0.4-3.2 0.7-5.1 1-0.8-2.7-1.4-4.9-2.1-7.5 2.3-0.8 4.3-1.5 6.2-2l63.3-18c48.7-13.8 97.3-27.7 145.9-41.5 1.5-0.4 4.2-1.1 4.4-0.8 1.7 3.5 5 1 8 3.4-1.2-5.1-2.2-8.9-3-12.9 1.1-0.3 1.8-0.6 2.6-0.9 9.9-3.2 20-6.3 29.9-9.5-5-2.1-10-1.2-15.1 0.3-12.1 3.6-24.2 6.7-36.3 9.8-4.2 1-4.3 3.4-3 7.2 4.1-1.3 8-2.3 11.8-3.7 2.9-1.1 4.2-0.5 4.5 3.3-8.9 2.3-18 4.8-27.1 7-0.8 0.2-1.8-0.9-3.9-1.8 4.6-2 8-3.5 11.3-4.9-1-3.5-1.9-4.7-4.2-4.3-0.8 0.1-1.6 0.4-2.8 0.9-2.3 1-4.6 2-7 2.7l-37.2 10.8c0 0.5 0.1 1 0.1 1.6 5.7 0.3 11.5 0.4 16.8 0.7 6.5-3.1 12.4-7.4 21.2-3.6-12.8 3.7-24.8 7.4-37 10.8-15.9 4.4-31.8 8.5-47.7 13-13.1 3.7-26.2 7.9-39.2 11.8-5.1 1.6-10.2 4-15.4 4.2-8.3 0.3-15.5 3.7-23.2 6.4-8.1 2.9-16.3 5-24.5 7.5-1.6-3.1-1.5-4.6 1.6-5.5 13.3-3.7 26.4-7.8 39.7-11.4 11.8-3.2 23.7-5.9 35.5-8.9 1.5-0.3 2.7-1.8 4.1-2.8-0.2-0.3-0.3-0.8-0.6-1.1-2.8 0.3-5.8-0.3-8.2 0.8-4.5 2-10.5-0.3-14 5.4-1 1.5-6 2.4-6.8 1.6-2.8-3.1-5.1-1-7.5-0.3-23.6 6.6-47.2 13.4-70.8 20-3.8 1-7.4 2-7.9 6.9 1-0.2 1.9-0.3 2.8-0.5 6.8-1.9 13.5-3.9 20.3-5.9 4-1.6 5.6-0.6 6.2 2.6zM319.1 641.2c-10.7 1.1-13.4 2.8-12.8 6.9 3.8-0.1 7.5-0.1 11.5-0.2 0-0.3-0.3-1.7-0.2-3 0.2-1.2 0.9-2.3 1.5-3.7zM395.6 750.9c0.2 4.4 6.2 7.8 13.4 8.2-3.2-5.6-9.2-4.9-13.4-8.2zM372.8 765.5c-1.7-15.7-1.8-15.9-11.3-18.7 1.3 3.4 2.4 6.3 3.7 9.8-1.9 1.2-3.9 2.4-5.9 3.6-1.5-6.1-2.8-11.6-4.1-17-0.2-0.6-0.8-1.3-1.3-1.6-6.6-4.5-13.2-9-20-13.6-1 1.9-1.9 3.5-2.7 4.9-1.3-0.9-2.3-1.5-3.1-2 0.8-1.7 1.5-3.4 2.3-5-0.3-0.2-0.5-0.3-0.9-0.4-0.5 0.7-1 1.3-1.5 1.9-0.8-2-1-4.6-2.3-5.9-6.5-5.9-13.3-11.5-20.1-17.2-2.1 2.4-4.1 4.8-6.4 7.5 1.4-9.9-1.2-18.1-9.5-23.9-0.3-0.2-0.3-0.5-0.5-0.8-1.2-1.4-2.9-4.2-3.7-4-4 1.3-3.3-2.1-4.3-3.8-1.2-2-2.2-4.2-3.5-6.1-3-4.3-6.3-8.4-9.5-12.7 4.7-3.2 7.9-2.8 10.6 1.8 1.7 3 4.2 5.5 6.2 8.2 0.4-0.3 1-0.5 1.4-0.7 0.9-5.6-6-7.9-6.8-13.1 7.1-2 14.2-4.1 21.3-6.1 2.8-0.8 4.2-2 2.8-5-0.5 0-1-0.2-1.4 0-13.4 3.8-26.9 7.5-40.3 11.5-1.3 0.3-2.4 2.4-2.9 3.9-0.5 1.7-0.3 3.7-0.3 5.6h0.9c0.2-1.6 0.3-3.3 0.4-4.9 0.4 0 0.9-0.1 1.3-0.1 0.6 4.5 1.6 9 1.8 13.5 0.3 6.6 3.8 10.8 8.5 15.2 0.1-0.8 0.2-1.4 0.2-1.5v0.1c2.2 3.4 4.6 7.2 7 11.1 0.3-0.2 0.7-0.4 1-0.6-0.1-1.5-0.1-3-0.2-4.5 0.4 0 1-0.1 1.4-0.1 0.5 2.8 1 5.6 1.6 8.5 0.7-1.1 1.3-2 1.8-2.9 1.1 2 0.9 3.9 1.6 5.5 0.7 1.6 2 3.2 3.4 4.3 13 11.1 25.9 22.3 39.1 33.2 1.7 1.5 3.5 4.3 6.5 1.8 0.5 0.7 1 1.5 1.4 2.1 0.8-1.3 1.6-2.7 2.9-5.3 1 2.9 2.2 4.5 2.1 6.2-0.2 3.8 1.9 5.6 4.9 7.2 6 3.4 11.7 7.3 17.7 10.6 3.1 1.7 6.7 2.9 10.7 4.5-0.4-2.9-0.7-4.9-1-7.6-0.5 1.1-0.8 1.8-1 2.6z"
    p-id="25367"></path>
  <path
    d="M508.7 622.2c19.3-5.5 38.8-11 59.3-16.8-4.6-1.8-55.9 12.2-59.7 15.4 0.2 0.4 0.3 0.9 0.4 1.4zM574.3 601.7c2.6-0.1 5.3 0.3 7.7-0.3 20.7-5.7 41.4-11.6 62.1-17.5 1.5-0.4 2.7-1.6 4-2.5-0.3-0.4-0.5-0.9-0.7-1.3C623 587 598.6 594 574.3 601c-0.1 0.2-0.1 0.5 0 0.7zM391.9 621.2c-0.4-0.3-0.8-0.5-1.2-0.9-12.3 3.6-24.6 6.9-36.9 10.7-1.6 0.4-2.6 2.5-4.7 4.5 2.3 0.1 3.3 0.3 4.1 0.1 12.2-3.4 24.4-6.8 36.5-10.5 1-0.2 1.5-2.6 2.2-3.9zM383.5 705.8c2.3-5.2-1.6-6.9-5-8.8-1.6 5.7-1 6.6 5 8.8zM651.2 567.5L519.5 605l0.3 1.5c2.3-0.3 4.5-0.2 6.7-0.7 4.1-1 8.2-2.3 12.2-3.4 35.8-10.2 71.6-20.3 107.4-30.5 2-0.6 3.7-2 5.6-3-0.2-0.6-0.4-1-0.5-1.4zM687 540c-0.2 0-0.3 0.1-0.4 0.1 0.1 0 0.2 0.1 0.3 0.1 0-0.1 0.1-0.1 0.1-0.2 0.1 0.1 0.1 0.1 0 0 0.1 0 0.1 0 0.2 0.1h0.1c3.5 0 6.4-0.6 8.7-1.6 0.1 0 0.1-0.1 0.1-0.1 1-0.5 2-1.1 2.7-1.9 0.7-0.8 1.2-1.7 1.4-2.5-4.7 1-9.5 2.1-14.4 3.1 0.3 0.8 0.8 1.8 1.2 2.9zM518.5 584.7c14.2 4 25.7-4.8 39.2-8.7-7.5-0.9-34 5.3-39.2 8.7zM329.8 637.6c-2.7 0.9-5.5 1.7-8.3 2.7l1.8 3.6c8.1-2.2 8.1-2.2 6.5-6.3zM399.6 714.5c0.1-2.3 0.2-5.2-1.2-6.2-3.9-2.8-8.4-4.8-13.2-7.4-0.1 10.6 8.8 10 14.4 13.6zM331.4 715.6c1-5.4-4.5-5.8-6.3-9-3 3-1.4 5.1 6.3 9zM332.2 659.9c-0.8 4.1 0 7.6 3.6 10.6 10.7 8.5 21.2 17.3 31.8 25.9 1 0.8 2.3 1.3 3.6 2 0.6-2.3 1-3.8 1.1-4.6-13.6-11.6-26.8-22.7-40.1-33.9zM340.2 719c-0.8-0.5-1.7-1-2.6-1.4-0.2 1.9 0.1 3.7 1 4.4 8.3 5.8 16.7 11.4 25.2 17.1l1.3-1.3c-1-1.4-1.6-3.1-2.9-4-7.2-5-14.6-9.8-22-14.8zM366.1 736.5c-0.3 4.7 3.1 4.9 5.7 6.5 0.2-3.8 0.2-3.8-5.7-6.5z"
    p-id="25368"></path>
  <path
    d="M380.1 513.3l47.1-12.8-6.4-23.6-27.2 7.4c-14.9 4-26.3 7.5-34.2 10.4l-2.9-10.7c8.1-1.4 20.6-4.3 37.3-8.9 16.7-4.5 28.3-8.1 34.6-10.6 0.6 4.2 1.8 9.6 3.6 16.3l4.3 16.1c1.3 4.7 2.9 9.8 5 15.1l-10.3 2.8-1.7-6.3-47.1 12.8 7.2 26.7c0.7 2.7 1.4 4.5 2 5.4 0.6 0.9 1.7 1.4 3.1 1.3 1.5 0 4.5-0.6 9.1-1.6 4.6-1.1 10.7-2.6 18.2-4.6 7.5-2 12.9-3.7 16.2-5.1 3.2-1.4 5.3-3.2 6.1-5.5 0.8-2.3 1.3-6.8 1.4-13.5 3.2 2.9 6.9 4.3 11.3 4.2-0.4 5.7-1 9.9-1.7 12.6-0.8 2.7-2.1 4.9-4.2 6.6-2 1.7-4.8 3.1-8.3 4.2-3.5 1.1-10 3-19.6 5.6-9.6 2.6-17.1 4.5-22.6 5.6-5.5 1.1-9.4 1.6-11.7 1.3-2.3-0.3-4-1.3-5.1-3.1-1.1-1.8-2.3-5.1-3.6-9.9l-8.1-29.9c-1.8-6.7-3.5-11.7-5.1-14.8 2.3-0.3 6.2-1.1 11.6-2.6 1-0.3 1.5-0.1 1.7 0.4 0.1 0.5 0 1-0.5 1.5s-0.8 1-0.9 1.6c-0.1 0.5 0 1.3 0.3 2.4l1.1 3.2zM477.8 472.3l-8.3 4.1c-2.2-6.1-5.5-12.2-9.8-18.1l7.4-4.4c3.7 6.2 7.3 12.3 10.7 18.4z m5.3 53.6l-8.9-32.7c-4.9 1.3-7.9 2.3-9.2 3.1l-2.1-7.9c2.8-0.3 5.9-0.9 9.3-1.9 3.4-0.9 6.3-1.9 8.7-3 0.3 3.2 1.1 7.5 2.6 12.7l7.6 28c1.2 0.1 4 0.8 8.6 2.1 2.2 0.6 5.9 0.5 11.3-0.2s12.7-2.4 22.1-4.9c9.3-2.5 20-6.2 32-11.1-1.1 4-1.3 7.4-0.8 10.4-7 2-15 4.3-24.1 6.8-9.1 2.5-17.4 4.3-24.8 5.6-7.5 1.2-13.4 1.2-17.7 0-4.3-1.2-7.2-1.6-8.5-1.3-1.4 0.4-2.4 1.4-3.1 3.1-0.7 1.7-1.5 4.6-2.2 8.5-2.3-1.3-5.2-2.4-8.7-3.2 3.2-7.6 5.9-12.3 7.9-14.1z m41.7-72l2 7.5c-3.4 0.3-7.7 1.2-12.9 2.6-5.2 1.4-9.4 2.8-12.5 4.3l-2-7.5c-3.4 5.2-7.8 10.7-13.1 16.6-2.4-2-5.2-3.2-8.3-3.7 12-10.5 19.8-22.6 23.5-36.3 3.6 0.4 7.4 0.5 11.3 0.1 1-0.1 1.6 0.1 1.7 0.5 0.1 0.5-0.1 0.9-0.7 1.3s-1.1 0.7-1.5 0.9c11.8 8.1 24.6 11.1 38.5 8.9-1.3 2.8-2 6.2-2 10-9.1-0.5-17.1-2.2-24-5.2z m-5.5 51.4l-14.1 3.8 3.4 12.6-8.2 2.2c-0.8-4.6-2-9.8-3.5-15.4l-6-22.1c-1-3.7-2-6.6-2.9-8.7 4.1-0.7 8.8-1.7 14.1-3.1 5.2-1.4 10.6-3.1 16-5 0.3 2.8 0.9 5.8 1.8 9l8.4 31.1c0.5 2 0.7 3.5 0.5 4.5-0.2 1-1.1 2-2.6 3s-4.2 2.3-8 4c-1-2.7-2.4-4.8-4.2-6.4 3.3-0.7 5.3-1.5 6-2.1 0.7-0.7 0.8-1.9 0.3-3.6l-1-3.8z m-19.4-15.8l14.1-3.8-1.8-6.6-14.1 3.8 1.8 6.6z m0.1-29.7c2.8-0.2 6.7-1 11.7-2.4 5-1.3 9-2.6 12.1-3.8-5.2-2.3-10.2-5.2-15-8.8-3.3 6.1-6.2 11.1-8.8 15z m15.7 32.2l-14.1 3.8 1.9 7 14.1-3.8-1.9-7z m7.3-21.2c2.7-0.1 5.6-0.6 8.8-1.5 1-0.3 1.6-0.1 1.8 0.4 0.2 0.6 0 1.1-0.6 1.7-0.5 0.6-0.6 1.5-0.2 2.9l3.7 13.8c1.1 3.9 2.4 8.1 4.1 12.7L532 503c-0.9-5-1.8-9.3-2.8-13l-2.2-8.1c-1.4-4.9-2.7-8.6-4-11.1z m13.1-6.7c2-0.2 4-0.6 6.3-1.2l3-0.9c0.9-0.2 1.4-0.1 1.6 0.4 0.1 0.5-0.1 1.1-0.7 2-0.4 0.6-0.4 1.7 0 3.1l9.5 34.9c0.6 2.2 0.8 3.9 0.5 5.1-0.2 1.2-1.1 2.2-2.5 3.2-1.4 0.9-3.9 2.1-7.4 3.4-1.2-2.6-3-4.8-5.6-6.7 1.8-0.2 3.3-0.4 4.4-0.8s1.9-0.8 2.3-1.5c0.4-0.7 0.3-1.8-0.1-3.5l-5.8-21.4c-1.8-6.1-3.6-11.5-5.5-16.1zM571.6 436.3c-1.6-6-3.1-10.2-4.5-12.5 2.3-0.1 5.3-0.6 9-1.6 0.6-0.2 1-0.1 1.1 0.2 0.1 0.3-0.1 0.8-0.5 1.4-0.4 0.7-0.4 1.8 0 3.3l2 7.4 17-4.6c-1.9-7-3.4-11.3-4.4-12.9 3.2-0.2 6.2-0.6 9-1.2 1.1-0.2 1.7-0.1 1.8 0.4 0.1 0.3-0.2 0.8-0.9 1.6-0.6 0.8-0.8 1.9-0.4 3.2l1.9 6.9c2.7-0.9 5.1-1.8 7.2-2.7l2.4 8.9c-1.7 0.2-4.2 0.5-7.6 1.2l11 40.4c3-1.1 5.3-2 6.9-2.8l2.1 7.9c-3.2 0.2-11.2 2-23.8 5.4-12.6 3.4-20.5 5.9-23.5 7.4l-2.1-7.9c3.1-0.3 6.2-0.8 9.5-1.6l-11-40.6c-2.6 0.8-5.5 1.9-8.6 3.2l-2.4-8.9c3.1-0.3 6.2-0.8 8.8-1.5z m18.5 55.1c2.9 1.1 6.1 1.6 9.5 1.7 0.7 0 1 0.1 1.1 0.4 0.1 0.3-0.1 0.6-0.6 0.8-1.3 0.9-2.8 2.9-4.3 6.1-1.6 3.2-3.8 8-6.7 14.6-2.5-1.3-5.5-1.9-8.9-1.8 5.1-5.7 8.4-12.9 9.9-21.8z m-7.1-40.7l17-4.6-2.5-9.2-17 4.6 2.5 9.2z m18.6 1.4l-17 4.6 2.7 9.9 17-4.6-2.7-9.9z m-12.7 20.2l2.7 9.9 17-4.6-2.7-9.9-17 4.6z m34 19.8l-5.2 7c-3.5-3.7-7.5-6.3-12-7.9l4.8-6.1c4.5 1.9 8.6 4.2 12.4 7z m11.6-22.2c2 14.2 0.6 26.5-4.2 36.8-2.1-1.2-5-2-8.8-2.2 3-5.5 4.9-11.7 5.7-18.7 0.8-7-0.9-18.1-5-33.3l-6.3-23.5c-1.3-4.7-2.8-9.2-4.5-13.3 4.3-0.6 10-1.8 17.1-3.7 7.1-1.9 12.7-3.7 16.8-5.4 0.4 3.8 1.4 8.4 2.8 13.8l17.7 65.5c0.7 2.7 1 4.7 0.8 6-0.2 1.3-1.2 2.5-3 3.6s-5.1 2.5-9.9 4.2c-0.7-3-2.5-6-5.5-8.8 2.4-0.4 4.3-0.8 5.8-1.2 1.4-0.4 2.4-0.9 3-1.6 0.6-0.6 0.6-2 0.1-4.1l-5.1-18.9-17.5 4.8z m8.9-36.2l-4.6-17-17 4.6 4.6 17 17-4.6z m-15.2 11.2l5 18.5 17-4.6-5-18.5-17 4.6z"
    p-id="25369"></path>
</svg>