<?xml version="1.0" standalone="no"?>
<!DOCTYPE svg PUBLIC "-//W3C//DTD SVG 1.1//EN" "http://www.w3.org/Graphics/SVG/1.1/DTD/svg11.dtd"><svg t="1636339824652"
  class="icon" viewBox="0 0 1024 1024" version="1.1" xmlns="http://www.w3.org/2000/svg" p-id="1932"
  xmlns:xlink="http://www.w3.org/1999/xlink" width="200" height="200">
  <defs>
    <style type="text/css"></style>
  </defs>
  <path
    d="M864.8 239.7c0-8.8-7.1-15.9-15.9-15.9h-125v-48.2c0-8.8-7.1-15.9-15.9-15.9h-38.6c-8.8 0-15.9 7.1-15.9 15.9v48.2H371.8v-48.2c0-8.8-7.1-15.9-15.9-15.9h-38.6c-8.8 0-15.9 7.1-15.9 15.9v48.2h-125c-8.8 0-15.9 7.1-15.9 15.9V344h704.4V239.7zM744 578.7c-0.1 0-0.2 0-0.4-0.1-0.9-0.1-1.8-0.3-2.7-0.4-0.3 0-0.6-0.1-0.9-0.1-0.8-0.1-1.5-0.2-2.3-0.3-0.4-0.1-0.9-0.1-1.3-0.2-0.7-0.1-1.4-0.1-2-0.2-0.5-0.1-1.1-0.1-1.6-0.1-0.6-0.1-1.2-0.1-1.8-0.1-0.6 0-1.3-0.1-1.9-0.1-0.5 0-1.1-0.1-1.6-0.1-0.8 0-1.5-0.1-2.3-0.1h-4.9c-81.1 0-146.8 65.7-146.8 146.8v4.7c0 0.8 0.1 1.5 0.1 2.2 0 0.5 0.1 1 0.1 1.5 0 0.6 0.1 1.3 0.1 1.9 0 0.6 0.1 1.1 0.1 1.7 0 0.5 0.1 1 0.1 1.5 0.1 0.7 0.1 1.4 0.2 2v0.1c7.8 73.7 70.2 131.1 146 131.1 81.1 0 146.8-65.7 146.8-146.8 0-73-53.2-133.5-123-144.9z m-39.3 51.9c0-3.5 2.8-6.3 6.3-6.3h15c3.5 0 6.3 2.8 6.3 6.3v79.2h69.2c3.5 0 6.3 2.8 6.3 6.3v15.1c0 3.5-2.8 6.3-6.3 6.3H711c-3.5 0-6.3-2.8-6.3-6.3V630.6z"
    p-id="1933"></path>
  <path
    d="M720.2 506.3c55.6 0 106.1 21.1 144.6 55.6V408H160.4v440.4c0 8.8 7.1 15.9 15.9 15.9H555c-32.4-38-52.1-87.1-52.1-140.8 0-119.7 97.5-217.2 217.3-217.2z"
    p-id="1934"></path>
</svg>