<?xml version="1.0" standalone="no"?>
<!DOCTYPE svg PUBLIC "-//W3C//DTD SVG 1.1//EN" "http://www.w3.org/Graphics/SVG/1.1/DTD/svg11.dtd"><svg t="1636365942373"
  class="icon" viewBox="0 0 1024 1024" version="1.1" xmlns="http://www.w3.org/2000/svg" p-id="10509"
  xmlns:xlink="http://www.w3.org/1999/xlink" width="200" height="200">
  <defs>
    <style type="text/css"></style>
  </defs>
  <path
    d="M144.256 981.333333A58.112 58.112 0 0 1 85.333333 921.258667V145.322667a58.069333 58.069333 0 0 1 58.922667-60.074667h67.242667V381.013333a20.096 20.096 0 0 0 20.992 21.333334h432.938666a20.096 20.096 0 0 0 20.992-21.333334V85.248h84.053334L938.666667 278.186667v643.072A58.112 58.112 0 0 1 879.829333 981.333333z m63.061333-454.442666v338.645333a33.408 33.408 0 0 0 33.621334 34.133333h554.666666a33.408 33.408 0 0 0 33.621334-34.133333v-338.645333a33.450667 33.450667 0 0 0-33.621334-34.346667h-554.666666a33.536 33.536 0 0 0-33.664 34.389333z m99.114667 299.946666a28.672 28.672 0 0 1-29.056-29.866666 28.757333 28.757333 0 0 1 29.056-29.866667h415.402667a28.885333 28.885333 0 0 1 29.184 29.866667 28.757333 28.757333 0 0 1-29.184 29.866666z m0-154.368a28.672 28.672 0 0 1-29.056-29.866666 28.714667 28.714667 0 0 1 29.056-29.866667h415.402667a28.8 28.8 0 0 1 29.184 29.866667 28.757333 28.757333 0 0 1-29.184 29.866666z m29.866667-309.845333a38.144 38.144 0 0 1-38.4-38.4v-174.933333a38.144 38.144 0 0 1 38.4-38.4h230.4a38.4 38.4 0 0 1 38.4 38.4v174.933333a38.4 38.4 0 0 1-38.4 38.4z"
    p-id="10510"></path>
</svg>