<?xml version="1.0" standalone="no"?><!DOCTYPE svg PUBLIC "-//W3C//DTD SVG 1.1//EN" "http://www.w3.org/Graphics/SVG/1.1/DTD/svg11.dtd"><svg t="1634010743994" class="icon" viewBox="0 0 1024 1024" version="1.1" xmlns="http://www.w3.org/2000/svg" p-id="12475" xmlns:xlink="http://www.w3.org/1999/xlink" width="200" height="200"><defs><style type="text/css"></style></defs><path d="M512 0C233.248 0 6.528 222.752 0.16 499.968 6.08 258.112 189.984 64 416 64c229.76 0 416 200.576 416 448a96 96 0 1 0 192 0c0-282.784-229.216-512-512-512z m0 1024c278.752 0 505.472-222.752 511.84-499.968C1017.92 765.888 834.016 960 608 960c-229.76 0-416-200.576-416-448a96 96 0 1 0-192 0c0 282.784 229.216 512 512 512z" p-id="12476"></path></svg>