<?xml version="1.0" standalone="no"?>
<!DOCTYPE svg PUBLIC "-//W3C//DTD SVG 1.1//EN" "http://www.w3.org/Graphics/SVG/1.1/DTD/svg11.dtd"><svg t="1634888070953"
  class="icon" viewBox="0 0 1024 1024" version="1.1" xmlns="http://www.w3.org/2000/svg" p-id="12771"
  xmlns:xlink="http://www.w3.org/1999/xlink" width="200" height="200">
  <defs>
    <style type="text/css"></style>
  </defs>
  <path
    d="M686.389 122c38.525 0 69.755 31.22 69.755 69.732v641.536c0 38.512-31.23 69.732-69.755 69.732H337.61c-38.525 0-69.755-31.22-69.755-69.732V191.732c0-38.512 31.23-69.732 69.755-69.732H686.39zM512 762.04c-29.238 0-52.94 23.695-52.94 52.923 0 29.229 23.702 52.923 52.94 52.923 29.238 0 52.94-23.694 52.94-52.923 0-29.228-23.702-52.922-52.94-52.922z m438.795-487.943c12.145 12.12 12.284 31.717 0.404 44.015l-0.363 0.37-56.172 56.291 55.082 55.198a31.9 31.9 0 0 1 1.05 1c12.144 12.12 12.283 31.717 0.403 44.015l-0.363 0.37-56.172 56.291 55.084 55.2a31.9 31.9 0 0 1 1.047 0.999c12.145 12.119 12.284 31.716 0.404 44.014l-0.363 0.37-56.172 56.292 56.153 56.272c12.119 12.145 12.216 31.742 0.31 44.015l-0.365 0.37c-12.15 12.123-31.747 12.226-44.015 0.324l-0.37-0.365-78.27-78.437c-12.1-12.126-12.218-31.688-0.355-43.967l0.363-0.37L884.26 610.1l-56.151-56.272c-12.1-12.126-12.219-31.688-0.356-43.967l0.363-0.37 56.144-56.265-56.151-56.272c-12.1-12.127-12.219-31.688-0.356-43.967l0.363-0.37 78.296-78.464c12.245-12.271 32.117-12.296 44.384-0.055z m-877.59 0c12.267-12.24 32.139-12.216 44.384 0.055l78.296 78.464 0.363 0.37c11.863 12.279 11.745 31.84-0.356 43.967l-56.151 56.272 56.144 56.265 0.363 0.37c11.863 12.279 11.745 31.84-0.356 43.967L139.741 610.1l56.144 56.265 0.363 0.37c11.863 12.28 11.745 31.84-0.356 43.967l-78.269 78.437-0.37 0.365c-12.268 11.902-31.866 11.799-44.015-0.324l-0.364-0.37c-11.907-12.273-11.81-31.87 0.31-44.015l56.152-56.272-56.172-56.292-0.363-0.37c-11.88-12.298-11.741-31.895 0.404-44.014a31.9 31.9 0 0 1 1.047-0.999l55.084-55.2-56.172-56.29-0.363-0.371c-11.88-12.298-11.741-31.896 0.404-44.014a31.9 31.9 0 0 1 1.049-1l55.082-55.199-56.172-56.29-0.363-0.371c-11.88-12.298-11.741-31.896 0.404-44.015z m613.401-89.338H337.611a6.98 6.98 0 0 0-6.975 6.756v528.438a6.98 6.98 0 0 0 6.758 6.973h348.995a6.98 6.98 0 0 0 6.975-6.756V191.732a6.98 6.98 0 0 0-6.758-6.973z"
    p-id="12772"></path>
</svg>