<?xml version="1.0" standalone="no"?><!DOCTYPE svg PUBLIC "-//W3C//DTD SVG 1.1//EN" "http://www.w3.org/Graphics/SVG/1.1/DTD/svg11.dtd"><svg t="1626934337215" class="icon" viewBox="0 0 1024 1024" version="1.1" xmlns="http://www.w3.org/2000/svg" p-id="37503" xmlns:xlink="http://www.w3.org/1999/xlink" width="200" height="200"><defs><style type="text/css"></style></defs><path d="M928.768 941.056H105.472L30.72 146.432h972.8z" fill="#66C1FF" p-id="37504"></path><path d="M943.104 956.416H91.136L14.336 131.072h1006.592l-77.824 825.344z m-824.32-30.72h796.672l71.68-763.904H47.104l71.68 763.904z" fill="#330867" p-id="37505"></path><path d="M517.12 146.432s88.064-93.184 463.872 4.096l-84.992 790.528S686.08 831.488 541.696 932.864c-5.12 3.072-11.264 0-11.264-6.144l-13.312-780.288z" fill="#FFFFFF" p-id="37506"></path><path d="M904.192 956.416l-13.312-6.144c-2.048-1.024-206.848-105.472-344.064-9.216-5.12 4.096-12.288 4.096-18.432 1.024-6.144-3.072-9.216-9.216-9.216-15.36l-13.312-784.384 3.072-3.072c4.096-4.096 97.28-96.256 474.112 1.024l8.192 2.048-87.04 814.08z m-215.04-77.824c87.04 0 166.912 31.744 197.632 46.08l82.944-768c-320.512-80.896-424.96-20.48-442.368-7.168l12.288 770.048c47.104-29.696 99.328-40.96 149.504-40.96z" fill="#330867" p-id="37507"></path><path d="M509.952 141.312s-91.136-91.136-463.872 14.336l88.064 778.24c1.024 7.168 8.192 12.288 15.36 10.24 51.2-18.432 236.544-76.8 364.544-7.168l-4.096-795.648z" fill="#FFFFFF" p-id="37508"></path><path d="M146.432 953.344c-4.096 0-8.192-1.024-11.264-3.072-6.144-3.072-9.216-9.216-10.24-16.384L35.84 147.456l8.192-2.048c374.784-105.472 470.016-15.36 474.112-11.264l3.072 3.072 5.12 816.128-15.36-8.192c-124.928-67.584-305.152-11.264-357.376 7.168-2.048 1.024-4.096 1.024-7.168 1.024zM57.344 162.816L145.408 931.84c0 1.024 0 1.024 1.024 1.024h1.024c52.224-18.432 227.328-73.728 357.376-14.336l-5.12-773.12C482.304 133.12 375.808 74.752 57.344 162.816z" fill="#330867" p-id="37509"></path><path d="M212.992 409.6h56.32v20.48c5.12-13.312 13.312-19.456 24.576-20.48h93.184c29.696 1.024 45.056 15.36 46.08 44.032v22.528c1.024 29.696-15.36 45.056-50.176 46.08 33.792 2.048 51.2 18.432 50.176 48.128V593.92c-1.024 29.696-16.384 44.032-46.08 44.032h-91.136c-14.336-1.024-23.552-8.192-27.648-20.48v20.48h-55.296V409.6z m56.32 105.472h95.232c7.168 1.024 11.264-4.096 11.264-15.36V440.32c0-10.24-4.096-15.36-11.264-15.36h-74.752c-14.336 1.024-20.48 8.192-20.48 20.48v69.632z m22.528 107.52h73.728c7.168 1.024 11.264-4.096 11.264-15.36v-61.44c0-11.264-4.096-16.384-11.264-16.384h-95.232v70.656c-1.024 15.36 6.144 22.528 21.504 22.528z" fill="#E8B32E" p-id="37510"></path><path d="M387.072 653.312h-91.136c-4.096 0-8.192-1.024-12.288-2.048v2.048h-86.016V394.24h87.04v1.024c3.072-1.024 5.12-1.024 8.192-1.024h94.208c37.888 1.024 59.392 22.528 61.44 59.392v22.528c1.024 17.408-4.096 31.744-14.336 41.984l-4.096 4.096c16.384 14.336 18.432 33.792 18.432 48.128V593.92c-1.024 37.888-23.552 59.392-61.44 59.392z m-158.72-30.72h24.576v-94.208l1.024 4.096V424.96h-25.6v197.632z m162.816-84.992c0 3.072 1.024 5.12 1.024 9.216v61.44c0 6.144-1.024 11.264-2.048 15.36 19.456 0 27.648-9.216 28.672-29.696v-23.552c-1.024-15.36-4.096-28.672-27.648-32.768z m-106.496 8.192v55.296c0 6.144 0 7.168 7.168 7.168h69.632v-60.416-1.024h-76.8zM389.12 424.96c2.048 4.096 3.072 9.216 3.072 15.36V505.856c9.216-1.024 16.384-4.096 20.48-8.192 4.096-4.096 6.144-11.264 6.144-20.48v-22.528c-2.048-20.48-10.24-28.672-29.696-29.696z m-104.448 74.752h75.776V440.32h-69.632c-6.144 0-6.144 1.024-6.144 5.12v54.272z" fill="#330867" p-id="37511"></path><path d="M713.728 309.248H594.944c-18.432 0-33.792-15.36-33.792-33.792v-51.2c0-18.432 15.36-33.792 33.792-33.792h118.784c18.432 0 33.792 15.36 33.792 33.792v51.2c0 19.456-15.36 33.792-33.792 33.792z" fill="#FC6B79" p-id="37512"></path><path d="M713.728 324.608H594.944c-26.624 0-49.152-21.504-49.152-49.152v-51.2c0-26.624 21.504-49.152 49.152-49.152h118.784c26.624 0 49.152 21.504 49.152 49.152v51.2c0 27.648-22.528 49.152-49.152 49.152zM594.944 205.824c-10.24 0-18.432 8.192-18.432 18.432v51.2c0 10.24 8.192 18.432 18.432 18.432h118.784c10.24 0 18.432-8.192 18.432-18.432v-51.2c0-10.24-8.192-18.432-18.432-18.432H594.944z" fill="#330867" p-id="37513"></path><path d="M925.696 261.12H821.248c-6.144 0-11.264-5.12-11.264-11.264 0-6.144 5.12-11.264 11.264-11.264h104.448c6.144 0 11.264 5.12 11.264 11.264 0 6.144-5.12 11.264-11.264 11.264z" fill="#FEB000" p-id="37514"></path><path d="M925.696 335.872H821.248c-6.144 0-11.264-5.12-11.264-11.264 0-6.144 5.12-11.264 11.264-11.264h104.448c6.144 0 11.264 5.12 11.264 11.264 0 6.144-5.12 11.264-11.264 11.264z" fill="#FEB000" p-id="37515"></path><path d="M925.696 490.496c-30.72 0-96.256-12.288-195.584-37.888-112.64-27.648-162.816-1.024-162.816-1.024-5.12 3.072-11.264 1.024-14.336-4.096-3.072-5.12-1.024-11.264 4.096-14.336 2.048-1.024 57.344-31.744 178.176-1.024 121.856 30.72 171.008 36.864 190.464 36.864 6.144 0 10.24 4.096 10.24 10.24s-5.12 11.264-10.24 11.264z" fill="#FEB000" p-id="37516"></path><path d="M884.736 586.752c-27.648 0-86.016-12.288-174.08-37.888-98.304-27.648-143.36-1.024-143.36-1.024-5.12 3.072-11.264 2.048-14.336-3.072-3.072-5.12-2.048-11.264 3.072-14.336 2.048-1.024 51.2-31.744 159.744-1.024 107.52 30.72 151.552 36.864 168.96 36.864 6.144 0 10.24 4.096 10.24 10.24s-5.12 10.24-10.24 10.24z" fill="#FEB000" p-id="37517"></path><path d="M884.736 698.368c-27.648 0-86.016-12.288-174.08-37.888-98.304-27.648-143.36-1.024-143.36-1.024-5.12 3.072-11.264 2.048-14.336-3.072-3.072-5.12-2.048-11.264 3.072-14.336 2.048-1.024 51.2-31.744 159.744-1.024 107.52 30.72 151.552 36.864 168.96 36.864 6.144 0 10.24 4.096 10.24 10.24s-5.12 10.24-10.24 10.24z" fill="#FEB000" p-id="37518"></path><path d="M884.736 809.984c-27.648 0-86.016-12.288-174.08-37.888-98.304-27.648-143.36-1.024-143.36-1.024-5.12 3.072-11.264 2.048-14.336-3.072-3.072-5.12-2.048-11.264 3.072-14.336 2.048-1.024 51.2-31.744 159.744-1.024 107.52 30.72 151.552 36.864 168.96 36.864 6.144 0 10.24 4.096 10.24 10.24s-5.12 10.24-10.24 10.24z" fill="#FEB000" p-id="37519"></path></svg>