<?xml version="1.0" standalone="no"?><!DOCTYPE svg PUBLIC "-//W3C//DTD SVG 1.1//EN" "http://www.w3.org/Graphics/SVG/1.1/DTD/svg11.dtd"><svg t="1626934080831" class="icon" viewBox="0 0 1024 1024" version="1.1" xmlns="http://www.w3.org/2000/svg" p-id="25049" xmlns:xlink="http://www.w3.org/1999/xlink" width="200" height="200"><defs><style type="text/css"></style></defs><path d="M174 702.1c-11.8-18.6-56.8-89.2-36.7-166 12.3-47.1 53.2-46.7 80.9-107.8 23-50.7 6.8-68.5 23.5-104.1 37.6-80 168-92.9 223.5-98.4 49.3-4.9 183.8-18.2 286.8 69.3 28.5 24.2 68.2 57.9 74.5 109.3 8.7 71.6-63.9 94.5-85.6 196.2-23.4 110 25.9 147.5-7 201.4-66.7 109.2-334.6 39.4-351.4 35-58.3-15.6-151.7-45.9-208.5-134.9z" fill="#4181FC" p-id="25050"></path><path d="M206.1 734c-11.8-18.6-56.8-89.2-36.7-166 12.3-47.1 53.2-46.7 80.9-107.8 23-50.7 6.8-68.5 23.5-104.1 37.6-80 168-92.9 223.5-98.4 49.3-4.9 183.8-18.2 286.8 69.3 28.5 24.2 68.2 57.9 74.5 109.3 8.7 71.6-63.9 94.5-85.6 196.2-23.4 110 25.9 147.5-7 201.4-66.7 109.2-334.6 39.4-351.4 35-58.4-15.5-151.8-45.8-208.5-134.9z" fill="#3F71FC" p-id="25051"></path><path d="M835.2 408.8c8.7 71.6-63.9 94.5-85.6 196.2-23.4 110 25.9 147.5-7 201.4C676 915.7 408 846 391.3 841.5c-48-12.8-119.7-35.7-175.2-92.9 57.2 77.8 143.4 105.7 198.5 120.4 16.7 4.5 284.7 74.3 351.4-35 32.9-53.9-16.4-91.5 7-201.4 21.7-101.8 94.3-124.6 85.6-196.2-4.3-35-24.1-61.8-45.4-83 11 15.8 19.4 34.1 22 55.4z" fill="#4181FC" p-id="25052"></path><path d="M795.4 748.5c0.5-3.8-1.3-7.6-5-9.7-0.6-0.3-5.8-2.9-14.2-6.6 7.9-67.7 18-189.6 1.2-271.2 4.9-0.2 9-3.4 9.6-8.1l1.9-15.9c5.4 0.5 10.2-3.1 10.8-8.2l5.1-41.9c0.6-5.1-3.2-9.7-8.5-10.6l1.9-15.9c0.6-5.3-3.3-10-8.9-10.7l-100.6-12.3c-5.5-0.7-10.5 3-11.2 8.2l-1.9 15.9c-5.4-0.4-10.2 3.1-10.8 8.2l-5.1 41.9c-0.6 5.1 3.1 9.7 8.5 10.6l-1.3 10.7-52.5-6.4 1.7-13.7c0.7-5.3-3-10.2-8.2-10.8l-19.2-2.3c-5.1-0.6-9.8 3.2-10.5 8.5l-1.7 13.7-54.3-6.6 1.3-10.7c5.4 0.5 10.2-3.1 10.8-8.2l5.1-41.9c0.6-5.1-3.2-9.7-8.5-10.6L533 328c0.6-5.3-3.3-10-8.9-10.7L423.5 305c-5.6-0.7-10.6 3-11.2 8.2l-1.9 15.9c-5.4-0.4-10.2 3.1-10.8 8.2l-5.1 41.9c-0.6 5.1 3.2 9.7 8.5 10.6l-1.9 15.9c-0.6 4.9 2.9 9.3 7.9 10.4-35.5 75-55.6 195.9-64.6 263.5-8.3 1.3-13.7 2.4-14.5 2.6-4.4 0.7-7.4 4.1-7.9 8-0.1 0.2-0.2 0.3-0.2 0.5l-6.6 54.2c-0.4 3.4 1.2 6.9 4.2 8.9 1.4 1 28.7 23 97.6 31.4 70.3 8.6 100.4-6.8 102.8-8.7 2-1.6 3.3-3.8 3.6-6.2l6.6-54.2v-0.1c0.5-3.8-1.3-7.6-4.9-9.7-0.6-0.3-5.9-2.9-14.2-6.6 3.7-31.7 7.8-75.2 9.5-120.9l36.6 4.5-1.7 13.6c-0.7 5.4 3 10.2 8.1 10.8l19.2 2.3c5.2 0.6 9.9-3.1 10.5-8.5l1.7-13.6 35.3 4.3c-9.5 44.8-16.2 88.1-20.4 119.8-8.3 1.3-13.7 2.4-14.5 2.6-4.4 0.7-7.4 4.1-8 8 0 0.2-0.2 0.3-0.2 0.5l-6.6 54.2c-0.4 3.4 1.2 6.9 4.2 8.9 1.4 1 28.7 23 97.6 31.4 70.3 8.6 100.4-6.8 102.8-8.7 2-1.6 3.3-3.8 3.6-6.2l6.6-54.2c0.2 0.1 0.2 0.1 0.2 0z m0 0" fill="#313145" p-id="25053"></path><path d="M425.4 373.501l2.798-22.93 80.503 9.828-2.8 22.93z" fill="#FCA360" p-id="25054"></path><path d="M433.9 432c14 1 33.6 3.2 47.4 5.5 15.6 83.5 4.1 211.7-3.2 274-16.5 1.7-35.8 2.6-53 0.5-17.6-2.1-37-7.9-53.2-13.7 0.1-1 0.2-1.7 0.3-2.8 7.7-63.1 26.7-187.4 61.7-263.5z m0 0" fill="#FD595E" p-id="25055"></path><path d="M494.4 757.1c-13.5 2.6-38.2 4.7-74 0.3-38.3-4.7-60.5-13.4-73.5-19.8l2.7-22.4c19.5 7.8 46.5 17.9 73.3 21.2 25 3 54.8 0.9 74.2-2l-2.7 22.7z m0 0" fill="#FCA360" p-id="25056"></path><path d="M560.4 555l-39.3-4.8c0.4-37.2-1.2-74.5-6.4-106.9l58.5 7.1L560.4 555z m0 0" fill="#8557DA" p-id="25057"></path><path d="M690.708 405.911l2.8-22.93 80.502 9.828-2.8 22.93z" fill="#FCA360" p-id="25058"></path><path d="M699.2 464.4c14 1 33.6 3.2 47.4 5.5 15.7 83.5 4.1 211.7-3.2 274-16.5 1.7-35.8 2.6-53 0.5-17.6-2.2-37-7.9-53.2-13.7l0.3-2.8c7.7-63.1 26.7-187.4 61.7-263.5z" fill="#FD595E" p-id="25059"></path><path d="M598.3 559.6L611.1 455l57.3 7c-12.7 30.1-23.3 66-31.9 102.2l-38.2-4.6z" fill="#8557DA" p-id="25060"></path><path d="M759.7 789.5c-13.5 2.6-38.2 4.7-74 0.3-38.3-4.7-60.5-13.4-73.5-19.8l2.7-22.4c19.6 7.8 46.6 17.9 73.3 21.2 25 3 54.8 0.9 74.2-2l-2.7 22.7z m0 0" fill="#FCA360" p-id="25061"></path><path d="M558.1 472.3l47.4 214.5c2 9-3.8 18.1-12.9 20.1L263 779.8c-9.1 2-18.2-3.8-20.2-12.8l-47.4-214.5c-2-9 3.8-18 12.9-20l82.6-18.3 9.5-38.5c2.2-9 11.4-18.1 20.6-20.1l82.4-18.2c9.1-2 21.3 2.2 27.2 9.4l25.3 30.9 82.1-18.2c9.1-1.9 18.1 3.9 20.1 12.8z" fill="#313145" p-id="25062"></path><path d="M519.6 532.8c9.1-2 14.8-11 12.8-20.1-2-9.1-11-14.9-20.1-12.8-9.1 2-14.9 11-12.8 20.1 2 9.1 11 14.8 20.1 12.8z" fill="#8557DA" p-id="25063"></path><path d="M230.9 713.088l362.75-80.154 1.899 8.592-362.75 80.155zM234.284 728.542l362.75-80.155 0.95 4.297-362.75 80.154zM236.783 739.63l362.75-80.153 0.95 4.296-362.75 80.154z" fill="#FD595E" p-id="25064"></path><path d="M418.7 702.1C464.2 692 493 647 482.9 601.5c-10.1-45.5-55.1-74.3-100.6-64.2-45.5 10.1-74.3 55.1-64.2 100.6 10 45.5 55.1 74.2 100.6 64.2z" fill="#FD595E" p-id="25065"></path><path d="M413.2 677.3c31.9-7 52-38.6 44.9-70.4-7-31.9-38.6-52-70.4-44.9-31.9 7-52 38.6-44.9 70.4 7 31.9 38.6 52 70.4 44.9z" fill="#F4F4F4" p-id="25066"></path><path d="M408.9 657.9a39.27 39.27 0 0 0 29.8-46.7 39.27 39.27 0 0 0-46.7-29.8 39.27 39.27 0 0 0-29.8 46.7 39.27 39.27 0 0 0 46.7 29.8z" fill="#FD595E" p-id="25067"></path><path d="M415.3 478.1l-88.1 19.5 0.3-11.4c0.2-7.4 5.4-13.8 12.7-15.4l52-11.5c7.2-1.6 14.7 1.9 18 8.6l5.1 10.2z" fill="#F4F4F4" p-id="25068"></path><path d="M612.5 270.6c5.7 6.5 5.1 16.4-1.4 22.2-6.5 5.7-16.4 5.1-22.2-1.4s-5.1-16.4 1.4-22.2a15.7 15.7 0 0 1 22.2 1.4z m-17.2 15.1c2.6 3 7.1 3.3 10.1 0.7 3-2.6 3.3-7.1 0.7-10.1-2.6-3-7.1-3.3-10.1-0.7-3 2.6-3.3 7.1-0.7 10.1z" fill="#FFFFFF" p-id="25069"></path><path d="M600.5 815.6c5.7 6.5 5.1 16.4-1.4 22.2-6.5 5.7-16.4 5.1-22.2-1.4-5.7-6.5-5.1-16.4 1.4-22.2a15.7 15.7 0 0 1 22.2 1.4z m-17.2 15.1c2.6 3 7.1 3.3 10.1 0.7 3-2.6 3.3-7.1 0.7-10.1-2.6-3-7.1-3.3-10.1-0.7-3 2.6-3.3 7.1-0.7 10.1z" fill="#FFFFFF" p-id="25070"></path><path d="M296.5 286.6c5.7 6.5 5.1 16.4-1.4 22.2-6.5 5.7-16.4 5.1-22.2-1.4-5.7-6.5-5.1-16.4 1.4-22.2a15.7 15.7 0 0 1 22.2 1.4z m-17.2 15.1c2.6 3 7.1 3.3 10.1 0.7 3-2.6 3.3-7.1 0.7-10.1-2.6-3-7.1-3.3-10.1-0.7-3 2.6-3.3 7.1-0.7 10.1z" fill="#FFFFFF" p-id="25071"></path><path d="M270.8 422c0.9 1 0.8 2.5-0.2 3.3l-11.3 9.9c-1 0.9-2.5 0.8-3.3-0.2-0.9-1-0.8-2.5 0.2-3.3l11.3-9.9c0.9-0.9 2.4-0.8 3.3 0.2zM299.5 396.8c0.9 1 0.8 2.5-0.2 3.3L288 410c-1 0.9-2.5 0.8-3.3-0.2-0.9-1-0.8-2.5 0.2-3.3l11.3-9.9c0.9-0.9 2.4-0.8 3.3 0.2z" fill="#FFFFFF" p-id="25072"></path><path d="M261.9 394.4l9.9 11.3c0.9 1 0.8 2.5-0.2 3.3-1 0.9-2.5 0.8-3.3-0.2l-9.9-11.3c-0.9-1-0.8-2.5 0.2-3.3 1-0.9 2.5-0.8 3.3 0.2zM287.1 423l9.9 11.3c0.9 1 0.8 2.5-0.2 3.3-1 0.9-2.5 0.8-3.3-0.2l-9.9-11.3c-0.9-1-0.8-2.5 0.2-3.3 0.9-0.8 2.4-0.7 3.3 0.2z" fill="#FFFFFF" p-id="25073"></path><path d="M432.8 848c0.9 1 0.8 2.5-0.2 3.3l-11.3 9.9c-1 0.9-2.5 0.8-3.3-0.2-0.9-1-0.8-2.5 0.2-3.3l11.3-9.9c0.9-0.9 2.4-0.8 3.3 0.2zM461.5 822.8c0.9 1 0.8 2.5-0.2 3.3L450 836c-1 0.9-2.5 0.8-3.3-0.2-0.9-1-0.8-2.5 0.2-3.3l11.3-9.9c0.9-0.9 2.4-0.8 3.3 0.2z" fill="#FFFFFF" p-id="25074"></path><path d="M423.9 820.4l9.9 11.3c0.9 1 0.8 2.5-0.2 3.3-1 0.9-2.5 0.8-3.3-0.2l-9.9-11.3c-0.9-1-0.8-2.5 0.2-3.3 1-0.9 2.5-0.8 3.3 0.2zM449.1 849l9.9 11.3c0.9 1 0.8 2.5-0.2 3.3-1 0.9-2.5 0.8-3.3-0.2l-9.9-11.3c-0.9-1-0.8-2.5 0.2-3.3 0.9-0.8 2.4-0.7 3.3 0.2z" fill="#FFFFFF" p-id="25075"></path></svg>