<?xml version="1.0" standalone="no"?><!DOCTYPE svg PUBLIC "-//W3C//DTD SVG 1.1//EN" "http://www.w3.org/Graphics/SVG/1.1/DTD/svg11.dtd"><svg t="1626934164278" class="icon" viewBox="0 0 1024 1024" version="1.1" xmlns="http://www.w3.org/2000/svg" p-id="30998" xmlns:xlink="http://www.w3.org/1999/xlink" width="200" height="200"><defs><style type="text/css"></style></defs><path d="M673.8 529.2c-100.6 49-230.4 46.5-331.7-1.1l-1.5-0.4c3.7-85.4 7.4-136.4 11.2-221.8h2.8c28.5-13.2 50.8-33.5 63.8-62.1l21.7-5.2c41.5 26.2 98 26.2 139.6 0.2l18.7 5c13 28.6 35.3 48.9 63.8 62.1h2.8c3.7 85.4 7.4 136.4 11.2 221.8l-2.4 1.5z" fill="#FE9191" p-id="30999"></path><path d="M511.9 837.1l9 25.5 4.4 16.7c65.1 3.8 130.8-3.5 193.4-21.4l18.4-4.8C714 743.5 697.5 698.5 674.4 589L660 573.3c-91.4 36.4-205.9 37.5-297.3 1L348.6 589c-23.1 109.5-39.6 154.5-62.7 264l18.4 4.8c62.7 18 128.4 25.2 193.4 21.4l4.4-16.7 9-25.5" fill="#FE9191" p-id="31000"></path><path d="M664.8 305.8H662c-28.5-13.2-50.8-33.5-63.8-62.1 0 0-17.3-4.2-18.7-5l-10.9-25.4c-37.2 18.5-82.9 19-120.5 1.3l-8.2 23.9c31.7 20 72.2 24.7 108.1 14.2 13.3 23.9 33.8 41.2 59.2 53.1h2.8c3.7 85.4 7.4 136.4 11.2 221.8l-2.2 1.6c-41.4 20.2-87.7 31.6-134.9 34.8 65.6 4.4 132.4-6.8 189.7-34.8l2.2-1.6c-3.8-85.4-7.5-136.4-11.2-221.8zM674.4 589L660 573.3c-13.6 5.4-27.7 10-42.1 13.8l1.7 1.9c23.1 109.5 39.6 154.6 62.7 264.1l-18.4 4.8c-43.1 12.4-87.7 19.7-132.5 21.8 63 3 126.6-4.4 187.2-21.8l18.4-4.8c-23-109.6-39.5-154.6-62.6-264.1z" fill="#E4406F" p-id="31001"></path><path d="M401.6 135.2c5.7 29.5 11.4 59 17 88.5 1.8 9.2 15.9 5.3 14.1-3.9-5.7-29.5-11.4-59-17-88.5-1.8-9.3-15.9-5.4-14.1 3.9zM600.8 131.3c-5.7 29.5-11.4 59-17 88.5-1.8 9.2 12.3 13.1 14.1 3.9 5.7-29.5 11.4-59 17-88.5 1.8-9.2-12.3-13.2-14.1-3.9zM436.3 244.9c44.1 27.4 102.8 27.5 147 0.2 8-4.9 0.7-17.6-7.4-12.6-39.9 24.6-92.4 24.5-132.2-0.2-8.1-5.1-15.4 7.6-7.4 12.6z" fill="#9C297F" p-id="31002"></path><path d="M683.3 527.6c-2.5-56.5-5.8-113-8.7-169.5-0.9-17.4-1.7-34.9-2.5-52.3-0.2-4.8-4.1-7.1-7.9-7-26.2-12.7-47.3-32-59.7-58.7-3.9-8.5-16.6-1.1-12.6 7.4 13.4 29 37.2 50.8 65.8 64.4 2.4 54.5 5.7 109 8.4 163.4 0.8 16.1 1.6 32.2 2.3 48.3-78.1 37.3-170.5 42.9-254 22.2-22.8-5.6-45-13.3-66.4-23 2.4-54.9 5.7-109.7 8.5-164.6 0.8-15.4 1.5-30.8 2.2-46.3 28.6-13.6 52.4-35.4 65.8-64.4 3.9-8.5-8.7-15.9-12.6-7.4-12.3 26.7-33.5 46.1-59.7 58.7-3.7-0.1-7.7 2.2-7.9 7-2.5 56.5-5.8 113-8.7 169.5-0.9 17.4-1.7 34.9-2.5 52.3-0.2 4.1 2.5 6.4 5.6 6.9 82.4 38.4 178.5 47.9 266.8 26.6 24.8-6 48.9-14.6 71.8-25.7 0.9-0.4 1.6-0.9 2.1-1.5 2.4-1 4-3.1 3.9-6.3z" fill="#9C297F" p-id="31003"></path><path d="M444.5 220.9c40.5 18.8 87.7 18.4 127.8-1.3 8.5-4.1 1.1-16.8-7.4-12.6-35.1 17.1-77.6 17.7-113.1 1.3-8.4-3.9-15.9 8.7-7.3 12.6zM360.8 581.4c74.5 29.5 158.8 34.1 236.9 18 21.9-4.5 43.5-10.9 64.3-19.1 3.7-1.5 6.2-4.9 5.1-9-0.9-3.5-5.3-6.6-9-5.1-72.5 28.6-154.4 35-230.8 19.6-21.4-4.3-42.4-10.5-62.7-18.5-3.7-1.5-8 1.6-9 5.1-1.1 4.1 1.5 7.5 5.2 9zM341.6 587c-14.2 67.1-32.4 133.1-48.3 199.7-5.1 21.4-9.9 42.8-14.4 64.3-1.9 9.2 12.2 13.1 14.1 3.9 14.2-67.1 32.4-133.1 48.3-199.7 5.1-21.4 9.9-42.8 14.4-64.3 1.9-9.2-12.2-13.1-14.1-3.9zM302.4 864.9c63.3 18 129.6 25.4 195.4 21.7 9.4-0.5 9.4-15.2 0-14.6-64.6 3.7-129.3-3.5-191.5-21.2-9.1-2.7-13 11.5-3.9 14.1zM667.3 590.9c14.2 67.1 32.4 133.1 48.3 199.7 5.1 21.4 9.9 42.8 14.4 64.3 1.9 9.2 16.1 5.3 14.1-3.9-14.1-67-32.3-133-48.2-199.6-5.1-21.4-9.9-42.8-14.4-64.3-2-9.3-16.1-5.4-14.2 3.8zM716.7 850.7c-62.2 17.7-126.9 24.8-191.5 21.2-9.4-0.5-9.4 14.1 0 14.6 65.8 3.7 132-3.7 195.4-21.7 9.1-2.5 5.2-16.7-3.9-14.1z" fill="#9C297F" p-id="31004"></path><path d="M527.9 860.6l-9-25.5c-1.3-3.6-4.4-5.1-7.4-5-3-0.1-6.2 1.4-7.4 5l-9 25.5c-3.1 8.9 11 12.7 14.1 3.9 0.8-2.1 1.5-4.3 2.3-6.4 0.8 2.1 1.5 4.3 2.3 6.4 3.1 8.8 17.2 5 14.1-3.9z" fill="#9C297F" p-id="31005"></path><path d="M495.8 663.5c-8.1 24.1-14.5 48.6-19.2 73.6-1.5 8.3 11.2 11.8 12.7 3.5 4.6-25 11-49.5 19.2-73.6 2.7-8-10-11.5-12.7-3.5zM521.3 666c8.1 24.1 14.5 48.6 19.2 73.6 1.5 8.3 14.2 4.8 12.7-3.5-4.6-25-11-49.5-19.2-73.6-2.7-8-15.4-4.5-12.7 3.5z" fill="#FFFFFF" p-id="31006"></path><path d="M586.6 639c-6.6-0.4-13.1-1.1-19.7-1.8 5.1-1.2 10.1-2.4 15.2-3.7 9.2-2.2 5.3-16.3-3.9-14.1-17.2 4.1-34.4 8.3-51.5 12.4-1.3-2.1-3-4-5.2-5.4-0.7-0.4-1.3-0.8-2-0.9-0.5-0.3-1-0.5-1.6-0.7-7.1-1.9-14.6 1.2-18.7 7.1-17.3-4.2-34.5-8.3-51.8-12.5-9.2-2.2-13.1 11.9-3.9 14.1 5.3 1.3 10.7 2.6 16 3.9-5.9 0.6-11.9 1.2-17.8 1.5-4 0.2-6.6 4.9-6 8.4 0.7 4.3 4.5 6.2 8.4 6 18.1-0.9 35.9-4.1 53.9-5.2 2 3.6 5.3 6.6 9.4 8.1 7.8 2.9 16.7-0.3 20.2-8.1 0-0.1 0.1-0.1 0.1-0.2 18.7 1.4 37.3 4.3 56 5.6 4 0.3 7.7-1.6 8.6-5.8 0.9-3.7-1.7-8.5-5.7-8.7z m-70.9 3.9c-0.8 1.3-2.4 1.3-3.8 0.7-4.2-1.8-1.5-7.3 2.6-6.2h0.1c0.1 0.1 0.2 0.2 0.3 0.2 1.5 1.1 1.7 3.8 0.8 5.3z" fill="#FFFFFF" p-id="31007"></path></svg>