<?xml version="1.0" standalone="no"?><!DOCTYPE svg PUBLIC "-//W3C//DTD SVG 1.1//EN" "http://www.w3.org/Graphics/SVG/1.1/DTD/svg11.dtd"><svg t="1626933997012" class="icon" viewBox="0 0 1024 1024" version="1.1" xmlns="http://www.w3.org/2000/svg" p-id="19488" xmlns:xlink="http://www.w3.org/1999/xlink" width="200" height="200"><defs><style type="text/css"></style></defs><path d="M901.31610231 355.75509919c-12.96149298-0.7069905-29.69360106-8.71954998-31.81457255-21.20971505-2.1209715-12.72582902 6.59857847-24.50900359 19.08874354-26.62997508 12.01883853-1.88530755 23.56635051 5.89158797 26.15864855 17.43909857 3.5349525-7.54123156 10.60485751-12.96149298 19.56007145-14.61113656 14.37547399-2.35663547 28.0439561 7.54123156 30.40059155 21.91670553 1.41398101 8.24822206-1.41398101 16.26078154-6.59857847 22.15236813 7.77689552 3.5349525 13.66848348 10.84052148 15.08246449 19.79573403 2.35663547 14.37547399-7.54123156 28.0439561-21.91670554 30.40059158-14.37547399 2.35663547-27.10130302-11.07618405-29.45793847-25.68732064 0 0-28.0439561 32.99288962-95.4437177 38.41314966 0 0.23566397 56.32357615-19.3244075 74.94099315-61.97950017z" fill="#FFFFFF" p-id="19489"></path><path d="M826.37510916 423.62618732c-2.59229804 0-4.9489335-1.88530755-5.42026005-4.47760697-0.47132654-2.82796201 0.94265446-5.65592402 3.77061647-6.59857709 0.47132654-0.23566397 48.07535409-16.96777203 68.34241468-52.31729709-13.66848348-3.06362596-26.86563906-12.2545025-28.7509466-24.98033151-1.17831705-7.54123156 0.47132654-15.31812707 4.9489335-21.44537901 4.47760697-6.36291451 11.07618405-10.36919355 18.85307958-11.5475106 11.07618405-1.88530755 22.1523695 3.06362596 28.27962005 12.01883852 4.71326955-4.71326955 10.84052148-7.77689552 17.4390986-8.95521395 17.43909857-2.82796201 33.93554407 8.95521257 36.99917001 26.62997648 1.17831705 7.54123156-0.23566397 15.08246449-4.00627904 21.44537762 6.59857847 4.9489335 11.07618405 12.2545025 12.49016507 20.50272455 1.41398101 8.48388603-0.7069905 16.96777203-5.65592402 24.03767704-4.9489335 7.06990501-12.49016507 11.54751198-20.97405107 12.96149298-14.61113657 2.35663547-27.3369656-7.77689552-33.22855357-20.73838849-12.2545025 10.36919355-41.47677562 29.69360106-92.3800931 33.69988149-0.47132654-0.23566397-0.47132654-0.23566397-0.70699051-0.23566397z m65.98578058-110.52618218c-0.94265446 0-1.88530755 0-2.82796199 0.23566396-4.71326955 0.7069905-8.71954998 3.29928854-11.31184803 7.06990502s-3.77061647 8.48388603-3.06362596 12.96149299c1.41398101 9.19087652 15.08246449 16.02511757 26.62997648 16.49644411 1.88530755 0 3.5349525 1.17831705 4.47760558 2.59229944 0.94265446 1.64964496 1.17831705 3.5349525 0.47132791 5.18459607-9.42654048 21.44537901-27.3369656 36.99917003-43.59774849 47.83969153 14.37547399-4.00627904 25.45165805-9.19087652 33.22855356-13.66848351 14.61113657-8.48388603 21.44537901-16.26078154 21.445379-16.26078152 1.41398101-1.64964496 3.77061647-2.35663547 5.89158798-1.64964496 2.1209715 0.7069905 3.77061647 2.35663547 4.00627905 4.47760696 1.88530755 11.31184801 11.78317456 22.85936001 23.09502258 20.9740511 5.42026005-0.94265446 10.36919355-3.77061647 13.66848348-8.48388603 3.29928854-4.47760697 4.47760697-10.13353098 3.53495252-15.55379103-1.17831705-6.83424105-5.65592402-12.72582902-11.78317458-15.55379103-1.64964496-0.7069905-2.82796201-2.35663547-3.06362596-4.00627905-0.47132654-1.64964496 0.23566397-3.5349525 1.41398101-4.94893352 4.24194301-4.71326955 6.12725056-11.07618405 5.18459748-17.43909856-1.88530755-11.31184801-12.49016507-19.08874354-24.03767706-17.203436-6.59857847 1.17831705-12.2545025 5.42026005-15.31812844 11.31184803-0.94265446 2.1209715-3.29928854 3.29928854-5.65592401 3.06362596-2.35663547-0.23566397-4.24194301-1.88530755-4.94893352-4.24194302-2.1209715-7.54123156-9.42654048-13.19715556-17.43909859-13.19715694z" fill="#222222" p-id="19490"></path><path d="M464.63163641 561.72499905m-275.9619595 0a275.96195952 275.96195952 0 1 0 551.923919 0 275.96195952 275.96195952 0 1 0-551.923919 0Z" fill="#FFFFFF" p-id="19491"></path><path d="M465.10296293 843.10721861c-111.70449922 0-217.75307444-66.92843367-261.5864855-176.74762534-57.73755715-143.99039831 12.49016507-308.24785861 156.48056477-366.22107973 143.99039831-57.73755715 308.24785861 12.49016507 366.22107972 156.4805634 57.73755715 143.99039831-12.49016507 308.24785861-156.48056477 366.22107972-34.4068706 13.90414608-69.99205964 20.26706059-104.63459422 20.26706195z m-0.70699048-551.68825504c-33.46421754 0-67.39976159 6.12725056-100.15698724 19.3244075-138.3344743 55.38092306-205.73423591 213.03980489-150.35331284 351.37427919 55.38092306 138.3344743 213.03980489 205.73423591 351.3742792 150.35331283 138.3344743-55.38092306 205.73423591-213.03980489 150.35331284-351.3742792-42.41943008-105.57724866-143.99039831-169.67772034-251.21729196-169.67772032z" fill="#222222" p-id="19492"></path><path d="M464.63163641 561.72499905m-240.61243444 0a240.61243443 240.61243443 0 1 0 481.22486888 0 240.61243443 240.61243443 0 1 0-481.22486888 0Z" fill="#FFF4C7" p-id="19493"></path><path d="M316.16363111 792.91089301c-19.3244075-24.98033151-33.93554407-53.02428761-36.29217953-83.18921658-0.47132654-26.62997509 14.13981003-45.48305605 27.10130301-67.87108813 16.26078154-33.22855357-0.23566397-64.80746218-14.13981002-95.4437177-2.82796201-9.66220306-7.54123156-22.85936001-0.7069905-35.34952506 20.7383885-28.7509466 104.87025817-63.86480909 93.55841014-111.70449921-8.48388603-36.29217952 0-92.38009172 36.52784212-109.11219981l-19.5600701 2.827962c-56.08791357 33.69988011-47.36836359 82.24656212-56.5592401 120.42404782-2.59229804 8.01255949-11.31184801 16.96777203-16.49644548 24.27334101-26.15864854 27.10130302-78.00461911 43.12642059-77.29762862 87.43115821 2.1209715 21.20971504 40.76978512 65.04312613 14.61113795 113.11848023-25.45165805 46.89703707-12.01883853 94.50106322 9.42653909 125.60864667" fill="#FF9060" p-id="19494"></path><path d="M316.16363111 798.56681703c-1.64964496 0-3.29928854-0.7069905-4.47760696-2.12097152-22.62369604-29.45793709-35.34952507-58.44454766-37.47049659-86.25284116v-0.23566397c-0.47132654-23.80201308 10.13353098-41.47677562 21.44537901-60.09419261l6.36291452-10.60485752c13.90414608-28.51528401 1.41398101-55.8522496-11.78317457-84.6031962-0.94265446-1.88530755-1.88530755-4.00627904-2.59229943-5.89158799 0-0.23566397-0.23566397-0.47132654-0.23566258-0.70699049l-0.47132792-1.88530754c-3.06362596-10.13353098-7.06990501-24.03767705 0.47132792-37.9418245 0-0.23566397 0.23566397-0.47132654 0.47132654-0.7069905 7.30556897-10.13353098 21.44537901-20.7383885 36.52784211-31.81457255 29.45793709-21.91670555 62.92215463-46.89703707 56.32357754-75.4123197-6.59857847-27.57262956-3.77061647-70.69905013 17.20343461-97.5646892-33.69988011 24.03767705-37.70616053 54.67393258-41.24111166 84.36753365-1.17831705 9.42654048-2.35663547 18.38175303-4.47760696 27.33696558v0.47132653c-2.1209715 6.83424105-7.54123156 13.66848348-12.49016507 19.79573404-1.64964496 2.1209715-3.29928854 4.24194301-4.71327092 6.12725193-0.23566397 0.23566397-0.23566397 0.47132654-0.47132656 0.70699051-8.48388603 8.71954998-19.56007008 16.49644549-30.16492759 23.80201308-23.56635051 16.49644549-45.9543826 31.81457257-45.48305605 59.38720212 0.7069905 5.18459746 4.00627904 12.49016507 7.77689551 20.97405109 10.36919355 23.09502258 26.39431251 58.20888508 6.12725056 95.20805511-30.16492759 55.38092306-0.7069905 105.57724866 9.19087651 119.71705731 1.88530755 2.59229804 1.17831705 6.12725056-1.413981 7.77689552-2.59229804 1.88530755-6.12725056 1.17831705-7.77689551-1.41398101-10.60485751-15.31812707-42.89075662-70.22772359-9.66220306-131.50023325 17.43909857-32.2858991 3.5349525-62.92215463-6.59857848-85.31018672-4.24194301-9.42654048-8.01255949-17.67476253-8.71954859-24.74466755v-0.47132654c-0.7069905-33.69988011 26.39431251-52.55296107 50.43198818-69.04940655 10.60485751-7.30556897 20.50272455-14.37547399 28.04395746-22.15236814 1.41398101-1.88530755 3.06362596-4.00627904 4.71326956-6.12725192 4.24194301-5.18459746 8.95521257-11.07618405 10.36919357-16.02511757 1.88530755-8.01255949 3.06362596-16.73210807 4.241943-25.92298459 4.24194301-32.99288962 8.95521257-70.46338618 54.90959653-98.03601712 0.7069905-0.47132654 1.41398101-0.7069905 2.12097149-0.7069905l19.5600701-2.827962c2.82796201-0.47132654 5.42026005 1.41398101 6.12725054 4.00628042 0.7069905 2.59229804-0.47132654 5.65592402-3.06362457 6.83424106-33.93554407 15.55379103-41.24111305 69.75639568-33.46421755 102.74928667 8.48388603 35.82085161-29.69360106 64.10047166-60.56551916 86.95983166-14.13981003 10.60485751-27.3369656 20.50272455-33.69988148 28.98661056-4.9489335 9.66220306-1.88530755 19.79573404 0.70699051 28.98661056l0.47132792 1.64964358c0.94265446 1.88530755 1.64964496 3.77061647 2.59229804 5.65592401 13.66848348 29.92926501 27.80829353 61.03684708 11.54751198 94.26540064 0 0 0 0.23566397-0.23566396 0.23566396-2.1209715 3.77061647-4.47760697 7.30556897-6.59857847 11.07618407-10.84052148 17.91042649-20.03139801 33.22855357-19.79573404 53.73127811 2.1209715 25.45165805 13.90414608 52.31729711 35.1138625 80.12559061 1.88530755 2.35663547 1.41398101 6.12725056-0.94265447 8.0125581-1.64964496 0.94265446-2.82796201 1.17831705-4.24194301 1.17831843z" fill="#222222" p-id="19495"></path><path d="M441.77227641 836.50864014s93.79407273-87.43115821 41.00544907-127.96528075c-63.86480909-49.25367113-4.47760697-89.55212972 30.63625553-116.65343273s51.61030659-80.83258112 11.31184801-102.27795873c-40.29845858-21.44537901-55.8522496-58.44454766-17.20343599-114.0611347 26.62997509-38.64881361 4.24194301-85.54585068 4.241943-85.54585067l-16.73210806-1.17831705s15.31812707 40.53412254-29.92926504 91.20177469c-45.24739209 50.43198957-23.09502258 92.61575568 17.20343601 114.06113331 40.29845858 21.44537901 24.27334099 63.39348117-10.60485752 90.73044813s-82.4822247 85.78151462-31.34324603 128.20094472-22.62369604 119.01006819-22.62369603 119.01006681 8.48388603 3.5349525 24.03767705 4.47760697z" fill="#FF9060" p-id="19496"></path><path d="M441.77227641 842.16456416h-0.47132654c-16.26078154-0.94265446-25.45165805-4.9489335-25.92298461-5.18459748-1.64964496-0.7069905-2.82796201-2.35663547-3.29928992-4.00627904-0.47132654-1.88530755 0.23566397-3.77061647 1.413981-4.94893352 0.47132654-0.47132654 41.24111305-43.12642059 39.12014155-80.12559062-0.7069905-12.2545025-5.89158797-22.38803207-16.02511758-30.63625412-16.49644549-13.66848348-24.74466755-30.16492759-24.50900497-48.78234461 0.47132654-33.22855357 29.22227452-67.39976159 55.85224961-88.37381267 21.20971504-16.49644549 33.69988011-37.47049658 32.05023652-54.20260602-0.94265446-11.07618405-8.01255949-20.26706059-20.73838849-26.86563906-24.74466755-13.19715556-40.53412254-32.2858991-44.30473763-53.73127811-4.00627904-22.1523695 4.9489335-45.9543826 25.45165806-69.04940518 42.41943008-47.36836359 28.98661055-85.07452414 28.75094658-85.3101867-0.7069905-1.88530755-0.47132654-3.77061647 0.70699051-5.42026145 1.17831705-1.64964496 3.06362596-2.35663547 4.94893351-2.35663407l16.73210945 1.17831705c2.1209715 0.23566397 3.77061647 1.41398101 4.71326955 3.29928853 0.94265446 2.1209715 23.56635051 50.43198957-4.71326955 91.20177468-17.67476253 25.45165805-24.27334099 47.83969013-19.79573405 66.69277109 3.77061647 15.789455 15.55379103 28.98661055 35.11386112 39.12014154 15.789455 8.24822206 24.74466755 21.68104158 26.39431252 38.64881361 2.1209715 24.74466755-12.72582902 53.96694207-36.76350608 72.82002166-1.88530755 1.41398101-4.00627904 3.06362596-5.89158798 4.71326955-22.62369604 17.43909857-50.66765214 39.12014154-50.66765214 63.15781858 0 13.19715556 8.71954998 26.62997509 26.15864856 40.06279463 11.54751198 8.95521257 17.67476253 20.26706059 18.14608907 34.17120802 2.1209715 45.24739209-56.55924012 100.15698723-58.91587557 102.5136227-0.7069905 0.94265446-2.1209715 1.41398101-3.5349525 1.41398101z m-13.90414608-13.19715557c3.06362596 0.7069905 7.06990501 1.41398101 11.78317457 1.64964358 9.66220306-9.42654048 55.38092306-56.08791357 53.49561553-91.90876518-0.47132654-10.60485751-4.9489335-18.85307957-13.90414745-25.68732063-20.26706059-15.55379103-30.40059155-32.05023652-30.40059156-49.01800856 0-29.69360106 30.63625552-53.25995157 55.14525909-72.11303114 2.1209715-1.64964496 4.00627904-3.06362596 5.89158799-4.47760697 20.97405109-16.26078154 34.4068706-42.18376612 32.52156305-62.92215462-1.17831705-13.19715556-8.01255949-23.09502258-20.26706057-29.69360106-22.38803207-11.78317456-36.05651557-27.57262956-40.7697865-46.42570913-5.42026005-21.91670555 1.88530755-47.36836359 21.445379-75.64798366 20.97405109-30.16492759 9.19087652-66.45710714 5.18459748-77.06196465l-5.65592402-0.47132653c2.35663547 15.08246449 2.35663547 49.01800855-32.99289099 88.84513921-18.617417 20.7383885-26.15864854 40.76978512-22.85935862 59.38720213 3.29928854 18.14608908 16.96777203 34.4068706 38.64881361 45.71871861 20.26706059 10.84052148 25.68732201 25.45165805 26.62997509 36.05651557 1.88530755 20.97405109-11.78317456 44.77606555-36.52784209 64.10047306s-51.13898005 50.1963256-51.61030662 79.65426269c-0.23566397 15.08246449 6.59857847 28.51528401 20.50272455 39.82713204 12.49016507 10.36919355 19.3244075 23.33068654 20.031398 38.64881361 1.88530755 32.75722702-24.03767705 67.16409763-36.29217954 81.53957163z" fill="#222222" p-id="19497"></path><path d="M623.94016319 786.07665057c-16.49644549-31.57890861 5.42026005-80.12559062 35.58518766-116.41776876 42.41943008-51.37464265 51.13898005-116.41776878 15.78945496-153.65260277-59.62286608-62.68649067-12.01883853-139.04146482-53.96694204-181.22523093l-22.62369607-13.90414745s26.15864854 8.95521257 18.38175305 71.17037806c-5.18459746 41.71243958-20.50272455 84.60319621 20.03139799 123.72333775 37.23483261 35.82085161 26.86563906 102.27795873-15.78945497 153.65260138-40.06279462 48.54668063-28.0439561 96.8576987-9.19087654 123.48767516" fill="#FF9060" p-id="19498"></path><path d="M612.15698723 798.56681703c-1.64964496 0-3.5349525-0.7069905-4.71326954-2.35663546-21.91670555-30.8719181-31.10758207-81.30390766 9.42654048-130.32191622 42.41943008-51.37464265 49.25367113-114.06113469 16.02511756-146.11136983-36.52784211-35.11386111-30.40059155-72.82002164-24.50900358-109.34786377 0.94265446-6.36291451 2.1209715-12.72582902 2.827962-19.08874354 3.77061647-29.69360106-0.7069905-45.9543826-5.18459748-54.43826859-2.35663547-4.47760697-4.9489335-7.30556897-6.83424104-8.95521396l-4.00628043-2.35663407c-2.35663547-1.41398101-3.29928854-4.71326955-2.12097151-7.30556898 1.17831705-2.59229804 4.24194301-3.77061647 6.83424244-2.827962 0.23566397 0 2.35663547 0.94265446 5.42026006 3.06362597l18.617417 11.31184803c0.47132654 0.23566397 0.7069905 0.47132654 0.94265308 0.70699049 20.7383885 20.7383885 21.20971504 48.78234459 21.91670554 78.47594565 0.7069905 34.64253457 1.17831705 70.46338618 32.28590048 102.98494925 36.52784211 38.41315104 30.16492759 106.0485752-15.31812846 161.19383433-41.94810354 50.66765214-45.01172812 90.96611072-34.87819714 110.2905182 1.41398101 2.82796201 0.47132654 6.12725056-2.35663546 7.54123157-2.82796201 1.41398101-6.12725056 0.47132654-7.54123157-2.35663409-8.48388603-16.02511757-8.48388603-36.99917003 0-60.80118312 7.06990501-20.03139801 19.79573404-41.94810354 36.29217817-61.74383758 41.71243958-50.43198957 48.54668063-111.94016319 16.02511894-146.11136982-33.93554407-35.58518903-34.64253457-75.41231969-35.34952506-110.52618219-0.47132654-26.62997509-0.94265446-49.96066164-15.55379104-67.16409764 3.5349525 11.54751198 5.18459746 27.80829353 2.35663409 50.66765215-0.7069905 6.59857847-1.88530755 13.19715556-2.82796201 19.56007145-5.65592402 35.11386111-11.07618405 68.34241467 21.20971504 99.44999674 37.47049658 36.05651557 30.8719181 105.57724866-15.31812706 161.42949829-36.52784211 44.06907505-28.51528401 89.08080318-8.95521256 116.41776875 1.88530755 2.59229804 1.17831705 6.12725056-1.413981 7.77689553-0.94265446 0.7069905-2.1209715 0.94265446-3.29928994 0.94265446z" fill="#222222" p-id="19499"></path><path d="M481.59940845 289.06232811c-2.82796201 0-5.18459746-2.1209715-5.65592402-4.94893352-0.23566397-1.64964496-4.9489335-38.88447758 12.72582903-57.03056664 1.41398101-1.41398101 3.06362596-2.82796201 4.71326954-4.00627905 6.12725056-17.20343599 21.44537901-34.64253457 44.30473901-42.18376751 3.06362596-0.94265446 6.12725056 0.7069905 7.06990501 3.5349525 0.94265446 3.06362596-0.7069905 6.12725056-3.5349525 7.06990501-15.31812707 4.9489335-26.39431251 15.08246449-32.99289099 26.15864855 2.82796201-0.23566397 5.89158797-0.23566397 8.95521393 0 12.49016507 1.17831705 21.44537901 7.77689552 24.74466755 17.9104265 3.29928854 10.36919355-0.47132654 22.38803207-8.71954997 29.45793711-7.54123156 6.12725056-16.96777203 7.06990501-26.3943125 2.35663546-8.95521257-4.47760697-14.37547399-12.72582902-15.78945363-22.85936001-5.18459746 12.96149298-4.47760697 30.8719181-3.5349525 37.9418245 0.47132654 3.06362596-1.88530755 5.89158797-4.9489335 6.3629145-0.47132654 0.23566397-0.7069905 0.23566397-0.94265446 0.2356626z m21.20971503-58.20888372c-0.47132654 2.1209715-0.94265446 4.00627904-0.94265446 5.8915866-0.47132654 5.65592402 0.23566397 15.789455 9.89786701 20.73838851 6.59857847 3.29928854 11.31184801 1.41398101 13.90414745-0.94265447 4.71326955-4.00627904 7.06990501-11.54751198 5.18459609-17.43909858-1.88530755-5.65592402-7.06990501-9.19087652-15.0824631-10.13353097-4.9489335-0.47132654-9.19087652 0.23566397-12.96149299 1.88530891z" fill="#222222" p-id="19500"></path><path d="M84.97773716 584.11303115s10.13353098 31.57890861 12.96149298 109.34786375c2.59229804 74.94099314 137.86314777 144.46172624 264.65011009 83.66054313 16.96777203-7.30556897 21.91670555-16.96777203 21.91670556-16.96777204l-7.3055676-19.56007008s-4.9489335-12.2545025-28.04395746-14.37547399c-39.35580413-3.77061647-214.92511243-6.36291451-228.122268-142.34075474" fill="#FFFFFF" p-id="19501"></path><path d="M261.96102645 806.10804859c-44.30473763 0-83.42487916-12.72582902-111.23317266-29.69360107-36.05651557-21.91670555-57.50189458-52.08163315-58.44454766-82.71788866-2.59229804-76.11931019-12.49016507-107.46255621-12.49016645-107.69822017-0.94265446-3.06362596 0.7069905-6.12725056 3.5349525-7.06990502 3.06362596-0.94265446 6.12725056 0.7069905 7.06990503 3.53495251 0.47132654 1.41398101 10.36919355 33.22855357 13.19715693 110.76184614 0.94265446 26.86563906 20.26706059 53.73127811 53.02428762 73.52701214 45.71871863 27.80829353 123.25201121 43.83341109 203.61326441 5.42026006 10.60485751-4.47760697 15.789455-9.89786702 18.14608906-12.72582903l-6.12725055-16.49644548c-0.47132654-0.94265446-4.9489335-9.19087652-23.33068654-10.84052012-2.82796201-0.23566397-6.36291451-0.47132654-10.36919494-0.94265446-52.08163315-3.77061647-210.21184288-15.55379103-222.70200795-146.58269774-0.23566397-3.06362596 1.88530755-5.89158797 5.18459748-6.12725055 3.06362596-0.23566397 5.89158797 1.88530755 6.12725054 5.18459747 4.9489335 51.61030659 35.34952507 89.31646714 90.02345764 111.94016179 45.48305605 18.85307957 95.44371769 22.38803207 122.54502071 24.50900496 4.24194301 0.23566397 7.77689552 0.47132654 10.60485752 0.94265309 25.92298459 2.35663547 32.05023652 16.26078154 32.75722564 17.9104265l7.30556898 19.56007007c0.47132654 1.41398101 0.47132654 3.06362596-0.23566396 4.47760698-0.7069905 1.17831705-6.36291451 11.78317456-24.74466755 19.79573404-36.29217952 16.49644549-71.17037669 23.33068654-103.4562758 23.33068655z" fill="#222222" p-id="19502"></path><path d="M109.95806866 634.30935675s22.62369604 33.93554407 34.87819715 46.19004655c29.22227452 28.98661055 119.71705869 68.34241467 190.88743538 72.58435768 0 0 22.62369604 14.13981003-19.79573402 25.45165805 0 0-78.71160962-8.71954998-138.33447433-48.07535409-33.22855357-22.1523695-54.43826861-60.56551916-67.63542418-96.15070819z" fill="#FFDE52" p-id="19503"></path><path d="M74.60854359 582.93471409s5.65592402 20.26706059-0.23566394 45.9543826c-5.18459746 23.33068654-18.14608908 41.24111305-23.33068656 72.34869372-13.90414608 82.71788866 116.18210619 155.5379103 238.96278947 131.9715612 12.72582902-2.35663547 38.17748707-12.01883853 50.43198957-21.91670556l-2.35663547-16.96777202s-4.9489335-9.66220306-24.27334101-12.2545025c-39.12014154-4.9489335-210.44750545-31.10758207-210.44750546-199.13565744" fill="#FFFFFF" p-id="19504"></path><path d="M242.87228292 843.10721861c-62.92215463 0-126.31563579-21.91670555-164.72878683-59.62286608-12.49016507-12.01883853-21.44537901-25.21599409-27.101303-38.88447758-5.89158797-14.61113657-7.77689552-29.69360106-5.18459748-44.54040157 3.06362596-18.14608908 8.71954998-32.2858991 13.90414745-44.77606555 3.77061647-9.42654048 7.30556897-18.14608908 9.42653911-27.80829214 5.42026005-24.03767705 0.23566397-43.12642059 0.23566395-43.12642059-0.7069905-3.06362596 0.94265446-6.12725056 4.00627905-6.83424243 3.06362596-0.94265446 6.12725056 0.94265446 6.83424244 4.00628044 0.23566397 0.94265446 5.89158797 21.91670555 0 48.54668062-2.35663547 10.60485751-6.12725056 19.79573404-10.13353098 29.45793712-5.18459746 12.49016507-10.36919355 25.45165805-13.19715557 42.41943007-5.42026005 32.05023652 12.96149298 57.73755715 29.22227314 73.52701214 45.9543826 44.77606555 129.37926176 66.22144318 203.14193785 52.08163452 11.07618405-2.1209715 32.99288962-10.36919355 45.24739209-18.85308097l-1.88530754-12.49016504c-1.41398101-1.64964496-6.36291451-6.83424105-19.56007146-8.48388602-46.42570913-5.89158797-88.60947664-19.3244075-122.07369278-39.12014153-61.97950016-36.52784211-93.32274619-92.38009172-93.32274617-165.67143993 0-3.06362596 2.59229804-5.65592402 5.655924-5.65592399s5.65592402 2.59229804 5.65592402 5.65592399c0 151.53163125 143.75473574 185.70283792 205.49857194 193.47973343 21.91670555 2.82796201 28.0439561 13.90414608 28.75094797 15.31812707 0.23566397 0.47132654 0.47132654 1.17831705 0.47132654 1.64964497l2.35663547 16.96777203c0.23566397 1.88530755-0.47132654 4.00627904-2.1209715 5.18459747-13.19715556 10.36919355-39.59146809 20.50272455-52.78862502 23.09502259-15.789455 3.06362596-32.05023652 4.47760697-48.31101669 4.47760696z" fill="#222222" p-id="19505"></path><path d="M183.48508081 764.15994503c-64.10047166-33.22855357-81.53957161-86.95983167-86.01717858-108.8765372-2.35663547 0.47132654-4.71326955 0.7069905-7.06990502 0.94265445-10.13353098 21.68104158-26.15864854 72.58435769 16.96777203 113.58980678 73.29134818 59.38720211 175.09798038 56.55924012 186.40982979 39.59146806 11.07618405-16.96777203-28.51528401-2.82796201-110.29051822-45.24739209z" fill="#FFDE52" p-id="19506"></path><path d="M245.70024494 798.33115307h-1.17831843c-71.64170461-14.61113657-107.69822018-52.31729711-109.34786376-53.73127812-2.1209715-2.35663547-2.1209715-5.89158797 0.23566395-8.01255946 2.35663547-2.1209715 5.89158797-2.1209715 8.01255811 0.23566396 0 0 8.95521257 9.19087652 25.92298597 20.031398 15.789455 9.89786702 41.94810354 23.33068654 77.29762725 30.40059156 3.06362596 0.7069905 4.9489335 3.5349525 4.47760695 6.59857709-0.47132654 2.82796201-2.82796201 4.47760697-5.42026004 4.47760697z" fill="#222222" p-id="19507"></path><path d="M62.58970508 551.82713204h71.87736717v31.10758205h-71.87736717z" fill="#FFFFFF" p-id="19508"></path><path d="M134.23140829 588.59063811h-71.87736717c-3.06362596 0-5.65592402-2.59229804-5.65592402-5.65592402v-31.10758205c0-3.06362596 2.59229804-5.65592402 5.65592402-5.65592401h71.87736717c3.06362596 0 5.65592402 2.59229804 5.65592402 5.65592401v31.10758205c0 3.06362596-2.59229804 5.65592402-5.65592402 5.65592402z m-65.9857792-11.31184801h60.56551914v-19.79573405h-60.56551914v19.79573405z" fill="#222222" p-id="19509"></path><path d="M694.16788539 837.68695719c91.90876518 0 166.61409438-74.70532918 166.61409575-166.61409437H527.55379103c0 91.90876518 74.70532918 166.61409438 166.61409436 166.61409437z" fill="#FFFFFF" p-id="19510"></path><path d="M694.16788539 843.34288118c-94.97239115 0-172.27001838-77.29762862-172.27001837-172.27001836 0-3.06362596 2.59229804-5.65592402 5.65592401-5.65592401H860.78198114c3.06362596 0 5.65592402 2.59229804 5.65592402 5.65592401 0 94.97239115-77.29762862 172.27001838-172.27001977 172.27001836zM533.20971504 676.72878683c3.06362596 86.25284116 73.99833869 155.30224635 160.95817035 155.30224634s157.89454576-69.28506914 160.95817175-155.30224634H533.20971504z" fill="#222222" p-id="19511"></path><path d="M694.16788539 802.33743211c72.58435769 0 131.2645693-58.68021163 131.2645707-131.26456929H562.90331611c0 72.3486951 58.68021163 131.2645693 131.26456928 131.26456929z" fill="#FFDE52" p-id="19512"></path><path d="M694.16788539 807.99335613c-75.41231969 0-136.9204933-61.50817362-136.9204933-136.92049331 0-3.06362596 2.59229804-5.65592402 5.65592402-5.65592401H825.43245609c3.06362596 0 5.65592402 2.59229804 5.655924 5.65592401 0 75.41231969-61.50817362 136.9204933-136.9204947 136.92049331zM568.55924012 676.72878683c3.06362596 66.69277109 58.20888508 119.95272128 125.60864527 119.95272128s122.54502071-53.25995157 125.60864668-119.95272128H568.55924012z" fill="#222222" p-id="19513"></path><path d="M651.04146482 716.3202549c-0.94265446 0-1.88530755-0.23566397-2.82796201-0.70699049-2.59229804-1.64964496-3.5349525-4.9489335-2.1209715-7.77689552l10.13353097-17.43909858c1.64964496-2.59229804 4.9489335-3.5349525 7.77689552-2.1209715 2.59229804 1.64964496 3.5349525 4.9489335 2.12097151 7.77689553l-10.133531 17.43909856c-1.17831705 1.64964496-3.06362596 2.82796201-4.94893349 2.827962zM600.60947664 717.96989987c-0.94265446 0-1.88530755-0.23566397-2.82796202-0.70699049-2.59229804-1.64964496-3.5349525-4.9489335-2.12097149-7.77689553l10.1335296-17.43909995c1.64964496-2.59229804 4.9489335-3.5349525 7.77689552-2.1209715 2.59229804 1.64964496 3.5349525 4.9489335 2.12097149 7.77689552l-10.13352961 17.43909995c-1.17831705 1.88530755-3.06362596 2.82796201-4.94893349 2.827962zM643.50023326 758.03269449c-0.94265446 0-1.88530755-0.23566397-2.82796201-0.7069905-2.59229804-1.64964496-3.5349525-4.9489335-2.1209715-7.77689551l10.13353098-17.43909859c1.64964496-2.59229804 4.9489335-3.5349525 7.77689551-2.12097149 2.59229804 1.64964496 3.5349525 4.9489335 2.12097151 7.77689551l-10.13353098 17.43909857c-1.17831705 1.88530755-3.06362596 2.82796201-4.94893351 2.82796201zM703.35876192 717.49857195c-0.94265446 0-1.88530755-0.23566397-2.82796201-0.70699049-2.59229804-1.64964496-3.5349525-4.9489335-2.1209715-7.77689553l10.13353098-17.43909857c1.64964496-2.59229804 4.9489335-3.5349525 7.77689551-2.1209715 2.59229804 1.64964496 3.5349525 4.9489335 2.12097151 7.7768955l-10.13353098 17.43909858c-1.17831705 1.88530755-3.06362596 2.82796201-4.94893351 2.82796201zM688.27629881 774.52913999c-0.94265446 0-1.88530755-0.23566397-2.82796201-0.70699052-2.59229804-1.64964496-3.5349525-4.9489335-2.1209715-7.77689551l10.1335296-17.43909994c1.64964496-2.59229804 4.9489335-3.5349525 7.77689551-2.12097151 2.59229804 1.64964496 3.5349525 4.9489335 2.12097151 7.77689551l-10.1335296 17.43909995c-1.17831705 1.88530755-3.06362596 2.82796201-4.94893351 2.82796202zM750.49146293 718.67689038c-0.94265446 0-1.88530755-0.23566397-2.827962-0.70699051-2.59229804-1.64964496-3.5349525-4.9489335-2.12097151-7.77689552l10.1335296-17.43909994c1.64964496-2.59229804 4.9489335-3.5349525 7.77689551-2.12097152 2.59229804 1.64964496 3.5349525 4.9489335 2.12097152 7.77689552l-10.1335296 17.43909995c-0.94265446 1.88530755-2.82796201 2.82796201-4.94893352 2.82796202z" fill="#222222" p-id="19514"></path><path d="M742.95023001 763.21729196c-0.94265446 0-1.88530755-0.23566397-2.82796202-0.7069905-2.59229804-1.64964496-3.5349525-4.9489335-2.1209715-7.77689553l10.13353098-17.43909995c1.64964496-2.59229804 4.9489335-3.5349525 7.77689552-2.12097149 2.59229804 1.64964496 3.5349525 4.9489335 2.1209715 7.77689552l-10.13353099 17.43909994c-0.94265446 1.64964496-2.82796201 2.82796201-4.94893349 2.82796201z" fill="#222222" p-id="19515"></path><path d="M785.1339975 741.77191295c-0.94265446 0-1.88530755-0.23566397-2.827962-0.7069905-2.59229804-1.64964496-3.5349525-4.9489335-2.12097151-7.77689552l10.13352959-17.43909857c1.64964496-2.59229804 4.9489335-3.5349525 7.77689552-2.12097151 2.59229804 1.64964496 3.5349525 4.9489335 2.12097152 7.77689552l-10.13352961 17.43909858c-0.94265446 1.64964496-2.82796201 2.82796201-4.94893351 2.827962z" fill="#222222" p-id="19516"></path><path d="M903.90840173 707.36504235c-0.7069905 0-1.41398101-0.23566397-2.12097149-0.47132793-10.13353098-4.00627904-12.96149298-12.2545025-12.96149299-16.49644411 0-3.06362596 2.59229804-5.65592402 5.65592401-5.65592401 3.06362596 0 5.65592402 2.35663547 5.65592401 5.42026005 0 0.47132654 0.47132654 4.00627904 5.89158798 6.12725056 2.82796201 1.17831705 4.24194301 4.47760697 3.06362457 7.30556897-0.7069905 2.35663547-2.82796201 3.77061647-5.18459609 3.77061647z m-3.5349525-16.96777204z" fill="#222222" p-id="19517"></path><path d="M937.60828185 738.00129649c-17.20343599-26.62997509-57.26623061-12.01883853-57.26623062-12.01883853s-40.06279462-14.61113657-57.26623061 12.01883853 0 99.44999674 57.26623061 99.44999811 74.4696666-72.58435769 57.26623062-99.44999811z" fill="#FF9060" p-id="19518"></path><path d="M880.34205123 843.34288118c-24.98033151 0-45.71871863-12.72582902-58.20888509-36.05651555-13.19715556-24.03767705-14.84680053-55.14525911-3.77061507-72.34869374 8.24822206-12.72582902 21.91670555-19.08874354 40.06279462-18.61741699 9.89786702 0.23566397 18.38175303 2.59229804 22.1523695 3.77061646 3.77061647-1.17831705 12.2545025-3.29928854 22.15236813-3.77061646 17.91042649-0.47132654 31.81457257 5.89158797 40.06279599 18.61741699 11.07618405 17.20343599 9.42654048 48.07535409-3.77061647 72.34869374-12.96149298 23.09502258-33.69988011 36.05651557-58.68021161 36.05651555z m-23.80201309-115.71077825c-10.36919355 0-21.91670555 2.82796201-28.75094799 13.43281952-8.71954998 13.43281952-6.83424105 40.76978512 4.24194302 60.80118312 6.12725056 11.31184801 20.50272455 30.16492759 48.31101806 30.1649276s42.18376612-18.85307957 48.31101806-30.1649276c10.84052148-20.03139801 12.72582902-47.36836359 4.24194301-60.80118312-14.61113657-22.62369604-50.1963256-9.89786702-50.66765353-9.89786702-1.17831705 0.47132654-2.59229804 0.47132654-3.77061508 0-0.23566397 0-10.13353098-3.5349525-21.91670555-3.5349525z" fill="#222222" p-id="19519"></path><path d="M876.57143477 752.61243443h-0.23566259c-3.06362596-0.23566397-5.42026005-2.82796201-5.42026143-5.89158796 2.1209715-44.54040159 20.50272455-52.78862365 22.62369604-53.49561415 2.82796201-1.17831705 6.12725056 0.47132654 7.30556898 3.29928854s-0.23566397 6.12725056-3.06362597 7.30556899c-0.47132654 0.23566397-13.66848348 7.30556897-15.55379103 43.59774711 0 2.82796201-2.59229804 5.18459746-5.655924 5.18459747z" fill="#222222" p-id="19520"></path><path d="M877.27842526 755.67605902c-13.43281952 0-19.08874354-7.54123156-19.32440611-8.01255809-1.88530755-2.59229804-1.17831705-6.12725056 1.413981-7.77689552 2.59229804-1.88530755 5.89158797-1.17831705 7.77689551 1.17831704 0.47132654 0.47132654 5.89158797 6.59857847 21.91670556 1.17831705 3.06362596-0.94265446 6.12725056 0.47132654 7.069905 3.5349525 0.94265446 3.06362596-0.47132654 6.12725056-3.53495251 7.06990501-5.89158797 2.1209715-11.07618405 2.82796201-15.31812845 2.82796201z" fill="#222222" p-id="19521"></path></svg>