<?xml version="1.0" standalone="no"?><!DOCTYPE svg PUBLIC "-//W3C//DTD SVG 1.1//EN" "http://www.w3.org/Graphics/SVG/1.1/DTD/svg11.dtd"><svg t="1626934023158" class="icon" viewBox="0 0 1024 1024" version="1.1" xmlns="http://www.w3.org/2000/svg" p-id="22665" xmlns:xlink="http://www.w3.org/1999/xlink" width="200" height="200"><defs><style type="text/css"></style></defs><path d="M514.654815 315.657481l3.602963-1.403259a28.444444 28.444444 0 0 1 34.322963 14.829037l1.403259 3.602963 193.687704 606.814815a28.444444 28.444444 0 0 1-52.754963 20.859259l-1.40326-3.565037L512 388.171852 330.486519 956.795259a28.444444 28.444444 0 0 1-31.971556 19.342222l-3.792593-0.910222a28.444444 28.444444 0 0 1-19.342222-31.971555l0.948148-3.792593 193.687704-606.814815a28.444444 28.444444 0 0 1 42.021926-15.549629l2.616889-1.441186 3.602963-1.403259-3.602963 1.403259z" fill="#2CB18D" p-id="22666"></path><path d="M483.555556 379.259259v606.814815a28.444444 28.444444 0 1 0 56.888888 0V379.259259a28.444444 28.444444 0 1 0-56.888888 0z" fill="#2CB18D" p-id="22667"></path><path d="M512 265.481481m-151.703704 0a151.703704 151.703704 0 1 0 303.407408 0 151.703704 151.703704 0 1 0-303.407408 0Z" fill="#FFFFFF" p-id="22668"></path><path d="M512 369.777778a104.296296 104.296296 0 1 0 0-208.592593 104.296296 104.296296 0 0 0 0 208.592593z m0-56.888889a47.407407 47.407407 0 1 1 0-94.814815 47.407407 47.407407 0 0 1 0 94.814815z" fill="#4D84DB" p-id="22669"></path><path d="M336.782222 813.056a18.962963 18.962963 0 0 0 5.347556 35.119407l357.944889 75.851852a18.962963 18.962963 0 1 0 7.850666-37.091555L399.36 821.551407l235.671704-131.830518a18.962963 18.962963 0 0 0 2.730666-31.213037l-182.499555-149.352296a18.962963 18.962963 0 0 0-24.007111 29.354666l160.957629 131.716741-255.393185 142.829037zM324.266667 24.120889a37.925926 37.925926 0 0 1 0 53.627259 265.481481 265.481481 0 0 0 0 375.466667 37.925926 37.925926 0 0 1-53.62726 53.627259 341.333333 341.333333 0 0 1 0-482.721185 37.925926 37.925926 0 0 1 53.62726 0z m429.093926 0a341.333333 341.333333 0 0 1 0 482.721185 37.925926 37.925926 0 0 1-53.62726-53.627259 265.481481 265.481481 0 0 0 0-375.466667 37.925926 37.925926 0 0 1 53.62726-53.627259z" fill="#2CB18D" p-id="22670"></path><path d="M398.032593 111.274667a28.444444 28.444444 0 0 1 0 40.201481 161.185185 161.185185 0 0 0 0 227.972741 28.444444 28.444444 0 1 1-40.201482 40.201481 218.074074 218.074074 0 0 1 0-308.337777 28.444444 28.444444 0 0 1 40.201482 0z m268.136296 0a218.074074 218.074074 0 0 1 0 308.413629 28.444444 28.444444 0 1 1-40.201482-40.201481 161.185185 161.185185 0 0 0 0-227.972741 28.444444 28.444444 0 1 1 40.201482-40.201481z" fill="#2CB18D" p-id="22671"></path></svg>