<?xml version="1.0" standalone="no"?><!DOCTYPE svg PUBLIC "-//W3C//DTD SVG 1.1//EN" "http://www.w3.org/Graphics/SVG/1.1/DTD/svg11.dtd"><svg t="1626934256755" class="icon" viewBox="0 0 1024 1024" version="1.1" xmlns="http://www.w3.org/2000/svg" p-id="34440" xmlns:xlink="http://www.w3.org/1999/xlink" width="200" height="200"><defs><style type="text/css"></style></defs><path d="M596.9 414.7c-122.4-122.4-226.2-217.2-348.8-94.6-42.1 42.1-75.8 99.2-96.8 161 22.6 4.1 39.7 23.9 39.7 47.7 0 26.8-21.7 48.5-48.5 48.5-4.4 0-8.7-0.6-12.8-1.7 0 0.4-0.1 0.7-0.1 1.1-1.8 16-2.7 31.9-2.6 47.6 0.4 72.7 21.7 141.3 70.4 190 122.4 122.4 371.5 71.9 494.1-50.7s27.9-226.5-94.6-348.9zM734 257.8s28.4-65.2 34.4-102.6c0 0 69.6 27.7 128.7 35.9 0 0-77.9 98.7-113.4 120-35.6 21.4-49.7-53.3-49.7-53.3z" fill="#FFDA00" p-id="34441"></path><path d="M814.2 735.3c-60.6 60.6-189.7 69.9-205.1-32.1-18.4-121.1-110.4-75.4-168.4-132.4-62.8-61.7-11.6-139.8-132.2-168.2-100.5-23.7-89.1-148.4-32.2-205.3 92-92 319.4-78.6 468 70s156.7 381.2 69.9 468z" fill="#FF7F00" p-id="34442"></path><path d="M915.8 206c5.3-6.8 6.6-15.8 3.4-23.8-3.2-8-10.4-13.6-19-14.8-55.4-7.7-122.5-34.2-123.1-34.4-6.8-2.7-14.4-2.2-20.7 1.4-6.3 3.6-10.7 9.9-11.8 17.1-2.2 14.1-8.5 33.9-15.2 52.4-1.7 4.6-3.3 9.1-5 13.4-28.4-22.9-59.4-42.4-92.7-58.2-45-21.3-92-35.1-139.8-40.8-45.9-5.5-91-3.1-130.5 7-41.3 10.6-76.6 29.6-102.1 55.1-19.6 19.6-35 46.5-43.3 75.6-6.8 23.8-8.6 47.4-5.4 69.5-34.5 40.9-63.1 92.3-82 147.8-2.2 6.6-1.5 13.9 2 19.9 3.5 6 9.5 10.2 16.4 11.4 11.6 2.1 20 12.2 20 24.1 0 13.5-11 24.5-24.5 24.5-2.2 0-4.3-0.3-6.5-0.9-6.8-1.8-13.9-0.6-19.7 3.3-5.8 3.9-9.6 10.2-10.4 17.1l-0.1 1.2c-1.9 17-2.9 34-2.8 50.4 0.4 85.1 27.2 156.6 77.4 206.8 32.5 32.5 73.8 55.1 122.8 67.3 27.2 6.8 55.9 10.1 85.9 10.1 19 0 38.6-1.4 58.5-4.1 87.1-11.9 172.9-49.1 235.9-101.4 6.6 0.9 13.4 1.3 20.3 1.3 15.3 0 31.2-2.2 46.9-6.5 15.5-4.2 30.3-10.4 44-18.2 13.6-7.8 26-17.1 36.5-27.6 48.4-48.4 70.9-134.5 60.1-230.4-5.4-48.4-18.7-95.8-39.5-140.9-10.4-22.5-22.4-44-36.1-64.2 39.6-34.3 93.2-101.7 100.1-110.5zM441.1 857c-16.3 2.2-32.5 3.4-48.3 3.5 20.2-13.2 41.9-31.5 63.5-56.7 8.6-10.1 7.4-25.2-2.6-33.8-10.1-8.6-25.2-7.4-33.8 2.6-32.5 38-64.5 56.3-85.6 64.9-17.9 7.3-31.2 9.1-36.2 9.6-33.1-10.7-61.1-27.4-83.6-49.9-51.9-51.9-63.1-122.8-63.3-173.1 0-7.7 0.2-15.5 0.6-23.4 35.7-4.5 63.4-35 63.4-71.9 0-25.3-13-48-33.3-61 13-32.6 29.5-63 48.6-89.6 16.2 23.9 41.1 40.4 72.6 47.9 17.7 4.2 42.9 11.8 57.4 29.7 9.8 12.1 13.9 27.7 18.8 45.7 7 25.8 15.6 58 44.8 86.6 26.3 25.8 57.3 33.9 84.6 41.1 20 5.2 37.2 9.7 50 20 8.8 7.1 21.2 20.7 26.8 57.8 5.1 33.3 20.8 59.6 45.1 76.5-53.5 37.6-120.9 64.1-189.5 73.5z m402.5-329.9c9 80.4-8.8 153.6-46.4 191.2-16.9 16.9-40.4 29.1-64.4 34.7-9.8 2.3-19.7 3.5-29.2 3.5-10.2 0-20-1.4-28.8-4.3-1.5-0.5-3-1.1-4.5-1.6-21.1-8.5-33.7-25.6-37.5-51-13.8-91.3-68.3-105.6-112.1-117-23.6-6.2-46-12-63.2-28.9-19.8-19.5-25.8-41.5-32-64.8-5.7-21.3-11.7-43.3-27.8-63.3-18-22.4-44.6-37.1-83.7-46.3-25-5.9-42-19.5-50.6-40.6-1.1-2.6-2-5.4-2.8-8.2-4.6-16.1-4.5-34.7-0.6-52.9 5.1-23.7 16.8-46.8 33.2-63.3 32.9-32.9 87.5-50.9 150.8-50.9 13.7 0 27.8 0.8 42.2 2.6 42 5 85.2 17.7 124.9 36.5 37 17.5 70.9 40.2 100.9 67.3 5.2 4.7 10.3 9.5 15.2 14.5 16.8 16.8 32 35.1 45.6 54.6 13.5 19.4 25.3 40.2 35.4 62 18.5 39.9 30.7 83.6 35.4 126.2z m-56.7-248.8c-7.7-9.2-15.9-18.1-24.4-26.7 6.4-15.8 16.1-41.1 22.9-64.6 17.4 6 41.8 13.8 67.6 20-21.8 25.9-47.4 54.4-66.1 71.3z" fill="#301207" p-id="34443"></path><path d="M513.9 214.3c-56-7.9-112.5-1.9-167.9 17.6-12.5 4.4-19 18.1-14.6 30.6 3.5 9.8 12.7 16 22.6 16 2.7 0 5.4-0.4 8-1.4 48-17 96.9-22.2 145.2-15.4 13.1 1.9 25.3-7.3 27.1-20.4 1.9-13-7.3-25.1-20.4-27zM621 249.1c-1.4-0.8-13.9-8.4-35.7-16.6-12.4-4.7-26.2 1.6-30.9 14-4.7 12.4 1.6 26.2 14 30.9 17.3 6.6 27.3 12.5 27.7 12.7 3.9 2.4 8.2 3.5 12.5 3.5 8.1 0 15.9-4.1 20.5-11.4 6.7-11.4 3.2-26.2-8.1-33.1z" fill="#301207" p-id="34444"></path></svg>